G04 #@! TF.FileFunction,Soldermask,Top*
%FSLAX46Y46*%
G04 Gerber Fmt 4.6, Leading zero omitted, Abs format (unit mm)*
G04 Created by KiCad (PCBNEW 4.0.7) date Sat Oct  7 11:25:55 2017*
%MOMM*%
%LPD*%
G01*
G04 APERTURE LIST*
%ADD10C,0.100000*%
%ADD11C,6.400000*%
%ADD12R,2.500000X2.400000*%
%ADD13C,1.400000*%
%ADD14R,2.635200X2.635200*%
%ADD15R,2.000000X2.400000*%
%ADD16C,2.398980*%
%ADD17R,2.398980X2.398980*%
%ADD18R,3.900120X3.900120*%
%ADD19R,2.127200X2.432000*%
%ADD20O,2.127200X2.432000*%
%ADD21R,3.100000X4.000000*%
%ADD22R,2.127200X2.127200*%
%ADD23O,2.127200X2.127200*%
%ADD24R,2.432000X2.432000*%
%ADD25O,2.432000X2.432000*%
%ADD26C,2.100000*%
%ADD27C,1.924000*%
%ADD28R,1.924000X1.924000*%
%ADD29C,4.464000*%
%ADD30C,0.900000*%
%ADD31C,0.254000*%
G04 APERTURE END LIST*
D10*
D11*
X45200000Y-109200000D03*
D12*
X39100000Y-110400000D03*
X51300000Y-108000000D03*
D13*
X43700000Y-107700000D03*
X44700000Y-107700000D03*
X45700000Y-107700000D03*
X46700000Y-107700000D03*
X43700000Y-108700000D03*
X44700000Y-108700000D03*
X45700000Y-108700000D03*
X46700000Y-108700000D03*
X43700000Y-109700000D03*
X44700000Y-109700000D03*
X45700000Y-109700000D03*
X46700000Y-109700000D03*
X43700000Y-110700000D03*
X44700000Y-110700000D03*
X45700000Y-110700000D03*
X46700000Y-110700000D03*
D14*
X33400000Y-39800000D03*
X33500000Y-81500000D03*
D15*
X39950000Y-76450000D03*
X39950000Y-80450000D03*
X74950000Y-76050000D03*
X74950000Y-80050000D03*
X57200000Y-75900000D03*
X57200000Y-79900000D03*
X91500000Y-75500000D03*
X91500000Y-79500000D03*
X109500000Y-75500000D03*
X109500000Y-79500000D03*
D16*
X125660000Y-50502540D03*
D17*
X115500000Y-50502540D03*
D14*
X33500000Y-120500000D03*
X33500000Y-114000000D03*
X33500000Y-107500000D03*
X33500000Y-101000000D03*
X33500000Y-94500000D03*
X33400000Y-45200000D03*
X33500000Y-88000000D03*
D18*
X40200140Y-54500000D03*
X34200660Y-54500000D03*
X37200400Y-59199000D03*
D19*
X99000000Y-67000000D03*
D20*
X96460000Y-67000000D03*
X93920000Y-67000000D03*
X91380000Y-67000000D03*
X88840000Y-67000000D03*
X86300000Y-67000000D03*
X83760000Y-67000000D03*
X81220000Y-67000000D03*
X78680000Y-67000000D03*
X76140000Y-67000000D03*
X73600000Y-67000000D03*
X71060000Y-67000000D03*
D21*
X43800000Y-78450000D03*
X52100000Y-78450000D03*
X78800000Y-78550000D03*
X87100000Y-78550000D03*
X61050000Y-78400000D03*
X69350000Y-78400000D03*
X95350000Y-78000000D03*
X103650000Y-78000000D03*
X113350000Y-77750000D03*
X121650000Y-77750000D03*
D22*
X111500000Y-33000000D03*
D23*
X111500000Y-35540000D03*
X114040000Y-33000000D03*
X114040000Y-35540000D03*
X116580000Y-33000000D03*
X116580000Y-35540000D03*
X119120000Y-33000000D03*
X119120000Y-35540000D03*
X121660000Y-33000000D03*
X121660000Y-35540000D03*
D24*
X122500000Y-44500000D03*
D25*
X125040000Y-44500000D03*
D14*
X40000000Y-67000000D03*
X45000000Y-67000000D03*
X50000000Y-67000000D03*
X55000000Y-67000000D03*
X60000000Y-67000000D03*
D26*
X57000000Y-38000000D03*
X51000000Y-38000000D03*
X57000000Y-34000000D03*
X51000000Y-34000000D03*
X57000000Y-48000000D03*
X51000000Y-48000000D03*
X57000000Y-44000000D03*
X51000000Y-44000000D03*
X107000000Y-38000000D03*
X101000000Y-38000000D03*
X107000000Y-34000000D03*
X101000000Y-34000000D03*
X107000000Y-48000000D03*
X101000000Y-48000000D03*
X107000000Y-44000000D03*
X101000000Y-44000000D03*
X75000000Y-38000000D03*
X69000000Y-38000000D03*
X75000000Y-34000000D03*
X69000000Y-34000000D03*
X89000000Y-38000000D03*
X83000000Y-38000000D03*
X89000000Y-34000000D03*
X83000000Y-34000000D03*
X37750000Y-32750000D03*
X37750000Y-48750000D03*
X47250000Y-32750000D03*
X47250000Y-48750000D03*
D27*
X77730000Y-43920000D03*
X75190000Y-43920000D03*
X72650000Y-43920000D03*
X80270000Y-43920000D03*
X82810000Y-43920000D03*
X85350000Y-43920000D03*
D28*
X72650000Y-51540000D03*
D27*
X75190000Y-51540000D03*
X77730000Y-51540000D03*
X80270000Y-51540000D03*
X82810000Y-51540000D03*
X85350000Y-51540000D03*
D11*
X115250000Y-125000000D03*
D12*
X109150000Y-126200000D03*
X121350000Y-123800000D03*
D13*
X113750000Y-123500000D03*
X114750000Y-123500000D03*
X115750000Y-123500000D03*
X116750000Y-123500000D03*
X113750000Y-124500000D03*
X114750000Y-124500000D03*
X115750000Y-124500000D03*
X116750000Y-124500000D03*
X113750000Y-125500000D03*
X114750000Y-125500000D03*
X115750000Y-125500000D03*
X116750000Y-125500000D03*
X113750000Y-126500000D03*
X114750000Y-126500000D03*
X115750000Y-126500000D03*
X116750000Y-126500000D03*
D11*
X115250000Y-116500000D03*
D12*
X121350000Y-115300000D03*
X109150000Y-117700000D03*
D13*
X116750000Y-118000000D03*
X115750000Y-118000000D03*
X114750000Y-118000000D03*
X113750000Y-118000000D03*
X116750000Y-117000000D03*
X115750000Y-117000000D03*
X114750000Y-117000000D03*
X113750000Y-117000000D03*
X116750000Y-116000000D03*
X115750000Y-116000000D03*
X114750000Y-116000000D03*
X113750000Y-116000000D03*
X116750000Y-115000000D03*
X115750000Y-115000000D03*
X114750000Y-115000000D03*
X113750000Y-115000000D03*
D11*
X115250000Y-108500000D03*
D12*
X109150000Y-109700000D03*
X121350000Y-107300000D03*
D13*
X113750000Y-107000000D03*
X114750000Y-107000000D03*
X115750000Y-107000000D03*
X116750000Y-107000000D03*
X113750000Y-108000000D03*
X114750000Y-108000000D03*
X115750000Y-108000000D03*
X116750000Y-108000000D03*
X113750000Y-109000000D03*
X114750000Y-109000000D03*
X115750000Y-109000000D03*
X116750000Y-109000000D03*
X113750000Y-110000000D03*
X114750000Y-110000000D03*
X115750000Y-110000000D03*
X116750000Y-110000000D03*
D11*
X115250000Y-100500000D03*
D12*
X121350000Y-99300000D03*
X109150000Y-101700000D03*
D13*
X116750000Y-102000000D03*
X115750000Y-102000000D03*
X114750000Y-102000000D03*
X113750000Y-102000000D03*
X116750000Y-101000000D03*
X115750000Y-101000000D03*
X114750000Y-101000000D03*
X113750000Y-101000000D03*
X116750000Y-100000000D03*
X115750000Y-100000000D03*
X114750000Y-100000000D03*
X113750000Y-100000000D03*
X116750000Y-99000000D03*
X115750000Y-99000000D03*
X114750000Y-99000000D03*
X113750000Y-99000000D03*
D11*
X115250000Y-92500000D03*
D12*
X109150000Y-93700000D03*
X121350000Y-91300000D03*
D13*
X113750000Y-91000000D03*
X114750000Y-91000000D03*
X115750000Y-91000000D03*
X116750000Y-91000000D03*
X113750000Y-92000000D03*
X114750000Y-92000000D03*
X115750000Y-92000000D03*
X116750000Y-92000000D03*
X113750000Y-93000000D03*
X114750000Y-93000000D03*
X115750000Y-93000000D03*
X116750000Y-93000000D03*
X113750000Y-94000000D03*
X114750000Y-94000000D03*
X115750000Y-94000000D03*
X116750000Y-94000000D03*
D11*
X98250000Y-125000000D03*
D12*
X92150000Y-126200000D03*
X104350000Y-123800000D03*
D13*
X96750000Y-123500000D03*
X97750000Y-123500000D03*
X98750000Y-123500000D03*
X99750000Y-123500000D03*
X96750000Y-124500000D03*
X97750000Y-124500000D03*
X98750000Y-124500000D03*
X99750000Y-124500000D03*
X96750000Y-125500000D03*
X97750000Y-125500000D03*
X98750000Y-125500000D03*
X99750000Y-125500000D03*
X96750000Y-126500000D03*
X97750000Y-126500000D03*
X98750000Y-126500000D03*
X99750000Y-126500000D03*
D11*
X98250000Y-116500000D03*
D12*
X104350000Y-115300000D03*
X92150000Y-117700000D03*
D13*
X99750000Y-118000000D03*
X98750000Y-118000000D03*
X97750000Y-118000000D03*
X96750000Y-118000000D03*
X99750000Y-117000000D03*
X98750000Y-117000000D03*
X97750000Y-117000000D03*
X96750000Y-117000000D03*
X99750000Y-116000000D03*
X98750000Y-116000000D03*
X97750000Y-116000000D03*
X96750000Y-116000000D03*
X99750000Y-115000000D03*
X98750000Y-115000000D03*
X97750000Y-115000000D03*
X96750000Y-115000000D03*
D11*
X98250000Y-108500000D03*
D12*
X92150000Y-109700000D03*
X104350000Y-107300000D03*
D13*
X96750000Y-107000000D03*
X97750000Y-107000000D03*
X98750000Y-107000000D03*
X99750000Y-107000000D03*
X96750000Y-108000000D03*
X97750000Y-108000000D03*
X98750000Y-108000000D03*
X99750000Y-108000000D03*
X96750000Y-109000000D03*
X97750000Y-109000000D03*
X98750000Y-109000000D03*
X99750000Y-109000000D03*
X96750000Y-110000000D03*
X97750000Y-110000000D03*
X98750000Y-110000000D03*
X99750000Y-110000000D03*
D11*
X98250000Y-100500000D03*
D12*
X104350000Y-99300000D03*
X92150000Y-101700000D03*
D13*
X99750000Y-102000000D03*
X98750000Y-102000000D03*
X97750000Y-102000000D03*
X96750000Y-102000000D03*
X99750000Y-101000000D03*
X98750000Y-101000000D03*
X97750000Y-101000000D03*
X96750000Y-101000000D03*
X99750000Y-100000000D03*
X98750000Y-100000000D03*
X97750000Y-100000000D03*
X96750000Y-100000000D03*
X99750000Y-99000000D03*
X98750000Y-99000000D03*
X97750000Y-99000000D03*
X96750000Y-99000000D03*
D11*
X98000000Y-92500000D03*
D12*
X91900000Y-93700000D03*
X104100000Y-91300000D03*
D13*
X96500000Y-91000000D03*
X97500000Y-91000000D03*
X98500000Y-91000000D03*
X99500000Y-91000000D03*
X96500000Y-92000000D03*
X97500000Y-92000000D03*
X98500000Y-92000000D03*
X99500000Y-92000000D03*
X96500000Y-93000000D03*
X97500000Y-93000000D03*
X98500000Y-93000000D03*
X99500000Y-93000000D03*
X96500000Y-94000000D03*
X97500000Y-94000000D03*
X98500000Y-94000000D03*
X99500000Y-94000000D03*
D11*
X63200000Y-125400000D03*
D12*
X57100000Y-126600000D03*
X69300000Y-124200000D03*
D13*
X61700000Y-123900000D03*
X62700000Y-123900000D03*
X63700000Y-123900000D03*
X64700000Y-123900000D03*
X61700000Y-124900000D03*
X62700000Y-124900000D03*
X63700000Y-124900000D03*
X64700000Y-124900000D03*
X61700000Y-125900000D03*
X62700000Y-125900000D03*
X63700000Y-125900000D03*
X64700000Y-125900000D03*
X61700000Y-126900000D03*
X62700000Y-126900000D03*
X63700000Y-126900000D03*
X64700000Y-126900000D03*
D11*
X63200000Y-116900000D03*
D12*
X69300000Y-115700000D03*
X57100000Y-118100000D03*
D13*
X64700000Y-118400000D03*
X63700000Y-118400000D03*
X62700000Y-118400000D03*
X61700000Y-118400000D03*
X64700000Y-117400000D03*
X63700000Y-117400000D03*
X62700000Y-117400000D03*
X61700000Y-117400000D03*
X64700000Y-116400000D03*
X63700000Y-116400000D03*
X62700000Y-116400000D03*
X61700000Y-116400000D03*
X64700000Y-115400000D03*
X63700000Y-115400000D03*
X62700000Y-115400000D03*
X61700000Y-115400000D03*
D11*
X63200000Y-108900000D03*
D12*
X57100000Y-110100000D03*
X69300000Y-107700000D03*
D13*
X61700000Y-107400000D03*
X62700000Y-107400000D03*
X63700000Y-107400000D03*
X64700000Y-107400000D03*
X61700000Y-108400000D03*
X62700000Y-108400000D03*
X63700000Y-108400000D03*
X64700000Y-108400000D03*
X61700000Y-109400000D03*
X62700000Y-109400000D03*
X63700000Y-109400000D03*
X64700000Y-109400000D03*
X61700000Y-110400000D03*
X62700000Y-110400000D03*
X63700000Y-110400000D03*
X64700000Y-110400000D03*
D11*
X63200000Y-100900000D03*
D12*
X69300000Y-99700000D03*
X57100000Y-102100000D03*
D13*
X64700000Y-102400000D03*
X63700000Y-102400000D03*
X62700000Y-102400000D03*
X61700000Y-102400000D03*
X64700000Y-101400000D03*
X63700000Y-101400000D03*
X62700000Y-101400000D03*
X61700000Y-101400000D03*
X64700000Y-100400000D03*
X63700000Y-100400000D03*
X62700000Y-100400000D03*
X61700000Y-100400000D03*
X64700000Y-99400000D03*
X63700000Y-99400000D03*
X62700000Y-99400000D03*
X61700000Y-99400000D03*
D11*
X63200000Y-92900000D03*
D12*
X57100000Y-94100000D03*
X69300000Y-91700000D03*
D13*
X61700000Y-91400000D03*
X62700000Y-91400000D03*
X63700000Y-91400000D03*
X64700000Y-91400000D03*
X61700000Y-92400000D03*
X62700000Y-92400000D03*
X63700000Y-92400000D03*
X64700000Y-92400000D03*
X61700000Y-93400000D03*
X62700000Y-93400000D03*
X63700000Y-93400000D03*
X64700000Y-93400000D03*
X61700000Y-94400000D03*
X62700000Y-94400000D03*
X63700000Y-94400000D03*
X64700000Y-94400000D03*
D11*
X80700000Y-124800000D03*
D12*
X74600000Y-126000000D03*
X86800000Y-123600000D03*
D13*
X79200000Y-123300000D03*
X80200000Y-123300000D03*
X81200000Y-123300000D03*
X82200000Y-123300000D03*
X79200000Y-124300000D03*
X80200000Y-124300000D03*
X81200000Y-124300000D03*
X82200000Y-124300000D03*
X79200000Y-125300000D03*
X80200000Y-125300000D03*
X81200000Y-125300000D03*
X82200000Y-125300000D03*
X79200000Y-126300000D03*
X80200000Y-126300000D03*
X81200000Y-126300000D03*
X82200000Y-126300000D03*
D11*
X80700000Y-116800000D03*
D12*
X86800000Y-115600000D03*
X74600000Y-118000000D03*
D13*
X82200000Y-118300000D03*
X81200000Y-118300000D03*
X80200000Y-118300000D03*
X79200000Y-118300000D03*
X82200000Y-117300000D03*
X81200000Y-117300000D03*
X80200000Y-117300000D03*
X79200000Y-117300000D03*
X82200000Y-116300000D03*
X81200000Y-116300000D03*
X80200000Y-116300000D03*
X79200000Y-116300000D03*
X82200000Y-115300000D03*
X81200000Y-115300000D03*
X80200000Y-115300000D03*
X79200000Y-115300000D03*
D11*
X80700000Y-108800000D03*
D12*
X74600000Y-110000000D03*
X86800000Y-107600000D03*
D13*
X79200000Y-107300000D03*
X80200000Y-107300000D03*
X81200000Y-107300000D03*
X82200000Y-107300000D03*
X79200000Y-108300000D03*
X80200000Y-108300000D03*
X81200000Y-108300000D03*
X82200000Y-108300000D03*
X79200000Y-109300000D03*
X80200000Y-109300000D03*
X81200000Y-109300000D03*
X82200000Y-109300000D03*
X79200000Y-110300000D03*
X80200000Y-110300000D03*
X81200000Y-110300000D03*
X82200000Y-110300000D03*
D11*
X80700000Y-100800000D03*
D12*
X86800000Y-99600000D03*
X74600000Y-102000000D03*
D13*
X82200000Y-102300000D03*
X81200000Y-102300000D03*
X80200000Y-102300000D03*
X79200000Y-102300000D03*
X82200000Y-101300000D03*
X81200000Y-101300000D03*
X80200000Y-101300000D03*
X79200000Y-101300000D03*
X82200000Y-100300000D03*
X81200000Y-100300000D03*
X80200000Y-100300000D03*
X79200000Y-100300000D03*
X82200000Y-99300000D03*
X81200000Y-99300000D03*
X80200000Y-99300000D03*
X79200000Y-99300000D03*
D11*
X80700000Y-92800000D03*
D12*
X74600000Y-94000000D03*
X86800000Y-91600000D03*
D13*
X79200000Y-91300000D03*
X80200000Y-91300000D03*
X81200000Y-91300000D03*
X82200000Y-91300000D03*
X79200000Y-92300000D03*
X80200000Y-92300000D03*
X81200000Y-92300000D03*
X82200000Y-92300000D03*
X79200000Y-93300000D03*
X80200000Y-93300000D03*
X81200000Y-93300000D03*
X82200000Y-93300000D03*
X79200000Y-94300000D03*
X80200000Y-94300000D03*
X81200000Y-94300000D03*
X82200000Y-94300000D03*
D11*
X45200000Y-125200000D03*
D12*
X39100000Y-126400000D03*
X51300000Y-124000000D03*
D13*
X43700000Y-123700000D03*
X44700000Y-123700000D03*
X45700000Y-123700000D03*
X46700000Y-123700000D03*
X43700000Y-124700000D03*
X44700000Y-124700000D03*
X45700000Y-124700000D03*
X46700000Y-124700000D03*
X43700000Y-125700000D03*
X44700000Y-125700000D03*
X45700000Y-125700000D03*
X46700000Y-125700000D03*
X43700000Y-126700000D03*
X44700000Y-126700000D03*
X45700000Y-126700000D03*
X46700000Y-126700000D03*
D11*
X45200000Y-117200000D03*
D12*
X51300000Y-116000000D03*
X39100000Y-118400000D03*
D13*
X46700000Y-118700000D03*
X45700000Y-118700000D03*
X44700000Y-118700000D03*
X43700000Y-118700000D03*
X46700000Y-117700000D03*
X45700000Y-117700000D03*
X44700000Y-117700000D03*
X43700000Y-117700000D03*
X46700000Y-116700000D03*
X45700000Y-116700000D03*
X44700000Y-116700000D03*
X43700000Y-116700000D03*
X46700000Y-115700000D03*
X45700000Y-115700000D03*
X44700000Y-115700000D03*
X43700000Y-115700000D03*
D11*
X45200000Y-101200000D03*
D12*
X51300000Y-100000000D03*
X39100000Y-102400000D03*
D13*
X46700000Y-102700000D03*
X45700000Y-102700000D03*
X44700000Y-102700000D03*
X43700000Y-102700000D03*
X46700000Y-101700000D03*
X45700000Y-101700000D03*
X44700000Y-101700000D03*
X43700000Y-101700000D03*
X46700000Y-100700000D03*
X45700000Y-100700000D03*
X44700000Y-100700000D03*
X43700000Y-100700000D03*
X46700000Y-99700000D03*
X45700000Y-99700000D03*
X44700000Y-99700000D03*
X43700000Y-99700000D03*
D11*
X45200000Y-93200000D03*
D12*
X39100000Y-94400000D03*
X51300000Y-92000000D03*
D13*
X43700000Y-91700000D03*
X44700000Y-91700000D03*
X45700000Y-91700000D03*
X46700000Y-91700000D03*
X43700000Y-92700000D03*
X44700000Y-92700000D03*
X45700000Y-92700000D03*
X46700000Y-92700000D03*
X43700000Y-93700000D03*
X44700000Y-93700000D03*
X45700000Y-93700000D03*
X46700000Y-93700000D03*
X43700000Y-94700000D03*
X44700000Y-94700000D03*
X45700000Y-94700000D03*
X46700000Y-94700000D03*
D29*
X33500000Y-33500000D03*
X33500000Y-66500000D03*
X126500000Y-33500000D03*
X126500000Y-66500000D03*
X126500000Y-126500000D03*
X126500000Y-74500000D03*
X33500000Y-126500000D03*
X33500000Y-74500000D03*
D30*
X35800000Y-70000000D03*
X35800000Y-71000000D03*
X36700000Y-70000000D03*
X37600000Y-70000000D03*
X38400000Y-70000000D03*
X39300000Y-70000000D03*
X40200000Y-70000000D03*
X36700000Y-71000000D03*
X37600000Y-71000000D03*
X38400000Y-71000000D03*
X39300000Y-71000000D03*
X40200000Y-71000000D03*
X119300000Y-70000000D03*
X119300000Y-71000000D03*
X120200000Y-70000000D03*
X121100000Y-70000000D03*
X121900000Y-70000000D03*
X122800000Y-70000000D03*
X123700000Y-70000000D03*
X120200000Y-71000000D03*
X121100000Y-71000000D03*
X121900000Y-71000000D03*
X122800000Y-71000000D03*
X123700000Y-71000000D03*
X77300000Y-70000000D03*
X77300000Y-71000000D03*
X78200000Y-70000000D03*
X79100000Y-70000000D03*
X79900000Y-70000000D03*
X80800000Y-70000000D03*
X81700000Y-70000000D03*
X78200000Y-71000000D03*
X79100000Y-71000000D03*
X79900000Y-71000000D03*
X80800000Y-71000000D03*
X81700000Y-71000000D03*
X56800000Y-70000000D03*
X56800000Y-71000000D03*
X57700000Y-70000000D03*
X58600000Y-70000000D03*
X59400000Y-70000000D03*
X60300000Y-70000000D03*
X61200000Y-70000000D03*
X57700000Y-71000000D03*
X58600000Y-71000000D03*
X59400000Y-71000000D03*
X60300000Y-71000000D03*
X61200000Y-71000000D03*
X97800000Y-70000000D03*
X97800000Y-71000000D03*
X98700000Y-70000000D03*
X99600000Y-70000000D03*
X100400000Y-70000000D03*
X101300000Y-70000000D03*
X102200000Y-70000000D03*
X98700000Y-71000000D03*
X99600000Y-71000000D03*
X100400000Y-71000000D03*
X101300000Y-71000000D03*
X102200000Y-71000000D03*
D31*
G36*
X63315301Y-33864065D02*
X63319517Y-33880161D01*
X63329517Y-33910161D01*
X63354634Y-33953871D01*
X63402351Y-33987722D01*
X63822351Y-34157722D01*
X63871905Y-34166986D01*
X63941413Y-34145020D01*
X64379020Y-33847447D01*
X64688063Y-34148953D01*
X64421308Y-34549086D01*
X64420197Y-34550197D01*
X64392334Y-34592211D01*
X64383000Y-34640000D01*
X64383000Y-34660000D01*
X64389517Y-34700161D01*
X64399517Y-34730161D01*
X64403118Y-34739675D01*
X64573118Y-35139675D01*
X64600197Y-35179803D01*
X64610197Y-35189803D01*
X64652211Y-35217666D01*
X64686534Y-35224370D01*
X64686453Y-35224798D01*
X65163000Y-35314713D01*
X65163000Y-35753523D01*
X64745563Y-35835373D01*
X64729839Y-35839517D01*
X64669839Y-35859517D01*
X64626129Y-35884634D01*
X64593406Y-35929653D01*
X64403406Y-36369653D01*
X64393000Y-36420000D01*
X64393000Y-36440000D01*
X64414662Y-36510942D01*
X64685520Y-36913125D01*
X64377938Y-37213555D01*
X63979376Y-36953623D01*
X63932524Y-36935013D01*
X63882122Y-36936097D01*
X63853204Y-36946408D01*
X63835524Y-36955248D01*
X63725939Y-37004561D01*
X63391043Y-36184948D01*
X63411041Y-36167806D01*
X63509336Y-36089170D01*
X63528293Y-36070421D01*
X63618293Y-35960421D01*
X63631493Y-35940814D01*
X63691493Y-35830814D01*
X63701384Y-35807349D01*
X63741384Y-35677349D01*
X63747000Y-35640000D01*
X63747000Y-35450000D01*
X63743748Y-35421443D01*
X63713748Y-35291443D01*
X63703592Y-35263204D01*
X63643592Y-35143204D01*
X63631600Y-35123800D01*
X63571600Y-35043800D01*
X63559803Y-35030197D01*
X63549803Y-35020197D01*
X63543630Y-35014423D01*
X63463630Y-34944423D01*
X63450447Y-34934330D01*
X63420447Y-34914330D01*
X63413010Y-34909733D01*
X63343010Y-34869733D01*
X63327167Y-34862083D01*
X63227167Y-34822083D01*
X63210802Y-34816792D01*
X63170802Y-34806792D01*
X63167550Y-34806024D01*
X63077550Y-34786024D01*
X63050000Y-34783000D01*
X62940000Y-34783000D01*
X62911443Y-34786252D01*
X62781443Y-34816252D01*
X62762833Y-34822083D01*
X62662833Y-34862083D01*
X62637170Y-34875958D01*
X62537170Y-34945958D01*
X62528697Y-34952436D01*
X62468697Y-35002436D01*
X62449752Y-35022030D01*
X62379752Y-35112030D01*
X62366408Y-35133204D01*
X62338593Y-35188834D01*
X62311098Y-35234659D01*
X62297886Y-35265110D01*
X62257886Y-35405110D01*
X62253439Y-35429453D01*
X62243439Y-35549453D01*
X62245049Y-35582718D01*
X62265049Y-35692718D01*
X62269517Y-35710161D01*
X62309517Y-35830161D01*
X62321098Y-35855341D01*
X62381098Y-35955341D01*
X62391707Y-35970421D01*
X62481707Y-36080421D01*
X62500664Y-36099170D01*
X62608645Y-36185555D01*
X62273493Y-37001952D01*
X62154602Y-36945337D01*
X62105689Y-36933127D01*
X62043204Y-36946408D01*
X62023204Y-36956408D01*
X62011204Y-36963247D01*
X61627205Y-37210713D01*
X61314382Y-36911491D01*
X61585995Y-36499957D01*
X61604862Y-36453207D01*
X61597917Y-36382833D01*
X61417917Y-35932833D01*
X61390276Y-35890673D01*
X61325312Y-35855548D01*
X60828556Y-35754513D01*
X60835666Y-35313711D01*
X61332325Y-35225022D01*
X61379207Y-35206486D01*
X61427150Y-35149040D01*
X61607150Y-34719040D01*
X61617000Y-34670000D01*
X61617000Y-34640000D01*
X61595292Y-34568989D01*
X61311996Y-34148929D01*
X61619380Y-33849229D01*
X62059058Y-34145338D01*
X62130000Y-34167000D01*
X62140000Y-34167000D01*
X62189410Y-34156994D01*
X62211281Y-34142272D01*
X62597167Y-33987917D01*
X62639327Y-33960276D01*
X62674534Y-33894907D01*
X62780115Y-33367000D01*
X63219376Y-33367000D01*
X63315301Y-33864065D01*
X63315301Y-33864065D01*
G37*
X63315301Y-33864065D02*
X63319517Y-33880161D01*
X63329517Y-33910161D01*
X63354634Y-33953871D01*
X63402351Y-33987722D01*
X63822351Y-34157722D01*
X63871905Y-34166986D01*
X63941413Y-34145020D01*
X64379020Y-33847447D01*
X64688063Y-34148953D01*
X64421308Y-34549086D01*
X64420197Y-34550197D01*
X64392334Y-34592211D01*
X64383000Y-34640000D01*
X64383000Y-34660000D01*
X64389517Y-34700161D01*
X64399517Y-34730161D01*
X64403118Y-34739675D01*
X64573118Y-35139675D01*
X64600197Y-35179803D01*
X64610197Y-35189803D01*
X64652211Y-35217666D01*
X64686534Y-35224370D01*
X64686453Y-35224798D01*
X65163000Y-35314713D01*
X65163000Y-35753523D01*
X64745563Y-35835373D01*
X64729839Y-35839517D01*
X64669839Y-35859517D01*
X64626129Y-35884634D01*
X64593406Y-35929653D01*
X64403406Y-36369653D01*
X64393000Y-36420000D01*
X64393000Y-36440000D01*
X64414662Y-36510942D01*
X64685520Y-36913125D01*
X64377938Y-37213555D01*
X63979376Y-36953623D01*
X63932524Y-36935013D01*
X63882122Y-36936097D01*
X63853204Y-36946408D01*
X63835524Y-36955248D01*
X63725939Y-37004561D01*
X63391043Y-36184948D01*
X63411041Y-36167806D01*
X63509336Y-36089170D01*
X63528293Y-36070421D01*
X63618293Y-35960421D01*
X63631493Y-35940814D01*
X63691493Y-35830814D01*
X63701384Y-35807349D01*
X63741384Y-35677349D01*
X63747000Y-35640000D01*
X63747000Y-35450000D01*
X63743748Y-35421443D01*
X63713748Y-35291443D01*
X63703592Y-35263204D01*
X63643592Y-35143204D01*
X63631600Y-35123800D01*
X63571600Y-35043800D01*
X63559803Y-35030197D01*
X63549803Y-35020197D01*
X63543630Y-35014423D01*
X63463630Y-34944423D01*
X63450447Y-34934330D01*
X63420447Y-34914330D01*
X63413010Y-34909733D01*
X63343010Y-34869733D01*
X63327167Y-34862083D01*
X63227167Y-34822083D01*
X63210802Y-34816792D01*
X63170802Y-34806792D01*
X63167550Y-34806024D01*
X63077550Y-34786024D01*
X63050000Y-34783000D01*
X62940000Y-34783000D01*
X62911443Y-34786252D01*
X62781443Y-34816252D01*
X62762833Y-34822083D01*
X62662833Y-34862083D01*
X62637170Y-34875958D01*
X62537170Y-34945958D01*
X62528697Y-34952436D01*
X62468697Y-35002436D01*
X62449752Y-35022030D01*
X62379752Y-35112030D01*
X62366408Y-35133204D01*
X62338593Y-35188834D01*
X62311098Y-35234659D01*
X62297886Y-35265110D01*
X62257886Y-35405110D01*
X62253439Y-35429453D01*
X62243439Y-35549453D01*
X62245049Y-35582718D01*
X62265049Y-35692718D01*
X62269517Y-35710161D01*
X62309517Y-35830161D01*
X62321098Y-35855341D01*
X62381098Y-35955341D01*
X62391707Y-35970421D01*
X62481707Y-36080421D01*
X62500664Y-36099170D01*
X62608645Y-36185555D01*
X62273493Y-37001952D01*
X62154602Y-36945337D01*
X62105689Y-36933127D01*
X62043204Y-36946408D01*
X62023204Y-36956408D01*
X62011204Y-36963247D01*
X61627205Y-37210713D01*
X61314382Y-36911491D01*
X61585995Y-36499957D01*
X61604862Y-36453207D01*
X61597917Y-36382833D01*
X61417917Y-35932833D01*
X61390276Y-35890673D01*
X61325312Y-35855548D01*
X60828556Y-35754513D01*
X60835666Y-35313711D01*
X61332325Y-35225022D01*
X61379207Y-35206486D01*
X61427150Y-35149040D01*
X61607150Y-34719040D01*
X61617000Y-34670000D01*
X61617000Y-34640000D01*
X61595292Y-34568989D01*
X61311996Y-34148929D01*
X61619380Y-33849229D01*
X62059058Y-34145338D01*
X62130000Y-34167000D01*
X62140000Y-34167000D01*
X62189410Y-34156994D01*
X62211281Y-34142272D01*
X62597167Y-33987917D01*
X62639327Y-33960276D01*
X62674534Y-33894907D01*
X62780115Y-33367000D01*
X63219376Y-33367000D01*
X63315301Y-33864065D01*
G36*
X95315301Y-33864065D02*
X95319517Y-33880161D01*
X95329517Y-33910161D01*
X95354634Y-33953871D01*
X95402351Y-33987722D01*
X95822351Y-34157722D01*
X95871905Y-34166986D01*
X95941413Y-34145020D01*
X96379020Y-33847447D01*
X96688063Y-34148953D01*
X96421308Y-34549086D01*
X96420197Y-34550197D01*
X96392334Y-34592211D01*
X96383000Y-34640000D01*
X96383000Y-34660000D01*
X96389517Y-34700161D01*
X96399517Y-34730161D01*
X96403118Y-34739675D01*
X96573118Y-35139675D01*
X96600197Y-35179803D01*
X96610197Y-35189803D01*
X96652211Y-35217666D01*
X96686534Y-35224370D01*
X96686453Y-35224798D01*
X97163000Y-35314713D01*
X97163000Y-35753523D01*
X96745563Y-35835373D01*
X96729839Y-35839517D01*
X96669839Y-35859517D01*
X96626129Y-35884634D01*
X96593406Y-35929653D01*
X96403406Y-36369653D01*
X96393000Y-36420000D01*
X96393000Y-36440000D01*
X96414662Y-36510942D01*
X96685520Y-36913125D01*
X96377938Y-37213555D01*
X95979376Y-36953623D01*
X95932524Y-36935013D01*
X95882122Y-36936097D01*
X95853204Y-36946408D01*
X95835524Y-36955248D01*
X95725939Y-37004561D01*
X95391043Y-36184948D01*
X95411041Y-36167806D01*
X95509336Y-36089170D01*
X95528293Y-36070421D01*
X95618293Y-35960421D01*
X95631493Y-35940814D01*
X95691493Y-35830814D01*
X95701384Y-35807349D01*
X95741384Y-35677349D01*
X95747000Y-35640000D01*
X95747000Y-35450000D01*
X95743748Y-35421443D01*
X95713748Y-35291443D01*
X95703592Y-35263204D01*
X95643592Y-35143204D01*
X95631600Y-35123800D01*
X95571600Y-35043800D01*
X95559803Y-35030197D01*
X95549803Y-35020197D01*
X95543630Y-35014423D01*
X95463630Y-34944423D01*
X95450447Y-34934330D01*
X95420447Y-34914330D01*
X95413010Y-34909733D01*
X95343010Y-34869733D01*
X95327167Y-34862083D01*
X95227167Y-34822083D01*
X95210802Y-34816792D01*
X95170802Y-34806792D01*
X95167550Y-34806024D01*
X95077550Y-34786024D01*
X95050000Y-34783000D01*
X94940000Y-34783000D01*
X94911443Y-34786252D01*
X94781443Y-34816252D01*
X94762833Y-34822083D01*
X94662833Y-34862083D01*
X94637170Y-34875958D01*
X94537170Y-34945958D01*
X94528697Y-34952436D01*
X94468697Y-35002436D01*
X94449752Y-35022030D01*
X94379752Y-35112030D01*
X94366408Y-35133204D01*
X94338593Y-35188834D01*
X94311098Y-35234659D01*
X94297886Y-35265110D01*
X94257886Y-35405110D01*
X94253439Y-35429453D01*
X94243439Y-35549453D01*
X94245049Y-35582718D01*
X94265049Y-35692718D01*
X94269517Y-35710161D01*
X94309517Y-35830161D01*
X94321098Y-35855341D01*
X94381098Y-35955341D01*
X94391707Y-35970421D01*
X94481707Y-36080421D01*
X94500664Y-36099170D01*
X94608645Y-36185555D01*
X94273493Y-37001952D01*
X94154602Y-36945337D01*
X94105689Y-36933127D01*
X94043204Y-36946408D01*
X94023204Y-36956408D01*
X94011204Y-36963247D01*
X93627205Y-37210713D01*
X93314382Y-36911491D01*
X93585995Y-36499957D01*
X93604862Y-36453207D01*
X93597917Y-36382833D01*
X93417917Y-35932833D01*
X93390276Y-35890673D01*
X93325312Y-35855548D01*
X92828556Y-35754513D01*
X92835666Y-35313711D01*
X93332325Y-35225022D01*
X93379207Y-35206486D01*
X93427150Y-35149040D01*
X93607150Y-34719040D01*
X93617000Y-34670000D01*
X93617000Y-34640000D01*
X93595292Y-34568989D01*
X93311996Y-34148929D01*
X93619380Y-33849229D01*
X94059058Y-34145338D01*
X94130000Y-34167000D01*
X94140000Y-34167000D01*
X94189410Y-34156994D01*
X94211281Y-34142272D01*
X94597167Y-33987917D01*
X94639327Y-33960276D01*
X94674534Y-33894907D01*
X94780115Y-33367000D01*
X95219376Y-33367000D01*
X95315301Y-33864065D01*
X95315301Y-33864065D01*
G37*
X95315301Y-33864065D02*
X95319517Y-33880161D01*
X95329517Y-33910161D01*
X95354634Y-33953871D01*
X95402351Y-33987722D01*
X95822351Y-34157722D01*
X95871905Y-34166986D01*
X95941413Y-34145020D01*
X96379020Y-33847447D01*
X96688063Y-34148953D01*
X96421308Y-34549086D01*
X96420197Y-34550197D01*
X96392334Y-34592211D01*
X96383000Y-34640000D01*
X96383000Y-34660000D01*
X96389517Y-34700161D01*
X96399517Y-34730161D01*
X96403118Y-34739675D01*
X96573118Y-35139675D01*
X96600197Y-35179803D01*
X96610197Y-35189803D01*
X96652211Y-35217666D01*
X96686534Y-35224370D01*
X96686453Y-35224798D01*
X97163000Y-35314713D01*
X97163000Y-35753523D01*
X96745563Y-35835373D01*
X96729839Y-35839517D01*
X96669839Y-35859517D01*
X96626129Y-35884634D01*
X96593406Y-35929653D01*
X96403406Y-36369653D01*
X96393000Y-36420000D01*
X96393000Y-36440000D01*
X96414662Y-36510942D01*
X96685520Y-36913125D01*
X96377938Y-37213555D01*
X95979376Y-36953623D01*
X95932524Y-36935013D01*
X95882122Y-36936097D01*
X95853204Y-36946408D01*
X95835524Y-36955248D01*
X95725939Y-37004561D01*
X95391043Y-36184948D01*
X95411041Y-36167806D01*
X95509336Y-36089170D01*
X95528293Y-36070421D01*
X95618293Y-35960421D01*
X95631493Y-35940814D01*
X95691493Y-35830814D01*
X95701384Y-35807349D01*
X95741384Y-35677349D01*
X95747000Y-35640000D01*
X95747000Y-35450000D01*
X95743748Y-35421443D01*
X95713748Y-35291443D01*
X95703592Y-35263204D01*
X95643592Y-35143204D01*
X95631600Y-35123800D01*
X95571600Y-35043800D01*
X95559803Y-35030197D01*
X95549803Y-35020197D01*
X95543630Y-35014423D01*
X95463630Y-34944423D01*
X95450447Y-34934330D01*
X95420447Y-34914330D01*
X95413010Y-34909733D01*
X95343010Y-34869733D01*
X95327167Y-34862083D01*
X95227167Y-34822083D01*
X95210802Y-34816792D01*
X95170802Y-34806792D01*
X95167550Y-34806024D01*
X95077550Y-34786024D01*
X95050000Y-34783000D01*
X94940000Y-34783000D01*
X94911443Y-34786252D01*
X94781443Y-34816252D01*
X94762833Y-34822083D01*
X94662833Y-34862083D01*
X94637170Y-34875958D01*
X94537170Y-34945958D01*
X94528697Y-34952436D01*
X94468697Y-35002436D01*
X94449752Y-35022030D01*
X94379752Y-35112030D01*
X94366408Y-35133204D01*
X94338593Y-35188834D01*
X94311098Y-35234659D01*
X94297886Y-35265110D01*
X94257886Y-35405110D01*
X94253439Y-35429453D01*
X94243439Y-35549453D01*
X94245049Y-35582718D01*
X94265049Y-35692718D01*
X94269517Y-35710161D01*
X94309517Y-35830161D01*
X94321098Y-35855341D01*
X94381098Y-35955341D01*
X94391707Y-35970421D01*
X94481707Y-36080421D01*
X94500664Y-36099170D01*
X94608645Y-36185555D01*
X94273493Y-37001952D01*
X94154602Y-36945337D01*
X94105689Y-36933127D01*
X94043204Y-36946408D01*
X94023204Y-36956408D01*
X94011204Y-36963247D01*
X93627205Y-37210713D01*
X93314382Y-36911491D01*
X93585995Y-36499957D01*
X93604862Y-36453207D01*
X93597917Y-36382833D01*
X93417917Y-35932833D01*
X93390276Y-35890673D01*
X93325312Y-35855548D01*
X92828556Y-35754513D01*
X92835666Y-35313711D01*
X93332325Y-35225022D01*
X93379207Y-35206486D01*
X93427150Y-35149040D01*
X93607150Y-34719040D01*
X93617000Y-34670000D01*
X93617000Y-34640000D01*
X93595292Y-34568989D01*
X93311996Y-34148929D01*
X93619380Y-33849229D01*
X94059058Y-34145338D01*
X94130000Y-34167000D01*
X94140000Y-34167000D01*
X94189410Y-34156994D01*
X94211281Y-34142272D01*
X94597167Y-33987917D01*
X94639327Y-33960276D01*
X94674534Y-33894907D01*
X94780115Y-33367000D01*
X95219376Y-33367000D01*
X95315301Y-33864065D01*
M02*
