G04 #@! TF.FileFunction,Legend,Bot*
%FSLAX46Y46*%
G04 Gerber Fmt 4.6, Leading zero omitted, Abs format (unit mm)*
G04 Created by KiCad (PCBNEW 4.0.7) date Sat Oct  7 11:25:55 2017*
%MOMM*%
%LPD*%
G01*
G04 APERTURE LIST*
%ADD10C,0.100000*%
%ADD11C,0.150000*%
G04 APERTURE END LIST*
D10*
D11*
X47410000Y-84593000D02*
X47156000Y-84593000D01*
X47156000Y-84593000D02*
X47156000Y-82307000D01*
X47156000Y-82307000D02*
X47410000Y-82307000D01*
X47410000Y-84593000D02*
X47410000Y-82307000D01*
X47410000Y-82307000D02*
X49061000Y-82307000D01*
X50839000Y-84593000D02*
X52490000Y-84593000D01*
X52490000Y-84593000D02*
X52490000Y-82307000D01*
X52490000Y-82307000D02*
X50839000Y-82307000D01*
X49061000Y-84593000D02*
X47410000Y-84593000D01*
X82410000Y-84693000D02*
X82156000Y-84693000D01*
X82156000Y-84693000D02*
X82156000Y-82407000D01*
X82156000Y-82407000D02*
X82410000Y-82407000D01*
X82410000Y-84693000D02*
X82410000Y-82407000D01*
X82410000Y-82407000D02*
X84061000Y-82407000D01*
X85839000Y-84693000D02*
X87490000Y-84693000D01*
X87490000Y-84693000D02*
X87490000Y-82407000D01*
X87490000Y-82407000D02*
X85839000Y-82407000D01*
X84061000Y-84693000D02*
X82410000Y-84693000D01*
X65160000Y-84543000D02*
X64906000Y-84543000D01*
X64906000Y-84543000D02*
X64906000Y-82257000D01*
X64906000Y-82257000D02*
X65160000Y-82257000D01*
X65160000Y-84543000D02*
X65160000Y-82257000D01*
X65160000Y-82257000D02*
X66811000Y-82257000D01*
X68589000Y-84543000D02*
X70240000Y-84543000D01*
X70240000Y-84543000D02*
X70240000Y-82257000D01*
X70240000Y-82257000D02*
X68589000Y-82257000D01*
X66811000Y-84543000D02*
X65160000Y-84543000D01*
X99460000Y-84143000D02*
X99206000Y-84143000D01*
X99206000Y-84143000D02*
X99206000Y-81857000D01*
X99206000Y-81857000D02*
X99460000Y-81857000D01*
X99460000Y-84143000D02*
X99460000Y-81857000D01*
X99460000Y-81857000D02*
X101111000Y-81857000D01*
X102889000Y-84143000D02*
X104540000Y-84143000D01*
X104540000Y-84143000D02*
X104540000Y-81857000D01*
X104540000Y-81857000D02*
X102889000Y-81857000D01*
X101111000Y-84143000D02*
X99460000Y-84143000D01*
X117210000Y-84143000D02*
X116956000Y-84143000D01*
X116956000Y-84143000D02*
X116956000Y-81857000D01*
X116956000Y-81857000D02*
X117210000Y-81857000D01*
X117210000Y-84143000D02*
X117210000Y-81857000D01*
X117210000Y-81857000D02*
X118861000Y-81857000D01*
X120639000Y-84143000D02*
X122290000Y-84143000D01*
X122290000Y-84143000D02*
X122290000Y-81857000D01*
X122290000Y-81857000D02*
X120639000Y-81857000D01*
X118861000Y-84143000D02*
X117210000Y-84143000D01*
X115925000Y-42000000D02*
X115925000Y-44000000D01*
X118075000Y-44000000D02*
X118075000Y-42000000D01*
X115150000Y-66100000D02*
X115850000Y-66100000D01*
X115850000Y-64900000D02*
X115150000Y-64900000D01*
X117650000Y-53600000D02*
X118350000Y-53600000D01*
X118350000Y-52400000D02*
X117650000Y-52400000D01*
X115475000Y-59500000D02*
X115475000Y-57500000D01*
X117525000Y-57500000D02*
X117525000Y-59500000D01*
X41700060Y-76650860D02*
X41349540Y-76650860D01*
X38199940Y-76650860D02*
X38550460Y-76650860D01*
X41700060Y-80700440D02*
X41349540Y-80700440D01*
X41700060Y-76199560D02*
X41349540Y-76199560D01*
X38199940Y-76199560D02*
X38550460Y-76199560D01*
X38199940Y-80700440D02*
X38550460Y-80700440D01*
X41700060Y-76199560D02*
X41700060Y-80700440D01*
X38199940Y-76199560D02*
X38199940Y-80700440D01*
X123120000Y-50502540D02*
X124136000Y-50502540D01*
X118294000Y-50502540D02*
X117024000Y-50502540D01*
X118548000Y-51772540D02*
X118548000Y-49232540D01*
X118802000Y-51772540D02*
X118802000Y-49232540D01*
X119056000Y-51772540D02*
X119056000Y-49232540D01*
X118294000Y-51772540D02*
X118294000Y-49232540D01*
X119310000Y-51772540D02*
X118040000Y-49232540D01*
X118040000Y-51772540D02*
X119310000Y-49232540D01*
X119310000Y-51772540D02*
X119310000Y-49232540D01*
X118675000Y-51772540D02*
X118675000Y-49232540D01*
X118040000Y-49232540D02*
X118040000Y-51772540D01*
X118040000Y-51772540D02*
X123120000Y-51772540D01*
X123120000Y-51772540D02*
X123120000Y-49232540D01*
X123120000Y-49232540D02*
X118040000Y-49232540D01*
X113799140Y-43250060D02*
X113799140Y-42899540D01*
X113799140Y-39749940D02*
X113799140Y-40100460D01*
X109749560Y-43250060D02*
X109749560Y-42899540D01*
X114250440Y-43250060D02*
X114250440Y-42899540D01*
X114250440Y-39749940D02*
X114250440Y-40100460D01*
X109749560Y-39749940D02*
X109749560Y-40100460D01*
X114250440Y-43250060D02*
X109749560Y-43250060D01*
X114250440Y-39749940D02*
X109749560Y-39749940D01*
X113799140Y-47750060D02*
X113799140Y-47399540D01*
X113799140Y-44249940D02*
X113799140Y-44600460D01*
X109749560Y-47750060D02*
X109749560Y-47399540D01*
X114250440Y-47750060D02*
X114250440Y-47399540D01*
X114250440Y-44249940D02*
X114250440Y-44600460D01*
X109749560Y-44249940D02*
X109749560Y-44600460D01*
X114250440Y-47750060D02*
X109749560Y-47750060D01*
X114250440Y-44249940D02*
X109749560Y-44249940D01*
X73750060Y-34200860D02*
X73399540Y-34200860D01*
X70249940Y-34200860D02*
X70600460Y-34200860D01*
X73750060Y-38250440D02*
X73399540Y-38250440D01*
X73750060Y-33749560D02*
X73399540Y-33749560D01*
X70249940Y-33749560D02*
X70600460Y-33749560D01*
X70249940Y-38250440D02*
X70600460Y-38250440D01*
X73750060Y-33749560D02*
X73750060Y-38250440D01*
X70249940Y-33749560D02*
X70249940Y-38250440D01*
X87750060Y-34200860D02*
X87399540Y-34200860D01*
X84249940Y-34200860D02*
X84600460Y-34200860D01*
X87750060Y-38250440D02*
X87399540Y-38250440D01*
X87750060Y-33749560D02*
X87399540Y-33749560D01*
X84249940Y-33749560D02*
X84600460Y-33749560D01*
X84249940Y-38250440D02*
X84600460Y-38250440D01*
X87750060Y-33749560D02*
X87750060Y-38250440D01*
X84249940Y-33749560D02*
X84249940Y-38250440D01*
X55750060Y-34200860D02*
X55399540Y-34200860D01*
X52249940Y-34200860D02*
X52600460Y-34200860D01*
X55750060Y-38250440D02*
X55399540Y-38250440D01*
X55750060Y-33749560D02*
X55399540Y-33749560D01*
X52249940Y-33749560D02*
X52600460Y-33749560D01*
X52249940Y-38250440D02*
X52600460Y-38250440D01*
X55750060Y-33749560D02*
X55750060Y-38250440D01*
X52249940Y-33749560D02*
X52249940Y-38250440D01*
X55750060Y-44200860D02*
X55399540Y-44200860D01*
X52249940Y-44200860D02*
X52600460Y-44200860D01*
X55750060Y-48250440D02*
X55399540Y-48250440D01*
X55750060Y-43749560D02*
X55399540Y-43749560D01*
X52249940Y-43749560D02*
X52600460Y-43749560D01*
X52249940Y-48250440D02*
X52600460Y-48250440D01*
X55750060Y-43749560D02*
X55750060Y-48250440D01*
X52249940Y-43749560D02*
X52249940Y-48250440D01*
X105750060Y-34200860D02*
X105399540Y-34200860D01*
X102249940Y-34200860D02*
X102600460Y-34200860D01*
X105750060Y-38250440D02*
X105399540Y-38250440D01*
X105750060Y-33749560D02*
X105399540Y-33749560D01*
X102249940Y-33749560D02*
X102600460Y-33749560D01*
X102249940Y-38250440D02*
X102600460Y-38250440D01*
X105750060Y-33749560D02*
X105750060Y-38250440D01*
X102249940Y-33749560D02*
X102249940Y-38250440D01*
X105750060Y-44200860D02*
X105399540Y-44200860D01*
X102249940Y-44200860D02*
X102600460Y-44200860D01*
X105750060Y-48250440D02*
X105399540Y-48250440D01*
X105750060Y-43749560D02*
X105399540Y-43749560D01*
X102249940Y-43749560D02*
X102600460Y-43749560D01*
X102249940Y-48250440D02*
X102600460Y-48250440D01*
X105750060Y-43749560D02*
X105750060Y-48250440D01*
X102249940Y-43749560D02*
X102249940Y-48250440D01*
X76700060Y-76250860D02*
X76349540Y-76250860D01*
X73199940Y-76250860D02*
X73550460Y-76250860D01*
X76700060Y-80300440D02*
X76349540Y-80300440D01*
X76700060Y-75799560D02*
X76349540Y-75799560D01*
X73199940Y-75799560D02*
X73550460Y-75799560D01*
X73199940Y-80300440D02*
X73550460Y-80300440D01*
X76700060Y-75799560D02*
X76700060Y-80300440D01*
X73199940Y-75799560D02*
X73199940Y-80300440D01*
X58950060Y-76100860D02*
X58599540Y-76100860D01*
X55449940Y-76100860D02*
X55800460Y-76100860D01*
X58950060Y-80150440D02*
X58599540Y-80150440D01*
X58950060Y-75649560D02*
X58599540Y-75649560D01*
X55449940Y-75649560D02*
X55800460Y-75649560D01*
X55449940Y-80150440D02*
X55800460Y-80150440D01*
X58950060Y-75649560D02*
X58950060Y-80150440D01*
X55449940Y-75649560D02*
X55449940Y-80150440D01*
X93250060Y-75700860D02*
X92899540Y-75700860D01*
X89749940Y-75700860D02*
X90100460Y-75700860D01*
X93250060Y-79750440D02*
X92899540Y-79750440D01*
X93250060Y-75249560D02*
X92899540Y-75249560D01*
X89749940Y-75249560D02*
X90100460Y-75249560D01*
X89749940Y-79750440D02*
X90100460Y-79750440D01*
X93250060Y-75249560D02*
X93250060Y-79750440D01*
X89749940Y-75249560D02*
X89749940Y-79750440D01*
X111250060Y-75700860D02*
X110899540Y-75700860D01*
X107749940Y-75700860D02*
X108100460Y-75700860D01*
X111250060Y-79750440D02*
X110899540Y-79750440D01*
X111250060Y-75249560D02*
X110899540Y-75249560D01*
X107749940Y-75249560D02*
X108100460Y-75249560D01*
X107749940Y-79750440D02*
X108100460Y-79750440D01*
X111250060Y-75249560D02*
X111250060Y-79750440D01*
X107749940Y-75249560D02*
X107749940Y-79750440D01*
X97730000Y-65730000D02*
X69790000Y-65730000D01*
X69790000Y-65730000D02*
X69790000Y-68270000D01*
X69790000Y-68270000D02*
X97730000Y-68270000D01*
X100550000Y-65450000D02*
X99000000Y-65450000D01*
X97730000Y-65730000D02*
X97730000Y-68270000D01*
X99000000Y-68550000D02*
X100550000Y-68550000D01*
X100550000Y-68550000D02*
X100550000Y-65450000D01*
X110230000Y-36810000D02*
X122930000Y-36810000D01*
X122930000Y-36810000D02*
X122930000Y-31730000D01*
X122930000Y-31730000D02*
X112770000Y-31730000D01*
X110230000Y-36810000D02*
X110230000Y-34270000D01*
X109950000Y-33000000D02*
X109950000Y-31450000D01*
X110230000Y-34270000D02*
X112770000Y-34270000D01*
X112770000Y-34270000D02*
X112770000Y-31730000D01*
X109950000Y-31450000D02*
X111500000Y-31450000D01*
X123770000Y-45770000D02*
X126310000Y-45770000D01*
X120950000Y-46050000D02*
X122500000Y-46050000D01*
X123770000Y-45770000D02*
X123770000Y-43230000D01*
X122500000Y-42950000D02*
X120950000Y-42950000D01*
X120950000Y-42950000D02*
X120950000Y-46050000D01*
X123770000Y-43230000D02*
X126310000Y-43230000D01*
X126310000Y-43230000D02*
X126310000Y-45770000D01*
X38450000Y-65450000D02*
X38450000Y-67000000D01*
X41550000Y-67000000D02*
X41550000Y-65450000D01*
X41550000Y-65450000D02*
X38450000Y-65450000D01*
X41270000Y-68270000D02*
X38730000Y-68270000D01*
X43450000Y-65450000D02*
X43450000Y-67000000D01*
X46550000Y-67000000D02*
X46550000Y-65450000D01*
X46550000Y-65450000D02*
X43450000Y-65450000D01*
X46270000Y-68270000D02*
X43730000Y-68270000D01*
X48450000Y-65450000D02*
X48450000Y-67000000D01*
X51550000Y-67000000D02*
X51550000Y-65450000D01*
X51550000Y-65450000D02*
X48450000Y-65450000D01*
X51270000Y-68270000D02*
X48730000Y-68270000D01*
X53450000Y-65450000D02*
X53450000Y-67000000D01*
X56550000Y-67000000D02*
X56550000Y-65450000D01*
X56550000Y-65450000D02*
X53450000Y-65450000D01*
X56270000Y-68270000D02*
X53730000Y-68270000D01*
X58450000Y-65450000D02*
X58450000Y-67000000D01*
X61550000Y-67000000D02*
X61550000Y-65450000D01*
X61550000Y-65450000D02*
X58450000Y-65450000D01*
X61270000Y-68270000D02*
X58730000Y-68270000D01*
X38875000Y-85450000D02*
X38875000Y-87450000D01*
X41025000Y-87450000D02*
X41025000Y-85450000D01*
X74875000Y-85050000D02*
X74875000Y-87050000D01*
X77025000Y-87050000D02*
X77025000Y-85050000D01*
X57125000Y-84900000D02*
X57125000Y-86900000D01*
X59275000Y-86900000D02*
X59275000Y-84900000D01*
X91425000Y-84500000D02*
X91425000Y-86500000D01*
X93575000Y-86500000D02*
X93575000Y-84500000D01*
X109175000Y-84250000D02*
X109175000Y-86250000D01*
X111325000Y-86250000D02*
X111325000Y-84250000D01*
X45825000Y-86050000D02*
X45825000Y-84850000D01*
X44075000Y-84850000D02*
X44075000Y-86050000D01*
X80325000Y-85650000D02*
X80325000Y-84450000D01*
X78575000Y-84450000D02*
X78575000Y-85650000D01*
X60825000Y-84300000D02*
X60825000Y-85500000D01*
X62575000Y-85500000D02*
X62575000Y-84300000D01*
X95625000Y-84400000D02*
X95625000Y-85600000D01*
X97375000Y-85600000D02*
X97375000Y-84400000D01*
X113375000Y-84150000D02*
X113375000Y-85350000D01*
X115125000Y-85350000D02*
X115125000Y-84150000D01*
X95625000Y-48900000D02*
X95625000Y-50100000D01*
X97375000Y-50100000D02*
X97375000Y-48900000D01*
X50550000Y-85575000D02*
X49350000Y-85575000D01*
X49350000Y-87325000D02*
X50550000Y-87325000D01*
X108600000Y-65125000D02*
X107400000Y-65125000D01*
X107400000Y-66875000D02*
X108600000Y-66875000D01*
X85550000Y-85675000D02*
X84350000Y-85675000D01*
X84350000Y-87425000D02*
X85550000Y-87425000D01*
X68300000Y-85525000D02*
X67100000Y-85525000D01*
X67100000Y-87275000D02*
X68300000Y-87275000D01*
X102600000Y-85625000D02*
X101400000Y-85625000D01*
X101400000Y-87375000D02*
X102600000Y-87375000D01*
X120100000Y-85625000D02*
X118900000Y-85625000D01*
X118900000Y-87375000D02*
X120100000Y-87375000D01*
X73375000Y-56100000D02*
X73375000Y-54900000D01*
X71625000Y-54900000D02*
X71625000Y-56100000D01*
X83875000Y-56100000D02*
X83875000Y-54900000D01*
X82125000Y-54900000D02*
X82125000Y-56100000D01*
X86375000Y-48100000D02*
X86375000Y-46900000D01*
X84625000Y-46900000D02*
X84625000Y-48100000D01*
X81375000Y-56100000D02*
X81375000Y-54900000D01*
X79625000Y-54900000D02*
X79625000Y-56100000D01*
X78375000Y-56100000D02*
X78375000Y-54900000D01*
X76625000Y-54900000D02*
X76625000Y-56100000D01*
X81375000Y-48100000D02*
X81375000Y-46900000D01*
X79625000Y-46900000D02*
X79625000Y-48100000D01*
X75875000Y-48100000D02*
X75875000Y-46900000D01*
X74125000Y-46900000D02*
X74125000Y-48100000D01*
X75875000Y-56100000D02*
X75875000Y-54900000D01*
X74125000Y-54900000D02*
X74125000Y-56100000D01*
X86375000Y-56100000D02*
X86375000Y-54900000D01*
X84625000Y-54900000D02*
X84625000Y-56100000D01*
X83875000Y-48100000D02*
X83875000Y-46900000D01*
X82125000Y-46900000D02*
X82125000Y-48100000D01*
X78375000Y-48100000D02*
X78375000Y-46900000D01*
X76625000Y-46900000D02*
X76625000Y-48100000D01*
X73375000Y-48100000D02*
X73375000Y-46900000D01*
X71625000Y-46900000D02*
X71625000Y-48100000D01*
X50050000Y-78750000D02*
X50050000Y-80050000D01*
X50250000Y-78750000D02*
X50050000Y-78750000D01*
X50251240Y-78750480D02*
X50251240Y-76149520D01*
X45648760Y-76149520D02*
X45648760Y-78750480D01*
X37000000Y-31700000D02*
X46500000Y-31700000D01*
X46500000Y-31700000D02*
X48000000Y-31700000D01*
X48300000Y-32000000D02*
X48300000Y-49500000D01*
X48000000Y-49800000D02*
X37000000Y-49800000D01*
X36700000Y-49500000D02*
X36700000Y-32000000D01*
X46925000Y-55925000D02*
X46950000Y-55925000D01*
X46925000Y-60075000D02*
X47030000Y-60075000D01*
X57075000Y-60075000D02*
X56970000Y-60075000D01*
X57075000Y-55925000D02*
X56970000Y-55925000D01*
X46925000Y-55925000D02*
X46925000Y-60075000D01*
X57075000Y-55925000D02*
X57075000Y-60075000D01*
X46950000Y-55925000D02*
X46950000Y-54550000D01*
X89425000Y-63575000D02*
X89425000Y-63550000D01*
X93575000Y-63575000D02*
X93575000Y-63470000D01*
X93575000Y-53425000D02*
X93575000Y-53530000D01*
X89425000Y-53425000D02*
X89425000Y-53530000D01*
X89425000Y-63575000D02*
X93575000Y-63575000D01*
X89425000Y-53425000D02*
X93575000Y-53425000D01*
X89425000Y-63550000D02*
X88050000Y-63550000D01*
X60425000Y-55925000D02*
X60450000Y-55925000D01*
X60425000Y-60075000D02*
X60530000Y-60075000D01*
X70575000Y-60075000D02*
X70470000Y-60075000D01*
X70575000Y-55925000D02*
X70470000Y-55925000D01*
X60425000Y-55925000D02*
X60425000Y-60075000D01*
X70575000Y-55925000D02*
X70575000Y-60075000D01*
X60450000Y-55925000D02*
X60450000Y-54550000D01*
X85050000Y-78850000D02*
X85050000Y-80150000D01*
X85250000Y-78850000D02*
X85050000Y-78850000D01*
X85251240Y-78850480D02*
X85251240Y-76249520D01*
X80648760Y-76249520D02*
X80648760Y-78850480D01*
X67300000Y-78700000D02*
X67300000Y-80000000D01*
X67500000Y-78700000D02*
X67300000Y-78700000D01*
X67501240Y-78700480D02*
X67501240Y-76099520D01*
X62898760Y-76099520D02*
X62898760Y-78700480D01*
X101600000Y-78300000D02*
X101600000Y-79600000D01*
X101800000Y-78300000D02*
X101600000Y-78300000D01*
X101801240Y-78300480D02*
X101801240Y-75699520D01*
X97198760Y-75699520D02*
X97198760Y-78300480D01*
X119600000Y-78300000D02*
X119600000Y-79600000D01*
X119800000Y-78300000D02*
X119600000Y-78300000D01*
X119801240Y-78300480D02*
X119801240Y-75699520D01*
X115198760Y-75699520D02*
X115198760Y-78300480D01*
X122251000Y-66553000D02*
X121870000Y-66553000D01*
X118949000Y-66553000D02*
X119330000Y-66553000D01*
X118949000Y-56647000D02*
X119330000Y-56647000D01*
X122251000Y-56647000D02*
X121870000Y-56647000D01*
X123140000Y-55885000D02*
X121870000Y-55885000D01*
X118060000Y-55885000D02*
X119330000Y-55885000D01*
X118060000Y-67315000D02*
X119330000Y-67315000D01*
X123140000Y-67315000D02*
X121870000Y-67315000D01*
X118949000Y-66553000D02*
X118314000Y-65918000D01*
X118314000Y-65918000D02*
X118314000Y-57282000D01*
X118314000Y-57282000D02*
X118949000Y-56647000D01*
X122251000Y-56647000D02*
X122886000Y-57282000D01*
X122886000Y-57282000D02*
X122886000Y-65918000D01*
X122886000Y-65918000D02*
X122251000Y-66553000D01*
X118060000Y-55885000D02*
X118060000Y-67315000D01*
X123140000Y-67315000D02*
X123140000Y-55885000D01*
X103375000Y-60125000D02*
X103375000Y-59900000D01*
X110625000Y-60125000D02*
X110625000Y-59800000D01*
X110625000Y-52875000D02*
X110625000Y-53200000D01*
X103375000Y-52875000D02*
X103375000Y-53200000D01*
X103375000Y-60125000D02*
X103700000Y-60125000D01*
X103375000Y-52875000D02*
X103700000Y-52875000D01*
X110625000Y-52875000D02*
X110300000Y-52875000D01*
X110625000Y-60125000D02*
X110300000Y-60125000D01*
X103375000Y-59900000D02*
X101950000Y-59900000D01*
X42799140Y-41750060D02*
X42799140Y-41399540D01*
X42799140Y-38249940D02*
X42799140Y-38600460D01*
X38749560Y-41750060D02*
X38749560Y-41399540D01*
X43250440Y-41750060D02*
X43250440Y-41399540D01*
X43250440Y-38249940D02*
X43250440Y-38600460D01*
X38749560Y-38249940D02*
X38749560Y-38600460D01*
X43250440Y-41750060D02*
X38749560Y-41750060D01*
X43250440Y-38249940D02*
X38749560Y-38249940D01*
X43500000Y-49625000D02*
X41500000Y-49625000D01*
X41500000Y-47575000D02*
X43500000Y-47575000D01*
X45500000Y-46725000D02*
X43500000Y-46725000D01*
X43500000Y-44675000D02*
X45500000Y-44675000D01*
X51519047Y-81385714D02*
X51519047Y-82052381D01*
X51757143Y-81004762D02*
X51995238Y-81719048D01*
X51376190Y-81719048D01*
X51090476Y-81052381D02*
X50423809Y-81052381D01*
X51090476Y-82052381D01*
X50423809Y-82052381D01*
X50138095Y-81052381D02*
X49471428Y-81052381D01*
X49900000Y-82052381D01*
X49328571Y-82147619D02*
X48566666Y-82147619D01*
X47804761Y-82052381D02*
X48376190Y-82052381D01*
X48090476Y-82052381D02*
X48090476Y-81052381D01*
X48185714Y-81195238D01*
X48280952Y-81290476D01*
X48376190Y-81338095D01*
X86819047Y-81485714D02*
X86819047Y-82152381D01*
X87057143Y-81104762D02*
X87295238Y-81819048D01*
X86676190Y-81819048D01*
X86390476Y-81152381D02*
X85723809Y-81152381D01*
X86390476Y-82152381D01*
X85723809Y-82152381D01*
X85438095Y-81152381D02*
X84771428Y-81152381D01*
X85200000Y-82152381D01*
X84628571Y-82247619D02*
X83866666Y-82247619D01*
X83676190Y-81247619D02*
X83628571Y-81200000D01*
X83533333Y-81152381D01*
X83295237Y-81152381D01*
X83199999Y-81200000D01*
X83152380Y-81247619D01*
X83104761Y-81342857D01*
X83104761Y-81438095D01*
X83152380Y-81580952D01*
X83723809Y-82152381D01*
X83104761Y-82152381D01*
X69419047Y-81185714D02*
X69419047Y-81852381D01*
X69657143Y-80804762D02*
X69895238Y-81519048D01*
X69276190Y-81519048D01*
X68990476Y-80852381D02*
X68323809Y-80852381D01*
X68990476Y-81852381D01*
X68323809Y-81852381D01*
X68038095Y-80852381D02*
X67371428Y-80852381D01*
X67800000Y-81852381D01*
X67228571Y-81947619D02*
X66466666Y-81947619D01*
X66323809Y-80852381D02*
X65704761Y-80852381D01*
X66038095Y-81233333D01*
X65895237Y-81233333D01*
X65799999Y-81280952D01*
X65752380Y-81328571D01*
X65704761Y-81423810D01*
X65704761Y-81661905D01*
X65752380Y-81757143D01*
X65799999Y-81804762D01*
X65895237Y-81852381D01*
X66180952Y-81852381D01*
X66276190Y-81804762D01*
X66323809Y-81757143D01*
X103519047Y-80785714D02*
X103519047Y-81452381D01*
X103757143Y-80404762D02*
X103995238Y-81119048D01*
X103376190Y-81119048D01*
X103090476Y-80452381D02*
X102423809Y-80452381D01*
X103090476Y-81452381D01*
X102423809Y-81452381D01*
X102138095Y-80452381D02*
X101471428Y-80452381D01*
X101900000Y-81452381D01*
X101328571Y-81547619D02*
X100566666Y-81547619D01*
X99899999Y-80785714D02*
X99899999Y-81452381D01*
X100138095Y-80404762D02*
X100376190Y-81119048D01*
X99757142Y-81119048D01*
X121319047Y-80685714D02*
X121319047Y-81352381D01*
X121557143Y-80304762D02*
X121795238Y-81019048D01*
X121176190Y-81019048D01*
X120890476Y-80352381D02*
X120223809Y-80352381D01*
X120890476Y-81352381D01*
X120223809Y-81352381D01*
X119938095Y-80352381D02*
X119271428Y-80352381D01*
X119700000Y-81352381D01*
X119128571Y-81447619D02*
X118366666Y-81447619D01*
X117652380Y-80352381D02*
X118128571Y-80352381D01*
X118176190Y-80828571D01*
X118128571Y-80780952D01*
X118033333Y-80733333D01*
X117795237Y-80733333D01*
X117699999Y-80780952D01*
X117652380Y-80828571D01*
X117604761Y-80923810D01*
X117604761Y-81161905D01*
X117652380Y-81257143D01*
X117699999Y-81304762D01*
X117795237Y-81352381D01*
X118033333Y-81352381D01*
X118128571Y-81304762D01*
X118176190Y-81257143D01*
X119252381Y-41357143D02*
X119252381Y-40785714D01*
X119252381Y-41071428D02*
X118252381Y-41071428D01*
X118395238Y-40976190D01*
X118490476Y-40880952D01*
X118538095Y-40785714D01*
X118252381Y-41976190D02*
X118252381Y-42071429D01*
X118300000Y-42166667D01*
X118347619Y-42214286D01*
X118442857Y-42261905D01*
X118633333Y-42309524D01*
X118871429Y-42309524D01*
X119061905Y-42261905D01*
X119157143Y-42214286D01*
X119204762Y-42166667D01*
X119252381Y-42071429D01*
X119252381Y-41976190D01*
X119204762Y-41880952D01*
X119157143Y-41833333D01*
X119061905Y-41785714D01*
X118871429Y-41738095D01*
X118633333Y-41738095D01*
X118442857Y-41785714D01*
X118347619Y-41833333D01*
X118300000Y-41880952D01*
X118252381Y-41976190D01*
X118252381Y-42928571D02*
X118252381Y-43023810D01*
X118300000Y-43119048D01*
X118347619Y-43166667D01*
X118442857Y-43214286D01*
X118633333Y-43261905D01*
X118871429Y-43261905D01*
X119061905Y-43214286D01*
X119157143Y-43166667D01*
X119204762Y-43119048D01*
X119252381Y-43023810D01*
X119252381Y-42928571D01*
X119204762Y-42833333D01*
X119157143Y-42785714D01*
X119061905Y-42738095D01*
X118871429Y-42690476D01*
X118633333Y-42690476D01*
X118442857Y-42738095D01*
X118347619Y-42785714D01*
X118300000Y-42833333D01*
X118252381Y-42928571D01*
X119252381Y-44261905D02*
X118776190Y-43928571D01*
X119252381Y-43690476D02*
X118252381Y-43690476D01*
X118252381Y-44071429D01*
X118300000Y-44166667D01*
X118347619Y-44214286D01*
X118442857Y-44261905D01*
X118585714Y-44261905D01*
X118680952Y-44214286D01*
X118728571Y-44166667D01*
X118776190Y-44071429D01*
X118776190Y-43690476D01*
X119252381Y-45214286D02*
X119252381Y-44642857D01*
X119252381Y-44928571D02*
X118252381Y-44928571D01*
X118395238Y-44833333D01*
X118490476Y-44738095D01*
X118538095Y-44642857D01*
X117190476Y-66447619D02*
X117142857Y-66400000D01*
X117047619Y-66352381D01*
X116809523Y-66352381D01*
X116714285Y-66400000D01*
X116666666Y-66447619D01*
X116619047Y-66542857D01*
X116619047Y-66638095D01*
X116666666Y-66780952D01*
X117238095Y-67352381D01*
X116619047Y-67352381D01*
X116238095Y-66447619D02*
X116190476Y-66400000D01*
X116095238Y-66352381D01*
X115857142Y-66352381D01*
X115761904Y-66400000D01*
X115714285Y-66447619D01*
X115666666Y-66542857D01*
X115666666Y-66638095D01*
X115714285Y-66780952D01*
X116285714Y-67352381D01*
X115666666Y-67352381D01*
X115238095Y-66685714D02*
X115238095Y-67685714D01*
X115238095Y-66733333D02*
X115142857Y-66685714D01*
X114952380Y-66685714D01*
X114857142Y-66733333D01*
X114809523Y-66780952D01*
X114761904Y-66876190D01*
X114761904Y-67161905D01*
X114809523Y-67257143D01*
X114857142Y-67304762D01*
X114952380Y-67352381D01*
X115142857Y-67352381D01*
X115238095Y-67304762D01*
X114380952Y-66447619D02*
X114333333Y-66400000D01*
X114238095Y-66352381D01*
X113999999Y-66352381D01*
X113904761Y-66400000D01*
X113857142Y-66447619D01*
X113809523Y-66542857D01*
X113809523Y-66638095D01*
X113857142Y-66780952D01*
X114428571Y-67352381D01*
X113809523Y-67352381D01*
X119190476Y-54047619D02*
X119142857Y-54000000D01*
X119047619Y-53952381D01*
X118809523Y-53952381D01*
X118714285Y-54000000D01*
X118666666Y-54047619D01*
X118619047Y-54142857D01*
X118619047Y-54238095D01*
X118666666Y-54380952D01*
X119238095Y-54952381D01*
X118619047Y-54952381D01*
X118238095Y-54047619D02*
X118190476Y-54000000D01*
X118095238Y-53952381D01*
X117857142Y-53952381D01*
X117761904Y-54000000D01*
X117714285Y-54047619D01*
X117666666Y-54142857D01*
X117666666Y-54238095D01*
X117714285Y-54380952D01*
X118285714Y-54952381D01*
X117666666Y-54952381D01*
X117238095Y-54285714D02*
X117238095Y-55285714D01*
X117238095Y-54333333D02*
X117142857Y-54285714D01*
X116952380Y-54285714D01*
X116857142Y-54333333D01*
X116809523Y-54380952D01*
X116761904Y-54476190D01*
X116761904Y-54761905D01*
X116809523Y-54857143D01*
X116857142Y-54904762D01*
X116952380Y-54952381D01*
X117142857Y-54952381D01*
X117238095Y-54904762D01*
X115809523Y-54952381D02*
X116380952Y-54952381D01*
X116095238Y-54952381D02*
X116095238Y-53952381D01*
X116190476Y-54095238D01*
X116285714Y-54190476D01*
X116380952Y-54238095D01*
X114557143Y-56500000D02*
X114604762Y-56452381D01*
X114652381Y-56309524D01*
X114652381Y-56214286D01*
X114604762Y-56071428D01*
X114509524Y-55976190D01*
X114414286Y-55928571D01*
X114223810Y-55880952D01*
X114080952Y-55880952D01*
X113890476Y-55928571D01*
X113795238Y-55976190D01*
X113700000Y-56071428D01*
X113652381Y-56214286D01*
X113652381Y-56309524D01*
X113700000Y-56452381D01*
X113747619Y-56500000D01*
X114652381Y-57452381D02*
X114652381Y-56880952D01*
X114652381Y-57166666D02*
X113652381Y-57166666D01*
X113795238Y-57071428D01*
X113890476Y-56976190D01*
X113938095Y-56880952D01*
X113652381Y-58071428D02*
X113652381Y-58166667D01*
X113700000Y-58261905D01*
X113747619Y-58309524D01*
X113842857Y-58357143D01*
X114033333Y-58404762D01*
X114271429Y-58404762D01*
X114461905Y-58357143D01*
X114557143Y-58309524D01*
X114604762Y-58261905D01*
X114652381Y-58166667D01*
X114652381Y-58071428D01*
X114604762Y-57976190D01*
X114557143Y-57928571D01*
X114461905Y-57880952D01*
X114271429Y-57833333D01*
X114033333Y-57833333D01*
X113842857Y-57880952D01*
X113747619Y-57928571D01*
X113700000Y-57976190D01*
X113652381Y-58071428D01*
X113985714Y-59261905D02*
X114652381Y-59261905D01*
X113985714Y-58833333D02*
X114509524Y-58833333D01*
X114604762Y-58880952D01*
X114652381Y-58976190D01*
X114652381Y-59119048D01*
X114604762Y-59214286D01*
X114557143Y-59261905D01*
X114128571Y-60071429D02*
X114128571Y-59738095D01*
X114652381Y-59738095D02*
X113652381Y-59738095D01*
X113652381Y-60214286D01*
X114652381Y-61119048D02*
X114652381Y-60547619D01*
X114652381Y-60833333D02*
X113652381Y-60833333D01*
X113795238Y-60738095D01*
X113890476Y-60642857D01*
X113938095Y-60547619D01*
X37852381Y-77961905D02*
X36852381Y-77961905D01*
X36852381Y-78200000D01*
X36900000Y-78342858D01*
X36995238Y-78438096D01*
X37090476Y-78485715D01*
X37280952Y-78533334D01*
X37423810Y-78533334D01*
X37614286Y-78485715D01*
X37709524Y-78438096D01*
X37804762Y-78342858D01*
X37852381Y-78200000D01*
X37852381Y-77961905D01*
X37852381Y-79485715D02*
X37852381Y-78914286D01*
X37852381Y-79200000D02*
X36852381Y-79200000D01*
X36995238Y-79104762D01*
X37090476Y-79009524D01*
X37138095Y-78914286D01*
X40452381Y-74138095D02*
X39452381Y-74138095D01*
X40452381Y-74709524D02*
X39880952Y-74280952D01*
X39452381Y-74709524D02*
X40023810Y-74138095D01*
X40066667Y-82161905D02*
X40066667Y-82638096D01*
X40352381Y-82066667D02*
X39352381Y-82400000D01*
X40352381Y-82733334D01*
X122411149Y-47414921D02*
X121744482Y-47414921D01*
X122411149Y-48414921D01*
X121744482Y-48414921D01*
X120887339Y-47414921D02*
X121363530Y-47414921D01*
X121411149Y-47891111D01*
X121363530Y-47843492D01*
X121268292Y-47795873D01*
X121030196Y-47795873D01*
X120934958Y-47843492D01*
X120887339Y-47891111D01*
X120839720Y-47986350D01*
X120839720Y-48224445D01*
X120887339Y-48319683D01*
X120934958Y-48367302D01*
X121030196Y-48414921D01*
X121268292Y-48414921D01*
X121363530Y-48367302D01*
X121411149Y-48319683D01*
X120411149Y-48319683D02*
X120363530Y-48367302D01*
X120411149Y-48414921D01*
X120458768Y-48367302D01*
X120411149Y-48319683D01*
X120411149Y-48414921D01*
X119411149Y-48414921D02*
X119982578Y-48414921D01*
X119696864Y-48414921D02*
X119696864Y-47414921D01*
X119792102Y-47557778D01*
X119887340Y-47653016D01*
X119982578Y-47700635D01*
X112738095Y-40252381D02*
X112738095Y-39252381D01*
X112500000Y-39252381D01*
X112357142Y-39300000D01*
X112261904Y-39395238D01*
X112214285Y-39490476D01*
X112166666Y-39680952D01*
X112166666Y-39823810D01*
X112214285Y-40014286D01*
X112261904Y-40109524D01*
X112357142Y-40204762D01*
X112500000Y-40252381D01*
X112738095Y-40252381D01*
X111833333Y-39252381D02*
X111166666Y-39252381D01*
X111595238Y-40252381D01*
X115161905Y-40152381D02*
X115161905Y-39152381D01*
X114590476Y-40152381D02*
X115019048Y-39580952D01*
X114590476Y-39152381D02*
X115161905Y-39723810D01*
X109338095Y-39966667D02*
X108861904Y-39966667D01*
X109433333Y-40252381D02*
X109100000Y-39252381D01*
X108766666Y-40252381D01*
X112838095Y-44752381D02*
X112838095Y-43752381D01*
X112600000Y-43752381D01*
X112457142Y-43800000D01*
X112361904Y-43895238D01*
X112314285Y-43990476D01*
X112266666Y-44180952D01*
X112266666Y-44323810D01*
X112314285Y-44514286D01*
X112361904Y-44609524D01*
X112457142Y-44704762D01*
X112600000Y-44752381D01*
X112838095Y-44752381D01*
X111695238Y-44180952D02*
X111790476Y-44133333D01*
X111838095Y-44085714D01*
X111885714Y-43990476D01*
X111885714Y-43942857D01*
X111838095Y-43847619D01*
X111790476Y-43800000D01*
X111695238Y-43752381D01*
X111504761Y-43752381D01*
X111409523Y-43800000D01*
X111361904Y-43847619D01*
X111314285Y-43942857D01*
X111314285Y-43990476D01*
X111361904Y-44085714D01*
X111409523Y-44133333D01*
X111504761Y-44180952D01*
X111695238Y-44180952D01*
X111790476Y-44228571D01*
X111838095Y-44276190D01*
X111885714Y-44371429D01*
X111885714Y-44561905D01*
X111838095Y-44657143D01*
X111790476Y-44704762D01*
X111695238Y-44752381D01*
X111504761Y-44752381D01*
X111409523Y-44704762D01*
X111361904Y-44657143D01*
X111314285Y-44561905D01*
X111314285Y-44371429D01*
X111361904Y-44276190D01*
X111409523Y-44228571D01*
X111504761Y-44180952D01*
X115361905Y-48352381D02*
X115361905Y-47352381D01*
X114790476Y-48352381D02*
X115219048Y-47780952D01*
X114790476Y-47352381D02*
X115361905Y-47923810D01*
X109438095Y-47966667D02*
X108961904Y-47966667D01*
X109533333Y-48252381D02*
X109200000Y-47252381D01*
X108866666Y-48252381D01*
X70752381Y-34785714D02*
X69752381Y-34785714D01*
X69752381Y-35023809D01*
X69800000Y-35166667D01*
X69895238Y-35261905D01*
X69990476Y-35309524D01*
X70180952Y-35357143D01*
X70323810Y-35357143D01*
X70514286Y-35309524D01*
X70609524Y-35261905D01*
X70704762Y-35166667D01*
X70752381Y-35023809D01*
X70752381Y-34785714D01*
X70752381Y-36309524D02*
X70752381Y-35738095D01*
X70752381Y-36023809D02*
X69752381Y-36023809D01*
X69895238Y-35928571D01*
X69990476Y-35833333D01*
X70038095Y-35738095D01*
X69752381Y-36928571D02*
X69752381Y-37023810D01*
X69800000Y-37119048D01*
X69847619Y-37166667D01*
X69942857Y-37214286D01*
X70133333Y-37261905D01*
X70371429Y-37261905D01*
X70561905Y-37214286D01*
X70657143Y-37166667D01*
X70704762Y-37119048D01*
X70752381Y-37023810D01*
X70752381Y-36928571D01*
X70704762Y-36833333D01*
X70657143Y-36785714D01*
X70561905Y-36738095D01*
X70371429Y-36690476D01*
X70133333Y-36690476D01*
X69942857Y-36738095D01*
X69847619Y-36785714D01*
X69800000Y-36833333D01*
X69752381Y-36928571D01*
X72452381Y-31738095D02*
X71452381Y-31738095D01*
X72452381Y-32309524D02*
X71880952Y-31880952D01*
X71452381Y-32309524D02*
X72023810Y-31738095D01*
X72066667Y-39561905D02*
X72066667Y-40038096D01*
X72352381Y-39466667D02*
X71352381Y-39800000D01*
X72352381Y-40133334D01*
X84752381Y-34885714D02*
X83752381Y-34885714D01*
X83752381Y-35123809D01*
X83800000Y-35266667D01*
X83895238Y-35361905D01*
X83990476Y-35409524D01*
X84180952Y-35457143D01*
X84323810Y-35457143D01*
X84514286Y-35409524D01*
X84609524Y-35361905D01*
X84704762Y-35266667D01*
X84752381Y-35123809D01*
X84752381Y-34885714D01*
X84752381Y-36409524D02*
X84752381Y-35838095D01*
X84752381Y-36123809D02*
X83752381Y-36123809D01*
X83895238Y-36028571D01*
X83990476Y-35933333D01*
X84038095Y-35838095D01*
X84752381Y-37361905D02*
X84752381Y-36790476D01*
X84752381Y-37076190D02*
X83752381Y-37076190D01*
X83895238Y-36980952D01*
X83990476Y-36885714D01*
X84038095Y-36790476D01*
X86552381Y-31838095D02*
X85552381Y-31838095D01*
X86552381Y-32409524D02*
X85980952Y-31980952D01*
X85552381Y-32409524D02*
X86123810Y-31838095D01*
X86166667Y-39761905D02*
X86166667Y-40238096D01*
X86452381Y-39666667D02*
X85452381Y-40000000D01*
X86452381Y-40333334D01*
X52752381Y-34785714D02*
X51752381Y-34785714D01*
X51752381Y-35023809D01*
X51800000Y-35166667D01*
X51895238Y-35261905D01*
X51990476Y-35309524D01*
X52180952Y-35357143D01*
X52323810Y-35357143D01*
X52514286Y-35309524D01*
X52609524Y-35261905D01*
X52704762Y-35166667D01*
X52752381Y-35023809D01*
X52752381Y-34785714D01*
X52752381Y-36309524D02*
X52752381Y-35738095D01*
X52752381Y-36023809D02*
X51752381Y-36023809D01*
X51895238Y-35928571D01*
X51990476Y-35833333D01*
X52038095Y-35738095D01*
X52085714Y-37166667D02*
X52752381Y-37166667D01*
X51704762Y-36928571D02*
X52419048Y-36690476D01*
X52419048Y-37309524D01*
X54752381Y-31738095D02*
X53752381Y-31738095D01*
X54752381Y-32309524D02*
X54180952Y-31880952D01*
X53752381Y-32309524D02*
X54323810Y-31738095D01*
X54066667Y-39761905D02*
X54066667Y-40238096D01*
X54352381Y-39666667D02*
X53352381Y-40000000D01*
X54352381Y-40333334D01*
X52752381Y-44785714D02*
X51752381Y-44785714D01*
X51752381Y-45023809D01*
X51800000Y-45166667D01*
X51895238Y-45261905D01*
X51990476Y-45309524D01*
X52180952Y-45357143D01*
X52323810Y-45357143D01*
X52514286Y-45309524D01*
X52609524Y-45261905D01*
X52704762Y-45166667D01*
X52752381Y-45023809D01*
X52752381Y-44785714D01*
X52752381Y-46309524D02*
X52752381Y-45738095D01*
X52752381Y-46023809D02*
X51752381Y-46023809D01*
X51895238Y-45928571D01*
X51990476Y-45833333D01*
X52038095Y-45738095D01*
X51752381Y-47214286D02*
X51752381Y-46738095D01*
X52228571Y-46690476D01*
X52180952Y-46738095D01*
X52133333Y-46833333D01*
X52133333Y-47071429D01*
X52180952Y-47166667D01*
X52228571Y-47214286D01*
X52323810Y-47261905D01*
X52561905Y-47261905D01*
X52657143Y-47214286D01*
X52704762Y-47166667D01*
X52752381Y-47071429D01*
X52752381Y-46833333D01*
X52704762Y-46738095D01*
X52657143Y-46690476D01*
X54452381Y-41838095D02*
X53452381Y-41838095D01*
X54452381Y-42409524D02*
X53880952Y-41980952D01*
X53452381Y-42409524D02*
X54023810Y-41838095D01*
X54166667Y-49761905D02*
X54166667Y-50238096D01*
X54452381Y-49666667D02*
X53452381Y-50000000D01*
X54452381Y-50333334D01*
X102752381Y-34885714D02*
X101752381Y-34885714D01*
X101752381Y-35123809D01*
X101800000Y-35266667D01*
X101895238Y-35361905D01*
X101990476Y-35409524D01*
X102180952Y-35457143D01*
X102323810Y-35457143D01*
X102514286Y-35409524D01*
X102609524Y-35361905D01*
X102704762Y-35266667D01*
X102752381Y-35123809D01*
X102752381Y-34885714D01*
X102752381Y-36409524D02*
X102752381Y-35838095D01*
X102752381Y-36123809D02*
X101752381Y-36123809D01*
X101895238Y-36028571D01*
X101990476Y-35933333D01*
X102038095Y-35838095D01*
X101752381Y-37266667D02*
X101752381Y-37076190D01*
X101800000Y-36980952D01*
X101847619Y-36933333D01*
X101990476Y-36838095D01*
X102180952Y-36790476D01*
X102561905Y-36790476D01*
X102657143Y-36838095D01*
X102704762Y-36885714D01*
X102752381Y-36980952D01*
X102752381Y-37171429D01*
X102704762Y-37266667D01*
X102657143Y-37314286D01*
X102561905Y-37361905D01*
X102323810Y-37361905D01*
X102228571Y-37314286D01*
X102180952Y-37266667D01*
X102133333Y-37171429D01*
X102133333Y-36980952D01*
X102180952Y-36885714D01*
X102228571Y-36838095D01*
X102323810Y-36790476D01*
X104452381Y-31738095D02*
X103452381Y-31738095D01*
X104452381Y-32309524D02*
X103880952Y-31880952D01*
X103452381Y-32309524D02*
X104023810Y-31738095D01*
X104166667Y-39761905D02*
X104166667Y-40238096D01*
X104452381Y-39666667D02*
X103452381Y-40000000D01*
X104452381Y-40333334D01*
X102752381Y-44785714D02*
X101752381Y-44785714D01*
X101752381Y-45023809D01*
X101800000Y-45166667D01*
X101895238Y-45261905D01*
X101990476Y-45309524D01*
X102180952Y-45357143D01*
X102323810Y-45357143D01*
X102514286Y-45309524D01*
X102609524Y-45261905D01*
X102704762Y-45166667D01*
X102752381Y-45023809D01*
X102752381Y-44785714D01*
X102752381Y-46309524D02*
X102752381Y-45738095D01*
X102752381Y-46023809D02*
X101752381Y-46023809D01*
X101895238Y-45928571D01*
X101990476Y-45833333D01*
X102038095Y-45738095D01*
X101752381Y-46642857D02*
X101752381Y-47309524D01*
X102752381Y-46880952D01*
X104452381Y-41738095D02*
X103452381Y-41738095D01*
X104452381Y-42309524D02*
X103880952Y-41880952D01*
X103452381Y-42309524D02*
X104023810Y-41738095D01*
X104166667Y-49761905D02*
X104166667Y-50238096D01*
X104452381Y-49666667D02*
X103452381Y-50000000D01*
X104452381Y-50333334D01*
X72852381Y-76885714D02*
X71852381Y-76885714D01*
X71852381Y-77123809D01*
X71900000Y-77266667D01*
X71995238Y-77361905D01*
X72090476Y-77409524D01*
X72280952Y-77457143D01*
X72423810Y-77457143D01*
X72614286Y-77409524D01*
X72709524Y-77361905D01*
X72804762Y-77266667D01*
X72852381Y-77123809D01*
X72852381Y-76885714D01*
X72852381Y-78409524D02*
X72852381Y-77838095D01*
X72852381Y-78123809D02*
X71852381Y-78123809D01*
X71995238Y-78028571D01*
X72090476Y-77933333D01*
X72138095Y-77838095D01*
X72280952Y-78980952D02*
X72233333Y-78885714D01*
X72185714Y-78838095D01*
X72090476Y-78790476D01*
X72042857Y-78790476D01*
X71947619Y-78838095D01*
X71900000Y-78885714D01*
X71852381Y-78980952D01*
X71852381Y-79171429D01*
X71900000Y-79266667D01*
X71947619Y-79314286D01*
X72042857Y-79361905D01*
X72090476Y-79361905D01*
X72185714Y-79314286D01*
X72233333Y-79266667D01*
X72280952Y-79171429D01*
X72280952Y-78980952D01*
X72328571Y-78885714D01*
X72376190Y-78838095D01*
X72471429Y-78790476D01*
X72661905Y-78790476D01*
X72757143Y-78838095D01*
X72804762Y-78885714D01*
X72852381Y-78980952D01*
X72852381Y-79171429D01*
X72804762Y-79266667D01*
X72757143Y-79314286D01*
X72661905Y-79361905D01*
X72471429Y-79361905D01*
X72376190Y-79314286D01*
X72328571Y-79266667D01*
X72280952Y-79171429D01*
X77252381Y-74838095D02*
X76252381Y-74838095D01*
X77252381Y-75409524D02*
X76680952Y-74980952D01*
X76252381Y-75409524D02*
X76823810Y-74838095D01*
X76966667Y-80761905D02*
X76966667Y-81238096D01*
X77252381Y-80666667D02*
X76252381Y-81000000D01*
X77252381Y-81333334D01*
X55252381Y-76685714D02*
X54252381Y-76685714D01*
X54252381Y-76923809D01*
X54300000Y-77066667D01*
X54395238Y-77161905D01*
X54490476Y-77209524D01*
X54680952Y-77257143D01*
X54823810Y-77257143D01*
X55014286Y-77209524D01*
X55109524Y-77161905D01*
X55204762Y-77066667D01*
X55252381Y-76923809D01*
X55252381Y-76685714D01*
X54347619Y-77638095D02*
X54300000Y-77685714D01*
X54252381Y-77780952D01*
X54252381Y-78019048D01*
X54300000Y-78114286D01*
X54347619Y-78161905D01*
X54442857Y-78209524D01*
X54538095Y-78209524D01*
X54680952Y-78161905D01*
X55252381Y-77590476D01*
X55252381Y-78209524D01*
X54585714Y-79066667D02*
X55252381Y-79066667D01*
X54204762Y-78828571D02*
X54919048Y-78590476D01*
X54919048Y-79209524D01*
X57652381Y-73738095D02*
X56652381Y-73738095D01*
X57652381Y-74309524D02*
X57080952Y-73880952D01*
X56652381Y-74309524D02*
X57223810Y-73738095D01*
X57366667Y-81461905D02*
X57366667Y-81938096D01*
X57652381Y-81366667D02*
X56652381Y-81700000D01*
X57652381Y-82033334D01*
X89452381Y-76485714D02*
X88452381Y-76485714D01*
X88452381Y-76723809D01*
X88500000Y-76866667D01*
X88595238Y-76961905D01*
X88690476Y-77009524D01*
X88880952Y-77057143D01*
X89023810Y-77057143D01*
X89214286Y-77009524D01*
X89309524Y-76961905D01*
X89404762Y-76866667D01*
X89452381Y-76723809D01*
X89452381Y-76485714D01*
X88452381Y-77390476D02*
X88452381Y-78009524D01*
X88833333Y-77676190D01*
X88833333Y-77819048D01*
X88880952Y-77914286D01*
X88928571Y-77961905D01*
X89023810Y-78009524D01*
X89261905Y-78009524D01*
X89357143Y-77961905D01*
X89404762Y-77914286D01*
X89452381Y-77819048D01*
X89452381Y-77533333D01*
X89404762Y-77438095D01*
X89357143Y-77390476D01*
X88452381Y-78628571D02*
X88452381Y-78723810D01*
X88500000Y-78819048D01*
X88547619Y-78866667D01*
X88642857Y-78914286D01*
X88833333Y-78961905D01*
X89071429Y-78961905D01*
X89261905Y-78914286D01*
X89357143Y-78866667D01*
X89404762Y-78819048D01*
X89452381Y-78723810D01*
X89452381Y-78628571D01*
X89404762Y-78533333D01*
X89357143Y-78485714D01*
X89261905Y-78438095D01*
X89071429Y-78390476D01*
X88833333Y-78390476D01*
X88642857Y-78438095D01*
X88547619Y-78485714D01*
X88500000Y-78533333D01*
X88452381Y-78628571D01*
X93852381Y-74238095D02*
X92852381Y-74238095D01*
X93852381Y-74809524D02*
X93280952Y-74380952D01*
X92852381Y-74809524D02*
X93423810Y-74238095D01*
X93366667Y-80161905D02*
X93366667Y-80638096D01*
X93652381Y-80066667D02*
X92652381Y-80400000D01*
X93652381Y-80733334D01*
X107452381Y-76385714D02*
X106452381Y-76385714D01*
X106452381Y-76623809D01*
X106500000Y-76766667D01*
X106595238Y-76861905D01*
X106690476Y-76909524D01*
X106880952Y-76957143D01*
X107023810Y-76957143D01*
X107214286Y-76909524D01*
X107309524Y-76861905D01*
X107404762Y-76766667D01*
X107452381Y-76623809D01*
X107452381Y-76385714D01*
X106452381Y-77290476D02*
X106452381Y-77909524D01*
X106833333Y-77576190D01*
X106833333Y-77719048D01*
X106880952Y-77814286D01*
X106928571Y-77861905D01*
X107023810Y-77909524D01*
X107261905Y-77909524D01*
X107357143Y-77861905D01*
X107404762Y-77814286D01*
X107452381Y-77719048D01*
X107452381Y-77433333D01*
X107404762Y-77338095D01*
X107357143Y-77290476D01*
X106452381Y-78766667D02*
X106452381Y-78576190D01*
X106500000Y-78480952D01*
X106547619Y-78433333D01*
X106690476Y-78338095D01*
X106880952Y-78290476D01*
X107261905Y-78290476D01*
X107357143Y-78338095D01*
X107404762Y-78385714D01*
X107452381Y-78480952D01*
X107452381Y-78671429D01*
X107404762Y-78766667D01*
X107357143Y-78814286D01*
X107261905Y-78861905D01*
X107023810Y-78861905D01*
X106928571Y-78814286D01*
X106880952Y-78766667D01*
X106833333Y-78671429D01*
X106833333Y-78480952D01*
X106880952Y-78385714D01*
X106928571Y-78338095D01*
X107023810Y-78290476D01*
X111852381Y-74138095D02*
X110852381Y-74138095D01*
X111852381Y-74709524D02*
X111280952Y-74280952D01*
X110852381Y-74709524D02*
X111423810Y-74138095D01*
X111566667Y-80361905D02*
X111566667Y-80838096D01*
X111852381Y-80266667D02*
X110852381Y-80600000D01*
X111852381Y-80933334D01*
X100952381Y-66666667D02*
X101666667Y-66666667D01*
X101809524Y-66619047D01*
X101904762Y-66523809D01*
X101952381Y-66380952D01*
X101952381Y-66285714D01*
X101047619Y-67095238D02*
X101000000Y-67142857D01*
X100952381Y-67238095D01*
X100952381Y-67476191D01*
X101000000Y-67571429D01*
X101047619Y-67619048D01*
X101142857Y-67666667D01*
X101238095Y-67666667D01*
X101380952Y-67619048D01*
X101952381Y-67047619D01*
X101952381Y-67666667D01*
X109752381Y-32061905D02*
X108752381Y-32061905D01*
X108752381Y-32442858D01*
X108800000Y-32538096D01*
X108847619Y-32585715D01*
X108942857Y-32633334D01*
X109085714Y-32633334D01*
X109180952Y-32585715D01*
X109228571Y-32538096D01*
X109276190Y-32442858D01*
X109276190Y-32061905D01*
X109752381Y-33585715D02*
X109752381Y-33014286D01*
X109752381Y-33300000D02*
X108752381Y-33300000D01*
X108895238Y-33204762D01*
X108990476Y-33109524D01*
X109038095Y-33014286D01*
X122952381Y-40861905D02*
X121952381Y-40861905D01*
X121952381Y-41242858D01*
X122000000Y-41338096D01*
X122047619Y-41385715D01*
X122142857Y-41433334D01*
X122285714Y-41433334D01*
X122380952Y-41385715D01*
X122428571Y-41338096D01*
X122476190Y-41242858D01*
X122476190Y-40861905D01*
X122047619Y-41814286D02*
X122000000Y-41861905D01*
X121952381Y-41957143D01*
X121952381Y-42195239D01*
X122000000Y-42290477D01*
X122047619Y-42338096D01*
X122142857Y-42385715D01*
X122238095Y-42385715D01*
X122380952Y-42338096D01*
X122952381Y-41766667D01*
X122952381Y-42385715D01*
X41880952Y-64752381D02*
X41880952Y-63752381D01*
X41499999Y-63752381D01*
X41404761Y-63800000D01*
X41357142Y-63847619D01*
X41309523Y-63942857D01*
X41309523Y-64085714D01*
X41357142Y-64180952D01*
X41404761Y-64228571D01*
X41499999Y-64276190D01*
X41880952Y-64276190D01*
X40976190Y-63752381D02*
X40738095Y-64752381D01*
X40547618Y-64038095D01*
X40357142Y-64752381D01*
X40119047Y-63752381D01*
X39738095Y-64752381D02*
X39738095Y-63752381D01*
X39404761Y-64466667D01*
X39071428Y-63752381D01*
X39071428Y-64752381D01*
X38071428Y-64752381D02*
X38642857Y-64752381D01*
X38357143Y-64752381D02*
X38357143Y-63752381D01*
X38452381Y-63895238D01*
X38547619Y-63990476D01*
X38642857Y-64038095D01*
X46880952Y-64752381D02*
X46880952Y-63752381D01*
X46499999Y-63752381D01*
X46404761Y-63800000D01*
X46357142Y-63847619D01*
X46309523Y-63942857D01*
X46309523Y-64085714D01*
X46357142Y-64180952D01*
X46404761Y-64228571D01*
X46499999Y-64276190D01*
X46880952Y-64276190D01*
X45976190Y-63752381D02*
X45738095Y-64752381D01*
X45547618Y-64038095D01*
X45357142Y-64752381D01*
X45119047Y-63752381D01*
X44738095Y-64752381D02*
X44738095Y-63752381D01*
X44404761Y-64466667D01*
X44071428Y-63752381D01*
X44071428Y-64752381D01*
X43642857Y-63847619D02*
X43595238Y-63800000D01*
X43500000Y-63752381D01*
X43261904Y-63752381D01*
X43166666Y-63800000D01*
X43119047Y-63847619D01*
X43071428Y-63942857D01*
X43071428Y-64038095D01*
X43119047Y-64180952D01*
X43690476Y-64752381D01*
X43071428Y-64752381D01*
X51880952Y-64752381D02*
X51880952Y-63752381D01*
X51499999Y-63752381D01*
X51404761Y-63800000D01*
X51357142Y-63847619D01*
X51309523Y-63942857D01*
X51309523Y-64085714D01*
X51357142Y-64180952D01*
X51404761Y-64228571D01*
X51499999Y-64276190D01*
X51880952Y-64276190D01*
X50976190Y-63752381D02*
X50738095Y-64752381D01*
X50547618Y-64038095D01*
X50357142Y-64752381D01*
X50119047Y-63752381D01*
X49738095Y-64752381D02*
X49738095Y-63752381D01*
X49404761Y-64466667D01*
X49071428Y-63752381D01*
X49071428Y-64752381D01*
X48690476Y-63752381D02*
X48071428Y-63752381D01*
X48404762Y-64133333D01*
X48261904Y-64133333D01*
X48166666Y-64180952D01*
X48119047Y-64228571D01*
X48071428Y-64323810D01*
X48071428Y-64561905D01*
X48119047Y-64657143D01*
X48166666Y-64704762D01*
X48261904Y-64752381D01*
X48547619Y-64752381D01*
X48642857Y-64704762D01*
X48690476Y-64657143D01*
X56880952Y-64752381D02*
X56880952Y-63752381D01*
X56499999Y-63752381D01*
X56404761Y-63800000D01*
X56357142Y-63847619D01*
X56309523Y-63942857D01*
X56309523Y-64085714D01*
X56357142Y-64180952D01*
X56404761Y-64228571D01*
X56499999Y-64276190D01*
X56880952Y-64276190D01*
X55976190Y-63752381D02*
X55738095Y-64752381D01*
X55547618Y-64038095D01*
X55357142Y-64752381D01*
X55119047Y-63752381D01*
X54738095Y-64752381D02*
X54738095Y-63752381D01*
X54404761Y-64466667D01*
X54071428Y-63752381D01*
X54071428Y-64752381D01*
X53166666Y-64085714D02*
X53166666Y-64752381D01*
X53404762Y-63704762D02*
X53642857Y-64419048D01*
X53023809Y-64419048D01*
X61780952Y-64752381D02*
X61780952Y-63752381D01*
X61399999Y-63752381D01*
X61304761Y-63800000D01*
X61257142Y-63847619D01*
X61209523Y-63942857D01*
X61209523Y-64085714D01*
X61257142Y-64180952D01*
X61304761Y-64228571D01*
X61399999Y-64276190D01*
X61780952Y-64276190D01*
X60876190Y-63752381D02*
X60638095Y-64752381D01*
X60447618Y-64038095D01*
X60257142Y-64752381D01*
X60019047Y-63752381D01*
X59638095Y-64752381D02*
X59638095Y-63752381D01*
X59304761Y-64466667D01*
X58971428Y-63752381D01*
X58971428Y-64752381D01*
X58019047Y-63752381D02*
X58495238Y-63752381D01*
X58542857Y-64228571D01*
X58495238Y-64180952D01*
X58400000Y-64133333D01*
X58161904Y-64133333D01*
X58066666Y-64180952D01*
X58019047Y-64228571D01*
X57971428Y-64323810D01*
X57971428Y-64561905D01*
X58019047Y-64657143D01*
X58066666Y-64704762D01*
X58161904Y-64752381D01*
X58400000Y-64752381D01*
X58495238Y-64704762D01*
X58542857Y-64657143D01*
X42252381Y-85619048D02*
X41776190Y-85285714D01*
X42252381Y-85047619D02*
X41252381Y-85047619D01*
X41252381Y-85428572D01*
X41300000Y-85523810D01*
X41347619Y-85571429D01*
X41442857Y-85619048D01*
X41585714Y-85619048D01*
X41680952Y-85571429D01*
X41728571Y-85523810D01*
X41776190Y-85428572D01*
X41776190Y-85047619D01*
X41252381Y-86238095D02*
X41252381Y-86333334D01*
X41300000Y-86428572D01*
X41347619Y-86476191D01*
X41442857Y-86523810D01*
X41633333Y-86571429D01*
X41871429Y-86571429D01*
X42061905Y-86523810D01*
X42157143Y-86476191D01*
X42204762Y-86428572D01*
X42252381Y-86333334D01*
X42252381Y-86238095D01*
X42204762Y-86142857D01*
X42157143Y-86095238D01*
X42061905Y-86047619D01*
X41871429Y-86000000D01*
X41633333Y-86000000D01*
X41442857Y-86047619D01*
X41347619Y-86095238D01*
X41300000Y-86142857D01*
X41252381Y-86238095D01*
X42157143Y-87000000D02*
X42204762Y-87047619D01*
X42252381Y-87000000D01*
X42204762Y-86952381D01*
X42157143Y-87000000D01*
X42252381Y-87000000D01*
X42252381Y-88000000D02*
X42252381Y-87428571D01*
X42252381Y-87714285D02*
X41252381Y-87714285D01*
X41395238Y-87619047D01*
X41490476Y-87523809D01*
X41538095Y-87428571D01*
X78252381Y-85219048D02*
X77776190Y-84885714D01*
X78252381Y-84647619D02*
X77252381Y-84647619D01*
X77252381Y-85028572D01*
X77300000Y-85123810D01*
X77347619Y-85171429D01*
X77442857Y-85219048D01*
X77585714Y-85219048D01*
X77680952Y-85171429D01*
X77728571Y-85123810D01*
X77776190Y-85028572D01*
X77776190Y-84647619D01*
X77252381Y-85838095D02*
X77252381Y-85933334D01*
X77300000Y-86028572D01*
X77347619Y-86076191D01*
X77442857Y-86123810D01*
X77633333Y-86171429D01*
X77871429Y-86171429D01*
X78061905Y-86123810D01*
X78157143Y-86076191D01*
X78204762Y-86028572D01*
X78252381Y-85933334D01*
X78252381Y-85838095D01*
X78204762Y-85742857D01*
X78157143Y-85695238D01*
X78061905Y-85647619D01*
X77871429Y-85600000D01*
X77633333Y-85600000D01*
X77442857Y-85647619D01*
X77347619Y-85695238D01*
X77300000Y-85742857D01*
X77252381Y-85838095D01*
X78157143Y-86600000D02*
X78204762Y-86647619D01*
X78252381Y-86600000D01*
X78204762Y-86552381D01*
X78157143Y-86600000D01*
X78252381Y-86600000D01*
X77347619Y-87028571D02*
X77300000Y-87076190D01*
X77252381Y-87171428D01*
X77252381Y-87409524D01*
X77300000Y-87504762D01*
X77347619Y-87552381D01*
X77442857Y-87600000D01*
X77538095Y-87600000D01*
X77680952Y-87552381D01*
X78252381Y-86980952D01*
X78252381Y-87600000D01*
X60352381Y-85119048D02*
X59876190Y-84785714D01*
X60352381Y-84547619D02*
X59352381Y-84547619D01*
X59352381Y-84928572D01*
X59400000Y-85023810D01*
X59447619Y-85071429D01*
X59542857Y-85119048D01*
X59685714Y-85119048D01*
X59780952Y-85071429D01*
X59828571Y-85023810D01*
X59876190Y-84928572D01*
X59876190Y-84547619D01*
X59352381Y-85738095D02*
X59352381Y-85833334D01*
X59400000Y-85928572D01*
X59447619Y-85976191D01*
X59542857Y-86023810D01*
X59733333Y-86071429D01*
X59971429Y-86071429D01*
X60161905Y-86023810D01*
X60257143Y-85976191D01*
X60304762Y-85928572D01*
X60352381Y-85833334D01*
X60352381Y-85738095D01*
X60304762Y-85642857D01*
X60257143Y-85595238D01*
X60161905Y-85547619D01*
X59971429Y-85500000D01*
X59733333Y-85500000D01*
X59542857Y-85547619D01*
X59447619Y-85595238D01*
X59400000Y-85642857D01*
X59352381Y-85738095D01*
X60257143Y-86500000D02*
X60304762Y-86547619D01*
X60352381Y-86500000D01*
X60304762Y-86452381D01*
X60257143Y-86500000D01*
X60352381Y-86500000D01*
X59352381Y-86880952D02*
X59352381Y-87500000D01*
X59733333Y-87166666D01*
X59733333Y-87309524D01*
X59780952Y-87404762D01*
X59828571Y-87452381D01*
X59923810Y-87500000D01*
X60161905Y-87500000D01*
X60257143Y-87452381D01*
X60304762Y-87404762D01*
X60352381Y-87309524D01*
X60352381Y-87023809D01*
X60304762Y-86928571D01*
X60257143Y-86880952D01*
X94752381Y-84719048D02*
X94276190Y-84385714D01*
X94752381Y-84147619D02*
X93752381Y-84147619D01*
X93752381Y-84528572D01*
X93800000Y-84623810D01*
X93847619Y-84671429D01*
X93942857Y-84719048D01*
X94085714Y-84719048D01*
X94180952Y-84671429D01*
X94228571Y-84623810D01*
X94276190Y-84528572D01*
X94276190Y-84147619D01*
X93752381Y-85338095D02*
X93752381Y-85433334D01*
X93800000Y-85528572D01*
X93847619Y-85576191D01*
X93942857Y-85623810D01*
X94133333Y-85671429D01*
X94371429Y-85671429D01*
X94561905Y-85623810D01*
X94657143Y-85576191D01*
X94704762Y-85528572D01*
X94752381Y-85433334D01*
X94752381Y-85338095D01*
X94704762Y-85242857D01*
X94657143Y-85195238D01*
X94561905Y-85147619D01*
X94371429Y-85100000D01*
X94133333Y-85100000D01*
X93942857Y-85147619D01*
X93847619Y-85195238D01*
X93800000Y-85242857D01*
X93752381Y-85338095D01*
X94657143Y-86100000D02*
X94704762Y-86147619D01*
X94752381Y-86100000D01*
X94704762Y-86052381D01*
X94657143Y-86100000D01*
X94752381Y-86100000D01*
X94085714Y-87004762D02*
X94752381Y-87004762D01*
X93704762Y-86766666D02*
X94419048Y-86528571D01*
X94419048Y-87147619D01*
X113002381Y-84369048D02*
X112526190Y-84035714D01*
X113002381Y-83797619D02*
X112002381Y-83797619D01*
X112002381Y-84178572D01*
X112050000Y-84273810D01*
X112097619Y-84321429D01*
X112192857Y-84369048D01*
X112335714Y-84369048D01*
X112430952Y-84321429D01*
X112478571Y-84273810D01*
X112526190Y-84178572D01*
X112526190Y-83797619D01*
X112002381Y-84988095D02*
X112002381Y-85083334D01*
X112050000Y-85178572D01*
X112097619Y-85226191D01*
X112192857Y-85273810D01*
X112383333Y-85321429D01*
X112621429Y-85321429D01*
X112811905Y-85273810D01*
X112907143Y-85226191D01*
X112954762Y-85178572D01*
X113002381Y-85083334D01*
X113002381Y-84988095D01*
X112954762Y-84892857D01*
X112907143Y-84845238D01*
X112811905Y-84797619D01*
X112621429Y-84750000D01*
X112383333Y-84750000D01*
X112192857Y-84797619D01*
X112097619Y-84845238D01*
X112050000Y-84892857D01*
X112002381Y-84988095D01*
X112907143Y-85750000D02*
X112954762Y-85797619D01*
X113002381Y-85750000D01*
X112954762Y-85702381D01*
X112907143Y-85750000D01*
X113002381Y-85750000D01*
X112002381Y-86702381D02*
X112002381Y-86226190D01*
X112478571Y-86178571D01*
X112430952Y-86226190D01*
X112383333Y-86321428D01*
X112383333Y-86559524D01*
X112430952Y-86654762D01*
X112478571Y-86702381D01*
X112573810Y-86750000D01*
X112811905Y-86750000D01*
X112907143Y-86702381D01*
X112954762Y-86654762D01*
X113002381Y-86559524D01*
X113002381Y-86321428D01*
X112954762Y-86226190D01*
X112907143Y-86178571D01*
X43852381Y-84452381D02*
X43376190Y-84119047D01*
X43852381Y-83880952D02*
X42852381Y-83880952D01*
X42852381Y-84261905D01*
X42900000Y-84357143D01*
X42947619Y-84404762D01*
X43042857Y-84452381D01*
X43185714Y-84452381D01*
X43280952Y-84404762D01*
X43328571Y-84357143D01*
X43376190Y-84261905D01*
X43376190Y-83880952D01*
X43852381Y-85404762D02*
X43852381Y-84833333D01*
X43852381Y-85119047D02*
X42852381Y-85119047D01*
X42995238Y-85023809D01*
X43090476Y-84928571D01*
X43138095Y-84833333D01*
X43852381Y-85833333D02*
X42852381Y-85833333D01*
X43471429Y-85928571D02*
X43852381Y-86214286D01*
X43185714Y-86214286D02*
X43566667Y-85833333D01*
X43852381Y-87166667D02*
X43852381Y-86595238D01*
X43852381Y-86880952D02*
X42852381Y-86880952D01*
X42995238Y-86785714D01*
X43090476Y-86690476D01*
X43138095Y-86595238D01*
X81452381Y-84452381D02*
X80976190Y-84119047D01*
X81452381Y-83880952D02*
X80452381Y-83880952D01*
X80452381Y-84261905D01*
X80500000Y-84357143D01*
X80547619Y-84404762D01*
X80642857Y-84452381D01*
X80785714Y-84452381D01*
X80880952Y-84404762D01*
X80928571Y-84357143D01*
X80976190Y-84261905D01*
X80976190Y-83880952D01*
X81452381Y-85404762D02*
X81452381Y-84833333D01*
X81452381Y-85119047D02*
X80452381Y-85119047D01*
X80595238Y-85023809D01*
X80690476Y-84928571D01*
X80738095Y-84833333D01*
X81452381Y-85833333D02*
X80452381Y-85833333D01*
X81071429Y-85928571D02*
X81452381Y-86214286D01*
X80785714Y-86214286D02*
X81166667Y-85833333D01*
X80547619Y-86595238D02*
X80500000Y-86642857D01*
X80452381Y-86738095D01*
X80452381Y-86976191D01*
X80500000Y-87071429D01*
X80547619Y-87119048D01*
X80642857Y-87166667D01*
X80738095Y-87166667D01*
X80880952Y-87119048D01*
X81452381Y-86547619D01*
X81452381Y-87166667D01*
X63752381Y-84152381D02*
X63276190Y-83819047D01*
X63752381Y-83580952D02*
X62752381Y-83580952D01*
X62752381Y-83961905D01*
X62800000Y-84057143D01*
X62847619Y-84104762D01*
X62942857Y-84152381D01*
X63085714Y-84152381D01*
X63180952Y-84104762D01*
X63228571Y-84057143D01*
X63276190Y-83961905D01*
X63276190Y-83580952D01*
X63752381Y-85104762D02*
X63752381Y-84533333D01*
X63752381Y-84819047D02*
X62752381Y-84819047D01*
X62895238Y-84723809D01*
X62990476Y-84628571D01*
X63038095Y-84533333D01*
X63752381Y-85533333D02*
X62752381Y-85533333D01*
X63371429Y-85628571D02*
X63752381Y-85914286D01*
X63085714Y-85914286D02*
X63466667Y-85533333D01*
X62752381Y-86247619D02*
X62752381Y-86866667D01*
X63133333Y-86533333D01*
X63133333Y-86676191D01*
X63180952Y-86771429D01*
X63228571Y-86819048D01*
X63323810Y-86866667D01*
X63561905Y-86866667D01*
X63657143Y-86819048D01*
X63704762Y-86771429D01*
X63752381Y-86676191D01*
X63752381Y-86390476D01*
X63704762Y-86295238D01*
X63657143Y-86247619D01*
X98652381Y-84352381D02*
X98176190Y-84019047D01*
X98652381Y-83780952D02*
X97652381Y-83780952D01*
X97652381Y-84161905D01*
X97700000Y-84257143D01*
X97747619Y-84304762D01*
X97842857Y-84352381D01*
X97985714Y-84352381D01*
X98080952Y-84304762D01*
X98128571Y-84257143D01*
X98176190Y-84161905D01*
X98176190Y-83780952D01*
X98652381Y-85304762D02*
X98652381Y-84733333D01*
X98652381Y-85019047D02*
X97652381Y-85019047D01*
X97795238Y-84923809D01*
X97890476Y-84828571D01*
X97938095Y-84733333D01*
X98652381Y-85733333D02*
X97652381Y-85733333D01*
X98271429Y-85828571D02*
X98652381Y-86114286D01*
X97985714Y-86114286D02*
X98366667Y-85733333D01*
X97985714Y-86971429D02*
X98652381Y-86971429D01*
X97604762Y-86733333D02*
X98319048Y-86495238D01*
X98319048Y-87114286D01*
X116802381Y-83702381D02*
X116326190Y-83369047D01*
X116802381Y-83130952D02*
X115802381Y-83130952D01*
X115802381Y-83511905D01*
X115850000Y-83607143D01*
X115897619Y-83654762D01*
X115992857Y-83702381D01*
X116135714Y-83702381D01*
X116230952Y-83654762D01*
X116278571Y-83607143D01*
X116326190Y-83511905D01*
X116326190Y-83130952D01*
X116802381Y-84654762D02*
X116802381Y-84083333D01*
X116802381Y-84369047D02*
X115802381Y-84369047D01*
X115945238Y-84273809D01*
X116040476Y-84178571D01*
X116088095Y-84083333D01*
X116802381Y-85083333D02*
X115802381Y-85083333D01*
X116421429Y-85178571D02*
X116802381Y-85464286D01*
X116135714Y-85464286D02*
X116516667Y-85083333D01*
X115802381Y-86369048D02*
X115802381Y-85892857D01*
X116278571Y-85845238D01*
X116230952Y-85892857D01*
X116183333Y-85988095D01*
X116183333Y-86226191D01*
X116230952Y-86321429D01*
X116278571Y-86369048D01*
X116373810Y-86416667D01*
X116611905Y-86416667D01*
X116707143Y-86369048D01*
X116754762Y-86321429D01*
X116802381Y-86226191D01*
X116802381Y-85988095D01*
X116754762Y-85892857D01*
X116707143Y-85845238D01*
X99052381Y-48357143D02*
X98576190Y-48023809D01*
X99052381Y-47785714D02*
X98052381Y-47785714D01*
X98052381Y-48166667D01*
X98100000Y-48261905D01*
X98147619Y-48309524D01*
X98242857Y-48357143D01*
X98385714Y-48357143D01*
X98480952Y-48309524D01*
X98528571Y-48261905D01*
X98576190Y-48166667D01*
X98576190Y-47785714D01*
X98385714Y-49214286D02*
X99052381Y-49214286D01*
X98004762Y-48976190D02*
X98719048Y-48738095D01*
X98719048Y-49357143D01*
X99052381Y-49738095D02*
X98052381Y-49738095D01*
X99052381Y-50309524D02*
X98480952Y-49880952D01*
X98052381Y-50309524D02*
X98623810Y-49738095D01*
X99052381Y-51261905D02*
X99052381Y-50690476D01*
X99052381Y-50976190D02*
X98052381Y-50976190D01*
X98195238Y-50880952D01*
X98290476Y-50785714D01*
X98338095Y-50690476D01*
X51523809Y-88452381D02*
X51857143Y-87976190D01*
X52095238Y-88452381D02*
X52095238Y-87452381D01*
X51714285Y-87452381D01*
X51619047Y-87500000D01*
X51571428Y-87547619D01*
X51523809Y-87642857D01*
X51523809Y-87785714D01*
X51571428Y-87880952D01*
X51619047Y-87928571D01*
X51714285Y-87976190D01*
X52095238Y-87976190D01*
X50571428Y-88452381D02*
X51142857Y-88452381D01*
X50857143Y-88452381D02*
X50857143Y-87452381D01*
X50952381Y-87595238D01*
X51047619Y-87690476D01*
X51142857Y-87738095D01*
X49952381Y-87452381D02*
X49857142Y-87452381D01*
X49761904Y-87500000D01*
X49714285Y-87547619D01*
X49666666Y-87642857D01*
X49619047Y-87833333D01*
X49619047Y-88071429D01*
X49666666Y-88261905D01*
X49714285Y-88357143D01*
X49761904Y-88404762D01*
X49857142Y-88452381D01*
X49952381Y-88452381D01*
X50047619Y-88404762D01*
X50095238Y-88357143D01*
X50142857Y-88261905D01*
X50190476Y-88071429D01*
X50190476Y-87833333D01*
X50142857Y-87642857D01*
X50095238Y-87547619D01*
X50047619Y-87500000D01*
X49952381Y-87452381D01*
X49190476Y-88452381D02*
X49190476Y-87452381D01*
X49095238Y-88071429D02*
X48809523Y-88452381D01*
X48809523Y-87785714D02*
X49190476Y-88166667D01*
X47857142Y-88452381D02*
X48428571Y-88452381D01*
X48142857Y-88452381D02*
X48142857Y-87452381D01*
X48238095Y-87595238D01*
X48333333Y-87690476D01*
X48428571Y-87738095D01*
X109619047Y-68052381D02*
X109952381Y-67576190D01*
X110190476Y-68052381D02*
X110190476Y-67052381D01*
X109809523Y-67052381D01*
X109714285Y-67100000D01*
X109666666Y-67147619D01*
X109619047Y-67242857D01*
X109619047Y-67385714D01*
X109666666Y-67480952D01*
X109714285Y-67528571D01*
X109809523Y-67576190D01*
X110190476Y-67576190D01*
X108666666Y-68052381D02*
X109238095Y-68052381D01*
X108952381Y-68052381D02*
X108952381Y-67052381D01*
X109047619Y-67195238D01*
X109142857Y-67290476D01*
X109238095Y-67338095D01*
X108047619Y-67052381D02*
X107952380Y-67052381D01*
X107857142Y-67100000D01*
X107809523Y-67147619D01*
X107761904Y-67242857D01*
X107714285Y-67433333D01*
X107714285Y-67671429D01*
X107761904Y-67861905D01*
X107809523Y-67957143D01*
X107857142Y-68004762D01*
X107952380Y-68052381D01*
X108047619Y-68052381D01*
X108142857Y-68004762D01*
X108190476Y-67957143D01*
X108238095Y-67861905D01*
X108285714Y-67671429D01*
X108285714Y-67433333D01*
X108238095Y-67242857D01*
X108190476Y-67147619D01*
X108142857Y-67100000D01*
X108047619Y-67052381D01*
X107285714Y-68052381D02*
X107285714Y-67052381D01*
X106714285Y-68052381D02*
X107142857Y-67480952D01*
X106714285Y-67052381D02*
X107285714Y-67623810D01*
X105761904Y-68052381D02*
X106333333Y-68052381D01*
X106047619Y-68052381D02*
X106047619Y-67052381D01*
X106142857Y-67195238D01*
X106238095Y-67290476D01*
X106333333Y-67338095D01*
X86523809Y-88752381D02*
X86857143Y-88276190D01*
X87095238Y-88752381D02*
X87095238Y-87752381D01*
X86714285Y-87752381D01*
X86619047Y-87800000D01*
X86571428Y-87847619D01*
X86523809Y-87942857D01*
X86523809Y-88085714D01*
X86571428Y-88180952D01*
X86619047Y-88228571D01*
X86714285Y-88276190D01*
X87095238Y-88276190D01*
X85571428Y-88752381D02*
X86142857Y-88752381D01*
X85857143Y-88752381D02*
X85857143Y-87752381D01*
X85952381Y-87895238D01*
X86047619Y-87990476D01*
X86142857Y-88038095D01*
X84952381Y-87752381D02*
X84857142Y-87752381D01*
X84761904Y-87800000D01*
X84714285Y-87847619D01*
X84666666Y-87942857D01*
X84619047Y-88133333D01*
X84619047Y-88371429D01*
X84666666Y-88561905D01*
X84714285Y-88657143D01*
X84761904Y-88704762D01*
X84857142Y-88752381D01*
X84952381Y-88752381D01*
X85047619Y-88704762D01*
X85095238Y-88657143D01*
X85142857Y-88561905D01*
X85190476Y-88371429D01*
X85190476Y-88133333D01*
X85142857Y-87942857D01*
X85095238Y-87847619D01*
X85047619Y-87800000D01*
X84952381Y-87752381D01*
X84190476Y-88752381D02*
X84190476Y-87752381D01*
X84095238Y-88371429D02*
X83809523Y-88752381D01*
X83809523Y-88085714D02*
X84190476Y-88466667D01*
X83428571Y-87847619D02*
X83380952Y-87800000D01*
X83285714Y-87752381D01*
X83047618Y-87752381D01*
X82952380Y-87800000D01*
X82904761Y-87847619D01*
X82857142Y-87942857D01*
X82857142Y-88038095D01*
X82904761Y-88180952D01*
X83476190Y-88752381D01*
X82857142Y-88752381D01*
X69223809Y-88552381D02*
X69557143Y-88076190D01*
X69795238Y-88552381D02*
X69795238Y-87552381D01*
X69414285Y-87552381D01*
X69319047Y-87600000D01*
X69271428Y-87647619D01*
X69223809Y-87742857D01*
X69223809Y-87885714D01*
X69271428Y-87980952D01*
X69319047Y-88028571D01*
X69414285Y-88076190D01*
X69795238Y-88076190D01*
X68271428Y-88552381D02*
X68842857Y-88552381D01*
X68557143Y-88552381D02*
X68557143Y-87552381D01*
X68652381Y-87695238D01*
X68747619Y-87790476D01*
X68842857Y-87838095D01*
X67652381Y-87552381D02*
X67557142Y-87552381D01*
X67461904Y-87600000D01*
X67414285Y-87647619D01*
X67366666Y-87742857D01*
X67319047Y-87933333D01*
X67319047Y-88171429D01*
X67366666Y-88361905D01*
X67414285Y-88457143D01*
X67461904Y-88504762D01*
X67557142Y-88552381D01*
X67652381Y-88552381D01*
X67747619Y-88504762D01*
X67795238Y-88457143D01*
X67842857Y-88361905D01*
X67890476Y-88171429D01*
X67890476Y-87933333D01*
X67842857Y-87742857D01*
X67795238Y-87647619D01*
X67747619Y-87600000D01*
X67652381Y-87552381D01*
X66890476Y-88552381D02*
X66890476Y-87552381D01*
X66795238Y-88171429D02*
X66509523Y-88552381D01*
X66509523Y-87885714D02*
X66890476Y-88266667D01*
X66176190Y-87552381D02*
X65557142Y-87552381D01*
X65890476Y-87933333D01*
X65747618Y-87933333D01*
X65652380Y-87980952D01*
X65604761Y-88028571D01*
X65557142Y-88123810D01*
X65557142Y-88361905D01*
X65604761Y-88457143D01*
X65652380Y-88504762D01*
X65747618Y-88552381D01*
X66033333Y-88552381D01*
X66128571Y-88504762D01*
X66176190Y-88457143D01*
X103523809Y-88652381D02*
X103857143Y-88176190D01*
X104095238Y-88652381D02*
X104095238Y-87652381D01*
X103714285Y-87652381D01*
X103619047Y-87700000D01*
X103571428Y-87747619D01*
X103523809Y-87842857D01*
X103523809Y-87985714D01*
X103571428Y-88080952D01*
X103619047Y-88128571D01*
X103714285Y-88176190D01*
X104095238Y-88176190D01*
X102571428Y-88652381D02*
X103142857Y-88652381D01*
X102857143Y-88652381D02*
X102857143Y-87652381D01*
X102952381Y-87795238D01*
X103047619Y-87890476D01*
X103142857Y-87938095D01*
X101952381Y-87652381D02*
X101857142Y-87652381D01*
X101761904Y-87700000D01*
X101714285Y-87747619D01*
X101666666Y-87842857D01*
X101619047Y-88033333D01*
X101619047Y-88271429D01*
X101666666Y-88461905D01*
X101714285Y-88557143D01*
X101761904Y-88604762D01*
X101857142Y-88652381D01*
X101952381Y-88652381D01*
X102047619Y-88604762D01*
X102095238Y-88557143D01*
X102142857Y-88461905D01*
X102190476Y-88271429D01*
X102190476Y-88033333D01*
X102142857Y-87842857D01*
X102095238Y-87747619D01*
X102047619Y-87700000D01*
X101952381Y-87652381D01*
X101190476Y-88652381D02*
X101190476Y-87652381D01*
X101095238Y-88271429D02*
X100809523Y-88652381D01*
X100809523Y-87985714D02*
X101190476Y-88366667D01*
X99952380Y-87985714D02*
X99952380Y-88652381D01*
X100190476Y-87604762D02*
X100428571Y-88319048D01*
X99809523Y-88319048D01*
X125823809Y-86952381D02*
X126157143Y-86476190D01*
X126395238Y-86952381D02*
X126395238Y-85952381D01*
X126014285Y-85952381D01*
X125919047Y-86000000D01*
X125871428Y-86047619D01*
X125823809Y-86142857D01*
X125823809Y-86285714D01*
X125871428Y-86380952D01*
X125919047Y-86428571D01*
X126014285Y-86476190D01*
X126395238Y-86476190D01*
X124871428Y-86952381D02*
X125442857Y-86952381D01*
X125157143Y-86952381D02*
X125157143Y-85952381D01*
X125252381Y-86095238D01*
X125347619Y-86190476D01*
X125442857Y-86238095D01*
X124252381Y-85952381D02*
X124157142Y-85952381D01*
X124061904Y-86000000D01*
X124014285Y-86047619D01*
X123966666Y-86142857D01*
X123919047Y-86333333D01*
X123919047Y-86571429D01*
X123966666Y-86761905D01*
X124014285Y-86857143D01*
X124061904Y-86904762D01*
X124157142Y-86952381D01*
X124252381Y-86952381D01*
X124347619Y-86904762D01*
X124395238Y-86857143D01*
X124442857Y-86761905D01*
X124490476Y-86571429D01*
X124490476Y-86333333D01*
X124442857Y-86142857D01*
X124395238Y-86047619D01*
X124347619Y-86000000D01*
X124252381Y-85952381D01*
X123490476Y-86952381D02*
X123490476Y-85952381D01*
X123395238Y-86571429D02*
X123109523Y-86952381D01*
X123109523Y-86285714D02*
X123490476Y-86666667D01*
X122204761Y-85952381D02*
X122680952Y-85952381D01*
X122728571Y-86428571D01*
X122680952Y-86380952D01*
X122585714Y-86333333D01*
X122347618Y-86333333D01*
X122252380Y-86380952D01*
X122204761Y-86428571D01*
X122157142Y-86523810D01*
X122157142Y-86761905D01*
X122204761Y-86857143D01*
X122252380Y-86904762D01*
X122347618Y-86952381D01*
X122585714Y-86952381D01*
X122680952Y-86904762D01*
X122728571Y-86857143D01*
X72952381Y-59033334D02*
X72476190Y-58700000D01*
X72952381Y-58461905D02*
X71952381Y-58461905D01*
X71952381Y-58842858D01*
X72000000Y-58938096D01*
X72047619Y-58985715D01*
X72142857Y-59033334D01*
X72285714Y-59033334D01*
X72380952Y-58985715D01*
X72428571Y-58938096D01*
X72476190Y-58842858D01*
X72476190Y-58461905D01*
X72952381Y-59461905D02*
X71952381Y-59461905D01*
X71952381Y-59700000D01*
X72000000Y-59842858D01*
X72095238Y-59938096D01*
X72190476Y-59985715D01*
X72380952Y-60033334D01*
X72523810Y-60033334D01*
X72714286Y-59985715D01*
X72809524Y-59938096D01*
X72904762Y-59842858D01*
X72952381Y-59700000D01*
X72952381Y-59461905D01*
X72952381Y-60985715D02*
X72952381Y-60414286D01*
X72952381Y-60700000D02*
X71952381Y-60700000D01*
X72095238Y-60604762D01*
X72190476Y-60509524D01*
X72238095Y-60414286D01*
X83452381Y-58933334D02*
X82976190Y-58600000D01*
X83452381Y-58361905D02*
X82452381Y-58361905D01*
X82452381Y-58742858D01*
X82500000Y-58838096D01*
X82547619Y-58885715D01*
X82642857Y-58933334D01*
X82785714Y-58933334D01*
X82880952Y-58885715D01*
X82928571Y-58838096D01*
X82976190Y-58742858D01*
X82976190Y-58361905D01*
X83452381Y-59361905D02*
X82452381Y-59361905D01*
X82452381Y-59600000D01*
X82500000Y-59742858D01*
X82595238Y-59838096D01*
X82690476Y-59885715D01*
X82880952Y-59933334D01*
X83023810Y-59933334D01*
X83214286Y-59885715D01*
X83309524Y-59838096D01*
X83404762Y-59742858D01*
X83452381Y-59600000D01*
X83452381Y-59361905D01*
X82547619Y-60314286D02*
X82500000Y-60361905D01*
X82452381Y-60457143D01*
X82452381Y-60695239D01*
X82500000Y-60790477D01*
X82547619Y-60838096D01*
X82642857Y-60885715D01*
X82738095Y-60885715D01*
X82880952Y-60838096D01*
X83452381Y-60266667D01*
X83452381Y-60885715D01*
X85852381Y-40733334D02*
X85376190Y-40400000D01*
X85852381Y-40161905D02*
X84852381Y-40161905D01*
X84852381Y-40542858D01*
X84900000Y-40638096D01*
X84947619Y-40685715D01*
X85042857Y-40733334D01*
X85185714Y-40733334D01*
X85280952Y-40685715D01*
X85328571Y-40638096D01*
X85376190Y-40542858D01*
X85376190Y-40161905D01*
X85852381Y-41161905D02*
X84852381Y-41161905D01*
X84852381Y-41400000D01*
X84900000Y-41542858D01*
X84995238Y-41638096D01*
X85090476Y-41685715D01*
X85280952Y-41733334D01*
X85423810Y-41733334D01*
X85614286Y-41685715D01*
X85709524Y-41638096D01*
X85804762Y-41542858D01*
X85852381Y-41400000D01*
X85852381Y-41161905D01*
X84852381Y-42066667D02*
X84852381Y-42685715D01*
X85233333Y-42352381D01*
X85233333Y-42495239D01*
X85280952Y-42590477D01*
X85328571Y-42638096D01*
X85423810Y-42685715D01*
X85661905Y-42685715D01*
X85757143Y-42638096D01*
X85804762Y-42590477D01*
X85852381Y-42495239D01*
X85852381Y-42209524D01*
X85804762Y-42114286D01*
X85757143Y-42066667D01*
X80952381Y-58933334D02*
X80476190Y-58600000D01*
X80952381Y-58361905D02*
X79952381Y-58361905D01*
X79952381Y-58742858D01*
X80000000Y-58838096D01*
X80047619Y-58885715D01*
X80142857Y-58933334D01*
X80285714Y-58933334D01*
X80380952Y-58885715D01*
X80428571Y-58838096D01*
X80476190Y-58742858D01*
X80476190Y-58361905D01*
X80952381Y-59361905D02*
X79952381Y-59361905D01*
X79952381Y-59600000D01*
X80000000Y-59742858D01*
X80095238Y-59838096D01*
X80190476Y-59885715D01*
X80380952Y-59933334D01*
X80523810Y-59933334D01*
X80714286Y-59885715D01*
X80809524Y-59838096D01*
X80904762Y-59742858D01*
X80952381Y-59600000D01*
X80952381Y-59361905D01*
X80285714Y-60790477D02*
X80952381Y-60790477D01*
X79904762Y-60552381D02*
X80619048Y-60314286D01*
X80619048Y-60933334D01*
X77952381Y-58957143D02*
X77476190Y-58623809D01*
X77952381Y-58385714D02*
X76952381Y-58385714D01*
X76952381Y-58766667D01*
X77000000Y-58861905D01*
X77047619Y-58909524D01*
X77142857Y-58957143D01*
X77285714Y-58957143D01*
X77380952Y-58909524D01*
X77428571Y-58861905D01*
X77476190Y-58766667D01*
X77476190Y-58385714D01*
X77904762Y-59338095D02*
X77952381Y-59480952D01*
X77952381Y-59719048D01*
X77904762Y-59814286D01*
X77857143Y-59861905D01*
X77761905Y-59909524D01*
X77666667Y-59909524D01*
X77571429Y-59861905D01*
X77523810Y-59814286D01*
X77476190Y-59719048D01*
X77428571Y-59528571D01*
X77380952Y-59433333D01*
X77333333Y-59385714D01*
X77238095Y-59338095D01*
X77142857Y-59338095D01*
X77047619Y-59385714D01*
X77000000Y-59433333D01*
X76952381Y-59528571D01*
X76952381Y-59766667D01*
X77000000Y-59909524D01*
X77952381Y-60861905D02*
X77952381Y-60290476D01*
X77952381Y-60576190D02*
X76952381Y-60576190D01*
X77095238Y-60480952D01*
X77190476Y-60385714D01*
X77238095Y-60290476D01*
X80852381Y-40757143D02*
X80376190Y-40423809D01*
X80852381Y-40185714D02*
X79852381Y-40185714D01*
X79852381Y-40566667D01*
X79900000Y-40661905D01*
X79947619Y-40709524D01*
X80042857Y-40757143D01*
X80185714Y-40757143D01*
X80280952Y-40709524D01*
X80328571Y-40661905D01*
X80376190Y-40566667D01*
X80376190Y-40185714D01*
X80804762Y-41138095D02*
X80852381Y-41280952D01*
X80852381Y-41519048D01*
X80804762Y-41614286D01*
X80757143Y-41661905D01*
X80661905Y-41709524D01*
X80566667Y-41709524D01*
X80471429Y-41661905D01*
X80423810Y-41614286D01*
X80376190Y-41519048D01*
X80328571Y-41328571D01*
X80280952Y-41233333D01*
X80233333Y-41185714D01*
X80138095Y-41138095D01*
X80042857Y-41138095D01*
X79947619Y-41185714D01*
X79900000Y-41233333D01*
X79852381Y-41328571D01*
X79852381Y-41566667D01*
X79900000Y-41709524D01*
X79947619Y-42090476D02*
X79900000Y-42138095D01*
X79852381Y-42233333D01*
X79852381Y-42471429D01*
X79900000Y-42566667D01*
X79947619Y-42614286D01*
X80042857Y-42661905D01*
X80138095Y-42661905D01*
X80280952Y-42614286D01*
X80852381Y-42042857D01*
X80852381Y-42661905D01*
X75552381Y-40657143D02*
X75076190Y-40323809D01*
X75552381Y-40085714D02*
X74552381Y-40085714D01*
X74552381Y-40466667D01*
X74600000Y-40561905D01*
X74647619Y-40609524D01*
X74742857Y-40657143D01*
X74885714Y-40657143D01*
X74980952Y-40609524D01*
X75028571Y-40561905D01*
X75076190Y-40466667D01*
X75076190Y-40085714D01*
X75504762Y-41038095D02*
X75552381Y-41180952D01*
X75552381Y-41419048D01*
X75504762Y-41514286D01*
X75457143Y-41561905D01*
X75361905Y-41609524D01*
X75266667Y-41609524D01*
X75171429Y-41561905D01*
X75123810Y-41514286D01*
X75076190Y-41419048D01*
X75028571Y-41228571D01*
X74980952Y-41133333D01*
X74933333Y-41085714D01*
X74838095Y-41038095D01*
X74742857Y-41038095D01*
X74647619Y-41085714D01*
X74600000Y-41133333D01*
X74552381Y-41228571D01*
X74552381Y-41466667D01*
X74600000Y-41609524D01*
X74552381Y-41942857D02*
X74552381Y-42561905D01*
X74933333Y-42228571D01*
X74933333Y-42371429D01*
X74980952Y-42466667D01*
X75028571Y-42514286D01*
X75123810Y-42561905D01*
X75361905Y-42561905D01*
X75457143Y-42514286D01*
X75504762Y-42466667D01*
X75552381Y-42371429D01*
X75552381Y-42085714D01*
X75504762Y-41990476D01*
X75457143Y-41942857D01*
X75452381Y-58957143D02*
X74976190Y-58623809D01*
X75452381Y-58385714D02*
X74452381Y-58385714D01*
X74452381Y-58766667D01*
X74500000Y-58861905D01*
X74547619Y-58909524D01*
X74642857Y-58957143D01*
X74785714Y-58957143D01*
X74880952Y-58909524D01*
X74928571Y-58861905D01*
X74976190Y-58766667D01*
X74976190Y-58385714D01*
X75404762Y-59338095D02*
X75452381Y-59480952D01*
X75452381Y-59719048D01*
X75404762Y-59814286D01*
X75357143Y-59861905D01*
X75261905Y-59909524D01*
X75166667Y-59909524D01*
X75071429Y-59861905D01*
X75023810Y-59814286D01*
X74976190Y-59719048D01*
X74928571Y-59528571D01*
X74880952Y-59433333D01*
X74833333Y-59385714D01*
X74738095Y-59338095D01*
X74642857Y-59338095D01*
X74547619Y-59385714D01*
X74500000Y-59433333D01*
X74452381Y-59528571D01*
X74452381Y-59766667D01*
X74500000Y-59909524D01*
X74785714Y-60766667D02*
X75452381Y-60766667D01*
X74404762Y-60528571D02*
X75119048Y-60290476D01*
X75119048Y-60909524D01*
X85952381Y-58957143D02*
X85476190Y-58623809D01*
X85952381Y-58385714D02*
X84952381Y-58385714D01*
X84952381Y-58766667D01*
X85000000Y-58861905D01*
X85047619Y-58909524D01*
X85142857Y-58957143D01*
X85285714Y-58957143D01*
X85380952Y-58909524D01*
X85428571Y-58861905D01*
X85476190Y-58766667D01*
X85476190Y-58385714D01*
X85904762Y-59338095D02*
X85952381Y-59480952D01*
X85952381Y-59719048D01*
X85904762Y-59814286D01*
X85857143Y-59861905D01*
X85761905Y-59909524D01*
X85666667Y-59909524D01*
X85571429Y-59861905D01*
X85523810Y-59814286D01*
X85476190Y-59719048D01*
X85428571Y-59528571D01*
X85380952Y-59433333D01*
X85333333Y-59385714D01*
X85238095Y-59338095D01*
X85142857Y-59338095D01*
X85047619Y-59385714D01*
X85000000Y-59433333D01*
X84952381Y-59528571D01*
X84952381Y-59766667D01*
X85000000Y-59909524D01*
X84952381Y-60814286D02*
X84952381Y-60338095D01*
X85428571Y-60290476D01*
X85380952Y-60338095D01*
X85333333Y-60433333D01*
X85333333Y-60671429D01*
X85380952Y-60766667D01*
X85428571Y-60814286D01*
X85523810Y-60861905D01*
X85761905Y-60861905D01*
X85857143Y-60814286D01*
X85904762Y-60766667D01*
X85952381Y-60671429D01*
X85952381Y-60433333D01*
X85904762Y-60338095D01*
X85857143Y-60290476D01*
X83452381Y-40757143D02*
X82976190Y-40423809D01*
X83452381Y-40185714D02*
X82452381Y-40185714D01*
X82452381Y-40566667D01*
X82500000Y-40661905D01*
X82547619Y-40709524D01*
X82642857Y-40757143D01*
X82785714Y-40757143D01*
X82880952Y-40709524D01*
X82928571Y-40661905D01*
X82976190Y-40566667D01*
X82976190Y-40185714D01*
X83404762Y-41138095D02*
X83452381Y-41280952D01*
X83452381Y-41519048D01*
X83404762Y-41614286D01*
X83357143Y-41661905D01*
X83261905Y-41709524D01*
X83166667Y-41709524D01*
X83071429Y-41661905D01*
X83023810Y-41614286D01*
X82976190Y-41519048D01*
X82928571Y-41328571D01*
X82880952Y-41233333D01*
X82833333Y-41185714D01*
X82738095Y-41138095D01*
X82642857Y-41138095D01*
X82547619Y-41185714D01*
X82500000Y-41233333D01*
X82452381Y-41328571D01*
X82452381Y-41566667D01*
X82500000Y-41709524D01*
X82452381Y-42566667D02*
X82452381Y-42376190D01*
X82500000Y-42280952D01*
X82547619Y-42233333D01*
X82690476Y-42138095D01*
X82880952Y-42090476D01*
X83261905Y-42090476D01*
X83357143Y-42138095D01*
X83404762Y-42185714D01*
X83452381Y-42280952D01*
X83452381Y-42471429D01*
X83404762Y-42566667D01*
X83357143Y-42614286D01*
X83261905Y-42661905D01*
X83023810Y-42661905D01*
X82928571Y-42614286D01*
X82880952Y-42566667D01*
X82833333Y-42471429D01*
X82833333Y-42280952D01*
X82880952Y-42185714D01*
X82928571Y-42138095D01*
X83023810Y-42090476D01*
X78152381Y-40657143D02*
X77676190Y-40323809D01*
X78152381Y-40085714D02*
X77152381Y-40085714D01*
X77152381Y-40466667D01*
X77200000Y-40561905D01*
X77247619Y-40609524D01*
X77342857Y-40657143D01*
X77485714Y-40657143D01*
X77580952Y-40609524D01*
X77628571Y-40561905D01*
X77676190Y-40466667D01*
X77676190Y-40085714D01*
X78104762Y-41038095D02*
X78152381Y-41180952D01*
X78152381Y-41419048D01*
X78104762Y-41514286D01*
X78057143Y-41561905D01*
X77961905Y-41609524D01*
X77866667Y-41609524D01*
X77771429Y-41561905D01*
X77723810Y-41514286D01*
X77676190Y-41419048D01*
X77628571Y-41228571D01*
X77580952Y-41133333D01*
X77533333Y-41085714D01*
X77438095Y-41038095D01*
X77342857Y-41038095D01*
X77247619Y-41085714D01*
X77200000Y-41133333D01*
X77152381Y-41228571D01*
X77152381Y-41466667D01*
X77200000Y-41609524D01*
X77152381Y-41942857D02*
X77152381Y-42609524D01*
X78152381Y-42180952D01*
X73052381Y-40657143D02*
X72576190Y-40323809D01*
X73052381Y-40085714D02*
X72052381Y-40085714D01*
X72052381Y-40466667D01*
X72100000Y-40561905D01*
X72147619Y-40609524D01*
X72242857Y-40657143D01*
X72385714Y-40657143D01*
X72480952Y-40609524D01*
X72528571Y-40561905D01*
X72576190Y-40466667D01*
X72576190Y-40085714D01*
X73004762Y-41038095D02*
X73052381Y-41180952D01*
X73052381Y-41419048D01*
X73004762Y-41514286D01*
X72957143Y-41561905D01*
X72861905Y-41609524D01*
X72766667Y-41609524D01*
X72671429Y-41561905D01*
X72623810Y-41514286D01*
X72576190Y-41419048D01*
X72528571Y-41228571D01*
X72480952Y-41133333D01*
X72433333Y-41085714D01*
X72338095Y-41038095D01*
X72242857Y-41038095D01*
X72147619Y-41085714D01*
X72100000Y-41133333D01*
X72052381Y-41228571D01*
X72052381Y-41466667D01*
X72100000Y-41609524D01*
X72480952Y-42180952D02*
X72433333Y-42085714D01*
X72385714Y-42038095D01*
X72290476Y-41990476D01*
X72242857Y-41990476D01*
X72147619Y-42038095D01*
X72100000Y-42085714D01*
X72052381Y-42180952D01*
X72052381Y-42371429D01*
X72100000Y-42466667D01*
X72147619Y-42514286D01*
X72242857Y-42561905D01*
X72290476Y-42561905D01*
X72385714Y-42514286D01*
X72433333Y-42466667D01*
X72480952Y-42371429D01*
X72480952Y-42180952D01*
X72528571Y-42085714D01*
X72576190Y-42038095D01*
X72671429Y-41990476D01*
X72861905Y-41990476D01*
X72957143Y-42038095D01*
X73004762Y-42085714D01*
X73052381Y-42180952D01*
X73052381Y-42371429D01*
X73004762Y-42466667D01*
X72957143Y-42514286D01*
X72861905Y-42561905D01*
X72671429Y-42561905D01*
X72576190Y-42514286D01*
X72528571Y-42466667D01*
X72480952Y-42371429D01*
X48562045Y-72853621D02*
X48562045Y-73663145D01*
X48514426Y-73758383D01*
X48466807Y-73806002D01*
X48371569Y-73853621D01*
X48181092Y-73853621D01*
X48085854Y-73806002D01*
X48038235Y-73758383D01*
X47990616Y-73663145D01*
X47990616Y-72853621D01*
X46990616Y-73853621D02*
X47562045Y-73853621D01*
X47276331Y-73853621D02*
X47276331Y-72853621D01*
X47371569Y-72996478D01*
X47466807Y-73091716D01*
X47562045Y-73139335D01*
X45452381Y-57238095D02*
X46261905Y-57238095D01*
X46357143Y-57285714D01*
X46404762Y-57333333D01*
X46452381Y-57428571D01*
X46452381Y-57619048D01*
X46404762Y-57714286D01*
X46357143Y-57761905D01*
X46261905Y-57809524D01*
X45452381Y-57809524D01*
X45785714Y-58714286D02*
X46452381Y-58714286D01*
X45404762Y-58476190D02*
X46119048Y-58238095D01*
X46119048Y-58857143D01*
X92261905Y-63952381D02*
X92261905Y-64761905D01*
X92214286Y-64857143D01*
X92166667Y-64904762D01*
X92071429Y-64952381D01*
X91880952Y-64952381D01*
X91785714Y-64904762D01*
X91738095Y-64857143D01*
X91690476Y-64761905D01*
X91690476Y-63952381D01*
X90785714Y-63952381D02*
X90976191Y-63952381D01*
X91071429Y-64000000D01*
X91119048Y-64047619D01*
X91214286Y-64190476D01*
X91261905Y-64380952D01*
X91261905Y-64761905D01*
X91214286Y-64857143D01*
X91166667Y-64904762D01*
X91071429Y-64952381D01*
X90880952Y-64952381D01*
X90785714Y-64904762D01*
X90738095Y-64857143D01*
X90690476Y-64761905D01*
X90690476Y-64523810D01*
X90738095Y-64428571D01*
X90785714Y-64380952D01*
X90880952Y-64333333D01*
X91071429Y-64333333D01*
X91166667Y-64380952D01*
X91214286Y-64428571D01*
X91261905Y-64523810D01*
X58952381Y-57238095D02*
X59761905Y-57238095D01*
X59857143Y-57285714D01*
X59904762Y-57333333D01*
X59952381Y-57428571D01*
X59952381Y-57619048D01*
X59904762Y-57714286D01*
X59857143Y-57761905D01*
X59761905Y-57809524D01*
X58952381Y-57809524D01*
X58952381Y-58190476D02*
X58952381Y-58857143D01*
X59952381Y-58428571D01*
X83961905Y-73252381D02*
X83961905Y-74061905D01*
X83914286Y-74157143D01*
X83866667Y-74204762D01*
X83771429Y-74252381D01*
X83580952Y-74252381D01*
X83485714Y-74204762D01*
X83438095Y-74157143D01*
X83390476Y-74061905D01*
X83390476Y-73252381D01*
X82771429Y-73680952D02*
X82866667Y-73633333D01*
X82914286Y-73585714D01*
X82961905Y-73490476D01*
X82961905Y-73442857D01*
X82914286Y-73347619D01*
X82866667Y-73300000D01*
X82771429Y-73252381D01*
X82580952Y-73252381D01*
X82485714Y-73300000D01*
X82438095Y-73347619D01*
X82390476Y-73442857D01*
X82390476Y-73490476D01*
X82438095Y-73585714D01*
X82485714Y-73633333D01*
X82580952Y-73680952D01*
X82771429Y-73680952D01*
X82866667Y-73728571D01*
X82914286Y-73776190D01*
X82961905Y-73871429D01*
X82961905Y-74061905D01*
X82914286Y-74157143D01*
X82866667Y-74204762D01*
X82771429Y-74252381D01*
X82580952Y-74252381D01*
X82485714Y-74204762D01*
X82438095Y-74157143D01*
X82390476Y-74061905D01*
X82390476Y-73871429D01*
X82438095Y-73776190D01*
X82485714Y-73728571D01*
X82580952Y-73680952D01*
X65961905Y-73252381D02*
X65961905Y-74061905D01*
X65914286Y-74157143D01*
X65866667Y-74204762D01*
X65771429Y-74252381D01*
X65580952Y-74252381D01*
X65485714Y-74204762D01*
X65438095Y-74157143D01*
X65390476Y-74061905D01*
X65390476Y-73252381D01*
X64866667Y-74252381D02*
X64676191Y-74252381D01*
X64580952Y-74204762D01*
X64533333Y-74157143D01*
X64438095Y-74014286D01*
X64390476Y-73823810D01*
X64390476Y-73442857D01*
X64438095Y-73347619D01*
X64485714Y-73300000D01*
X64580952Y-73252381D01*
X64771429Y-73252381D01*
X64866667Y-73300000D01*
X64914286Y-73347619D01*
X64961905Y-73442857D01*
X64961905Y-73680952D01*
X64914286Y-73776190D01*
X64866667Y-73823810D01*
X64771429Y-73871429D01*
X64580952Y-73871429D01*
X64485714Y-73823810D01*
X64438095Y-73776190D01*
X64390476Y-73680952D01*
X100838095Y-73052381D02*
X100838095Y-73861905D01*
X100790476Y-73957143D01*
X100742857Y-74004762D01*
X100647619Y-74052381D01*
X100457142Y-74052381D01*
X100361904Y-74004762D01*
X100314285Y-73957143D01*
X100266666Y-73861905D01*
X100266666Y-73052381D01*
X99266666Y-74052381D02*
X99838095Y-74052381D01*
X99552381Y-74052381D02*
X99552381Y-73052381D01*
X99647619Y-73195238D01*
X99742857Y-73290476D01*
X99838095Y-73338095D01*
X98647619Y-73052381D02*
X98552380Y-73052381D01*
X98457142Y-73100000D01*
X98409523Y-73147619D01*
X98361904Y-73242857D01*
X98314285Y-73433333D01*
X98314285Y-73671429D01*
X98361904Y-73861905D01*
X98409523Y-73957143D01*
X98457142Y-74004762D01*
X98552380Y-74052381D01*
X98647619Y-74052381D01*
X98742857Y-74004762D01*
X98790476Y-73957143D01*
X98838095Y-73861905D01*
X98885714Y-73671429D01*
X98885714Y-73433333D01*
X98838095Y-73242857D01*
X98790476Y-73147619D01*
X98742857Y-73100000D01*
X98647619Y-73052381D01*
X118638095Y-72952381D02*
X118638095Y-73761905D01*
X118590476Y-73857143D01*
X118542857Y-73904762D01*
X118447619Y-73952381D01*
X118257142Y-73952381D01*
X118161904Y-73904762D01*
X118114285Y-73857143D01*
X118066666Y-73761905D01*
X118066666Y-72952381D01*
X117066666Y-73952381D02*
X117638095Y-73952381D01*
X117352381Y-73952381D02*
X117352381Y-72952381D01*
X117447619Y-73095238D01*
X117542857Y-73190476D01*
X117638095Y-73238095D01*
X116114285Y-73952381D02*
X116685714Y-73952381D01*
X116400000Y-73952381D02*
X116400000Y-72952381D01*
X116495238Y-73095238D01*
X116590476Y-73190476D01*
X116685714Y-73238095D01*
X122176190Y-61223809D02*
X122652381Y-61223809D01*
X121652381Y-60890476D02*
X122176190Y-61223809D01*
X121652381Y-61557143D01*
X122652381Y-62414286D02*
X122652381Y-61842857D01*
X122652381Y-62128571D02*
X121652381Y-62128571D01*
X121795238Y-62033333D01*
X121890476Y-61938095D01*
X121938095Y-61842857D01*
X107761905Y-62002381D02*
X107761905Y-62811905D01*
X107714286Y-62907143D01*
X107666667Y-62954762D01*
X107571429Y-63002381D01*
X107380952Y-63002381D01*
X107285714Y-62954762D01*
X107238095Y-62907143D01*
X107190476Y-62811905D01*
X107190476Y-62002381D01*
X106761905Y-62097619D02*
X106714286Y-62050000D01*
X106619048Y-62002381D01*
X106380952Y-62002381D01*
X106285714Y-62050000D01*
X106238095Y-62097619D01*
X106190476Y-62192857D01*
X106190476Y-62288095D01*
X106238095Y-62430952D01*
X106809524Y-63002381D01*
X106190476Y-63002381D01*
X42214286Y-38052381D02*
X42214286Y-37052381D01*
X41976191Y-37052381D01*
X41833333Y-37100000D01*
X41738095Y-37195238D01*
X41690476Y-37290476D01*
X41642857Y-37480952D01*
X41642857Y-37623810D01*
X41690476Y-37814286D01*
X41738095Y-37909524D01*
X41833333Y-38004762D01*
X41976191Y-38052381D01*
X42214286Y-38052381D01*
X40785714Y-37385714D02*
X40785714Y-38052381D01*
X41023810Y-37004762D02*
X41261905Y-37719048D01*
X40642857Y-37719048D01*
X40309524Y-37147619D02*
X40261905Y-37100000D01*
X40166667Y-37052381D01*
X39928571Y-37052381D01*
X39833333Y-37100000D01*
X39785714Y-37147619D01*
X39738095Y-37242857D01*
X39738095Y-37338095D01*
X39785714Y-37480952D01*
X40357143Y-38052381D01*
X39738095Y-38052381D01*
X44161905Y-43402381D02*
X44161905Y-42402381D01*
X43590476Y-43402381D02*
X44019048Y-42830952D01*
X43590476Y-42402381D02*
X44161905Y-42973810D01*
X38338095Y-43066667D02*
X37861904Y-43066667D01*
X38433333Y-43352381D02*
X38100000Y-42352381D01*
X37766666Y-43352381D01*
X44523809Y-50952381D02*
X45095238Y-50952381D01*
X44809524Y-50952381D02*
X44809524Y-49952381D01*
X44904762Y-50095238D01*
X45000000Y-50190476D01*
X45095238Y-50238095D01*
X43904762Y-49952381D02*
X43809523Y-49952381D01*
X43714285Y-50000000D01*
X43666666Y-50047619D01*
X43619047Y-50142857D01*
X43571428Y-50333333D01*
X43571428Y-50571429D01*
X43619047Y-50761905D01*
X43666666Y-50857143D01*
X43714285Y-50904762D01*
X43809523Y-50952381D01*
X43904762Y-50952381D01*
X44000000Y-50904762D01*
X44047619Y-50857143D01*
X44095238Y-50761905D01*
X44142857Y-50571429D01*
X44142857Y-50333333D01*
X44095238Y-50142857D01*
X44047619Y-50047619D01*
X44000000Y-50000000D01*
X43904762Y-49952381D01*
X42952381Y-49952381D02*
X42857142Y-49952381D01*
X42761904Y-50000000D01*
X42714285Y-50047619D01*
X42666666Y-50142857D01*
X42619047Y-50333333D01*
X42619047Y-50571429D01*
X42666666Y-50761905D01*
X42714285Y-50857143D01*
X42761904Y-50904762D01*
X42857142Y-50952381D01*
X42952381Y-50952381D01*
X43047619Y-50904762D01*
X43095238Y-50857143D01*
X43142857Y-50761905D01*
X43190476Y-50571429D01*
X43190476Y-50333333D01*
X43142857Y-50142857D01*
X43095238Y-50047619D01*
X43047619Y-50000000D01*
X42952381Y-49952381D01*
X41761904Y-50285714D02*
X41761904Y-50952381D01*
X42190476Y-50285714D02*
X42190476Y-50809524D01*
X42142857Y-50904762D01*
X42047619Y-50952381D01*
X41904761Y-50952381D01*
X41809523Y-50904762D01*
X41761904Y-50857143D01*
X40952380Y-50428571D02*
X41285714Y-50428571D01*
X41285714Y-50952381D02*
X41285714Y-49952381D01*
X40809523Y-49952381D01*
X40476190Y-50047619D02*
X40428571Y-50000000D01*
X40333333Y-49952381D01*
X40095237Y-49952381D01*
X39999999Y-50000000D01*
X39952380Y-50047619D01*
X39904761Y-50142857D01*
X39904761Y-50238095D01*
X39952380Y-50380952D01*
X40523809Y-50952381D01*
X39904761Y-50952381D01*
X46523809Y-44452381D02*
X47095238Y-44452381D01*
X46809524Y-44452381D02*
X46809524Y-43452381D01*
X46904762Y-43595238D01*
X47000000Y-43690476D01*
X47095238Y-43738095D01*
X45904762Y-43452381D02*
X45809523Y-43452381D01*
X45714285Y-43500000D01*
X45666666Y-43547619D01*
X45619047Y-43642857D01*
X45571428Y-43833333D01*
X45571428Y-44071429D01*
X45619047Y-44261905D01*
X45666666Y-44357143D01*
X45714285Y-44404762D01*
X45809523Y-44452381D01*
X45904762Y-44452381D01*
X46000000Y-44404762D01*
X46047619Y-44357143D01*
X46095238Y-44261905D01*
X46142857Y-44071429D01*
X46142857Y-43833333D01*
X46095238Y-43642857D01*
X46047619Y-43547619D01*
X46000000Y-43500000D01*
X45904762Y-43452381D01*
X44952381Y-43452381D02*
X44857142Y-43452381D01*
X44761904Y-43500000D01*
X44714285Y-43547619D01*
X44666666Y-43642857D01*
X44619047Y-43833333D01*
X44619047Y-44071429D01*
X44666666Y-44261905D01*
X44714285Y-44357143D01*
X44761904Y-44404762D01*
X44857142Y-44452381D01*
X44952381Y-44452381D01*
X45047619Y-44404762D01*
X45095238Y-44357143D01*
X45142857Y-44261905D01*
X45190476Y-44071429D01*
X45190476Y-43833333D01*
X45142857Y-43642857D01*
X45095238Y-43547619D01*
X45047619Y-43500000D01*
X44952381Y-43452381D01*
X43761904Y-43785714D02*
X43761904Y-44452381D01*
X44190476Y-43785714D02*
X44190476Y-44309524D01*
X44142857Y-44404762D01*
X44047619Y-44452381D01*
X43904761Y-44452381D01*
X43809523Y-44404762D01*
X43761904Y-44357143D01*
X42952380Y-43928571D02*
X43285714Y-43928571D01*
X43285714Y-44452381D02*
X43285714Y-43452381D01*
X42809523Y-43452381D01*
X41904761Y-44452381D02*
X42476190Y-44452381D01*
X42190476Y-44452381D02*
X42190476Y-43452381D01*
X42285714Y-43595238D01*
X42380952Y-43690476D01*
X42476190Y-43738095D01*
M02*
