G04 #@! TF.FileFunction,Soldermask,Bot*
%FSLAX46Y46*%
G04 Gerber Fmt 4.6, Leading zero omitted, Abs format (unit mm)*
G04 Created by KiCad (PCBNEW 4.0.7) date Sat Oct  7 11:25:55 2017*
%MOMM*%
%LPD*%
G01*
G04 APERTURE LIST*
%ADD10C,0.100000*%
%ADD11R,1.924000X2.432000*%
%ADD12R,2.635200X2.635200*%
%ADD13R,2.100000X2.400000*%
%ADD14R,1.600000X1.150000*%
%ADD15R,2.000000X2.400000*%
%ADD16R,2.200860X2.899360*%
%ADD17C,2.398980*%
%ADD18R,2.398980X2.398980*%
%ADD19R,2.899360X2.200860*%
%ADD20R,3.900120X3.900120*%
%ADD21R,2.127200X2.432000*%
%ADD22O,2.127200X2.432000*%
%ADD23R,2.127200X2.127200*%
%ADD24O,2.127200X2.127200*%
%ADD25R,2.432000X2.432000*%
%ADD26O,2.432000X2.432000*%
%ADD27R,1.700000X1.900000*%
%ADD28R,1.900000X1.700000*%
%ADD29C,2.100000*%
%ADD30R,1.100000X1.900000*%
%ADD31R,1.101000X1.900000*%
%ADD32R,1.400000X1.900000*%
%ADD33R,2.200000X3.425000*%
%ADD34R,0.950000X2.400000*%
%ADD35C,1.924000*%
%ADD36R,1.924000X1.924000*%
%ADD37R,2.400000X0.950000*%
%ADD38R,2.398980X5.899100*%
%ADD39R,2.100000X0.900000*%
%ADD40R,0.900000X2.100000*%
%ADD41C,4.464000*%
%ADD42R,2.400000X2.000000*%
%ADD43C,0.900000*%
%ADD44C,0.254000*%
G04 APERTURE END LIST*
D10*
D11*
X48299000Y-83450000D03*
X51601000Y-83450000D03*
X83299000Y-83550000D03*
X86601000Y-83550000D03*
X66049000Y-83400000D03*
X69351000Y-83400000D03*
X100349000Y-83000000D03*
X103651000Y-83000000D03*
X118099000Y-83000000D03*
X121401000Y-83000000D03*
D12*
X33400000Y-39800000D03*
X33500000Y-81500000D03*
D13*
X117000000Y-45000000D03*
X117000000Y-41000000D03*
D14*
X114550000Y-65500000D03*
X116450000Y-65500000D03*
X117050000Y-53000000D03*
X118950000Y-53000000D03*
D15*
X116500000Y-56500000D03*
X116500000Y-60500000D03*
D16*
X39950000Y-76451020D03*
X39950000Y-80448980D03*
D17*
X125660000Y-50502540D03*
D18*
X115500000Y-50502540D03*
D19*
X113998980Y-41500000D03*
X110001020Y-41500000D03*
X113998980Y-46000000D03*
X110001020Y-46000000D03*
D16*
X72000000Y-34001020D03*
X72000000Y-37998980D03*
X86000000Y-34001020D03*
X86000000Y-37998980D03*
X54000000Y-34001020D03*
X54000000Y-37998980D03*
X54000000Y-44001020D03*
X54000000Y-47998980D03*
X104000000Y-34001020D03*
X104000000Y-37998980D03*
X104000000Y-44001020D03*
X104000000Y-47998980D03*
X74950000Y-76051020D03*
X74950000Y-80048980D03*
X57200000Y-75901020D03*
X57200000Y-79898980D03*
X91500000Y-75501020D03*
X91500000Y-79498980D03*
X109500000Y-75501020D03*
X109500000Y-79498980D03*
D12*
X33500000Y-120500000D03*
X33500000Y-114000000D03*
X33500000Y-107500000D03*
X33500000Y-101000000D03*
X33500000Y-94500000D03*
X33400000Y-45200000D03*
X33500000Y-88000000D03*
D20*
X40200140Y-54500000D03*
X34200660Y-54500000D03*
X37200400Y-59199000D03*
D21*
X99000000Y-67000000D03*
D22*
X96460000Y-67000000D03*
X93920000Y-67000000D03*
X91380000Y-67000000D03*
X88840000Y-67000000D03*
X86300000Y-67000000D03*
X83760000Y-67000000D03*
X81220000Y-67000000D03*
X78680000Y-67000000D03*
X76140000Y-67000000D03*
X73600000Y-67000000D03*
X71060000Y-67000000D03*
D23*
X111500000Y-33000000D03*
D24*
X111500000Y-35540000D03*
X114040000Y-33000000D03*
X114040000Y-35540000D03*
X116580000Y-33000000D03*
X116580000Y-35540000D03*
X119120000Y-33000000D03*
X119120000Y-35540000D03*
X121660000Y-33000000D03*
X121660000Y-35540000D03*
D25*
X122500000Y-44500000D03*
D26*
X125040000Y-44500000D03*
D12*
X40000000Y-67000000D03*
X45000000Y-67000000D03*
X50000000Y-67000000D03*
X55000000Y-67000000D03*
X60000000Y-67000000D03*
D13*
X39950000Y-88450000D03*
X39950000Y-84450000D03*
X75950000Y-88050000D03*
X75950000Y-84050000D03*
X58200000Y-87900000D03*
X58200000Y-83900000D03*
X92500000Y-87500000D03*
X92500000Y-83500000D03*
X110250000Y-87250000D03*
X110250000Y-83250000D03*
D27*
X44950000Y-84100000D03*
X44950000Y-86800000D03*
X79450000Y-83700000D03*
X79450000Y-86400000D03*
X61700000Y-86250000D03*
X61700000Y-83550000D03*
X96500000Y-86350000D03*
X96500000Y-83650000D03*
X114250000Y-86100000D03*
X114250000Y-83400000D03*
X96500000Y-50850000D03*
X96500000Y-48150000D03*
D28*
X48600000Y-86450000D03*
X51300000Y-86450000D03*
X106650000Y-66000000D03*
X109350000Y-66000000D03*
X83600000Y-86550000D03*
X86300000Y-86550000D03*
X66350000Y-86400000D03*
X69050000Y-86400000D03*
X100650000Y-86500000D03*
X103350000Y-86500000D03*
X118150000Y-86500000D03*
X120850000Y-86500000D03*
D27*
X72500000Y-54150000D03*
X72500000Y-56850000D03*
X83000000Y-54150000D03*
X83000000Y-56850000D03*
X85500000Y-46150000D03*
X85500000Y-48850000D03*
X80500000Y-54150000D03*
X80500000Y-56850000D03*
X77500000Y-54150000D03*
X77500000Y-56850000D03*
X80500000Y-46150000D03*
X80500000Y-48850000D03*
X75000000Y-46150000D03*
X75000000Y-48850000D03*
X75000000Y-54150000D03*
X75000000Y-56850000D03*
X85500000Y-54150000D03*
X85500000Y-56850000D03*
X83000000Y-46150000D03*
X83000000Y-48850000D03*
X77500000Y-46150000D03*
X77500000Y-48850000D03*
X72500000Y-46150000D03*
X72500000Y-48850000D03*
D29*
X57000000Y-38000000D03*
X51000000Y-38000000D03*
X57000000Y-34000000D03*
X51000000Y-34000000D03*
X57000000Y-48000000D03*
X51000000Y-48000000D03*
X57000000Y-44000000D03*
X51000000Y-44000000D03*
X107000000Y-38000000D03*
X101000000Y-38000000D03*
X107000000Y-34000000D03*
X101000000Y-34000000D03*
X107000000Y-48000000D03*
X101000000Y-48000000D03*
X107000000Y-44000000D03*
X101000000Y-44000000D03*
X75000000Y-38000000D03*
X69000000Y-38000000D03*
X75000000Y-34000000D03*
X69000000Y-34000000D03*
X89000000Y-38000000D03*
X83000000Y-38000000D03*
X89000000Y-34000000D03*
X83000000Y-34000000D03*
D30*
X49450000Y-75590000D03*
X46450000Y-75590000D03*
D31*
X49450000Y-79300000D03*
D32*
X47950000Y-79300000D03*
D30*
X46450000Y-79300000D03*
D33*
X47950000Y-76355000D03*
D10*
G36*
X47250000Y-78810000D02*
X46850000Y-77650000D01*
X49050000Y-77650000D01*
X48650000Y-78810000D01*
X47250000Y-78810000D01*
X47250000Y-78810000D01*
G37*
D29*
X37750000Y-32750000D03*
X37750000Y-48750000D03*
X47250000Y-32750000D03*
X47250000Y-48750000D03*
D34*
X56445000Y-61100000D03*
X55175000Y-61100000D03*
X53905000Y-61100000D03*
X52635000Y-61100000D03*
X51365000Y-61100000D03*
X50095000Y-61100000D03*
X48825000Y-61100000D03*
X47555000Y-61100000D03*
X47555000Y-54900000D03*
X48825000Y-54900000D03*
X50095000Y-54900000D03*
X51365000Y-54900000D03*
X52635000Y-54900000D03*
X53905000Y-54900000D03*
X55175000Y-54900000D03*
X56445000Y-54900000D03*
D35*
X77730000Y-43920000D03*
X75190000Y-43920000D03*
X72650000Y-43920000D03*
X80270000Y-43920000D03*
X82810000Y-43920000D03*
X85350000Y-43920000D03*
D36*
X72650000Y-51540000D03*
D35*
X75190000Y-51540000D03*
X77730000Y-51540000D03*
X80270000Y-51540000D03*
X82810000Y-51540000D03*
X85350000Y-51540000D03*
D37*
X94600000Y-54055000D03*
X94600000Y-55325000D03*
X94600000Y-56595000D03*
X94600000Y-57865000D03*
X94600000Y-59135000D03*
X94600000Y-60405000D03*
X94600000Y-61675000D03*
X94600000Y-62945000D03*
X88400000Y-62945000D03*
X88400000Y-61675000D03*
X88400000Y-60405000D03*
X88400000Y-59135000D03*
X88400000Y-57865000D03*
X88400000Y-56595000D03*
X88400000Y-55325000D03*
X88400000Y-54055000D03*
D34*
X69945000Y-61100000D03*
X68675000Y-61100000D03*
X67405000Y-61100000D03*
X66135000Y-61100000D03*
X64865000Y-61100000D03*
X63595000Y-61100000D03*
X62325000Y-61100000D03*
X61055000Y-61100000D03*
X61055000Y-54900000D03*
X62325000Y-54900000D03*
X63595000Y-54900000D03*
X64865000Y-54900000D03*
X66135000Y-54900000D03*
X67405000Y-54900000D03*
X68675000Y-54900000D03*
X69945000Y-54900000D03*
D30*
X84450000Y-75690000D03*
X81450000Y-75690000D03*
D31*
X84450000Y-79400000D03*
D32*
X82950000Y-79400000D03*
D30*
X81450000Y-79400000D03*
D33*
X82950000Y-76455000D03*
D10*
G36*
X82250000Y-78910000D02*
X81850000Y-77750000D01*
X84050000Y-77750000D01*
X83650000Y-78910000D01*
X82250000Y-78910000D01*
X82250000Y-78910000D01*
G37*
D30*
X66700000Y-75540000D03*
X63700000Y-75540000D03*
D31*
X66700000Y-79250000D03*
D32*
X65200000Y-79250000D03*
D30*
X63700000Y-79250000D03*
D33*
X65200000Y-76305000D03*
D10*
G36*
X64500000Y-78760000D02*
X64100000Y-77600000D01*
X66300000Y-77600000D01*
X65900000Y-78760000D01*
X64500000Y-78760000D01*
X64500000Y-78760000D01*
G37*
D30*
X101000000Y-75140000D03*
X98000000Y-75140000D03*
D31*
X101000000Y-78850000D03*
D32*
X99500000Y-78850000D03*
D30*
X98000000Y-78850000D03*
D33*
X99500000Y-75905000D03*
D10*
G36*
X98800000Y-78360000D02*
X98400000Y-77200000D01*
X100600000Y-77200000D01*
X100200000Y-78360000D01*
X98800000Y-78360000D01*
X98800000Y-78360000D01*
G37*
D30*
X119000000Y-75140000D03*
X116000000Y-75140000D03*
D31*
X119000000Y-78850000D03*
D32*
X117500000Y-78850000D03*
D30*
X116000000Y-78850000D03*
D33*
X117500000Y-75905000D03*
D10*
G36*
X116800000Y-78360000D02*
X116400000Y-77200000D01*
X118600000Y-77200000D01*
X118200000Y-78360000D01*
X116800000Y-78360000D01*
X116800000Y-78360000D01*
G37*
D38*
X120600000Y-66299000D03*
X120600000Y-56901000D03*
D39*
X102650000Y-59300000D03*
X102650000Y-58500000D03*
X102650000Y-57700000D03*
X102650000Y-56900000D03*
X102650000Y-56100000D03*
X102650000Y-55300000D03*
X102650000Y-54500000D03*
X102650000Y-53700000D03*
D40*
X104200000Y-52150000D03*
X105000000Y-52150000D03*
X105800000Y-52150000D03*
X106600000Y-52150000D03*
X107400000Y-52150000D03*
X108200000Y-52150000D03*
X109000000Y-52150000D03*
X109800000Y-52150000D03*
D39*
X111350000Y-53700000D03*
X111350000Y-54500000D03*
X111350000Y-55300000D03*
X111350000Y-56100000D03*
X111350000Y-56900000D03*
X111350000Y-57700000D03*
X111350000Y-58500000D03*
X111350000Y-59300000D03*
D40*
X109800000Y-60850000D03*
X109000000Y-60850000D03*
X108200000Y-60850000D03*
X107400000Y-60850000D03*
X106600000Y-60850000D03*
X105800000Y-60850000D03*
X105000000Y-60850000D03*
X104200000Y-60850000D03*
D41*
X33500000Y-33500000D03*
X33500000Y-66500000D03*
X126500000Y-33500000D03*
X126500000Y-66500000D03*
X126500000Y-126500000D03*
X126500000Y-74500000D03*
X33500000Y-126500000D03*
X33500000Y-74500000D03*
D19*
X42998980Y-40000000D03*
X39001020Y-40000000D03*
D42*
X40500000Y-48600000D03*
X44500000Y-48600000D03*
X42500000Y-45700000D03*
X46500000Y-45700000D03*
D43*
X35800000Y-70000000D03*
X35800000Y-71000000D03*
X36700000Y-70000000D03*
X37600000Y-70000000D03*
X38400000Y-70000000D03*
X39300000Y-70000000D03*
X40200000Y-70000000D03*
X36700000Y-71000000D03*
X37600000Y-71000000D03*
X38400000Y-71000000D03*
X39300000Y-71000000D03*
X40200000Y-71000000D03*
X119300000Y-70000000D03*
X119300000Y-71000000D03*
X120200000Y-70000000D03*
X121100000Y-70000000D03*
X121900000Y-70000000D03*
X122800000Y-70000000D03*
X123700000Y-70000000D03*
X120200000Y-71000000D03*
X121100000Y-71000000D03*
X121900000Y-71000000D03*
X122800000Y-71000000D03*
X123700000Y-71000000D03*
X77300000Y-70000000D03*
X77300000Y-71000000D03*
X78200000Y-70000000D03*
X79100000Y-70000000D03*
X79900000Y-70000000D03*
X80800000Y-70000000D03*
X81700000Y-70000000D03*
X78200000Y-71000000D03*
X79100000Y-71000000D03*
X79900000Y-71000000D03*
X80800000Y-71000000D03*
X81700000Y-71000000D03*
X56800000Y-70000000D03*
X56800000Y-71000000D03*
X57700000Y-70000000D03*
X58600000Y-70000000D03*
X59400000Y-70000000D03*
X60300000Y-70000000D03*
X61200000Y-70000000D03*
X57700000Y-71000000D03*
X58600000Y-71000000D03*
X59400000Y-71000000D03*
X60300000Y-71000000D03*
X61200000Y-71000000D03*
X97800000Y-70000000D03*
X97800000Y-71000000D03*
X98700000Y-70000000D03*
X99600000Y-70000000D03*
X100400000Y-70000000D03*
X101300000Y-70000000D03*
X102200000Y-70000000D03*
X98700000Y-71000000D03*
X99600000Y-71000000D03*
X100400000Y-71000000D03*
X101300000Y-71000000D03*
X102200000Y-71000000D03*
D44*
G36*
X102983371Y-90125907D02*
X102998968Y-90126996D01*
X127497329Y-90326170D01*
X127627681Y-90929488D01*
X127647896Y-90975670D01*
X127672281Y-90998782D01*
X127473018Y-118497075D01*
X127277149Y-123491723D01*
X123779121Y-124074728D01*
X123732028Y-124092721D01*
X123695646Y-124127617D01*
X123673034Y-124197047D01*
X123575919Y-128373000D01*
X36521457Y-128373000D01*
X36027151Y-117300541D01*
X36523723Y-107964981D01*
X41077534Y-104454752D01*
X41110559Y-104416662D01*
X41127000Y-104354167D01*
X41127000Y-103021998D01*
X41916211Y-100812207D01*
X41921732Y-100791252D01*
X42124039Y-99627989D01*
X42448847Y-98461633D01*
X42451401Y-98450570D01*
X42823792Y-96429016D01*
X43022114Y-95734890D01*
X43024331Y-95725902D01*
X43524331Y-93325902D01*
X43525724Y-93317961D01*
X43815078Y-91292482D01*
X44523030Y-91027000D01*
X53795122Y-91027000D01*
X56332089Y-91222151D01*
X57397587Y-92675103D01*
X57452833Y-92717917D01*
X58952833Y-93317917D01*
X59002426Y-93326977D01*
X59065341Y-93308902D01*
X59565341Y-93008902D01*
X59608161Y-92966560D01*
X60403809Y-91673632D01*
X61660448Y-90127000D01*
X73128627Y-90127000D01*
X74491517Y-92366033D01*
X74526183Y-92403344D01*
X75926183Y-93403344D01*
X75972205Y-93423921D01*
X76030802Y-93423208D01*
X76830802Y-93223208D01*
X76876310Y-93201517D01*
X76908280Y-93166365D01*
X78771117Y-90127000D01*
X87247394Y-90127000D01*
X88210197Y-91089803D01*
X88252211Y-91117666D01*
X88300000Y-91127000D01*
X94900000Y-91127000D01*
X94949410Y-91116994D01*
X94989803Y-91089803D01*
X95674344Y-90405262D01*
X97720650Y-89430831D01*
X102983371Y-90125907D01*
X102983371Y-90125907D01*
G37*
X102983371Y-90125907D02*
X102998968Y-90126996D01*
X127497329Y-90326170D01*
X127627681Y-90929488D01*
X127647896Y-90975670D01*
X127672281Y-90998782D01*
X127473018Y-118497075D01*
X127277149Y-123491723D01*
X123779121Y-124074728D01*
X123732028Y-124092721D01*
X123695646Y-124127617D01*
X123673034Y-124197047D01*
X123575919Y-128373000D01*
X36521457Y-128373000D01*
X36027151Y-117300541D01*
X36523723Y-107964981D01*
X41077534Y-104454752D01*
X41110559Y-104416662D01*
X41127000Y-104354167D01*
X41127000Y-103021998D01*
X41916211Y-100812207D01*
X41921732Y-100791252D01*
X42124039Y-99627989D01*
X42448847Y-98461633D01*
X42451401Y-98450570D01*
X42823792Y-96429016D01*
X43022114Y-95734890D01*
X43024331Y-95725902D01*
X43524331Y-93325902D01*
X43525724Y-93317961D01*
X43815078Y-91292482D01*
X44523030Y-91027000D01*
X53795122Y-91027000D01*
X56332089Y-91222151D01*
X57397587Y-92675103D01*
X57452833Y-92717917D01*
X58952833Y-93317917D01*
X59002426Y-93326977D01*
X59065341Y-93308902D01*
X59565341Y-93008902D01*
X59608161Y-92966560D01*
X60403809Y-91673632D01*
X61660448Y-90127000D01*
X73128627Y-90127000D01*
X74491517Y-92366033D01*
X74526183Y-92403344D01*
X75926183Y-93403344D01*
X75972205Y-93423921D01*
X76030802Y-93423208D01*
X76830802Y-93223208D01*
X76876310Y-93201517D01*
X76908280Y-93166365D01*
X78771117Y-90127000D01*
X87247394Y-90127000D01*
X88210197Y-91089803D01*
X88252211Y-91117666D01*
X88300000Y-91127000D01*
X94900000Y-91127000D01*
X94949410Y-91116994D01*
X94989803Y-91089803D01*
X95674344Y-90405262D01*
X97720650Y-89430831D01*
X102983371Y-90125907D01*
M02*
