M48
INCH,TZ
T1C0.013
T2C0.016
T3C0.030
T4C0.035
T5C0.039
T6C0.039
T7C0.040
T8C0.050
T9C0.102
T10C0.120
T11C0.020
%
G90
G05
T1
X17205Y-36024
X17205Y-36417
X17205Y-36811
X17205Y-37205
X17205Y-39173
X17205Y-39567
X17205Y-39961
X17205Y-40354
X17205Y-42283
X17205Y-42677
X17205Y-43071
X17205Y-43465
X17205Y-45433
X17205Y-45827
X17205Y-46220
X17205Y-46614
X17205Y-48583
X17205Y-48976
X17205Y-49370
X17205Y-49764
X17598Y-36024
X17598Y-36417
X17598Y-36811
X17598Y-37205
X17598Y-39173
X17598Y-39567
X17598Y-39961
X17598Y-40354
X17598Y-42283
X17598Y-42677
X17598Y-43071
X17598Y-43465
X17598Y-45433
X17598Y-45827
X17598Y-46220
X17598Y-46614
X17598Y-48583
X17598Y-48976
X17598Y-49370
X17598Y-49764
X17992Y-36024
X17992Y-36417
X17992Y-36811
X17992Y-37205
X17992Y-39173
X17992Y-39567
X17992Y-39961
X17992Y-40354
X17992Y-42283
X17992Y-42677
X17992Y-43071
X17992Y-43465
X17992Y-45433
X17992Y-45827
X17992Y-46220
X17992Y-46614
X17992Y-48583
X17992Y-48976
X17992Y-49370
X17992Y-49764
X18386Y-36024
X18386Y-36417
X18386Y-36811
X18386Y-37205
X18386Y-39173
X18386Y-39567
X18386Y-39961
X18386Y-40354
X18386Y-42283
X18386Y-42677
X18386Y-43071
X18386Y-43465
X18386Y-45433
X18386Y-45827
X18386Y-46220
X18386Y-46614
X18386Y-48583
X18386Y-48976
X18386Y-49370
X18386Y-49764
X24291Y-35866
X24291Y-36260
X24291Y-36654
X24291Y-37047
X24291Y-39016
X24291Y-39409
X24291Y-39803
X24291Y-40197
X24291Y-42165
X24291Y-42559
X24291Y-42953
X24291Y-43346
X24291Y-45315
X24291Y-45709
X24291Y-46102
X24291Y-46496
X24291Y-48661
X24291Y-49055
X24291Y-49449
X24291Y-49843
X24685Y-35866
X24685Y-36260
X24685Y-36654
X24685Y-37047
X24685Y-39016
X24685Y-39409
X24685Y-39803
X24685Y-40197
X24685Y-42165
X24685Y-42559
X24685Y-42953
X24685Y-43346
X24685Y-45315
X24685Y-45709
X24685Y-46102
X24685Y-46496
X24685Y-48661
X24685Y-49055
X24685Y-49449
X24685Y-49843
X25079Y-35866
X25079Y-36260
X25079Y-36654
X25079Y-37047
X25079Y-39016
X25079Y-39409
X25079Y-39803
X25079Y-40197
X25079Y-42165
X25079Y-42559
X25079Y-42953
X25079Y-43346
X25079Y-45315
X25079Y-45709
X25079Y-46102
X25079Y-46496
X25079Y-48661
X25079Y-49055
X25079Y-49449
X25079Y-49843
X25472Y-35866
X25472Y-36260
X25472Y-36654
X25472Y-37047
X25472Y-39016
X25472Y-39409
X25472Y-39803
X25472Y-40197
X25472Y-42165
X25472Y-42559
X25472Y-42953
X25472Y-43346
X25472Y-45315
X25472Y-45709
X25472Y-46102
X25472Y-46496
X25472Y-48661
X25472Y-49055
X25472Y-49449
X25472Y-49843
X31181Y-35827
X31181Y-36220
X31181Y-36614
X31181Y-37008
X31181Y-38976
X31181Y-39370
X31181Y-39764
X31181Y-40157
X31181Y-42126
X31181Y-42520
X31181Y-42913
X31181Y-43307
X31181Y-45276
X31181Y-45669
X31181Y-46063
X31181Y-46457
X31181Y-48465
X31181Y-48858
X31181Y-49252
X31181Y-49646
X31575Y-35827
X31575Y-36220
X31575Y-36614
X31575Y-37008
X31575Y-38976
X31575Y-39370
X31575Y-39764
X31575Y-40157
X31575Y-42126
X31575Y-42520
X31575Y-42913
X31575Y-43307
X31575Y-45276
X31575Y-45669
X31575Y-46063
X31575Y-46457
X31575Y-48465
X31575Y-48858
X31575Y-49252
X31575Y-49646
X31969Y-35827
X31969Y-36220
X31969Y-36614
X31969Y-37008
X31969Y-38976
X31969Y-39370
X31969Y-39764
X31969Y-40157
X31969Y-42126
X31969Y-42520
X31969Y-42913
X31969Y-43307
X31969Y-45276
X31969Y-45669
X31969Y-46063
X31969Y-46457
X31969Y-48465
X31969Y-48858
X31969Y-49252
X31969Y-49646
X32362Y-35827
X32362Y-36220
X32362Y-36614
X32362Y-37008
X32362Y-38976
X32362Y-39370
X32362Y-39764
X32362Y-40157
X32362Y-42126
X32362Y-42520
X32362Y-42913
X32362Y-43307
X32362Y-45276
X32362Y-45669
X32362Y-46063
X32362Y-46457
X32362Y-48465
X32362Y-48858
X32362Y-49252
X32362Y-49646
X37992Y-35709
X37992Y-36102
X37992Y-36496
X37992Y-36890
X38071Y-45157
X38071Y-45551
X38071Y-45945
X38071Y-46339
X38110Y-38858
X38110Y-39252
X38110Y-39646
X38110Y-40039
X38110Y-42008
X38110Y-42402
X38110Y-42795
X38110Y-43189
X38110Y-48543
X38110Y-48937
X38110Y-49331
X38110Y-49724
X38386Y-35709
X38386Y-36102
X38386Y-36496
X38386Y-36890
X38465Y-45157
X38465Y-45551
X38465Y-45945
X38465Y-46339
X38504Y-38858
X38504Y-39252
X38504Y-39646
X38504Y-40039
X38504Y-42008
X38504Y-42402
X38504Y-42795
X38504Y-43189
X38504Y-48543
X38504Y-48937
X38504Y-49331
X38504Y-49724
X38780Y-35709
X38780Y-36102
X38780Y-36496
X38780Y-36890
X38858Y-45157
X38858Y-45551
X38858Y-45945
X38858Y-46339
X38898Y-38858
X38898Y-39252
X38898Y-39646
X38898Y-40039
X38898Y-42008
X38898Y-42402
X38898Y-42795
X38898Y-43189
X38898Y-48543
X38898Y-48937
X38898Y-49331
X38898Y-49724
X39173Y-35709
X39173Y-36102
X39173Y-36496
X39173Y-36890
X39252Y-45157
X39252Y-45551
X39252Y-45945
X39252Y-46339
X39291Y-38858
X39291Y-39252
X39291Y-39646
X39291Y-40039
X39291Y-42008
X39291Y-42402
X39291Y-42795
X39291Y-43189
X39291Y-48543
X39291Y-48937
X39291Y-49331
X39291Y-49724
X44803Y-35709
X44803Y-36102
X44803Y-36496
X44803Y-36890
X44803Y-38898
X44803Y-39291
X44803Y-39685
X44803Y-40079
X44803Y-42008
X44803Y-42402
X44803Y-42795
X44803Y-43189
X44803Y-45157
X44803Y-45551
X44803Y-45945
X44803Y-46339
X44803Y-48504
X44803Y-48898
X44803Y-49291
X44803Y-49685
X45197Y-35709
X45197Y-36102
X45197Y-36496
X45197Y-36890
X45197Y-38898
X45197Y-39291
X45197Y-39685
X45197Y-40079
X45197Y-42008
X45197Y-42402
X45197Y-42795
X45197Y-43189
X45197Y-45157
X45197Y-45551
X45197Y-45945
X45197Y-46339
X45197Y-48504
X45197Y-48898
X45197Y-49291
X45197Y-49685
X45591Y-35709
X45591Y-36102
X45591Y-36496
X45591Y-36890
X45591Y-38898
X45591Y-39291
X45591Y-39685
X45591Y-40079
X45591Y-42008
X45591Y-42402
X45591Y-42795
X45591Y-43189
X45591Y-45157
X45591Y-45551
X45591Y-45945
X45591Y-46339
X45591Y-48504
X45591Y-48898
X45591Y-49291
X45591Y-49685
X45984Y-35709
X45984Y-36102
X45984Y-36496
X45984Y-36890
X45984Y-38898
X45984Y-39291
X45984Y-39685
X45984Y-40079
X45984Y-42008
X45984Y-42402
X45984Y-42795
X45984Y-43189
X45984Y-45157
X45984Y-45551
X45984Y-45945
X45984Y-46339
X45984Y-48504
X45984Y-48898
X45984Y-49291
X45984Y-49685
T2
X13228Y-33740
X14134Y-33150
X14134Y-38110
X14134Y-41417
X14173Y-39626
X14370Y-31654
X14409Y-32283
X14764Y-14055
X14941Y-39626
X14980Y-38031
X15118Y-34921
X15118Y-36496
X15157Y-13661
X15354Y-15039
X15728Y-30098
X15984Y-34055
X16024Y-39685
X16063Y-36417
X16102Y-28898
X16260Y-36102
X16280Y-14567
X16299Y-34921
X16339Y-30906
X16339Y-32362
X16358Y-38051
X16457Y-16693
X16496Y-34567
X16752Y-29469
X17008Y-16732
X17126Y-33071
X17165Y-32126
X17717Y-17165
X17717Y-24882
X17717Y-25512
X17756Y-16417
X17953Y-14528
X18583Y-34961
X18661Y-29055
X18740Y-23346
X18976Y-17362
X19094Y-14173
X19094Y-17717
X19370Y-16969
X19685Y-14173
X19685Y-20079
X19724Y-31929
X19764Y-16693
X19921Y-28701
X19961Y-20315
X19961Y-24882
X20079Y-15866
X20276Y-16614
X20276Y-24724
X20315Y-19921
X20531Y-25098
X20709Y-22323
X20787Y-34134
X20984Y-20433
X20984Y-21024
X21417Y-24803
X21417Y-29331
X21457Y-31299
X21496Y-32205
X21732Y-20472
X21732Y-21024
X21811Y-30630
X22067Y-34921
X22087Y-33543
X22500Y-35531
X22520Y-29882
X22638Y-25787
X22913Y-33819
X23130Y-15453
X23169Y-14665
X23189Y-23307
X23189Y-29685
X23189Y-36220
X23209Y-13760
X23268Y-18071
X23327Y-35531
X23386Y-22362
X23543Y-34862
X23701Y-14547
X23701Y-34567
X24016Y-17795
X24016Y-19902
X24016Y-20886
X24055Y-22283
X24055Y-24646
X24331Y-26063
X24685Y-20118
X24724Y-19567
X24764Y-22992
X25039Y-33307
X25118Y-19567
X25118Y-20079
X25118Y-34016
X25512Y-26339
X25551Y-23031
X25591Y-22362
X25787Y-23307
X25787Y-24961
X26417Y-24685
X26535Y-31732
X26811Y-24646
X26811Y-25000
X27283Y-24646
X27953Y-25394
X28031Y-22283
X28031Y-22638
X28268Y-33661
X28307Y-31890
X28307Y-32638
X28346Y-29331
X28346Y-30315
X28465Y-24488
X28701Y-22953
X28898Y-25079
X28898Y-32244
X28976Y-23228
X28976Y-33661
X29213Y-34843
X29409Y-35591
X29508Y-29941
X29724Y-28937
X29882Y-24488
X30000Y-36260
X30295Y-35610
X30315Y-24528
X30551Y-34823
X30866Y-14705
X30866Y-15217
X30866Y-15689
X30984Y-33386
X31024Y-28898
X31201Y-15394
X31240Y-13898
X31240Y-14429
X31260Y-24488
X31654Y-29291
X32008Y-24488
X32244Y-28898
X33228Y-28701
X33622Y-31772
X34449Y-20591
X34449Y-20945
X34488Y-32362
X35197Y-20591
X35197Y-20906
X35236Y-21299
X35394Y-23642
X35433Y-24803
X35453Y-22126
X35630Y-24252
X35630Y-34843
X35787Y-14705
X35787Y-20591
X35787Y-20945
X35787Y-21299
X35866Y-28819
X35886Y-15236
X36024Y-13169
X36024Y-13878
X36024Y-29724
X36102Y-21929
X36102Y-22441
X36142Y-14488
X36378Y-22283
X36378Y-23504
X36654Y-22520
X36811Y-15886
X36831Y-16713
X36969Y-35118
X37067Y-34567
X37283Y-28976
X37480Y-32480
X37717Y-20709
X37835Y-24567
X37854Y-24035
X37913Y-21220
X37953Y-29528
X38051Y-22579
X38110Y-23307
X38150Y-31535
X38189Y-21496
X38189Y-22047
X38386Y-24921
X38465Y-21220
X38524Y-22972
X38543Y-23780
X38661Y-22323
X38701Y-21496
X38740Y-23228
X38858Y-24055
X38976Y-18976
X38976Y-32047
X39055Y-28976
X39094Y-21496
X39094Y-24291
X39213Y-23701
X39528Y-22087
X39528Y-23031
X39528Y-24016
X39803Y-15787
X39921Y-23622
X40039Y-18150
X40079Y-19724
X40157Y-28819
X40197Y-31496
X40354Y-16319
X40354Y-18780
X41063Y-23307
X41299Y-20000
X41693Y-26614
X41890Y-21457
X41890Y-22441
X41969Y-19882
X41969Y-24488
X41969Y-25512
X41969Y-31614
X41969Y-32520
X42224Y-15866
X42283Y-19843
X42362Y-21732
X42480Y-22677
X42480Y-26811
X42520Y-14134
X42520Y-32047
X42559Y-25039
X42598Y-19921
X42638Y-23110
X42953Y-19528
X43031Y-28780
X43110Y-29724
X43189Y-13661
X43189Y-23307
X43228Y-19252
X43228Y-21142
X43307Y-22717
X43386Y-19803
X43386Y-25315
X43504Y-24646
X43583Y-15295
X43583Y-18780
X43622Y-23740
X43858Y-20276
X43858Y-20827
X43898Y-34882
X44055Y-24528
X44134Y-15315
X44331Y-23898
X44370Y-21772
X44370Y-23346
X44409Y-22087
X44449Y-25039
X44587Y-32352
X44606Y-20827
X44685Y-22992
X44705Y-15354
X44803Y-25394
X44961Y-20827
X45000Y-21181
X45000Y-21732
X45039Y-22638
X45118Y-23465
X45118Y-25039
X45197Y-31496
X45236Y-20512
X45315Y-24488
X45354Y-25394
X45512Y-23071
X45630Y-28937
X45630Y-30433
X45689Y-15374
X45709Y-18425
X45709Y-18898
X45787Y-20512
X46063Y-21378
X46063Y-31969
X46142Y-15039
X46260Y-18465
X46260Y-18898
X46654Y-20433
X46732Y-17441
X46732Y-17992
X46929Y-30236
X47028Y-15551
X47087Y-16024
X47165Y-17441
X47165Y-17992
X47283Y-31417
X48583Y-16102
X49055Y-16122
X49331Y-15039
T3
X28602Y-17291
X28602Y-20291
X29602Y-17291
X29602Y-20291
X30602Y-17291
X30602Y-20291
X31602Y-17291
X31602Y-20291
X32602Y-17291
X32602Y-20291
X33602Y-17291
X33602Y-20291
T4
X14862Y-12894
X14862Y-19193
X18602Y-12894
X18602Y-19193
T5
X20079Y-13386
X20079Y-14961
X20079Y-17323
X20079Y-18898
X22441Y-13386
X22441Y-14961
X22441Y-17323
X22441Y-18898
X27165Y-13386
X27165Y-14961
X29528Y-13386
X29528Y-14961
X32677Y-13386
X32677Y-14961
X35039Y-13386
X35039Y-14961
X39764Y-13386
X39764Y-14961
X39764Y-17323
X39764Y-18898
X42126Y-13386
X42126Y-14961
X42126Y-17323
X42126Y-18898
T6
X45472Y-19883
T7
X13150Y-15669
X13150Y-17795
X13189Y-32087
X13189Y-34646
X13189Y-37205
X13189Y-39764
X13189Y-42323
X13189Y-44882
X13189Y-47441
X15748Y-26378
X17717Y-26378
X19685Y-26378
X21654Y-26378
X23622Y-26378
X27976Y-26378
X28976Y-26378
X29976Y-26378
X30976Y-26378
X31976Y-26378
X32976Y-26378
X33976Y-26378
X34976Y-26378
X35976Y-26378
X36976Y-26378
X37976Y-26378
X38976Y-26378
X43898Y-12992
X43898Y-13992
X44898Y-12992
X44898Y-13992
X45898Y-12992
X45898Y-13992
X46898Y-12992
X46898Y-13992
X47898Y-12992
X47898Y-13992
X48228Y-17520
X49228Y-17520
T8
X49472Y-19883
T9
X13465Y-21457
X14646Y-23307
X15827Y-21457
T10
X13189Y-13189
X13189Y-26181
X13189Y-29331
X13189Y-49803
X49803Y-13189
X49803Y-26181
X49803Y-29331
X49803Y-49803
T11
X14094Y-27559
X14094Y-27953
X14449Y-27559
X14449Y-27953
X14803Y-27559
X14803Y-27953
X15118Y-27559
X15118Y-27953
X15472Y-27559
X15472Y-27953
X15827Y-27559
X15827Y-27953
X22362Y-27559
X22362Y-27953
X22717Y-27559
X22717Y-27953
X23071Y-27559
X23071Y-27953
X23386Y-27559
X23386Y-27953
X23740Y-27559
X23740Y-27953
X24094Y-27559
X24094Y-27953
X30433Y-27559
X30433Y-27953
X30787Y-27559
X30787Y-27953
X31142Y-27559
X31142Y-27953
X31457Y-27559
X31457Y-27953
X31811Y-27559
X31811Y-27953
X32165Y-27559
X32165Y-27953
X38504Y-27559
X38504Y-27953
X38858Y-27559
X38858Y-27953
X39213Y-27559
X39213Y-27953
X39528Y-27559
X39528Y-27953
X39882Y-27559
X39882Y-27953
X40236Y-27559
X40236Y-27953
X46969Y-27559
X46969Y-27953
X47323Y-27559
X47323Y-27953
X47677Y-27559
X47677Y-27953
X47992Y-27559
X47992Y-27953
X48346Y-27559
X48346Y-27953
X48701Y-27559
X48701Y-27953
T0
M30
