%FSLAX45Y45*%
G04 Gerber Fmt 4.5, Leading zero omitted, Abs format (unit mm)*
G04 Created by KiCad (PCBNEW 4.0.7) date Sat Oct  7 11:26:23 2017*
%MOMM*%
%LPD*%
G01*
G04 APERTURE LIST*
%ADD10C,0.127000*%
%ADD11C,0.010000*%
%ADD12C,0.200000*%
%ADD13C,0.300000*%
G04 APERTURE END LIST*
D10*
D11*
X12880000Y-12980000D02*
G75*
G03X12980000Y-12880000I0J100000D01*
G01*
X3000000Y-12880000D02*
G75*
G03X3100000Y-12980000I100000J0D01*
G01*
X3100000Y-7100000D02*
X3490000Y-7100000D01*
X12980000Y-3100000D02*
G75*
G03X12880000Y-3000000I-100000J0D01*
G01*
X3100000Y-3000000D02*
G75*
G03X3000000Y-3100000I0J-100000D01*
G01*
X3100000Y-7100000D02*
G75*
G03X3000000Y-7200000I0J-100000D01*
G01*
X3100000Y-7000000D02*
X3490000Y-7000000D01*
X5590000Y-7100000D02*
X4110000Y-7100000D01*
X4110000Y-7000000D02*
X5590000Y-7000000D01*
X6210000Y-7100000D02*
X7640000Y-7100000D01*
X7640000Y-7000000D02*
X6210000Y-7000000D01*
X9690000Y-7100000D02*
X8260000Y-7100000D01*
X8260000Y-7000000D02*
X9690000Y-7000000D01*
X11840000Y-7100000D02*
X10310000Y-7100000D01*
X10310000Y-7000000D02*
X11840000Y-7000000D01*
X12460000Y-7100000D02*
X12880000Y-7100000D01*
X12460000Y-7000000D02*
X12880000Y-7000000D01*
X12880000Y-7000000D02*
G75*
G03X12980000Y-6900000I0J100000D01*
G01*
X12980000Y-7200000D02*
G75*
G03X12880000Y-7100000I-100000J0D01*
G01*
X12410000Y-7050000D02*
G75*
G03X12460000Y-7100000I50000J0D01*
G01*
X12460000Y-7000000D02*
G75*
G03X12410000Y-7050000I0J-50000D01*
G01*
X11890000Y-7050000D02*
G75*
G03X11840000Y-7000000I-50000J0D01*
G01*
X11840000Y-7100000D02*
G75*
G03X11890000Y-7050000I0J50000D01*
G01*
X10260000Y-7050000D02*
G75*
G03X10310000Y-7100000I50000J0D01*
G01*
X10310000Y-7000000D02*
G75*
G03X10260000Y-7050000I0J-50000D01*
G01*
X9740000Y-7050000D02*
G75*
G03X9690000Y-7000000I-50000J0D01*
G01*
X9690000Y-7100000D02*
G75*
G03X9740000Y-7050000I0J50000D01*
G01*
X8210000Y-7050000D02*
G75*
G03X8260000Y-7100000I50000J0D01*
G01*
X8260000Y-7000000D02*
G75*
G03X8210000Y-7050000I0J-50000D01*
G01*
X7640000Y-7100000D02*
G75*
G03X7690000Y-7050000I0J50000D01*
G01*
X7690000Y-7050000D02*
G75*
G03X7640000Y-7000000I-50000J0D01*
G01*
X6160000Y-7050000D02*
G75*
G03X6210000Y-7100000I50000J0D01*
G01*
X6210000Y-7000000D02*
G75*
G03X6160000Y-7050000I0J-50000D01*
G01*
X5640000Y-7050000D02*
G75*
G03X5590000Y-7000000I-50000J0D01*
G01*
X5590000Y-7100000D02*
G75*
G03X5640000Y-7050000I0J50000D01*
G01*
X4060000Y-7050000D02*
G75*
G03X4110000Y-7100000I50000J0D01*
G01*
X4110000Y-7000000D02*
G75*
G03X4060000Y-7050000I0J-50000D01*
G01*
X3540000Y-7050000D02*
G75*
G03X3490000Y-7000000I-50000J0D01*
G01*
X3490000Y-7100000D02*
G75*
G03X3540000Y-7050000I0J50000D01*
G01*
X3000000Y-6900000D02*
G75*
G03X3100000Y-7000000I100000J0D01*
G01*
X12980000Y-12880000D02*
X12980000Y-7200000D01*
X3100000Y-12980000D02*
X12880000Y-12980000D01*
X3000000Y-7200000D02*
X3000000Y-12880000D01*
X12980000Y-3100000D02*
X12980000Y-6900000D01*
X3100000Y-3000000D02*
X12880000Y-3000000D01*
X3000000Y-3100000D02*
X3000000Y-6900000D01*
D12*
X4354000Y-9134000D02*
X4386000Y-9166000D01*
X4386000Y-9134000D02*
X4354000Y-9166000D01*
X4354000Y-9234000D02*
X4386000Y-9266000D01*
X4386000Y-9234000D02*
X4354000Y-9266000D01*
X4354000Y-9334000D02*
X4386000Y-9366000D01*
X4386000Y-9334000D02*
X4354000Y-9366000D01*
X4354000Y-9434000D02*
X4386000Y-9466000D01*
X4386000Y-9434000D02*
X4354000Y-9466000D01*
X4354000Y-9934000D02*
X4386000Y-9966000D01*
X4386000Y-9934000D02*
X4354000Y-9966000D01*
X4354000Y-10034000D02*
X4386000Y-10066000D01*
X4386000Y-10034000D02*
X4354000Y-10066000D01*
X4354000Y-10134000D02*
X4386000Y-10166000D01*
X4386000Y-10134000D02*
X4354000Y-10166000D01*
X4354000Y-10234000D02*
X4386000Y-10266000D01*
X4386000Y-10234000D02*
X4354000Y-10266000D01*
X4354000Y-10724000D02*
X4386000Y-10756000D01*
X4386000Y-10724000D02*
X4354000Y-10756000D01*
X4354000Y-10824000D02*
X4386000Y-10856000D01*
X4386000Y-10824000D02*
X4354000Y-10856000D01*
X4354000Y-10924000D02*
X4386000Y-10956000D01*
X4386000Y-10924000D02*
X4354000Y-10956000D01*
X4354000Y-11024000D02*
X4386000Y-11056000D01*
X4386000Y-11024000D02*
X4354000Y-11056000D01*
X4354000Y-11524000D02*
X4386000Y-11556000D01*
X4386000Y-11524000D02*
X4354000Y-11556000D01*
X4354000Y-11624000D02*
X4386000Y-11656000D01*
X4386000Y-11624000D02*
X4354000Y-11656000D01*
X4354000Y-11724000D02*
X4386000Y-11756000D01*
X4386000Y-11724000D02*
X4354000Y-11756000D01*
X4354000Y-11824000D02*
X4386000Y-11856000D01*
X4386000Y-11824000D02*
X4354000Y-11856000D01*
X4354000Y-12324000D02*
X4386000Y-12356000D01*
X4386000Y-12324000D02*
X4354000Y-12356000D01*
X4354000Y-12424000D02*
X4386000Y-12456000D01*
X4386000Y-12424000D02*
X4354000Y-12456000D01*
X4354000Y-12524000D02*
X4386000Y-12556000D01*
X4386000Y-12524000D02*
X4354000Y-12556000D01*
X4354000Y-12624000D02*
X4386000Y-12656000D01*
X4386000Y-12624000D02*
X4354000Y-12656000D01*
X4454000Y-9134000D02*
X4486000Y-9166000D01*
X4486000Y-9134000D02*
X4454000Y-9166000D01*
X4454000Y-9234000D02*
X4486000Y-9266000D01*
X4486000Y-9234000D02*
X4454000Y-9266000D01*
X4454000Y-9334000D02*
X4486000Y-9366000D01*
X4486000Y-9334000D02*
X4454000Y-9366000D01*
X4454000Y-9434000D02*
X4486000Y-9466000D01*
X4486000Y-9434000D02*
X4454000Y-9466000D01*
X4454000Y-9934000D02*
X4486000Y-9966000D01*
X4486000Y-9934000D02*
X4454000Y-9966000D01*
X4454000Y-10034000D02*
X4486000Y-10066000D01*
X4486000Y-10034000D02*
X4454000Y-10066000D01*
X4454000Y-10134000D02*
X4486000Y-10166000D01*
X4486000Y-10134000D02*
X4454000Y-10166000D01*
X4454000Y-10234000D02*
X4486000Y-10266000D01*
X4486000Y-10234000D02*
X4454000Y-10266000D01*
X4454000Y-10724000D02*
X4486000Y-10756000D01*
X4486000Y-10724000D02*
X4454000Y-10756000D01*
X4454000Y-10824000D02*
X4486000Y-10856000D01*
X4486000Y-10824000D02*
X4454000Y-10856000D01*
X4454000Y-10924000D02*
X4486000Y-10956000D01*
X4486000Y-10924000D02*
X4454000Y-10956000D01*
X4454000Y-11024000D02*
X4486000Y-11056000D01*
X4486000Y-11024000D02*
X4454000Y-11056000D01*
X4454000Y-11524000D02*
X4486000Y-11556000D01*
X4486000Y-11524000D02*
X4454000Y-11556000D01*
X4454000Y-11624000D02*
X4486000Y-11656000D01*
X4486000Y-11624000D02*
X4454000Y-11656000D01*
X4454000Y-11724000D02*
X4486000Y-11756000D01*
X4486000Y-11724000D02*
X4454000Y-11756000D01*
X4454000Y-11824000D02*
X4486000Y-11856000D01*
X4486000Y-11824000D02*
X4454000Y-11856000D01*
X4454000Y-12324000D02*
X4486000Y-12356000D01*
X4486000Y-12324000D02*
X4454000Y-12356000D01*
X4454000Y-12424000D02*
X4486000Y-12456000D01*
X4486000Y-12424000D02*
X4454000Y-12456000D01*
X4454000Y-12524000D02*
X4486000Y-12556000D01*
X4486000Y-12524000D02*
X4454000Y-12556000D01*
X4454000Y-12624000D02*
X4486000Y-12656000D01*
X4486000Y-12624000D02*
X4454000Y-12656000D01*
X4554000Y-9134000D02*
X4586000Y-9166000D01*
X4586000Y-9134000D02*
X4554000Y-9166000D01*
X4554000Y-9234000D02*
X4586000Y-9266000D01*
X4586000Y-9234000D02*
X4554000Y-9266000D01*
X4554000Y-9334000D02*
X4586000Y-9366000D01*
X4586000Y-9334000D02*
X4554000Y-9366000D01*
X4554000Y-9434000D02*
X4586000Y-9466000D01*
X4586000Y-9434000D02*
X4554000Y-9466000D01*
X4554000Y-9934000D02*
X4586000Y-9966000D01*
X4586000Y-9934000D02*
X4554000Y-9966000D01*
X4554000Y-10034000D02*
X4586000Y-10066000D01*
X4586000Y-10034000D02*
X4554000Y-10066000D01*
X4554000Y-10134000D02*
X4586000Y-10166000D01*
X4586000Y-10134000D02*
X4554000Y-10166000D01*
X4554000Y-10234000D02*
X4586000Y-10266000D01*
X4586000Y-10234000D02*
X4554000Y-10266000D01*
X4554000Y-10724000D02*
X4586000Y-10756000D01*
X4586000Y-10724000D02*
X4554000Y-10756000D01*
X4554000Y-10824000D02*
X4586000Y-10856000D01*
X4586000Y-10824000D02*
X4554000Y-10856000D01*
X4554000Y-10924000D02*
X4586000Y-10956000D01*
X4586000Y-10924000D02*
X4554000Y-10956000D01*
X4554000Y-11024000D02*
X4586000Y-11056000D01*
X4586000Y-11024000D02*
X4554000Y-11056000D01*
X4554000Y-11524000D02*
X4586000Y-11556000D01*
X4586000Y-11524000D02*
X4554000Y-11556000D01*
X4554000Y-11624000D02*
X4586000Y-11656000D01*
X4586000Y-11624000D02*
X4554000Y-11656000D01*
X4554000Y-11724000D02*
X4586000Y-11756000D01*
X4586000Y-11724000D02*
X4554000Y-11756000D01*
X4554000Y-11824000D02*
X4586000Y-11856000D01*
X4586000Y-11824000D02*
X4554000Y-11856000D01*
X4554000Y-12324000D02*
X4586000Y-12356000D01*
X4586000Y-12324000D02*
X4554000Y-12356000D01*
X4554000Y-12424000D02*
X4586000Y-12456000D01*
X4586000Y-12424000D02*
X4554000Y-12456000D01*
X4554000Y-12524000D02*
X4586000Y-12556000D01*
X4586000Y-12524000D02*
X4554000Y-12556000D01*
X4554000Y-12624000D02*
X4586000Y-12656000D01*
X4586000Y-12624000D02*
X4554000Y-12656000D01*
X4654000Y-9134000D02*
X4686000Y-9166000D01*
X4686000Y-9134000D02*
X4654000Y-9166000D01*
X4654000Y-9234000D02*
X4686000Y-9266000D01*
X4686000Y-9234000D02*
X4654000Y-9266000D01*
X4654000Y-9334000D02*
X4686000Y-9366000D01*
X4686000Y-9334000D02*
X4654000Y-9366000D01*
X4654000Y-9434000D02*
X4686000Y-9466000D01*
X4686000Y-9434000D02*
X4654000Y-9466000D01*
X4654000Y-9934000D02*
X4686000Y-9966000D01*
X4686000Y-9934000D02*
X4654000Y-9966000D01*
X4654000Y-10034000D02*
X4686000Y-10066000D01*
X4686000Y-10034000D02*
X4654000Y-10066000D01*
X4654000Y-10134000D02*
X4686000Y-10166000D01*
X4686000Y-10134000D02*
X4654000Y-10166000D01*
X4654000Y-10234000D02*
X4686000Y-10266000D01*
X4686000Y-10234000D02*
X4654000Y-10266000D01*
X4654000Y-10724000D02*
X4686000Y-10756000D01*
X4686000Y-10724000D02*
X4654000Y-10756000D01*
X4654000Y-10824000D02*
X4686000Y-10856000D01*
X4686000Y-10824000D02*
X4654000Y-10856000D01*
X4654000Y-10924000D02*
X4686000Y-10956000D01*
X4686000Y-10924000D02*
X4654000Y-10956000D01*
X4654000Y-11024000D02*
X4686000Y-11056000D01*
X4686000Y-11024000D02*
X4654000Y-11056000D01*
X4654000Y-11524000D02*
X4686000Y-11556000D01*
X4686000Y-11524000D02*
X4654000Y-11556000D01*
X4654000Y-11624000D02*
X4686000Y-11656000D01*
X4686000Y-11624000D02*
X4654000Y-11656000D01*
X4654000Y-11724000D02*
X4686000Y-11756000D01*
X4686000Y-11724000D02*
X4654000Y-11756000D01*
X4654000Y-11824000D02*
X4686000Y-11856000D01*
X4686000Y-11824000D02*
X4654000Y-11856000D01*
X4654000Y-12324000D02*
X4686000Y-12356000D01*
X4686000Y-12324000D02*
X4654000Y-12356000D01*
X4654000Y-12424000D02*
X4686000Y-12456000D01*
X4686000Y-12424000D02*
X4654000Y-12456000D01*
X4654000Y-12524000D02*
X4686000Y-12556000D01*
X4686000Y-12524000D02*
X4654000Y-12556000D01*
X4654000Y-12624000D02*
X4686000Y-12656000D01*
X4686000Y-12624000D02*
X4654000Y-12656000D01*
X6154000Y-9094000D02*
X6186000Y-9126000D01*
X6186000Y-9094000D02*
X6154000Y-9126000D01*
X6154000Y-9194000D02*
X6186000Y-9226000D01*
X6186000Y-9194000D02*
X6154000Y-9226000D01*
X6154000Y-9294000D02*
X6186000Y-9326000D01*
X6186000Y-9294000D02*
X6154000Y-9326000D01*
X6154000Y-9394000D02*
X6186000Y-9426000D01*
X6186000Y-9394000D02*
X6154000Y-9426000D01*
X6154000Y-9894000D02*
X6186000Y-9926000D01*
X6186000Y-9894000D02*
X6154000Y-9926000D01*
X6154000Y-9994000D02*
X6186000Y-10026000D01*
X6186000Y-9994000D02*
X6154000Y-10026000D01*
X6154000Y-10094000D02*
X6186000Y-10126000D01*
X6186000Y-10094000D02*
X6154000Y-10126000D01*
X6154000Y-10194000D02*
X6186000Y-10226000D01*
X6186000Y-10194000D02*
X6154000Y-10226000D01*
X6154000Y-10694000D02*
X6186000Y-10726000D01*
X6186000Y-10694000D02*
X6154000Y-10726000D01*
X6154000Y-10794000D02*
X6186000Y-10826000D01*
X6186000Y-10794000D02*
X6154000Y-10826000D01*
X6154000Y-10894000D02*
X6186000Y-10926000D01*
X6186000Y-10894000D02*
X6154000Y-10926000D01*
X6154000Y-10994000D02*
X6186000Y-11026000D01*
X6186000Y-10994000D02*
X6154000Y-11026000D01*
X6154000Y-11494000D02*
X6186000Y-11526000D01*
X6186000Y-11494000D02*
X6154000Y-11526000D01*
X6154000Y-11594000D02*
X6186000Y-11626000D01*
X6186000Y-11594000D02*
X6154000Y-11626000D01*
X6154000Y-11694000D02*
X6186000Y-11726000D01*
X6186000Y-11694000D02*
X6154000Y-11726000D01*
X6154000Y-11794000D02*
X6186000Y-11826000D01*
X6186000Y-11794000D02*
X6154000Y-11826000D01*
X6154000Y-12344000D02*
X6186000Y-12376000D01*
X6186000Y-12344000D02*
X6154000Y-12376000D01*
X6154000Y-12444000D02*
X6186000Y-12476000D01*
X6186000Y-12444000D02*
X6154000Y-12476000D01*
X6154000Y-12544000D02*
X6186000Y-12576000D01*
X6186000Y-12544000D02*
X6154000Y-12576000D01*
X6154000Y-12644000D02*
X6186000Y-12676000D01*
X6186000Y-12644000D02*
X6154000Y-12676000D01*
X6254000Y-9094000D02*
X6286000Y-9126000D01*
X6286000Y-9094000D02*
X6254000Y-9126000D01*
X6254000Y-9194000D02*
X6286000Y-9226000D01*
X6286000Y-9194000D02*
X6254000Y-9226000D01*
X6254000Y-9294000D02*
X6286000Y-9326000D01*
X6286000Y-9294000D02*
X6254000Y-9326000D01*
X6254000Y-9394000D02*
X6286000Y-9426000D01*
X6286000Y-9394000D02*
X6254000Y-9426000D01*
X6254000Y-9894000D02*
X6286000Y-9926000D01*
X6286000Y-9894000D02*
X6254000Y-9926000D01*
X6254000Y-9994000D02*
X6286000Y-10026000D01*
X6286000Y-9994000D02*
X6254000Y-10026000D01*
X6254000Y-10094000D02*
X6286000Y-10126000D01*
X6286000Y-10094000D02*
X6254000Y-10126000D01*
X6254000Y-10194000D02*
X6286000Y-10226000D01*
X6286000Y-10194000D02*
X6254000Y-10226000D01*
X6254000Y-10694000D02*
X6286000Y-10726000D01*
X6286000Y-10694000D02*
X6254000Y-10726000D01*
X6254000Y-10794000D02*
X6286000Y-10826000D01*
X6286000Y-10794000D02*
X6254000Y-10826000D01*
X6254000Y-10894000D02*
X6286000Y-10926000D01*
X6286000Y-10894000D02*
X6254000Y-10926000D01*
X6254000Y-10994000D02*
X6286000Y-11026000D01*
X6286000Y-10994000D02*
X6254000Y-11026000D01*
X6254000Y-11494000D02*
X6286000Y-11526000D01*
X6286000Y-11494000D02*
X6254000Y-11526000D01*
X6254000Y-11594000D02*
X6286000Y-11626000D01*
X6286000Y-11594000D02*
X6254000Y-11626000D01*
X6254000Y-11694000D02*
X6286000Y-11726000D01*
X6286000Y-11694000D02*
X6254000Y-11726000D01*
X6254000Y-11794000D02*
X6286000Y-11826000D01*
X6286000Y-11794000D02*
X6254000Y-11826000D01*
X6254000Y-12344000D02*
X6286000Y-12376000D01*
X6286000Y-12344000D02*
X6254000Y-12376000D01*
X6254000Y-12444000D02*
X6286000Y-12476000D01*
X6286000Y-12444000D02*
X6254000Y-12476000D01*
X6254000Y-12544000D02*
X6286000Y-12576000D01*
X6286000Y-12544000D02*
X6254000Y-12576000D01*
X6254000Y-12644000D02*
X6286000Y-12676000D01*
X6286000Y-12644000D02*
X6254000Y-12676000D01*
X6354000Y-9094000D02*
X6386000Y-9126000D01*
X6386000Y-9094000D02*
X6354000Y-9126000D01*
X6354000Y-9194000D02*
X6386000Y-9226000D01*
X6386000Y-9194000D02*
X6354000Y-9226000D01*
X6354000Y-9294000D02*
X6386000Y-9326000D01*
X6386000Y-9294000D02*
X6354000Y-9326000D01*
X6354000Y-9394000D02*
X6386000Y-9426000D01*
X6386000Y-9394000D02*
X6354000Y-9426000D01*
X6354000Y-9894000D02*
X6386000Y-9926000D01*
X6386000Y-9894000D02*
X6354000Y-9926000D01*
X6354000Y-9994000D02*
X6386000Y-10026000D01*
X6386000Y-9994000D02*
X6354000Y-10026000D01*
X6354000Y-10094000D02*
X6386000Y-10126000D01*
X6386000Y-10094000D02*
X6354000Y-10126000D01*
X6354000Y-10194000D02*
X6386000Y-10226000D01*
X6386000Y-10194000D02*
X6354000Y-10226000D01*
X6354000Y-10694000D02*
X6386000Y-10726000D01*
X6386000Y-10694000D02*
X6354000Y-10726000D01*
X6354000Y-10794000D02*
X6386000Y-10826000D01*
X6386000Y-10794000D02*
X6354000Y-10826000D01*
X6354000Y-10894000D02*
X6386000Y-10926000D01*
X6386000Y-10894000D02*
X6354000Y-10926000D01*
X6354000Y-10994000D02*
X6386000Y-11026000D01*
X6386000Y-10994000D02*
X6354000Y-11026000D01*
X6354000Y-11494000D02*
X6386000Y-11526000D01*
X6386000Y-11494000D02*
X6354000Y-11526000D01*
X6354000Y-11594000D02*
X6386000Y-11626000D01*
X6386000Y-11594000D02*
X6354000Y-11626000D01*
X6354000Y-11694000D02*
X6386000Y-11726000D01*
X6386000Y-11694000D02*
X6354000Y-11726000D01*
X6354000Y-11794000D02*
X6386000Y-11826000D01*
X6386000Y-11794000D02*
X6354000Y-11826000D01*
X6354000Y-12344000D02*
X6386000Y-12376000D01*
X6386000Y-12344000D02*
X6354000Y-12376000D01*
X6354000Y-12444000D02*
X6386000Y-12476000D01*
X6386000Y-12444000D02*
X6354000Y-12476000D01*
X6354000Y-12544000D02*
X6386000Y-12576000D01*
X6386000Y-12544000D02*
X6354000Y-12576000D01*
X6354000Y-12644000D02*
X6386000Y-12676000D01*
X6386000Y-12644000D02*
X6354000Y-12676000D01*
X6454000Y-9094000D02*
X6486000Y-9126000D01*
X6486000Y-9094000D02*
X6454000Y-9126000D01*
X6454000Y-9194000D02*
X6486000Y-9226000D01*
X6486000Y-9194000D02*
X6454000Y-9226000D01*
X6454000Y-9294000D02*
X6486000Y-9326000D01*
X6486000Y-9294000D02*
X6454000Y-9326000D01*
X6454000Y-9394000D02*
X6486000Y-9426000D01*
X6486000Y-9394000D02*
X6454000Y-9426000D01*
X6454000Y-9894000D02*
X6486000Y-9926000D01*
X6486000Y-9894000D02*
X6454000Y-9926000D01*
X6454000Y-9994000D02*
X6486000Y-10026000D01*
X6486000Y-9994000D02*
X6454000Y-10026000D01*
X6454000Y-10094000D02*
X6486000Y-10126000D01*
X6486000Y-10094000D02*
X6454000Y-10126000D01*
X6454000Y-10194000D02*
X6486000Y-10226000D01*
X6486000Y-10194000D02*
X6454000Y-10226000D01*
X6454000Y-10694000D02*
X6486000Y-10726000D01*
X6486000Y-10694000D02*
X6454000Y-10726000D01*
X6454000Y-10794000D02*
X6486000Y-10826000D01*
X6486000Y-10794000D02*
X6454000Y-10826000D01*
X6454000Y-10894000D02*
X6486000Y-10926000D01*
X6486000Y-10894000D02*
X6454000Y-10926000D01*
X6454000Y-10994000D02*
X6486000Y-11026000D01*
X6486000Y-10994000D02*
X6454000Y-11026000D01*
X6454000Y-11494000D02*
X6486000Y-11526000D01*
X6486000Y-11494000D02*
X6454000Y-11526000D01*
X6454000Y-11594000D02*
X6486000Y-11626000D01*
X6486000Y-11594000D02*
X6454000Y-11626000D01*
X6454000Y-11694000D02*
X6486000Y-11726000D01*
X6486000Y-11694000D02*
X6454000Y-11726000D01*
X6454000Y-11794000D02*
X6486000Y-11826000D01*
X6486000Y-11794000D02*
X6454000Y-11826000D01*
X6454000Y-12344000D02*
X6486000Y-12376000D01*
X6486000Y-12344000D02*
X6454000Y-12376000D01*
X6454000Y-12444000D02*
X6486000Y-12476000D01*
X6486000Y-12444000D02*
X6454000Y-12476000D01*
X6454000Y-12544000D02*
X6486000Y-12576000D01*
X6486000Y-12544000D02*
X6454000Y-12576000D01*
X6454000Y-12644000D02*
X6486000Y-12676000D01*
X6486000Y-12644000D02*
X6454000Y-12676000D01*
X7904000Y-9084000D02*
X7936000Y-9116000D01*
X7936000Y-9084000D02*
X7904000Y-9116000D01*
X7904000Y-9184000D02*
X7936000Y-9216000D01*
X7936000Y-9184000D02*
X7904000Y-9216000D01*
X7904000Y-9284000D02*
X7936000Y-9316000D01*
X7936000Y-9284000D02*
X7904000Y-9316000D01*
X7904000Y-9384000D02*
X7936000Y-9416000D01*
X7936000Y-9384000D02*
X7904000Y-9416000D01*
X7904000Y-9884000D02*
X7936000Y-9916000D01*
X7936000Y-9884000D02*
X7904000Y-9916000D01*
X7904000Y-9984000D02*
X7936000Y-10016000D01*
X7936000Y-9984000D02*
X7904000Y-10016000D01*
X7904000Y-10084000D02*
X7936000Y-10116000D01*
X7936000Y-10084000D02*
X7904000Y-10116000D01*
X7904000Y-10184000D02*
X7936000Y-10216000D01*
X7936000Y-10184000D02*
X7904000Y-10216000D01*
X7904000Y-10684000D02*
X7936000Y-10716000D01*
X7936000Y-10684000D02*
X7904000Y-10716000D01*
X7904000Y-10784000D02*
X7936000Y-10816000D01*
X7936000Y-10784000D02*
X7904000Y-10816000D01*
X7904000Y-10884000D02*
X7936000Y-10916000D01*
X7936000Y-10884000D02*
X7904000Y-10916000D01*
X7904000Y-10984000D02*
X7936000Y-11016000D01*
X7936000Y-10984000D02*
X7904000Y-11016000D01*
X7904000Y-11484000D02*
X7936000Y-11516000D01*
X7936000Y-11484000D02*
X7904000Y-11516000D01*
X7904000Y-11584000D02*
X7936000Y-11616000D01*
X7936000Y-11584000D02*
X7904000Y-11616000D01*
X7904000Y-11684000D02*
X7936000Y-11716000D01*
X7936000Y-11684000D02*
X7904000Y-11716000D01*
X7904000Y-11784000D02*
X7936000Y-11816000D01*
X7936000Y-11784000D02*
X7904000Y-11816000D01*
X7904000Y-12294000D02*
X7936000Y-12326000D01*
X7936000Y-12294000D02*
X7904000Y-12326000D01*
X7904000Y-12394000D02*
X7936000Y-12426000D01*
X7936000Y-12394000D02*
X7904000Y-12426000D01*
X7904000Y-12494000D02*
X7936000Y-12526000D01*
X7936000Y-12494000D02*
X7904000Y-12526000D01*
X7904000Y-12594000D02*
X7936000Y-12626000D01*
X7936000Y-12594000D02*
X7904000Y-12626000D01*
X8004000Y-9084000D02*
X8036000Y-9116000D01*
X8036000Y-9084000D02*
X8004000Y-9116000D01*
X8004000Y-9184000D02*
X8036000Y-9216000D01*
X8036000Y-9184000D02*
X8004000Y-9216000D01*
X8004000Y-9284000D02*
X8036000Y-9316000D01*
X8036000Y-9284000D02*
X8004000Y-9316000D01*
X8004000Y-9384000D02*
X8036000Y-9416000D01*
X8036000Y-9384000D02*
X8004000Y-9416000D01*
X8004000Y-9884000D02*
X8036000Y-9916000D01*
X8036000Y-9884000D02*
X8004000Y-9916000D01*
X8004000Y-9984000D02*
X8036000Y-10016000D01*
X8036000Y-9984000D02*
X8004000Y-10016000D01*
X8004000Y-10084000D02*
X8036000Y-10116000D01*
X8036000Y-10084000D02*
X8004000Y-10116000D01*
X8004000Y-10184000D02*
X8036000Y-10216000D01*
X8036000Y-10184000D02*
X8004000Y-10216000D01*
X8004000Y-10684000D02*
X8036000Y-10716000D01*
X8036000Y-10684000D02*
X8004000Y-10716000D01*
X8004000Y-10784000D02*
X8036000Y-10816000D01*
X8036000Y-10784000D02*
X8004000Y-10816000D01*
X8004000Y-10884000D02*
X8036000Y-10916000D01*
X8036000Y-10884000D02*
X8004000Y-10916000D01*
X8004000Y-10984000D02*
X8036000Y-11016000D01*
X8036000Y-10984000D02*
X8004000Y-11016000D01*
X8004000Y-11484000D02*
X8036000Y-11516000D01*
X8036000Y-11484000D02*
X8004000Y-11516000D01*
X8004000Y-11584000D02*
X8036000Y-11616000D01*
X8036000Y-11584000D02*
X8004000Y-11616000D01*
X8004000Y-11684000D02*
X8036000Y-11716000D01*
X8036000Y-11684000D02*
X8004000Y-11716000D01*
X8004000Y-11784000D02*
X8036000Y-11816000D01*
X8036000Y-11784000D02*
X8004000Y-11816000D01*
X8004000Y-12294000D02*
X8036000Y-12326000D01*
X8036000Y-12294000D02*
X8004000Y-12326000D01*
X8004000Y-12394000D02*
X8036000Y-12426000D01*
X8036000Y-12394000D02*
X8004000Y-12426000D01*
X8004000Y-12494000D02*
X8036000Y-12526000D01*
X8036000Y-12494000D02*
X8004000Y-12526000D01*
X8004000Y-12594000D02*
X8036000Y-12626000D01*
X8036000Y-12594000D02*
X8004000Y-12626000D01*
X8104000Y-9084000D02*
X8136000Y-9116000D01*
X8136000Y-9084000D02*
X8104000Y-9116000D01*
X8104000Y-9184000D02*
X8136000Y-9216000D01*
X8136000Y-9184000D02*
X8104000Y-9216000D01*
X8104000Y-9284000D02*
X8136000Y-9316000D01*
X8136000Y-9284000D02*
X8104000Y-9316000D01*
X8104000Y-9384000D02*
X8136000Y-9416000D01*
X8136000Y-9384000D02*
X8104000Y-9416000D01*
X8104000Y-9884000D02*
X8136000Y-9916000D01*
X8136000Y-9884000D02*
X8104000Y-9916000D01*
X8104000Y-9984000D02*
X8136000Y-10016000D01*
X8136000Y-9984000D02*
X8104000Y-10016000D01*
X8104000Y-10084000D02*
X8136000Y-10116000D01*
X8136000Y-10084000D02*
X8104000Y-10116000D01*
X8104000Y-10184000D02*
X8136000Y-10216000D01*
X8136000Y-10184000D02*
X8104000Y-10216000D01*
X8104000Y-10684000D02*
X8136000Y-10716000D01*
X8136000Y-10684000D02*
X8104000Y-10716000D01*
X8104000Y-10784000D02*
X8136000Y-10816000D01*
X8136000Y-10784000D02*
X8104000Y-10816000D01*
X8104000Y-10884000D02*
X8136000Y-10916000D01*
X8136000Y-10884000D02*
X8104000Y-10916000D01*
X8104000Y-10984000D02*
X8136000Y-11016000D01*
X8136000Y-10984000D02*
X8104000Y-11016000D01*
X8104000Y-11484000D02*
X8136000Y-11516000D01*
X8136000Y-11484000D02*
X8104000Y-11516000D01*
X8104000Y-11584000D02*
X8136000Y-11616000D01*
X8136000Y-11584000D02*
X8104000Y-11616000D01*
X8104000Y-11684000D02*
X8136000Y-11716000D01*
X8136000Y-11684000D02*
X8104000Y-11716000D01*
X8104000Y-11784000D02*
X8136000Y-11816000D01*
X8136000Y-11784000D02*
X8104000Y-11816000D01*
X8104000Y-12294000D02*
X8136000Y-12326000D01*
X8136000Y-12294000D02*
X8104000Y-12326000D01*
X8104000Y-12394000D02*
X8136000Y-12426000D01*
X8136000Y-12394000D02*
X8104000Y-12426000D01*
X8104000Y-12494000D02*
X8136000Y-12526000D01*
X8136000Y-12494000D02*
X8104000Y-12526000D01*
X8104000Y-12594000D02*
X8136000Y-12626000D01*
X8136000Y-12594000D02*
X8104000Y-12626000D01*
X8204000Y-9084000D02*
X8236000Y-9116000D01*
X8236000Y-9084000D02*
X8204000Y-9116000D01*
X8204000Y-9184000D02*
X8236000Y-9216000D01*
X8236000Y-9184000D02*
X8204000Y-9216000D01*
X8204000Y-9284000D02*
X8236000Y-9316000D01*
X8236000Y-9284000D02*
X8204000Y-9316000D01*
X8204000Y-9384000D02*
X8236000Y-9416000D01*
X8236000Y-9384000D02*
X8204000Y-9416000D01*
X8204000Y-9884000D02*
X8236000Y-9916000D01*
X8236000Y-9884000D02*
X8204000Y-9916000D01*
X8204000Y-9984000D02*
X8236000Y-10016000D01*
X8236000Y-9984000D02*
X8204000Y-10016000D01*
X8204000Y-10084000D02*
X8236000Y-10116000D01*
X8236000Y-10084000D02*
X8204000Y-10116000D01*
X8204000Y-10184000D02*
X8236000Y-10216000D01*
X8236000Y-10184000D02*
X8204000Y-10216000D01*
X8204000Y-10684000D02*
X8236000Y-10716000D01*
X8236000Y-10684000D02*
X8204000Y-10716000D01*
X8204000Y-10784000D02*
X8236000Y-10816000D01*
X8236000Y-10784000D02*
X8204000Y-10816000D01*
X8204000Y-10884000D02*
X8236000Y-10916000D01*
X8236000Y-10884000D02*
X8204000Y-10916000D01*
X8204000Y-10984000D02*
X8236000Y-11016000D01*
X8236000Y-10984000D02*
X8204000Y-11016000D01*
X8204000Y-11484000D02*
X8236000Y-11516000D01*
X8236000Y-11484000D02*
X8204000Y-11516000D01*
X8204000Y-11584000D02*
X8236000Y-11616000D01*
X8236000Y-11584000D02*
X8204000Y-11616000D01*
X8204000Y-11684000D02*
X8236000Y-11716000D01*
X8236000Y-11684000D02*
X8204000Y-11716000D01*
X8204000Y-11784000D02*
X8236000Y-11816000D01*
X8236000Y-11784000D02*
X8204000Y-11816000D01*
X8204000Y-12294000D02*
X8236000Y-12326000D01*
X8236000Y-12294000D02*
X8204000Y-12326000D01*
X8204000Y-12394000D02*
X8236000Y-12426000D01*
X8236000Y-12394000D02*
X8204000Y-12426000D01*
X8204000Y-12494000D02*
X8236000Y-12526000D01*
X8236000Y-12494000D02*
X8204000Y-12526000D01*
X8204000Y-12594000D02*
X8236000Y-12626000D01*
X8236000Y-12594000D02*
X8204000Y-12626000D01*
X9634000Y-9054000D02*
X9666000Y-9086000D01*
X9666000Y-9054000D02*
X9634000Y-9086000D01*
X9634000Y-9154000D02*
X9666000Y-9186000D01*
X9666000Y-9154000D02*
X9634000Y-9186000D01*
X9634000Y-9254000D02*
X9666000Y-9286000D01*
X9666000Y-9254000D02*
X9634000Y-9286000D01*
X9634000Y-9354000D02*
X9666000Y-9386000D01*
X9666000Y-9354000D02*
X9634000Y-9386000D01*
X9654000Y-11454000D02*
X9686000Y-11486000D01*
X9686000Y-11454000D02*
X9654000Y-11486000D01*
X9654000Y-11554000D02*
X9686000Y-11586000D01*
X9686000Y-11554000D02*
X9654000Y-11586000D01*
X9654000Y-11654000D02*
X9686000Y-11686000D01*
X9686000Y-11654000D02*
X9654000Y-11686000D01*
X9654000Y-11754000D02*
X9686000Y-11786000D01*
X9686000Y-11754000D02*
X9654000Y-11786000D01*
X9664000Y-9854000D02*
X9696000Y-9886000D01*
X9696000Y-9854000D02*
X9664000Y-9886000D01*
X9664000Y-9954000D02*
X9696000Y-9986000D01*
X9696000Y-9954000D02*
X9664000Y-9986000D01*
X9664000Y-10054000D02*
X9696000Y-10086000D01*
X9696000Y-10054000D02*
X9664000Y-10086000D01*
X9664000Y-10154000D02*
X9696000Y-10186000D01*
X9696000Y-10154000D02*
X9664000Y-10186000D01*
X9664000Y-10654000D02*
X9696000Y-10686000D01*
X9696000Y-10654000D02*
X9664000Y-10686000D01*
X9664000Y-10754000D02*
X9696000Y-10786000D01*
X9696000Y-10754000D02*
X9664000Y-10786000D01*
X9664000Y-10854000D02*
X9696000Y-10886000D01*
X9696000Y-10854000D02*
X9664000Y-10886000D01*
X9664000Y-10954000D02*
X9696000Y-10986000D01*
X9696000Y-10954000D02*
X9664000Y-10986000D01*
X9664000Y-12314000D02*
X9696000Y-12346000D01*
X9696000Y-12314000D02*
X9664000Y-12346000D01*
X9664000Y-12414000D02*
X9696000Y-12446000D01*
X9696000Y-12414000D02*
X9664000Y-12446000D01*
X9664000Y-12514000D02*
X9696000Y-12546000D01*
X9696000Y-12514000D02*
X9664000Y-12546000D01*
X9664000Y-12614000D02*
X9696000Y-12646000D01*
X9696000Y-12614000D02*
X9664000Y-12646000D01*
X9734000Y-9054000D02*
X9766000Y-9086000D01*
X9766000Y-9054000D02*
X9734000Y-9086000D01*
X9734000Y-9154000D02*
X9766000Y-9186000D01*
X9766000Y-9154000D02*
X9734000Y-9186000D01*
X9734000Y-9254000D02*
X9766000Y-9286000D01*
X9766000Y-9254000D02*
X9734000Y-9286000D01*
X9734000Y-9354000D02*
X9766000Y-9386000D01*
X9766000Y-9354000D02*
X9734000Y-9386000D01*
X9754000Y-11454000D02*
X9786000Y-11486000D01*
X9786000Y-11454000D02*
X9754000Y-11486000D01*
X9754000Y-11554000D02*
X9786000Y-11586000D01*
X9786000Y-11554000D02*
X9754000Y-11586000D01*
X9754000Y-11654000D02*
X9786000Y-11686000D01*
X9786000Y-11654000D02*
X9754000Y-11686000D01*
X9754000Y-11754000D02*
X9786000Y-11786000D01*
X9786000Y-11754000D02*
X9754000Y-11786000D01*
X9764000Y-9854000D02*
X9796000Y-9886000D01*
X9796000Y-9854000D02*
X9764000Y-9886000D01*
X9764000Y-9954000D02*
X9796000Y-9986000D01*
X9796000Y-9954000D02*
X9764000Y-9986000D01*
X9764000Y-10054000D02*
X9796000Y-10086000D01*
X9796000Y-10054000D02*
X9764000Y-10086000D01*
X9764000Y-10154000D02*
X9796000Y-10186000D01*
X9796000Y-10154000D02*
X9764000Y-10186000D01*
X9764000Y-10654000D02*
X9796000Y-10686000D01*
X9796000Y-10654000D02*
X9764000Y-10686000D01*
X9764000Y-10754000D02*
X9796000Y-10786000D01*
X9796000Y-10754000D02*
X9764000Y-10786000D01*
X9764000Y-10854000D02*
X9796000Y-10886000D01*
X9796000Y-10854000D02*
X9764000Y-10886000D01*
X9764000Y-10954000D02*
X9796000Y-10986000D01*
X9796000Y-10954000D02*
X9764000Y-10986000D01*
X9764000Y-12314000D02*
X9796000Y-12346000D01*
X9796000Y-12314000D02*
X9764000Y-12346000D01*
X9764000Y-12414000D02*
X9796000Y-12446000D01*
X9796000Y-12414000D02*
X9764000Y-12446000D01*
X9764000Y-12514000D02*
X9796000Y-12546000D01*
X9796000Y-12514000D02*
X9764000Y-12546000D01*
X9764000Y-12614000D02*
X9796000Y-12646000D01*
X9796000Y-12614000D02*
X9764000Y-12646000D01*
X9834000Y-9054000D02*
X9866000Y-9086000D01*
X9866000Y-9054000D02*
X9834000Y-9086000D01*
X9834000Y-9154000D02*
X9866000Y-9186000D01*
X9866000Y-9154000D02*
X9834000Y-9186000D01*
X9834000Y-9254000D02*
X9866000Y-9286000D01*
X9866000Y-9254000D02*
X9834000Y-9286000D01*
X9834000Y-9354000D02*
X9866000Y-9386000D01*
X9866000Y-9354000D02*
X9834000Y-9386000D01*
X9854000Y-11454000D02*
X9886000Y-11486000D01*
X9886000Y-11454000D02*
X9854000Y-11486000D01*
X9854000Y-11554000D02*
X9886000Y-11586000D01*
X9886000Y-11554000D02*
X9854000Y-11586000D01*
X9854000Y-11654000D02*
X9886000Y-11686000D01*
X9886000Y-11654000D02*
X9854000Y-11686000D01*
X9854000Y-11754000D02*
X9886000Y-11786000D01*
X9886000Y-11754000D02*
X9854000Y-11786000D01*
X9864000Y-9854000D02*
X9896000Y-9886000D01*
X9896000Y-9854000D02*
X9864000Y-9886000D01*
X9864000Y-9954000D02*
X9896000Y-9986000D01*
X9896000Y-9954000D02*
X9864000Y-9986000D01*
X9864000Y-10054000D02*
X9896000Y-10086000D01*
X9896000Y-10054000D02*
X9864000Y-10086000D01*
X9864000Y-10154000D02*
X9896000Y-10186000D01*
X9896000Y-10154000D02*
X9864000Y-10186000D01*
X9864000Y-10654000D02*
X9896000Y-10686000D01*
X9896000Y-10654000D02*
X9864000Y-10686000D01*
X9864000Y-10754000D02*
X9896000Y-10786000D01*
X9896000Y-10754000D02*
X9864000Y-10786000D01*
X9864000Y-10854000D02*
X9896000Y-10886000D01*
X9896000Y-10854000D02*
X9864000Y-10886000D01*
X9864000Y-10954000D02*
X9896000Y-10986000D01*
X9896000Y-10954000D02*
X9864000Y-10986000D01*
X9864000Y-12314000D02*
X9896000Y-12346000D01*
X9896000Y-12314000D02*
X9864000Y-12346000D01*
X9864000Y-12414000D02*
X9896000Y-12446000D01*
X9896000Y-12414000D02*
X9864000Y-12446000D01*
X9864000Y-12514000D02*
X9896000Y-12546000D01*
X9896000Y-12514000D02*
X9864000Y-12546000D01*
X9864000Y-12614000D02*
X9896000Y-12646000D01*
X9896000Y-12614000D02*
X9864000Y-12646000D01*
X9934000Y-9054000D02*
X9966000Y-9086000D01*
X9966000Y-9054000D02*
X9934000Y-9086000D01*
X9934000Y-9154000D02*
X9966000Y-9186000D01*
X9966000Y-9154000D02*
X9934000Y-9186000D01*
X9934000Y-9254000D02*
X9966000Y-9286000D01*
X9966000Y-9254000D02*
X9934000Y-9286000D01*
X9934000Y-9354000D02*
X9966000Y-9386000D01*
X9966000Y-9354000D02*
X9934000Y-9386000D01*
X9954000Y-11454000D02*
X9986000Y-11486000D01*
X9986000Y-11454000D02*
X9954000Y-11486000D01*
X9954000Y-11554000D02*
X9986000Y-11586000D01*
X9986000Y-11554000D02*
X9954000Y-11586000D01*
X9954000Y-11654000D02*
X9986000Y-11686000D01*
X9986000Y-11654000D02*
X9954000Y-11686000D01*
X9954000Y-11754000D02*
X9986000Y-11786000D01*
X9986000Y-11754000D02*
X9954000Y-11786000D01*
X9964000Y-9854000D02*
X9996000Y-9886000D01*
X9996000Y-9854000D02*
X9964000Y-9886000D01*
X9964000Y-9954000D02*
X9996000Y-9986000D01*
X9996000Y-9954000D02*
X9964000Y-9986000D01*
X9964000Y-10054000D02*
X9996000Y-10086000D01*
X9996000Y-10054000D02*
X9964000Y-10086000D01*
X9964000Y-10154000D02*
X9996000Y-10186000D01*
X9996000Y-10154000D02*
X9964000Y-10186000D01*
X9964000Y-10654000D02*
X9996000Y-10686000D01*
X9996000Y-10654000D02*
X9964000Y-10686000D01*
X9964000Y-10754000D02*
X9996000Y-10786000D01*
X9996000Y-10754000D02*
X9964000Y-10786000D01*
X9964000Y-10854000D02*
X9996000Y-10886000D01*
X9996000Y-10854000D02*
X9964000Y-10886000D01*
X9964000Y-10954000D02*
X9996000Y-10986000D01*
X9996000Y-10954000D02*
X9964000Y-10986000D01*
X9964000Y-12314000D02*
X9996000Y-12346000D01*
X9996000Y-12314000D02*
X9964000Y-12346000D01*
X9964000Y-12414000D02*
X9996000Y-12446000D01*
X9996000Y-12414000D02*
X9964000Y-12446000D01*
X9964000Y-12514000D02*
X9996000Y-12546000D01*
X9996000Y-12514000D02*
X9964000Y-12546000D01*
X9964000Y-12614000D02*
X9996000Y-12646000D01*
X9996000Y-12614000D02*
X9964000Y-12646000D01*
X11364000Y-9054000D02*
X11396000Y-9086000D01*
X11396000Y-9054000D02*
X11364000Y-9086000D01*
X11364000Y-9154000D02*
X11396000Y-9186000D01*
X11396000Y-9154000D02*
X11364000Y-9186000D01*
X11364000Y-9254000D02*
X11396000Y-9286000D01*
X11396000Y-9254000D02*
X11364000Y-9286000D01*
X11364000Y-9354000D02*
X11396000Y-9386000D01*
X11396000Y-9354000D02*
X11364000Y-9386000D01*
X11364000Y-9864000D02*
X11396000Y-9896000D01*
X11396000Y-9864000D02*
X11364000Y-9896000D01*
X11364000Y-9964000D02*
X11396000Y-9996000D01*
X11396000Y-9964000D02*
X11364000Y-9996000D01*
X11364000Y-10064000D02*
X11396000Y-10096000D01*
X11396000Y-10064000D02*
X11364000Y-10096000D01*
X11364000Y-10164000D02*
X11396000Y-10196000D01*
X11396000Y-10164000D02*
X11364000Y-10196000D01*
X11364000Y-10654000D02*
X11396000Y-10686000D01*
X11396000Y-10654000D02*
X11364000Y-10686000D01*
X11364000Y-10754000D02*
X11396000Y-10786000D01*
X11396000Y-10754000D02*
X11364000Y-10786000D01*
X11364000Y-10854000D02*
X11396000Y-10886000D01*
X11396000Y-10854000D02*
X11364000Y-10886000D01*
X11364000Y-10954000D02*
X11396000Y-10986000D01*
X11396000Y-10954000D02*
X11364000Y-10986000D01*
X11364000Y-11454000D02*
X11396000Y-11486000D01*
X11396000Y-11454000D02*
X11364000Y-11486000D01*
X11364000Y-11554000D02*
X11396000Y-11586000D01*
X11396000Y-11554000D02*
X11364000Y-11586000D01*
X11364000Y-11654000D02*
X11396000Y-11686000D01*
X11396000Y-11654000D02*
X11364000Y-11686000D01*
X11364000Y-11754000D02*
X11396000Y-11786000D01*
X11396000Y-11754000D02*
X11364000Y-11786000D01*
X11364000Y-12304000D02*
X11396000Y-12336000D01*
X11396000Y-12304000D02*
X11364000Y-12336000D01*
X11364000Y-12404000D02*
X11396000Y-12436000D01*
X11396000Y-12404000D02*
X11364000Y-12436000D01*
X11364000Y-12504000D02*
X11396000Y-12536000D01*
X11396000Y-12504000D02*
X11364000Y-12536000D01*
X11364000Y-12604000D02*
X11396000Y-12636000D01*
X11396000Y-12604000D02*
X11364000Y-12636000D01*
X11464000Y-9054000D02*
X11496000Y-9086000D01*
X11496000Y-9054000D02*
X11464000Y-9086000D01*
X11464000Y-9154000D02*
X11496000Y-9186000D01*
X11496000Y-9154000D02*
X11464000Y-9186000D01*
X11464000Y-9254000D02*
X11496000Y-9286000D01*
X11496000Y-9254000D02*
X11464000Y-9286000D01*
X11464000Y-9354000D02*
X11496000Y-9386000D01*
X11496000Y-9354000D02*
X11464000Y-9386000D01*
X11464000Y-9864000D02*
X11496000Y-9896000D01*
X11496000Y-9864000D02*
X11464000Y-9896000D01*
X11464000Y-9964000D02*
X11496000Y-9996000D01*
X11496000Y-9964000D02*
X11464000Y-9996000D01*
X11464000Y-10064000D02*
X11496000Y-10096000D01*
X11496000Y-10064000D02*
X11464000Y-10096000D01*
X11464000Y-10164000D02*
X11496000Y-10196000D01*
X11496000Y-10164000D02*
X11464000Y-10196000D01*
X11464000Y-10654000D02*
X11496000Y-10686000D01*
X11496000Y-10654000D02*
X11464000Y-10686000D01*
X11464000Y-10754000D02*
X11496000Y-10786000D01*
X11496000Y-10754000D02*
X11464000Y-10786000D01*
X11464000Y-10854000D02*
X11496000Y-10886000D01*
X11496000Y-10854000D02*
X11464000Y-10886000D01*
X11464000Y-10954000D02*
X11496000Y-10986000D01*
X11496000Y-10954000D02*
X11464000Y-10986000D01*
X11464000Y-11454000D02*
X11496000Y-11486000D01*
X11496000Y-11454000D02*
X11464000Y-11486000D01*
X11464000Y-11554000D02*
X11496000Y-11586000D01*
X11496000Y-11554000D02*
X11464000Y-11586000D01*
X11464000Y-11654000D02*
X11496000Y-11686000D01*
X11496000Y-11654000D02*
X11464000Y-11686000D01*
X11464000Y-11754000D02*
X11496000Y-11786000D01*
X11496000Y-11754000D02*
X11464000Y-11786000D01*
X11464000Y-12304000D02*
X11496000Y-12336000D01*
X11496000Y-12304000D02*
X11464000Y-12336000D01*
X11464000Y-12404000D02*
X11496000Y-12436000D01*
X11496000Y-12404000D02*
X11464000Y-12436000D01*
X11464000Y-12504000D02*
X11496000Y-12536000D01*
X11496000Y-12504000D02*
X11464000Y-12536000D01*
X11464000Y-12604000D02*
X11496000Y-12636000D01*
X11496000Y-12604000D02*
X11464000Y-12636000D01*
X11564000Y-9054000D02*
X11596000Y-9086000D01*
X11596000Y-9054000D02*
X11564000Y-9086000D01*
X11564000Y-9154000D02*
X11596000Y-9186000D01*
X11596000Y-9154000D02*
X11564000Y-9186000D01*
X11564000Y-9254000D02*
X11596000Y-9286000D01*
X11596000Y-9254000D02*
X11564000Y-9286000D01*
X11564000Y-9354000D02*
X11596000Y-9386000D01*
X11596000Y-9354000D02*
X11564000Y-9386000D01*
X11564000Y-9864000D02*
X11596000Y-9896000D01*
X11596000Y-9864000D02*
X11564000Y-9896000D01*
X11564000Y-9964000D02*
X11596000Y-9996000D01*
X11596000Y-9964000D02*
X11564000Y-9996000D01*
X11564000Y-10064000D02*
X11596000Y-10096000D01*
X11596000Y-10064000D02*
X11564000Y-10096000D01*
X11564000Y-10164000D02*
X11596000Y-10196000D01*
X11596000Y-10164000D02*
X11564000Y-10196000D01*
X11564000Y-10654000D02*
X11596000Y-10686000D01*
X11596000Y-10654000D02*
X11564000Y-10686000D01*
X11564000Y-10754000D02*
X11596000Y-10786000D01*
X11596000Y-10754000D02*
X11564000Y-10786000D01*
X11564000Y-10854000D02*
X11596000Y-10886000D01*
X11596000Y-10854000D02*
X11564000Y-10886000D01*
X11564000Y-10954000D02*
X11596000Y-10986000D01*
X11596000Y-10954000D02*
X11564000Y-10986000D01*
X11564000Y-11454000D02*
X11596000Y-11486000D01*
X11596000Y-11454000D02*
X11564000Y-11486000D01*
X11564000Y-11554000D02*
X11596000Y-11586000D01*
X11596000Y-11554000D02*
X11564000Y-11586000D01*
X11564000Y-11654000D02*
X11596000Y-11686000D01*
X11596000Y-11654000D02*
X11564000Y-11686000D01*
X11564000Y-11754000D02*
X11596000Y-11786000D01*
X11596000Y-11754000D02*
X11564000Y-11786000D01*
X11564000Y-12304000D02*
X11596000Y-12336000D01*
X11596000Y-12304000D02*
X11564000Y-12336000D01*
X11564000Y-12404000D02*
X11596000Y-12436000D01*
X11596000Y-12404000D02*
X11564000Y-12436000D01*
X11564000Y-12504000D02*
X11596000Y-12536000D01*
X11596000Y-12504000D02*
X11564000Y-12536000D01*
X11564000Y-12604000D02*
X11596000Y-12636000D01*
X11596000Y-12604000D02*
X11564000Y-12636000D01*
X11664000Y-9054000D02*
X11696000Y-9086000D01*
X11696000Y-9054000D02*
X11664000Y-9086000D01*
X11664000Y-9154000D02*
X11696000Y-9186000D01*
X11696000Y-9154000D02*
X11664000Y-9186000D01*
X11664000Y-9254000D02*
X11696000Y-9286000D01*
X11696000Y-9254000D02*
X11664000Y-9286000D01*
X11664000Y-9354000D02*
X11696000Y-9386000D01*
X11696000Y-9354000D02*
X11664000Y-9386000D01*
X11664000Y-9864000D02*
X11696000Y-9896000D01*
X11696000Y-9864000D02*
X11664000Y-9896000D01*
X11664000Y-9964000D02*
X11696000Y-9996000D01*
X11696000Y-9964000D02*
X11664000Y-9996000D01*
X11664000Y-10064000D02*
X11696000Y-10096000D01*
X11696000Y-10064000D02*
X11664000Y-10096000D01*
X11664000Y-10164000D02*
X11696000Y-10196000D01*
X11696000Y-10164000D02*
X11664000Y-10196000D01*
X11664000Y-10654000D02*
X11696000Y-10686000D01*
X11696000Y-10654000D02*
X11664000Y-10686000D01*
X11664000Y-10754000D02*
X11696000Y-10786000D01*
X11696000Y-10754000D02*
X11664000Y-10786000D01*
X11664000Y-10854000D02*
X11696000Y-10886000D01*
X11696000Y-10854000D02*
X11664000Y-10886000D01*
X11664000Y-10954000D02*
X11696000Y-10986000D01*
X11696000Y-10954000D02*
X11664000Y-10986000D01*
X11664000Y-11454000D02*
X11696000Y-11486000D01*
X11696000Y-11454000D02*
X11664000Y-11486000D01*
X11664000Y-11554000D02*
X11696000Y-11586000D01*
X11696000Y-11554000D02*
X11664000Y-11586000D01*
X11664000Y-11654000D02*
X11696000Y-11686000D01*
X11696000Y-11654000D02*
X11664000Y-11686000D01*
X11664000Y-11754000D02*
X11696000Y-11786000D01*
X11696000Y-11754000D02*
X11664000Y-11786000D01*
X11664000Y-12304000D02*
X11696000Y-12336000D01*
X11696000Y-12304000D02*
X11664000Y-12336000D01*
X11664000Y-12404000D02*
X11696000Y-12436000D01*
X11696000Y-12404000D02*
X11664000Y-12436000D01*
X11664000Y-12504000D02*
X11696000Y-12536000D01*
X11696000Y-12504000D02*
X11664000Y-12536000D01*
X11664000Y-12604000D02*
X11696000Y-12636000D01*
X11696000Y-12604000D02*
X11664000Y-12636000D01*
X3380000Y-8570000D02*
G75*
G03X3380000Y-8570000I-20000J0D01*
G01*
X3610000Y-8420000D02*
G75*
G03X3610000Y-8420000I-20000J0D01*
G01*
X3610000Y-9680000D02*
G75*
G03X3610000Y-9680000I-20000J0D01*
G01*
X3610000Y-10520000D02*
G75*
G03X3610000Y-10520000I-20000J0D01*
G01*
X3620000Y-10065000D02*
G75*
G03X3620000Y-10065000I-20000J0D01*
G01*
X3670000Y-8040000D02*
G75*
G03X3670000Y-8040000I-20000J0D01*
G01*
X3680000Y-8200000D02*
G75*
G03X3680000Y-8200000I-20000J0D01*
G01*
X3770000Y-3570000D02*
G75*
G03X3770000Y-3570000I-20000J0D01*
G01*
X3815000Y-10065000D02*
G75*
G03X3815000Y-10065000I-20000J0D01*
G01*
X3825000Y-9660000D02*
G75*
G03X3825000Y-9660000I-20000J0D01*
G01*
X3860000Y-8870000D02*
G75*
G03X3860000Y-8870000I-20000J0D01*
G01*
X3860000Y-9270000D02*
G75*
G03X3860000Y-9270000I-20000J0D01*
G01*
X3870000Y-3470000D02*
G75*
G03X3870000Y-3470000I-20000J0D01*
G01*
X3920000Y-3820000D02*
G75*
G03X3920000Y-3820000I-20000J0D01*
G01*
X4015000Y-7645000D02*
G75*
G03X4015000Y-7645000I-20000J0D01*
G01*
X4080000Y-8650000D02*
G75*
G03X4080000Y-8650000I-20000J0D01*
G01*
X4090000Y-10080000D02*
G75*
G03X4090000Y-10080000I-20000J0D01*
G01*
X4100000Y-9250000D02*
G75*
G03X4100000Y-9250000I-20000J0D01*
G01*
X4110000Y-7340000D02*
G75*
G03X4110000Y-7340000I-20000J0D01*
G01*
X4150000Y-9170000D02*
G75*
G03X4150000Y-9170000I-20000J0D01*
G01*
X4155000Y-3700000D02*
G75*
G03X4155000Y-3700000I-20000J0D01*
G01*
X4160000Y-8870000D02*
G75*
G03X4160000Y-8870000I-20000J0D01*
G01*
X4170000Y-7850000D02*
G75*
G03X4170000Y-7850000I-20000J0D01*
G01*
X4170000Y-8220000D02*
G75*
G03X4170000Y-8220000I-20000J0D01*
G01*
X4175000Y-9665000D02*
G75*
G03X4175000Y-9665000I-20000J0D01*
G01*
X4200000Y-4240000D02*
G75*
G03X4200000Y-4240000I-20000J0D01*
G01*
X4210000Y-8780000D02*
G75*
G03X4210000Y-8780000I-20000J0D01*
G01*
X4275000Y-7485000D02*
G75*
G03X4275000Y-7485000I-20000J0D01*
G01*
X4340000Y-4250000D02*
G75*
G03X4340000Y-4250000I-20000J0D01*
G01*
X4370000Y-8400000D02*
G75*
G03X4370000Y-8400000I-20000J0D01*
G01*
X4380000Y-8160000D02*
G75*
G03X4380000Y-8160000I-20000J0D01*
G01*
X4520000Y-4360000D02*
G75*
G03X4520000Y-4360000I-20000J0D01*
G01*
X4520000Y-6320000D02*
G75*
G03X4520000Y-6320000I-20000J0D01*
G01*
X4520000Y-6480000D02*
G75*
G03X4520000Y-6480000I-20000J0D01*
G01*
X4530000Y-4170000D02*
G75*
G03X4530000Y-4170000I-20000J0D01*
G01*
X4580000Y-3690000D02*
G75*
G03X4580000Y-3690000I-20000J0D01*
G01*
X4740000Y-8880000D02*
G75*
G03X4740000Y-8880000I-20000J0D01*
G01*
X4760000Y-7380000D02*
G75*
G03X4760000Y-7380000I-20000J0D01*
G01*
X4780000Y-5930000D02*
G75*
G03X4780000Y-5930000I-20000J0D01*
G01*
X4840000Y-4410000D02*
G75*
G03X4840000Y-4410000I-20000J0D01*
G01*
X4870000Y-3600000D02*
G75*
G03X4870000Y-3600000I-20000J0D01*
G01*
X4870000Y-4500000D02*
G75*
G03X4870000Y-4500000I-20000J0D01*
G01*
X4940000Y-4310000D02*
G75*
G03X4940000Y-4310000I-20000J0D01*
G01*
X5020000Y-3600000D02*
G75*
G03X5020000Y-3600000I-20000J0D01*
G01*
X5020000Y-5100000D02*
G75*
G03X5020000Y-5100000I-20000J0D01*
G01*
X5030000Y-8110000D02*
G75*
G03X5030000Y-8110000I-20000J0D01*
G01*
X5040000Y-4240000D02*
G75*
G03X5040000Y-4240000I-20000J0D01*
G01*
X5080000Y-7290000D02*
G75*
G03X5080000Y-7290000I-20000J0D01*
G01*
X5090000Y-5160000D02*
G75*
G03X5090000Y-5160000I-20000J0D01*
G01*
X5090000Y-6320000D02*
G75*
G03X5090000Y-6320000I-20000J0D01*
G01*
X5120000Y-4030000D02*
G75*
G03X5120000Y-4030000I-20000J0D01*
G01*
X5170000Y-4220000D02*
G75*
G03X5170000Y-4220000I-20000J0D01*
G01*
X5170000Y-6280000D02*
G75*
G03X5170000Y-6280000I-20000J0D01*
G01*
X5180000Y-5060000D02*
G75*
G03X5180000Y-5060000I-20000J0D01*
G01*
X5235000Y-6375000D02*
G75*
G03X5235000Y-6375000I-20000J0D01*
G01*
X5280000Y-5670000D02*
G75*
G03X5280000Y-5670000I-20000J0D01*
G01*
X5300000Y-8670000D02*
G75*
G03X5300000Y-8670000I-20000J0D01*
G01*
X5350000Y-5190000D02*
G75*
G03X5350000Y-5190000I-20000J0D01*
G01*
X5350000Y-5340000D02*
G75*
G03X5350000Y-5340000I-20000J0D01*
G01*
X5460000Y-6300000D02*
G75*
G03X5460000Y-6300000I-20000J0D01*
G01*
X5460000Y-7450000D02*
G75*
G03X5460000Y-7450000I-20000J0D01*
G01*
X5470000Y-7950000D02*
G75*
G03X5470000Y-7950000I-20000J0D01*
G01*
X5480000Y-8180000D02*
G75*
G03X5480000Y-8180000I-20000J0D01*
G01*
X5540000Y-5200000D02*
G75*
G03X5540000Y-5200000I-20000J0D01*
G01*
X5540000Y-5340000D02*
G75*
G03X5540000Y-5340000I-20000J0D01*
G01*
X5560000Y-7780000D02*
G75*
G03X5560000Y-7780000I-20000J0D01*
G01*
X5625000Y-8870000D02*
G75*
G03X5625000Y-8870000I-20000J0D01*
G01*
X5630000Y-8520000D02*
G75*
G03X5630000Y-8520000I-20000J0D01*
G01*
X5735000Y-9025000D02*
G75*
G03X5735000Y-9025000I-20000J0D01*
G01*
X5740000Y-7590000D02*
G75*
G03X5740000Y-7590000I-20000J0D01*
G01*
X5770000Y-6550000D02*
G75*
G03X5770000Y-6550000I-20000J0D01*
G01*
X5840000Y-8590000D02*
G75*
G03X5840000Y-8590000I-20000J0D01*
G01*
X5895000Y-3925000D02*
G75*
G03X5895000Y-3925000I-20000J0D01*
G01*
X5905000Y-3725000D02*
G75*
G03X5905000Y-3725000I-20000J0D01*
G01*
X5910000Y-5920000D02*
G75*
G03X5910000Y-5920000I-20000J0D01*
G01*
X5910000Y-7540000D02*
G75*
G03X5910000Y-7540000I-20000J0D01*
G01*
X5910000Y-9200000D02*
G75*
G03X5910000Y-9200000I-20000J0D01*
G01*
X5915000Y-3495000D02*
G75*
G03X5915000Y-3495000I-20000J0D01*
G01*
X5930000Y-4590000D02*
G75*
G03X5930000Y-4590000I-20000J0D01*
G01*
X5945000Y-9025000D02*
G75*
G03X5945000Y-9025000I-20000J0D01*
G01*
X5960000Y-5680000D02*
G75*
G03X5960000Y-5680000I-20000J0D01*
G01*
X6000000Y-8855000D02*
G75*
G03X6000000Y-8855000I-20000J0D01*
G01*
X6040000Y-3695000D02*
G75*
G03X6040000Y-3695000I-20000J0D01*
G01*
X6040000Y-8780000D02*
G75*
G03X6040000Y-8780000I-20000J0D01*
G01*
X6120000Y-4520000D02*
G75*
G03X6120000Y-4520000I-20000J0D01*
G01*
X6120000Y-5055000D02*
G75*
G03X6120000Y-5055000I-20000J0D01*
G01*
X6120000Y-5305000D02*
G75*
G03X6120000Y-5305000I-20000J0D01*
G01*
X6130000Y-5660000D02*
G75*
G03X6130000Y-5660000I-20000J0D01*
G01*
X6130000Y-6260000D02*
G75*
G03X6130000Y-6260000I-20000J0D01*
G01*
X6200000Y-6620000D02*
G75*
G03X6200000Y-6620000I-20000J0D01*
G01*
X6290000Y-5110000D02*
G75*
G03X6290000Y-5110000I-20000J0D01*
G01*
X6300000Y-4970000D02*
G75*
G03X6300000Y-4970000I-20000J0D01*
G01*
X6310000Y-5840000D02*
G75*
G03X6310000Y-5840000I-20000J0D01*
G01*
X6380000Y-8460000D02*
G75*
G03X6380000Y-8460000I-20000J0D01*
G01*
X6400000Y-4970000D02*
G75*
G03X6400000Y-4970000I-20000J0D01*
G01*
X6400000Y-5100000D02*
G75*
G03X6400000Y-5100000I-20000J0D01*
G01*
X6400000Y-8640000D02*
G75*
G03X6400000Y-8640000I-20000J0D01*
G01*
X6500000Y-6690000D02*
G75*
G03X6500000Y-6690000I-20000J0D01*
G01*
X6510000Y-5850000D02*
G75*
G03X6510000Y-5850000I-20000J0D01*
G01*
X6520000Y-5680000D02*
G75*
G03X6520000Y-5680000I-20000J0D01*
G01*
X6570000Y-5920000D02*
G75*
G03X6570000Y-5920000I-20000J0D01*
G01*
X6570000Y-6340000D02*
G75*
G03X6570000Y-6340000I-20000J0D01*
G01*
X6730000Y-6270000D02*
G75*
G03X6730000Y-6270000I-20000J0D01*
G01*
X6760000Y-8060000D02*
G75*
G03X6760000Y-8060000I-20000J0D01*
G01*
X6830000Y-6260000D02*
G75*
G03X6830000Y-6260000I-20000J0D01*
G01*
X6830000Y-6350000D02*
G75*
G03X6830000Y-6350000I-20000J0D01*
G01*
X6950000Y-6260000D02*
G75*
G03X6950000Y-6260000I-20000J0D01*
G01*
X7120000Y-6450000D02*
G75*
G03X7120000Y-6450000I-20000J0D01*
G01*
X7140000Y-5660000D02*
G75*
G03X7140000Y-5660000I-20000J0D01*
G01*
X7140000Y-5750000D02*
G75*
G03X7140000Y-5750000I-20000J0D01*
G01*
X7200000Y-8550000D02*
G75*
G03X7200000Y-8550000I-20000J0D01*
G01*
X7210000Y-8100000D02*
G75*
G03X7210000Y-8100000I-20000J0D01*
G01*
X7210000Y-8290000D02*
G75*
G03X7210000Y-8290000I-20000J0D01*
G01*
X7220000Y-7450000D02*
G75*
G03X7220000Y-7450000I-20000J0D01*
G01*
X7220000Y-7700000D02*
G75*
G03X7220000Y-7700000I-20000J0D01*
G01*
X7250000Y-6220000D02*
G75*
G03X7250000Y-6220000I-20000J0D01*
G01*
X7310000Y-5830000D02*
G75*
G03X7310000Y-5830000I-20000J0D01*
G01*
X7360000Y-6370000D02*
G75*
G03X7360000Y-6370000I-20000J0D01*
G01*
X7360000Y-8190000D02*
G75*
G03X7360000Y-8190000I-20000J0D01*
G01*
X7380000Y-5900000D02*
G75*
G03X7380000Y-5900000I-20000J0D01*
G01*
X7380000Y-8550000D02*
G75*
G03X7380000Y-8550000I-20000J0D01*
G01*
X7440000Y-8850000D02*
G75*
G03X7440000Y-8850000I-20000J0D01*
G01*
X7490000Y-9040000D02*
G75*
G03X7490000Y-9040000I-20000J0D01*
G01*
X7515000Y-7605102D02*
G75*
G03X7515000Y-7605102I-20000J0D01*
G01*
X7570000Y-7350000D02*
G75*
G03X7570000Y-7350000I-20000J0D01*
G01*
X7610000Y-6220000D02*
G75*
G03X7610000Y-6220000I-20000J0D01*
G01*
X7640000Y-9210000D02*
G75*
G03X7640000Y-9210000I-20000J0D01*
G01*
X7715000Y-9045000D02*
G75*
G03X7715000Y-9045000I-20000J0D01*
G01*
X7720000Y-6230000D02*
G75*
G03X7720000Y-6230000I-20000J0D01*
G01*
X7780000Y-8845000D02*
G75*
G03X7780000Y-8845000I-20000J0D01*
G01*
X7860000Y-3735000D02*
G75*
G03X7860000Y-3735000I-20000J0D01*
G01*
X7860000Y-3865000D02*
G75*
G03X7860000Y-3865000I-20000J0D01*
G01*
X7860000Y-3985000D02*
G75*
G03X7860000Y-3985000I-20000J0D01*
G01*
X7890000Y-8480000D02*
G75*
G03X7890000Y-8480000I-20000J0D01*
G01*
X7900000Y-7340000D02*
G75*
G03X7900000Y-7340000I-20000J0D01*
G01*
X7945000Y-3910000D02*
G75*
G03X7945000Y-3910000I-20000J0D01*
G01*
X7955000Y-3530000D02*
G75*
G03X7955000Y-3530000I-20000J0D01*
G01*
X7955000Y-3665000D02*
G75*
G03X7955000Y-3665000I-20000J0D01*
G01*
X7960000Y-6220000D02*
G75*
G03X7960000Y-6220000I-20000J0D01*
G01*
X8060000Y-7440000D02*
G75*
G03X8060000Y-7440000I-20000J0D01*
G01*
X8150000Y-6220000D02*
G75*
G03X8150000Y-6220000I-20000J0D01*
G01*
X8210000Y-7340000D02*
G75*
G03X8210000Y-7340000I-20000J0D01*
G01*
X8460000Y-7290000D02*
G75*
G03X8460000Y-7290000I-20000J0D01*
G01*
X8560000Y-8070000D02*
G75*
G03X8560000Y-8070000I-20000J0D01*
G01*
X8770000Y-5230000D02*
G75*
G03X8770000Y-5230000I-20000J0D01*
G01*
X8770000Y-5320000D02*
G75*
G03X8770000Y-5320000I-20000J0D01*
G01*
X8780000Y-8220000D02*
G75*
G03X8780000Y-8220000I-20000J0D01*
G01*
X8960000Y-5230000D02*
G75*
G03X8960000Y-5230000I-20000J0D01*
G01*
X8960000Y-5310000D02*
G75*
G03X8960000Y-5310000I-20000J0D01*
G01*
X8970000Y-5410000D02*
G75*
G03X8970000Y-5410000I-20000J0D01*
G01*
X9010000Y-6005000D02*
G75*
G03X9010000Y-6005000I-20000J0D01*
G01*
X9020000Y-6300000D02*
G75*
G03X9020000Y-6300000I-20000J0D01*
G01*
X9025000Y-5620000D02*
G75*
G03X9025000Y-5620000I-20000J0D01*
G01*
X9070000Y-6160000D02*
G75*
G03X9070000Y-6160000I-20000J0D01*
G01*
X9070000Y-8850000D02*
G75*
G03X9070000Y-8850000I-20000J0D01*
G01*
X9110000Y-3735000D02*
G75*
G03X9110000Y-3735000I-20000J0D01*
G01*
X9110000Y-5230000D02*
G75*
G03X9110000Y-5230000I-20000J0D01*
G01*
X9110000Y-5320000D02*
G75*
G03X9110000Y-5320000I-20000J0D01*
G01*
X9110000Y-5410000D02*
G75*
G03X9110000Y-5410000I-20000J0D01*
G01*
X9130000Y-7320000D02*
G75*
G03X9130000Y-7320000I-20000J0D01*
G01*
X9135000Y-3870000D02*
G75*
G03X9135000Y-3870000I-20000J0D01*
G01*
X9170000Y-3345000D02*
G75*
G03X9170000Y-3345000I-20000J0D01*
G01*
X9170000Y-3525000D02*
G75*
G03X9170000Y-3525000I-20000J0D01*
G01*
X9170000Y-7550000D02*
G75*
G03X9170000Y-7550000I-20000J0D01*
G01*
X9190000Y-5570000D02*
G75*
G03X9190000Y-5570000I-20000J0D01*
G01*
X9190000Y-5700000D02*
G75*
G03X9190000Y-5700000I-20000J0D01*
G01*
X9200000Y-3680000D02*
G75*
G03X9200000Y-3680000I-20000J0D01*
G01*
X9260000Y-5660000D02*
G75*
G03X9260000Y-5660000I-20000J0D01*
G01*
X9260000Y-5970000D02*
G75*
G03X9260000Y-5970000I-20000J0D01*
G01*
X9330000Y-5720000D02*
G75*
G03X9330000Y-5720000I-20000J0D01*
G01*
X9370000Y-4035000D02*
G75*
G03X9370000Y-4035000I-20000J0D01*
G01*
X9375000Y-4245000D02*
G75*
G03X9375000Y-4245000I-20000J0D01*
G01*
X9410000Y-8920000D02*
G75*
G03X9410000Y-8920000I-20000J0D01*
G01*
X9435000Y-8780000D02*
G75*
G03X9435000Y-8780000I-20000J0D01*
G01*
X9490000Y-7360000D02*
G75*
G03X9490000Y-7360000I-20000J0D01*
G01*
X9540000Y-8250000D02*
G75*
G03X9540000Y-8250000I-20000J0D01*
G01*
X9600000Y-5260000D02*
G75*
G03X9600000Y-5260000I-20000J0D01*
G01*
X9630000Y-6240000D02*
G75*
G03X9630000Y-6240000I-20000J0D01*
G01*
X9635000Y-6105000D02*
G75*
G03X9635000Y-6105000I-20000J0D01*
G01*
X9650000Y-5390000D02*
G75*
G03X9650000Y-5390000I-20000J0D01*
G01*
X9660000Y-7500000D02*
G75*
G03X9660000Y-7500000I-20000J0D01*
G01*
X9685000Y-5735000D02*
G75*
G03X9685000Y-5735000I-20000J0D01*
G01*
X9700000Y-5920000D02*
G75*
G03X9700000Y-5920000I-20000J0D01*
G01*
X9710000Y-8010000D02*
G75*
G03X9710000Y-8010000I-20000J0D01*
G01*
X9720000Y-5460000D02*
G75*
G03X9720000Y-5460000I-20000J0D01*
G01*
X9720000Y-5600000D02*
G75*
G03X9720000Y-5600000I-20000J0D01*
G01*
X9770000Y-6330000D02*
G75*
G03X9770000Y-6330000I-20000J0D01*
G01*
X9790000Y-5390000D02*
G75*
G03X9790000Y-5390000I-20000J0D01*
G01*
X9805000Y-5835000D02*
G75*
G03X9805000Y-5835000I-20000J0D01*
G01*
X9810000Y-6040000D02*
G75*
G03X9810000Y-6040000I-20000J0D01*
G01*
X9840000Y-5670000D02*
G75*
G03X9840000Y-5670000I-20000J0D01*
G01*
X9850000Y-5460000D02*
G75*
G03X9850000Y-5460000I-20000J0D01*
G01*
X9860000Y-5900000D02*
G75*
G03X9860000Y-5900000I-20000J0D01*
G01*
X9890000Y-6110000D02*
G75*
G03X9890000Y-6110000I-20000J0D01*
G01*
X9920000Y-4820000D02*
G75*
G03X9920000Y-4820000I-20000J0D01*
G01*
X9920000Y-8140000D02*
G75*
G03X9920000Y-8140000I-20000J0D01*
G01*
X9940000Y-7360000D02*
G75*
G03X9940000Y-7360000I-20000J0D01*
G01*
X9950000Y-5460000D02*
G75*
G03X9950000Y-5460000I-20000J0D01*
G01*
X9950000Y-6170000D02*
G75*
G03X9950000Y-6170000I-20000J0D01*
G01*
X9980000Y-6020000D02*
G75*
G03X9980000Y-6020000I-20000J0D01*
G01*
X10060000Y-5610000D02*
G75*
G03X10060000Y-5610000I-20000J0D01*
G01*
X10060000Y-5850000D02*
G75*
G03X10060000Y-5850000I-20000J0D01*
G01*
X10060000Y-6100000D02*
G75*
G03X10060000Y-6100000I-20000J0D01*
G01*
X10130000Y-4010000D02*
G75*
G03X10130000Y-4010000I-20000J0D01*
G01*
X10160000Y-6000000D02*
G75*
G03X10160000Y-6000000I-20000J0D01*
G01*
X10190000Y-4610000D02*
G75*
G03X10190000Y-4610000I-20000J0D01*
G01*
X10200000Y-5010000D02*
G75*
G03X10200000Y-5010000I-20000J0D01*
G01*
X10220000Y-7320000D02*
G75*
G03X10220000Y-7320000I-20000J0D01*
G01*
X10230000Y-8000000D02*
G75*
G03X10230000Y-8000000I-20000J0D01*
G01*
X10270000Y-4145000D02*
G75*
G03X10270000Y-4145000I-20000J0D01*
G01*
X10270000Y-4770000D02*
G75*
G03X10270000Y-4770000I-20000J0D01*
G01*
X10450000Y-5920000D02*
G75*
G03X10450000Y-5920000I-20000J0D01*
G01*
X10510000Y-5080000D02*
G75*
G03X10510000Y-5080000I-20000J0D01*
G01*
X10610000Y-6760000D02*
G75*
G03X10610000Y-6760000I-20000J0D01*
G01*
X10660000Y-5450000D02*
G75*
G03X10660000Y-5450000I-20000J0D01*
G01*
X10660000Y-5700000D02*
G75*
G03X10660000Y-5700000I-20000J0D01*
G01*
X10680000Y-5050000D02*
G75*
G03X10680000Y-5050000I-20000J0D01*
G01*
X10680000Y-6220000D02*
G75*
G03X10680000Y-6220000I-20000J0D01*
G01*
X10680000Y-6480000D02*
G75*
G03X10680000Y-6480000I-20000J0D01*
G01*
X10680000Y-8030000D02*
G75*
G03X10680000Y-8030000I-20000J0D01*
G01*
X10680000Y-8260000D02*
G75*
G03X10680000Y-8260000I-20000J0D01*
G01*
X10745000Y-4030000D02*
G75*
G03X10745000Y-4030000I-20000J0D01*
G01*
X10760000Y-5040000D02*
G75*
G03X10760000Y-5040000I-20000J0D01*
G01*
X10780000Y-5520000D02*
G75*
G03X10780000Y-5520000I-20000J0D01*
G01*
X10810000Y-5760000D02*
G75*
G03X10810000Y-5760000I-20000J0D01*
G01*
X10810000Y-6810000D02*
G75*
G03X10810000Y-6810000I-20000J0D01*
G01*
X10820000Y-3590000D02*
G75*
G03X10820000Y-3590000I-20000J0D01*
G01*
X10820000Y-8140000D02*
G75*
G03X10820000Y-8140000I-20000J0D01*
G01*
X10830000Y-6360000D02*
G75*
G03X10830000Y-6360000I-20000J0D01*
G01*
X10840000Y-5060000D02*
G75*
G03X10840000Y-5060000I-20000J0D01*
G01*
X10850000Y-5870000D02*
G75*
G03X10850000Y-5870000I-20000J0D01*
G01*
X10930000Y-4960000D02*
G75*
G03X10930000Y-4960000I-20000J0D01*
G01*
X10950000Y-7310000D02*
G75*
G03X10950000Y-7310000I-20000J0D01*
G01*
X10970000Y-7550000D02*
G75*
G03X10970000Y-7550000I-20000J0D01*
G01*
X10990000Y-3470000D02*
G75*
G03X10990000Y-3470000I-20000J0D01*
G01*
X10990000Y-5920000D02*
G75*
G03X10990000Y-5920000I-20000J0D01*
G01*
X11000000Y-4890000D02*
G75*
G03X11000000Y-4890000I-20000J0D01*
G01*
X11000000Y-5370000D02*
G75*
G03X11000000Y-5370000I-20000J0D01*
G01*
X11020000Y-5770000D02*
G75*
G03X11020000Y-5770000I-20000J0D01*
G01*
X11040000Y-5030000D02*
G75*
G03X11040000Y-5030000I-20000J0D01*
G01*
X11040000Y-6430000D02*
G75*
G03X11040000Y-6430000I-20000J0D01*
G01*
X11070000Y-6260000D02*
G75*
G03X11070000Y-6260000I-20000J0D01*
G01*
X11090000Y-3885000D02*
G75*
G03X11090000Y-3885000I-20000J0D01*
G01*
X11090000Y-4770000D02*
G75*
G03X11090000Y-4770000I-20000J0D01*
G01*
X11100000Y-6030000D02*
G75*
G03X11100000Y-6030000I-20000J0D01*
G01*
X11160000Y-5150000D02*
G75*
G03X11160000Y-5150000I-20000J0D01*
G01*
X11160000Y-5290000D02*
G75*
G03X11160000Y-5290000I-20000J0D01*
G01*
X11170000Y-8860000D02*
G75*
G03X11170000Y-8860000I-20000J0D01*
G01*
X11210000Y-6230000D02*
G75*
G03X11210000Y-6230000I-20000J0D01*
G01*
X11230000Y-3890000D02*
G75*
G03X11230000Y-3890000I-20000J0D01*
G01*
X11280000Y-6070000D02*
G75*
G03X11280000Y-6070000I-20000J0D01*
G01*
X11290000Y-5530000D02*
G75*
G03X11290000Y-5530000I-20000J0D01*
G01*
X11290000Y-5930000D02*
G75*
G03X11290000Y-5930000I-20000J0D01*
G01*
X11300000Y-5610000D02*
G75*
G03X11300000Y-5610000I-20000J0D01*
G01*
X11310000Y-6360000D02*
G75*
G03X11310000Y-6360000I-20000J0D01*
G01*
X11345000Y-8217500D02*
G75*
G03X11345000Y-8217500I-20000J0D01*
G01*
X11350000Y-5290000D02*
G75*
G03X11350000Y-5290000I-20000J0D01*
G01*
X11370000Y-5840000D02*
G75*
G03X11370000Y-5840000I-20000J0D01*
G01*
X11375000Y-3900000D02*
G75*
G03X11375000Y-3900000I-20000J0D01*
G01*
X11400000Y-6450000D02*
G75*
G03X11400000Y-6450000I-20000J0D01*
G01*
X11440000Y-5290000D02*
G75*
G03X11440000Y-5290000I-20000J0D01*
G01*
X11450000Y-5380000D02*
G75*
G03X11450000Y-5380000I-20000J0D01*
G01*
X11450000Y-5520000D02*
G75*
G03X11450000Y-5520000I-20000J0D01*
G01*
X11460000Y-5750000D02*
G75*
G03X11460000Y-5750000I-20000J0D01*
G01*
X11480000Y-5960000D02*
G75*
G03X11480000Y-5960000I-20000J0D01*
G01*
X11480000Y-6360000D02*
G75*
G03X11480000Y-6360000I-20000J0D01*
G01*
X11500000Y-8000000D02*
G75*
G03X11500000Y-8000000I-20000J0D01*
G01*
X11510000Y-5210000D02*
G75*
G03X11510000Y-5210000I-20000J0D01*
G01*
X11530000Y-6220000D02*
G75*
G03X11530000Y-6220000I-20000J0D01*
G01*
X11540000Y-6450000D02*
G75*
G03X11540000Y-6450000I-20000J0D01*
G01*
X11580000Y-5860000D02*
G75*
G03X11580000Y-5860000I-20000J0D01*
G01*
X11610000Y-7350000D02*
G75*
G03X11610000Y-7350000I-20000J0D01*
G01*
X11610000Y-7730000D02*
G75*
G03X11610000Y-7730000I-20000J0D01*
G01*
X11625000Y-3905000D02*
G75*
G03X11625000Y-3905000I-20000J0D01*
G01*
X11630000Y-4680000D02*
G75*
G03X11630000Y-4680000I-20000J0D01*
G01*
X11630000Y-4800000D02*
G75*
G03X11630000Y-4800000I-20000J0D01*
G01*
X11650000Y-5210000D02*
G75*
G03X11650000Y-5210000I-20000J0D01*
G01*
X11720000Y-5430000D02*
G75*
G03X11720000Y-5430000I-20000J0D01*
G01*
X11720000Y-8120000D02*
G75*
G03X11720000Y-8120000I-20000J0D01*
G01*
X11740000Y-3820000D02*
G75*
G03X11740000Y-3820000I-20000J0D01*
G01*
X11770000Y-4690000D02*
G75*
G03X11770000Y-4690000I-20000J0D01*
G01*
X11770000Y-4800000D02*
G75*
G03X11770000Y-4800000I-20000J0D01*
G01*
X11870000Y-5190000D02*
G75*
G03X11870000Y-5190000I-20000J0D01*
G01*
X11890000Y-4430000D02*
G75*
G03X11890000Y-4430000I-20000J0D01*
G01*
X11890000Y-4570000D02*
G75*
G03X11890000Y-4570000I-20000J0D01*
G01*
X11940000Y-7680000D02*
G75*
G03X11940000Y-7680000I-20000J0D01*
G01*
X11965000Y-3950000D02*
G75*
G03X11965000Y-3950000I-20000J0D01*
G01*
X11980000Y-4070000D02*
G75*
G03X11980000Y-4070000I-20000J0D01*
G01*
X12000000Y-4430000D02*
G75*
G03X12000000Y-4430000I-20000J0D01*
G01*
X12000000Y-4570000D02*
G75*
G03X12000000Y-4570000I-20000J0D01*
G01*
X12030000Y-7980000D02*
G75*
G03X12030000Y-7980000I-20000J0D01*
G01*
X12360000Y-4090000D02*
G75*
G03X12360000Y-4090000I-20000J0D01*
G01*
X12480000Y-4095000D02*
G75*
G03X12480000Y-4095000I-20000J0D01*
G01*
X12550000Y-3820000D02*
G75*
G03X12550000Y-3820000I-20000J0D01*
G01*
X7265000Y-4353900D02*
X7265000Y-4430100D01*
X7226900Y-4392000D02*
X7303100Y-4392000D01*
X7265000Y-5115900D02*
X7265000Y-5192100D01*
X7226900Y-5154000D02*
X7303100Y-5154000D01*
X7519000Y-4353900D02*
X7519000Y-4430100D01*
X7480900Y-4392000D02*
X7557100Y-4392000D01*
X7519000Y-5115900D02*
X7519000Y-5192100D01*
X7480900Y-5154000D02*
X7557100Y-5154000D01*
X7773000Y-4353900D02*
X7773000Y-4430100D01*
X7734900Y-4392000D02*
X7811100Y-4392000D01*
X7773000Y-5115900D02*
X7773000Y-5192100D01*
X7734900Y-5154000D02*
X7811100Y-5154000D01*
X8027000Y-4353900D02*
X8027000Y-4430100D01*
X7988900Y-4392000D02*
X8065100Y-4392000D01*
X8027000Y-5115900D02*
X8027000Y-5192100D01*
X7988900Y-5154000D02*
X8065100Y-5154000D01*
X8281000Y-4353900D02*
X8281000Y-4430100D01*
X8242900Y-4392000D02*
X8319100Y-4392000D01*
X8281000Y-5115900D02*
X8281000Y-5192100D01*
X8242900Y-5154000D02*
X8319100Y-5154000D01*
X8535000Y-4353900D02*
X8535000Y-4430100D01*
X8496900Y-4392000D02*
X8573100Y-4392000D01*
X8535000Y-5115900D02*
X8535000Y-5192100D01*
X8496900Y-5154000D02*
X8573100Y-5154000D01*
X3806820Y-3306820D02*
X3806820Y-3243180D01*
X3743180Y-3243180D01*
X3743180Y-3306820D01*
X3806820Y-3306820D01*
X3806820Y-4906820D02*
X3806820Y-4843180D01*
X3743180Y-4843180D01*
X3743180Y-4906820D01*
X3806820Y-4906820D01*
X4756820Y-3306820D02*
X4756820Y-3243180D01*
X4693180Y-3243180D01*
X4693180Y-3306820D01*
X4756820Y-3306820D01*
X4756820Y-4906820D02*
X4756820Y-4843180D01*
X4693180Y-4843180D01*
X4693180Y-4906820D01*
X4756820Y-4906820D01*
X5100000Y-3450000D02*
X5150000Y-3400000D01*
X5100000Y-3350000D01*
X5050000Y-3400000D01*
X5100000Y-3450000D01*
X5100000Y-3850000D02*
X5150000Y-3800000D01*
X5100000Y-3750000D01*
X5050000Y-3800000D01*
X5100000Y-3850000D01*
X5100000Y-4450000D02*
X5150000Y-4400000D01*
X5100000Y-4350000D01*
X5050000Y-4400000D01*
X5100000Y-4450000D01*
X5100000Y-4850000D02*
X5150000Y-4800000D01*
X5100000Y-4750000D01*
X5050000Y-4800000D01*
X5100000Y-4850000D01*
X5700000Y-3450000D02*
X5750000Y-3400000D01*
X5700000Y-3350000D01*
X5650000Y-3400000D01*
X5700000Y-3450000D01*
X5700000Y-3850000D02*
X5750000Y-3800000D01*
X5700000Y-3750000D01*
X5650000Y-3800000D01*
X5700000Y-3850000D01*
X5700000Y-4450000D02*
X5750000Y-4400000D01*
X5700000Y-4350000D01*
X5650000Y-4400000D01*
X5700000Y-4450000D01*
X5700000Y-4850000D02*
X5750000Y-4800000D01*
X5700000Y-4750000D01*
X5650000Y-4800000D01*
X5700000Y-4850000D01*
X6900000Y-3450000D02*
X6950000Y-3400000D01*
X6900000Y-3350000D01*
X6850000Y-3400000D01*
X6900000Y-3450000D01*
X6900000Y-3850000D02*
X6950000Y-3800000D01*
X6900000Y-3750000D01*
X6850000Y-3800000D01*
X6900000Y-3850000D01*
X7500000Y-3450000D02*
X7550000Y-3400000D01*
X7500000Y-3350000D01*
X7450000Y-3400000D01*
X7500000Y-3450000D01*
X7500000Y-3850000D02*
X7550000Y-3800000D01*
X7500000Y-3750000D01*
X7450000Y-3800000D01*
X7500000Y-3850000D01*
X8300000Y-3450000D02*
X8350000Y-3400000D01*
X8300000Y-3350000D01*
X8250000Y-3400000D01*
X8300000Y-3450000D01*
X8300000Y-3850000D02*
X8350000Y-3800000D01*
X8300000Y-3750000D01*
X8250000Y-3800000D01*
X8300000Y-3850000D01*
X8900000Y-3450000D02*
X8950000Y-3400000D01*
X8900000Y-3350000D01*
X8850000Y-3400000D01*
X8900000Y-3450000D01*
X8900000Y-3850000D02*
X8950000Y-3800000D01*
X8900000Y-3750000D01*
X8850000Y-3800000D01*
X8900000Y-3850000D01*
X10100000Y-3450000D02*
X10150000Y-3400000D01*
X10100000Y-3350000D01*
X10050000Y-3400000D01*
X10100000Y-3450000D01*
X10100000Y-3850000D02*
X10150000Y-3800000D01*
X10100000Y-3750000D01*
X10050000Y-3800000D01*
X10100000Y-3850000D01*
X10100000Y-4450000D02*
X10150000Y-4400000D01*
X10100000Y-4350000D01*
X10050000Y-4400000D01*
X10100000Y-4450000D01*
X10100000Y-4850000D02*
X10150000Y-4800000D01*
X10100000Y-4750000D01*
X10050000Y-4800000D01*
X10100000Y-4850000D01*
X10700000Y-3450000D02*
X10750000Y-3400000D01*
X10700000Y-3350000D01*
X10650000Y-3400000D01*
X10700000Y-3450000D01*
X10700000Y-3850000D02*
X10750000Y-3800000D01*
X10700000Y-3750000D01*
X10650000Y-3800000D01*
X10700000Y-3850000D01*
X10700000Y-4450000D02*
X10750000Y-4400000D01*
X10700000Y-4350000D01*
X10650000Y-4400000D01*
X10700000Y-4450000D01*
X10700000Y-4850000D02*
X10750000Y-4800000D01*
X10700000Y-4750000D01*
X10650000Y-4800000D01*
X10700000Y-4850000D01*
X11499962Y-5000216D02*
X11600038Y-5100292D01*
X11600038Y-5000216D02*
X11499962Y-5100292D01*
X11600038Y-5050254D02*
G75*
G03X11600038Y-5050254I-50038J0D01*
G01*
X3289200Y-3929200D02*
X3390800Y-4030800D01*
X3390800Y-3929200D02*
X3289200Y-4030800D01*
X3340000Y-3929200D02*
X3340000Y-4030800D01*
X3289200Y-3980000D02*
X3390800Y-3980000D01*
X3289200Y-4469200D02*
X3390800Y-4570800D01*
X3390800Y-4469200D02*
X3289200Y-4570800D01*
X3340000Y-4469200D02*
X3340000Y-4570800D01*
X3289200Y-4520000D02*
X3390800Y-4520000D01*
X3299200Y-8099200D02*
X3400800Y-8200800D01*
X3400800Y-8099200D02*
X3299200Y-8200800D01*
X3350000Y-8099200D02*
X3350000Y-8200800D01*
X3299200Y-8150000D02*
X3400800Y-8150000D01*
X3299200Y-8749200D02*
X3400800Y-8850800D01*
X3400800Y-8749200D02*
X3299200Y-8850800D01*
X3350000Y-8749200D02*
X3350000Y-8850800D01*
X3299200Y-8800000D02*
X3400800Y-8800000D01*
X3299200Y-9399200D02*
X3400800Y-9500800D01*
X3400800Y-9399200D02*
X3299200Y-9500800D01*
X3350000Y-9399200D02*
X3350000Y-9500800D01*
X3299200Y-9450000D02*
X3400800Y-9450000D01*
X3299200Y-10049200D02*
X3400800Y-10150800D01*
X3400800Y-10049200D02*
X3299200Y-10150800D01*
X3350000Y-10049200D02*
X3350000Y-10150800D01*
X3299200Y-10100000D02*
X3400800Y-10100000D01*
X3299200Y-10699200D02*
X3400800Y-10800800D01*
X3400800Y-10699200D02*
X3299200Y-10800800D01*
X3350000Y-10699200D02*
X3350000Y-10800800D01*
X3299200Y-10750000D02*
X3400800Y-10750000D01*
X3299200Y-11349200D02*
X3400800Y-11450800D01*
X3400800Y-11349200D02*
X3299200Y-11450800D01*
X3350000Y-11349200D02*
X3350000Y-11450800D01*
X3299200Y-11400000D02*
X3400800Y-11400000D01*
X3299200Y-11999200D02*
X3400800Y-12100800D01*
X3400800Y-11999200D02*
X3299200Y-12100800D01*
X3350000Y-11999200D02*
X3350000Y-12100800D01*
X3299200Y-12050000D02*
X3400800Y-12050000D01*
X3949200Y-6649200D02*
X4050800Y-6750800D01*
X4050800Y-6649200D02*
X3949200Y-6750800D01*
X4000000Y-6649200D02*
X4000000Y-6750800D01*
X3949200Y-6700000D02*
X4050800Y-6700000D01*
X4449200Y-6649200D02*
X4550800Y-6750800D01*
X4550800Y-6649200D02*
X4449200Y-6750800D01*
X4500000Y-6649200D02*
X4500000Y-6750800D01*
X4449200Y-6700000D02*
X4550800Y-6700000D01*
X4949200Y-6649200D02*
X5050800Y-6750800D01*
X5050800Y-6649200D02*
X4949200Y-6750800D01*
X5000000Y-6649200D02*
X5000000Y-6750800D01*
X4949200Y-6700000D02*
X5050800Y-6700000D01*
X5449200Y-6649200D02*
X5550800Y-6750800D01*
X5550800Y-6649200D02*
X5449200Y-6750800D01*
X5500000Y-6649200D02*
X5500000Y-6750800D01*
X5449200Y-6700000D02*
X5550800Y-6700000D01*
X5949200Y-6649200D02*
X6050800Y-6750800D01*
X6050800Y-6649200D02*
X5949200Y-6750800D01*
X6000000Y-6649200D02*
X6000000Y-6750800D01*
X5949200Y-6700000D02*
X6050800Y-6700000D01*
X7055200Y-6649200D02*
X7156800Y-6750800D01*
X7156800Y-6649200D02*
X7055200Y-6750800D01*
X7106000Y-6649200D02*
X7106000Y-6750800D01*
X7055200Y-6700000D02*
X7156800Y-6700000D01*
X7309200Y-6649200D02*
X7410800Y-6750800D01*
X7410800Y-6649200D02*
X7309200Y-6750800D01*
X7360000Y-6649200D02*
X7360000Y-6750800D01*
X7309200Y-6700000D02*
X7410800Y-6700000D01*
X7563200Y-6649200D02*
X7664800Y-6750800D01*
X7664800Y-6649200D02*
X7563200Y-6750800D01*
X7614000Y-6649200D02*
X7614000Y-6750800D01*
X7563200Y-6700000D02*
X7664800Y-6700000D01*
X7817200Y-6649200D02*
X7918800Y-6750800D01*
X7918800Y-6649200D02*
X7817200Y-6750800D01*
X7868000Y-6649200D02*
X7868000Y-6750800D01*
X7817200Y-6700000D02*
X7918800Y-6700000D01*
X8071200Y-6649200D02*
X8172800Y-6750800D01*
X8172800Y-6649200D02*
X8071200Y-6750800D01*
X8122000Y-6649200D02*
X8122000Y-6750800D01*
X8071200Y-6700000D02*
X8172800Y-6700000D01*
X8325200Y-6649200D02*
X8426800Y-6750800D01*
X8426800Y-6649200D02*
X8325200Y-6750800D01*
X8376000Y-6649200D02*
X8376000Y-6750800D01*
X8325200Y-6700000D02*
X8426800Y-6700000D01*
X8579200Y-6649200D02*
X8680800Y-6750800D01*
X8680800Y-6649200D02*
X8579200Y-6750800D01*
X8630000Y-6649200D02*
X8630000Y-6750800D01*
X8579200Y-6700000D02*
X8680800Y-6700000D01*
X8833200Y-6649200D02*
X8934800Y-6750800D01*
X8934800Y-6649200D02*
X8833200Y-6750800D01*
X8884000Y-6649200D02*
X8884000Y-6750800D01*
X8833200Y-6700000D02*
X8934800Y-6700000D01*
X9087200Y-6649200D02*
X9188800Y-6750800D01*
X9188800Y-6649200D02*
X9087200Y-6750800D01*
X9138000Y-6649200D02*
X9138000Y-6750800D01*
X9087200Y-6700000D02*
X9188800Y-6700000D01*
X9341200Y-6649200D02*
X9442800Y-6750800D01*
X9442800Y-6649200D02*
X9341200Y-6750800D01*
X9392000Y-6649200D02*
X9392000Y-6750800D01*
X9341200Y-6700000D02*
X9442800Y-6700000D01*
X9595200Y-6649200D02*
X9696800Y-6750800D01*
X9696800Y-6649200D02*
X9595200Y-6750800D01*
X9646000Y-6649200D02*
X9646000Y-6750800D01*
X9595200Y-6700000D02*
X9696800Y-6700000D01*
X9849200Y-6649200D02*
X9950800Y-6750800D01*
X9950800Y-6649200D02*
X9849200Y-6750800D01*
X9900000Y-6649200D02*
X9900000Y-6750800D01*
X9849200Y-6700000D02*
X9950800Y-6700000D01*
X11099200Y-3249200D02*
X11200800Y-3350800D01*
X11200800Y-3249200D02*
X11099200Y-3350800D01*
X11150000Y-3249200D02*
X11150000Y-3350800D01*
X11099200Y-3300000D02*
X11200800Y-3300000D01*
X11099200Y-3503200D02*
X11200800Y-3604800D01*
X11200800Y-3503200D02*
X11099200Y-3604800D01*
X11150000Y-3503200D02*
X11150000Y-3604800D01*
X11099200Y-3554000D02*
X11200800Y-3554000D01*
X11353200Y-3249200D02*
X11454800Y-3350800D01*
X11454800Y-3249200D02*
X11353200Y-3350800D01*
X11404000Y-3249200D02*
X11404000Y-3350800D01*
X11353200Y-3300000D02*
X11454800Y-3300000D01*
X11353200Y-3503200D02*
X11454800Y-3604800D01*
X11454800Y-3503200D02*
X11353200Y-3604800D01*
X11404000Y-3503200D02*
X11404000Y-3604800D01*
X11353200Y-3554000D02*
X11454800Y-3554000D01*
X11607200Y-3249200D02*
X11708800Y-3350800D01*
X11708800Y-3249200D02*
X11607200Y-3350800D01*
X11658000Y-3249200D02*
X11658000Y-3350800D01*
X11607200Y-3300000D02*
X11708800Y-3300000D01*
X11607200Y-3503200D02*
X11708800Y-3604800D01*
X11708800Y-3503200D02*
X11607200Y-3604800D01*
X11658000Y-3503200D02*
X11658000Y-3604800D01*
X11607200Y-3554000D02*
X11708800Y-3554000D01*
X11861200Y-3249200D02*
X11962800Y-3350800D01*
X11962800Y-3249200D02*
X11861200Y-3350800D01*
X11912000Y-3249200D02*
X11912000Y-3350800D01*
X11861200Y-3300000D02*
X11962800Y-3300000D01*
X11861200Y-3503200D02*
X11962800Y-3604800D01*
X11962800Y-3503200D02*
X11861200Y-3604800D01*
X11912000Y-3503200D02*
X11912000Y-3604800D01*
X11861200Y-3554000D02*
X11962800Y-3554000D01*
X12115200Y-3249200D02*
X12216800Y-3350800D01*
X12216800Y-3249200D02*
X12115200Y-3350800D01*
X12166000Y-3249200D02*
X12166000Y-3350800D01*
X12115200Y-3300000D02*
X12216800Y-3300000D01*
X12115200Y-3503200D02*
X12216800Y-3604800D01*
X12216800Y-3503200D02*
X12115200Y-3604800D01*
X12166000Y-3503200D02*
X12166000Y-3604800D01*
X12115200Y-3554000D02*
X12216800Y-3554000D01*
X12199200Y-4399200D02*
X12300800Y-4500800D01*
X12300800Y-4399200D02*
X12199200Y-4500800D01*
X12250000Y-4399200D02*
X12250000Y-4500800D01*
X12199200Y-4450000D02*
X12300800Y-4450000D01*
X12453200Y-4399200D02*
X12554800Y-4500800D01*
X12554800Y-4399200D02*
X12453200Y-4500800D01*
X12504000Y-4399200D02*
X12504000Y-4500800D01*
X12453200Y-4450000D02*
X12554800Y-4450000D01*
X12502500Y-4986754D02*
X12629500Y-5113754D01*
X12629500Y-4986754D02*
X12502500Y-5113754D01*
X12610902Y-5095156D02*
X12610902Y-5005352D01*
X12521098Y-5005352D01*
X12521098Y-5095156D01*
X12610902Y-5095156D01*
X3290066Y-5320000D02*
X3550066Y-5580000D01*
X3550066Y-5320000D02*
X3290066Y-5580000D01*
X3420066Y-5580000D02*
X3550066Y-5450000D01*
X3420066Y-5320000D01*
X3290066Y-5450000D01*
X3420066Y-5580000D01*
X3590040Y-5789900D02*
X3850040Y-6049900D01*
X3850040Y-5789900D02*
X3590040Y-6049900D01*
X3720040Y-6049900D02*
X3850040Y-5919900D01*
X3720040Y-5789900D01*
X3590040Y-5919900D01*
X3720040Y-6049900D01*
X3890014Y-5320000D02*
X4150014Y-5580000D01*
X4150014Y-5320000D02*
X3890014Y-5580000D01*
X4020014Y-5580000D02*
X4150014Y-5450000D01*
X4020014Y-5320000D01*
X3890014Y-5450000D01*
X4020014Y-5580000D01*
X3350000Y-3197600D02*
X3350000Y-3502400D01*
X3197600Y-3350000D02*
X3502400Y-3350000D01*
X3502400Y-3350000D02*
G75*
G03X3502400Y-3350000I-152400J0D01*
G01*
X3350000Y-6497600D02*
X3350000Y-6802400D01*
X3197600Y-6650000D02*
X3502400Y-6650000D01*
X3502400Y-6650000D02*
G75*
G03X3502400Y-6650000I-152400J0D01*
G01*
X3350000Y-7297600D02*
X3350000Y-7602400D01*
X3197600Y-7450000D02*
X3502400Y-7450000D01*
X3502400Y-7450000D02*
G75*
G03X3502400Y-7450000I-152400J0D01*
G01*
X3350000Y-12497600D02*
X3350000Y-12802400D01*
X3197600Y-12650000D02*
X3502400Y-12650000D01*
X3502400Y-12650000D02*
G75*
G03X3502400Y-12650000I-152400J0D01*
G01*
X12650000Y-3197600D02*
X12650000Y-3502400D01*
X12497600Y-3350000D02*
X12802400Y-3350000D01*
X12802400Y-3350000D02*
G75*
G03X12802400Y-3350000I-152400J0D01*
G01*
X12650000Y-6497600D02*
X12650000Y-6802400D01*
X12497600Y-6650000D02*
X12802400Y-6650000D01*
X12802400Y-6650000D02*
G75*
G03X12802400Y-6650000I-152400J0D01*
G01*
X12650000Y-7297600D02*
X12650000Y-7602400D01*
X12497600Y-7450000D02*
X12802400Y-7450000D01*
X12802400Y-7450000D02*
G75*
G03X12802400Y-7450000I-152400J0D01*
G01*
X12650000Y-12497600D02*
X12650000Y-12802400D01*
X12497600Y-12650000D02*
X12802400Y-12650000D01*
X12802400Y-12650000D02*
G75*
G03X12802400Y-12650000I-152400J0D01*
G01*
X3597678Y-7017678D02*
X3597678Y-6982322D01*
X3562322Y-6982322D01*
X3562322Y-7017678D01*
X3597678Y-7017678D01*
X3605000Y-7000000D02*
G75*
G03X3605000Y-7000000I-25000J0D01*
G01*
X3597678Y-7117678D02*
X3597678Y-7082322D01*
X3562322Y-7082322D01*
X3562322Y-7117678D01*
X3597678Y-7117678D01*
X3605000Y-7100000D02*
G75*
G03X3605000Y-7100000I-25000J0D01*
G01*
X3687678Y-7017678D02*
X3687678Y-6982322D01*
X3652322Y-6982322D01*
X3652322Y-7017678D01*
X3687678Y-7017678D01*
X3695000Y-7000000D02*
G75*
G03X3695000Y-7000000I-25000J0D01*
G01*
X3687678Y-7117678D02*
X3687678Y-7082322D01*
X3652322Y-7082322D01*
X3652322Y-7117678D01*
X3687678Y-7117678D01*
X3695000Y-7100000D02*
G75*
G03X3695000Y-7100000I-25000J0D01*
G01*
X3777678Y-7017678D02*
X3777678Y-6982322D01*
X3742322Y-6982322D01*
X3742322Y-7017678D01*
X3777678Y-7017678D01*
X3785000Y-7000000D02*
G75*
G03X3785000Y-7000000I-25000J0D01*
G01*
X3777678Y-7117678D02*
X3777678Y-7082322D01*
X3742322Y-7082322D01*
X3742322Y-7117678D01*
X3777678Y-7117678D01*
X3785000Y-7100000D02*
G75*
G03X3785000Y-7100000I-25000J0D01*
G01*
X3857678Y-7017678D02*
X3857678Y-6982322D01*
X3822322Y-6982322D01*
X3822322Y-7017678D01*
X3857678Y-7017678D01*
X3865000Y-7000000D02*
G75*
G03X3865000Y-7000000I-25000J0D01*
G01*
X3857678Y-7117678D02*
X3857678Y-7082322D01*
X3822322Y-7082322D01*
X3822322Y-7117678D01*
X3857678Y-7117678D01*
X3865000Y-7100000D02*
G75*
G03X3865000Y-7100000I-25000J0D01*
G01*
X3947678Y-7017678D02*
X3947678Y-6982322D01*
X3912322Y-6982322D01*
X3912322Y-7017678D01*
X3947678Y-7017678D01*
X3955000Y-7000000D02*
G75*
G03X3955000Y-7000000I-25000J0D01*
G01*
X3947678Y-7117678D02*
X3947678Y-7082322D01*
X3912322Y-7082322D01*
X3912322Y-7117678D01*
X3947678Y-7117678D01*
X3955000Y-7100000D02*
G75*
G03X3955000Y-7100000I-25000J0D01*
G01*
X4037678Y-7017678D02*
X4037678Y-6982322D01*
X4002322Y-6982322D01*
X4002322Y-7017678D01*
X4037678Y-7017678D01*
X4045000Y-7000000D02*
G75*
G03X4045000Y-7000000I-25000J0D01*
G01*
X4037678Y-7117678D02*
X4037678Y-7082322D01*
X4002322Y-7082322D01*
X4002322Y-7117678D01*
X4037678Y-7117678D01*
X4045000Y-7100000D02*
G75*
G03X4045000Y-7100000I-25000J0D01*
G01*
X5697678Y-7017678D02*
X5697678Y-6982322D01*
X5662322Y-6982322D01*
X5662322Y-7017678D01*
X5697678Y-7017678D01*
X5705000Y-7000000D02*
G75*
G03X5705000Y-7000000I-25000J0D01*
G01*
X5697678Y-7117678D02*
X5697678Y-7082322D01*
X5662322Y-7082322D01*
X5662322Y-7117678D01*
X5697678Y-7117678D01*
X5705000Y-7100000D02*
G75*
G03X5705000Y-7100000I-25000J0D01*
G01*
X5787678Y-7017678D02*
X5787678Y-6982322D01*
X5752322Y-6982322D01*
X5752322Y-7017678D01*
X5787678Y-7017678D01*
X5795000Y-7000000D02*
G75*
G03X5795000Y-7000000I-25000J0D01*
G01*
X5787678Y-7117678D02*
X5787678Y-7082322D01*
X5752322Y-7082322D01*
X5752322Y-7117678D01*
X5787678Y-7117678D01*
X5795000Y-7100000D02*
G75*
G03X5795000Y-7100000I-25000J0D01*
G01*
X5877678Y-7017678D02*
X5877678Y-6982322D01*
X5842322Y-6982322D01*
X5842322Y-7017678D01*
X5877678Y-7017678D01*
X5885000Y-7000000D02*
G75*
G03X5885000Y-7000000I-25000J0D01*
G01*
X5877678Y-7117678D02*
X5877678Y-7082322D01*
X5842322Y-7082322D01*
X5842322Y-7117678D01*
X5877678Y-7117678D01*
X5885000Y-7100000D02*
G75*
G03X5885000Y-7100000I-25000J0D01*
G01*
X5957678Y-7017678D02*
X5957678Y-6982322D01*
X5922322Y-6982322D01*
X5922322Y-7017678D01*
X5957678Y-7017678D01*
X5965000Y-7000000D02*
G75*
G03X5965000Y-7000000I-25000J0D01*
G01*
X5957678Y-7117678D02*
X5957678Y-7082322D01*
X5922322Y-7082322D01*
X5922322Y-7117678D01*
X5957678Y-7117678D01*
X5965000Y-7100000D02*
G75*
G03X5965000Y-7100000I-25000J0D01*
G01*
X6047678Y-7017678D02*
X6047678Y-6982322D01*
X6012322Y-6982322D01*
X6012322Y-7017678D01*
X6047678Y-7017678D01*
X6055000Y-7000000D02*
G75*
G03X6055000Y-7000000I-25000J0D01*
G01*
X6047678Y-7117678D02*
X6047678Y-7082322D01*
X6012322Y-7082322D01*
X6012322Y-7117678D01*
X6047678Y-7117678D01*
X6055000Y-7100000D02*
G75*
G03X6055000Y-7100000I-25000J0D01*
G01*
X6137678Y-7017678D02*
X6137678Y-6982322D01*
X6102322Y-6982322D01*
X6102322Y-7017678D01*
X6137678Y-7017678D01*
X6145000Y-7000000D02*
G75*
G03X6145000Y-7000000I-25000J0D01*
G01*
X6137678Y-7117678D02*
X6137678Y-7082322D01*
X6102322Y-7082322D01*
X6102322Y-7117678D01*
X6137678Y-7117678D01*
X6145000Y-7100000D02*
G75*
G03X6145000Y-7100000I-25000J0D01*
G01*
X7747678Y-7017678D02*
X7747678Y-6982322D01*
X7712322Y-6982322D01*
X7712322Y-7017678D01*
X7747678Y-7017678D01*
X7755000Y-7000000D02*
G75*
G03X7755000Y-7000000I-25000J0D01*
G01*
X7747678Y-7117678D02*
X7747678Y-7082322D01*
X7712322Y-7082322D01*
X7712322Y-7117678D01*
X7747678Y-7117678D01*
X7755000Y-7100000D02*
G75*
G03X7755000Y-7100000I-25000J0D01*
G01*
X7837678Y-7017678D02*
X7837678Y-6982322D01*
X7802322Y-6982322D01*
X7802322Y-7017678D01*
X7837678Y-7017678D01*
X7845000Y-7000000D02*
G75*
G03X7845000Y-7000000I-25000J0D01*
G01*
X7837678Y-7117678D02*
X7837678Y-7082322D01*
X7802322Y-7082322D01*
X7802322Y-7117678D01*
X7837678Y-7117678D01*
X7845000Y-7100000D02*
G75*
G03X7845000Y-7100000I-25000J0D01*
G01*
X7927678Y-7017678D02*
X7927678Y-6982322D01*
X7892322Y-6982322D01*
X7892322Y-7017678D01*
X7927678Y-7017678D01*
X7935000Y-7000000D02*
G75*
G03X7935000Y-7000000I-25000J0D01*
G01*
X7927678Y-7117678D02*
X7927678Y-7082322D01*
X7892322Y-7082322D01*
X7892322Y-7117678D01*
X7927678Y-7117678D01*
X7935000Y-7100000D02*
G75*
G03X7935000Y-7100000I-25000J0D01*
G01*
X8007678Y-7017678D02*
X8007678Y-6982322D01*
X7972322Y-6982322D01*
X7972322Y-7017678D01*
X8007678Y-7017678D01*
X8015000Y-7000000D02*
G75*
G03X8015000Y-7000000I-25000J0D01*
G01*
X8007678Y-7117678D02*
X8007678Y-7082322D01*
X7972322Y-7082322D01*
X7972322Y-7117678D01*
X8007678Y-7117678D01*
X8015000Y-7100000D02*
G75*
G03X8015000Y-7100000I-25000J0D01*
G01*
X8097678Y-7017678D02*
X8097678Y-6982322D01*
X8062322Y-6982322D01*
X8062322Y-7017678D01*
X8097678Y-7017678D01*
X8105000Y-7000000D02*
G75*
G03X8105000Y-7000000I-25000J0D01*
G01*
X8097678Y-7117678D02*
X8097678Y-7082322D01*
X8062322Y-7082322D01*
X8062322Y-7117678D01*
X8097678Y-7117678D01*
X8105000Y-7100000D02*
G75*
G03X8105000Y-7100000I-25000J0D01*
G01*
X8187678Y-7017678D02*
X8187678Y-6982322D01*
X8152322Y-6982322D01*
X8152322Y-7017678D01*
X8187678Y-7017678D01*
X8195000Y-7000000D02*
G75*
G03X8195000Y-7000000I-25000J0D01*
G01*
X8187678Y-7117678D02*
X8187678Y-7082322D01*
X8152322Y-7082322D01*
X8152322Y-7117678D01*
X8187678Y-7117678D01*
X8195000Y-7100000D02*
G75*
G03X8195000Y-7100000I-25000J0D01*
G01*
X9797678Y-7017678D02*
X9797678Y-6982322D01*
X9762322Y-6982322D01*
X9762322Y-7017678D01*
X9797678Y-7017678D01*
X9805000Y-7000000D02*
G75*
G03X9805000Y-7000000I-25000J0D01*
G01*
X9797678Y-7117678D02*
X9797678Y-7082322D01*
X9762322Y-7082322D01*
X9762322Y-7117678D01*
X9797678Y-7117678D01*
X9805000Y-7100000D02*
G75*
G03X9805000Y-7100000I-25000J0D01*
G01*
X9887678Y-7017678D02*
X9887678Y-6982322D01*
X9852322Y-6982322D01*
X9852322Y-7017678D01*
X9887678Y-7017678D01*
X9895000Y-7000000D02*
G75*
G03X9895000Y-7000000I-25000J0D01*
G01*
X9887678Y-7117678D02*
X9887678Y-7082322D01*
X9852322Y-7082322D01*
X9852322Y-7117678D01*
X9887678Y-7117678D01*
X9895000Y-7100000D02*
G75*
G03X9895000Y-7100000I-25000J0D01*
G01*
X9977678Y-7017678D02*
X9977678Y-6982322D01*
X9942322Y-6982322D01*
X9942322Y-7017678D01*
X9977678Y-7017678D01*
X9985000Y-7000000D02*
G75*
G03X9985000Y-7000000I-25000J0D01*
G01*
X9977678Y-7117678D02*
X9977678Y-7082322D01*
X9942322Y-7082322D01*
X9942322Y-7117678D01*
X9977678Y-7117678D01*
X9985000Y-7100000D02*
G75*
G03X9985000Y-7100000I-25000J0D01*
G01*
X10057678Y-7017678D02*
X10057678Y-6982322D01*
X10022322Y-6982322D01*
X10022322Y-7017678D01*
X10057678Y-7017678D01*
X10065000Y-7000000D02*
G75*
G03X10065000Y-7000000I-25000J0D01*
G01*
X10057678Y-7117678D02*
X10057678Y-7082322D01*
X10022322Y-7082322D01*
X10022322Y-7117678D01*
X10057678Y-7117678D01*
X10065000Y-7100000D02*
G75*
G03X10065000Y-7100000I-25000J0D01*
G01*
X10147678Y-7017678D02*
X10147678Y-6982322D01*
X10112322Y-6982322D01*
X10112322Y-7017678D01*
X10147678Y-7017678D01*
X10155000Y-7000000D02*
G75*
G03X10155000Y-7000000I-25000J0D01*
G01*
X10147678Y-7117678D02*
X10147678Y-7082322D01*
X10112322Y-7082322D01*
X10112322Y-7117678D01*
X10147678Y-7117678D01*
X10155000Y-7100000D02*
G75*
G03X10155000Y-7100000I-25000J0D01*
G01*
X10237678Y-7017678D02*
X10237678Y-6982322D01*
X10202322Y-6982322D01*
X10202322Y-7017678D01*
X10237678Y-7017678D01*
X10245000Y-7000000D02*
G75*
G03X10245000Y-7000000I-25000J0D01*
G01*
X10237678Y-7117678D02*
X10237678Y-7082322D01*
X10202322Y-7082322D01*
X10202322Y-7117678D01*
X10237678Y-7117678D01*
X10245000Y-7100000D02*
G75*
G03X10245000Y-7100000I-25000J0D01*
G01*
X11947678Y-7017678D02*
X11947678Y-6982322D01*
X11912322Y-6982322D01*
X11912322Y-7017678D01*
X11947678Y-7017678D01*
X11955000Y-7000000D02*
G75*
G03X11955000Y-7000000I-25000J0D01*
G01*
X11947678Y-7117678D02*
X11947678Y-7082322D01*
X11912322Y-7082322D01*
X11912322Y-7117678D01*
X11947678Y-7117678D01*
X11955000Y-7100000D02*
G75*
G03X11955000Y-7100000I-25000J0D01*
G01*
X12037678Y-7017678D02*
X12037678Y-6982322D01*
X12002322Y-6982322D01*
X12002322Y-7017678D01*
X12037678Y-7017678D01*
X12045000Y-7000000D02*
G75*
G03X12045000Y-7000000I-25000J0D01*
G01*
X12037678Y-7117678D02*
X12037678Y-7082322D01*
X12002322Y-7082322D01*
X12002322Y-7117678D01*
X12037678Y-7117678D01*
X12045000Y-7100000D02*
G75*
G03X12045000Y-7100000I-25000J0D01*
G01*
X12127678Y-7017678D02*
X12127678Y-6982322D01*
X12092322Y-6982322D01*
X12092322Y-7017678D01*
X12127678Y-7017678D01*
X12135000Y-7000000D02*
G75*
G03X12135000Y-7000000I-25000J0D01*
G01*
X12127678Y-7117678D02*
X12127678Y-7082322D01*
X12092322Y-7082322D01*
X12092322Y-7117678D01*
X12127678Y-7117678D01*
X12135000Y-7100000D02*
G75*
G03X12135000Y-7100000I-25000J0D01*
G01*
X12207678Y-7017678D02*
X12207678Y-6982322D01*
X12172322Y-6982322D01*
X12172322Y-7017678D01*
X12207678Y-7017678D01*
X12215000Y-7000000D02*
G75*
G03X12215000Y-7000000I-25000J0D01*
G01*
X12207678Y-7117678D02*
X12207678Y-7082322D01*
X12172322Y-7082322D01*
X12172322Y-7117678D01*
X12207678Y-7117678D01*
X12215000Y-7100000D02*
G75*
G03X12215000Y-7100000I-25000J0D01*
G01*
X12297678Y-7017678D02*
X12297678Y-6982322D01*
X12262322Y-6982322D01*
X12262322Y-7017678D01*
X12297678Y-7017678D01*
X12305000Y-7000000D02*
G75*
G03X12305000Y-7000000I-25000J0D01*
G01*
X12297678Y-7117678D02*
X12297678Y-7082322D01*
X12262322Y-7082322D01*
X12262322Y-7117678D01*
X12297678Y-7117678D01*
X12305000Y-7100000D02*
G75*
G03X12305000Y-7100000I-25000J0D01*
G01*
X12387678Y-7017678D02*
X12387678Y-6982322D01*
X12352322Y-6982322D01*
X12352322Y-7017678D01*
X12387678Y-7017678D01*
X12395000Y-7000000D02*
G75*
G03X12395000Y-7000000I-25000J0D01*
G01*
X12387678Y-7117678D02*
X12387678Y-7082322D01*
X12352322Y-7082322D01*
X12352322Y-7117678D01*
X12387678Y-7117678D01*
X12395000Y-7100000D02*
G75*
G03X12395000Y-7100000I-25000J0D01*
G01*
D13*
X3270928Y-13446214D02*
X3270928Y-13146214D01*
X3342357Y-13146214D01*
X3385214Y-13160500D01*
X3413786Y-13189071D01*
X3428071Y-13217643D01*
X3442357Y-13274786D01*
X3442357Y-13317643D01*
X3428071Y-13374786D01*
X3413786Y-13403357D01*
X3385214Y-13431929D01*
X3342357Y-13446214D01*
X3270928Y-13446214D01*
X3570928Y-13446214D02*
X3570928Y-13246214D01*
X3570928Y-13303357D02*
X3585214Y-13274786D01*
X3599500Y-13260500D01*
X3628071Y-13246214D01*
X3656643Y-13246214D01*
X3756643Y-13446214D02*
X3756643Y-13246214D01*
X3756643Y-13146214D02*
X3742357Y-13160500D01*
X3756643Y-13174786D01*
X3770928Y-13160500D01*
X3756643Y-13146214D01*
X3756643Y-13174786D01*
X3942357Y-13446214D02*
X3913786Y-13431929D01*
X3899500Y-13403357D01*
X3899500Y-13146214D01*
X4099500Y-13446214D02*
X4070928Y-13431929D01*
X4056643Y-13403357D01*
X4056643Y-13146214D01*
X4442357Y-13446214D02*
X4442357Y-13146214D01*
X4542357Y-13360500D01*
X4642357Y-13146214D01*
X4642357Y-13446214D01*
X4913786Y-13446214D02*
X4913786Y-13289071D01*
X4899500Y-13260500D01*
X4870929Y-13246214D01*
X4813786Y-13246214D01*
X4785214Y-13260500D01*
X4913786Y-13431929D02*
X4885214Y-13446214D01*
X4813786Y-13446214D01*
X4785214Y-13431929D01*
X4770929Y-13403357D01*
X4770929Y-13374786D01*
X4785214Y-13346214D01*
X4813786Y-13331929D01*
X4885214Y-13331929D01*
X4913786Y-13317643D01*
X5056643Y-13246214D02*
X5056643Y-13546214D01*
X5056643Y-13260500D02*
X5085214Y-13246214D01*
X5142357Y-13246214D01*
X5170929Y-13260500D01*
X5185214Y-13274786D01*
X5199500Y-13303357D01*
X5199500Y-13389071D01*
X5185214Y-13417643D01*
X5170929Y-13431929D01*
X5142357Y-13446214D01*
X5085214Y-13446214D01*
X5056643Y-13431929D01*
X5328071Y-13417643D02*
X5342357Y-13431929D01*
X5328071Y-13446214D01*
X5313786Y-13431929D01*
X5328071Y-13417643D01*
X5328071Y-13446214D01*
X5328071Y-13260500D02*
X5342357Y-13274786D01*
X5328071Y-13289071D01*
X5313786Y-13274786D01*
X5328071Y-13260500D01*
X5328071Y-13289071D01*
X2967500Y-13924500D02*
X2999500Y-13956500D01*
X2999500Y-13924500D02*
X2967500Y-13956500D01*
X3328071Y-13776214D02*
X3356643Y-13776214D01*
X3385214Y-13790500D01*
X3399500Y-13804786D01*
X3413786Y-13833357D01*
X3428071Y-13890500D01*
X3428071Y-13961929D01*
X3413786Y-14019071D01*
X3399500Y-14047643D01*
X3385214Y-14061929D01*
X3356643Y-14076214D01*
X3328071Y-14076214D01*
X3299500Y-14061929D01*
X3285214Y-14047643D01*
X3270928Y-14019071D01*
X3256643Y-13961929D01*
X3256643Y-13890500D01*
X3270928Y-13833357D01*
X3285214Y-13804786D01*
X3299500Y-13790500D01*
X3328071Y-13776214D01*
X3556643Y-14047643D02*
X3570928Y-14061929D01*
X3556643Y-14076214D01*
X3542357Y-14061929D01*
X3556643Y-14047643D01*
X3556643Y-14076214D01*
X3670928Y-13776214D02*
X3856643Y-13776214D01*
X3756643Y-13890500D01*
X3799500Y-13890500D01*
X3828071Y-13904786D01*
X3842357Y-13919071D01*
X3856643Y-13947643D01*
X3856643Y-14019071D01*
X3842357Y-14047643D01*
X3828071Y-14061929D01*
X3799500Y-14076214D01*
X3713786Y-14076214D01*
X3685214Y-14061929D01*
X3670928Y-14047643D01*
X3970928Y-13804786D02*
X3985214Y-13790500D01*
X4013786Y-13776214D01*
X4085214Y-13776214D01*
X4113786Y-13790500D01*
X4128071Y-13804786D01*
X4142357Y-13833357D01*
X4142357Y-13861929D01*
X4128071Y-13904786D01*
X3956643Y-14076214D01*
X4142357Y-14076214D01*
X4270929Y-14076214D02*
X4270929Y-13876214D01*
X4270929Y-13904786D02*
X4285214Y-13890500D01*
X4313786Y-13876214D01*
X4356643Y-13876214D01*
X4385214Y-13890500D01*
X4399500Y-13919071D01*
X4399500Y-14076214D01*
X4399500Y-13919071D02*
X4413786Y-13890500D01*
X4442357Y-13876214D01*
X4485214Y-13876214D01*
X4513786Y-13890500D01*
X4528071Y-13919071D01*
X4528071Y-14076214D01*
X4670929Y-14076214D02*
X4670929Y-13876214D01*
X4670929Y-13904786D02*
X4685214Y-13890500D01*
X4713786Y-13876214D01*
X4756643Y-13876214D01*
X4785214Y-13890500D01*
X4799500Y-13919071D01*
X4799500Y-14076214D01*
X4799500Y-13919071D02*
X4813786Y-13890500D01*
X4842357Y-13876214D01*
X4885214Y-13876214D01*
X4913786Y-13890500D01*
X4928071Y-13919071D01*
X4928071Y-14076214D01*
X5513786Y-13761929D02*
X5256643Y-14147643D01*
X5899500Y-13776214D02*
X5928071Y-13776214D01*
X5956643Y-13790500D01*
X5970928Y-13804786D01*
X5985214Y-13833357D01*
X5999500Y-13890500D01*
X5999500Y-13961929D01*
X5985214Y-14019071D01*
X5970928Y-14047643D01*
X5956643Y-14061929D01*
X5928071Y-14076214D01*
X5899500Y-14076214D01*
X5870928Y-14061929D01*
X5856643Y-14047643D01*
X5842357Y-14019071D01*
X5828071Y-13961929D01*
X5828071Y-13890500D01*
X5842357Y-13833357D01*
X5856643Y-13804786D01*
X5870928Y-13790500D01*
X5899500Y-13776214D01*
X6128071Y-14047643D02*
X6142357Y-14061929D01*
X6128071Y-14076214D01*
X6113786Y-14061929D01*
X6128071Y-14047643D01*
X6128071Y-14076214D01*
X6328071Y-13776214D02*
X6356643Y-13776214D01*
X6385214Y-13790500D01*
X6399500Y-13804786D01*
X6413785Y-13833357D01*
X6428071Y-13890500D01*
X6428071Y-13961929D01*
X6413785Y-14019071D01*
X6399500Y-14047643D01*
X6385214Y-14061929D01*
X6356643Y-14076214D01*
X6328071Y-14076214D01*
X6299500Y-14061929D01*
X6285214Y-14047643D01*
X6270928Y-14019071D01*
X6256643Y-13961929D01*
X6256643Y-13890500D01*
X6270928Y-13833357D01*
X6285214Y-13804786D01*
X6299500Y-13790500D01*
X6328071Y-13776214D01*
X6713785Y-14076214D02*
X6542357Y-14076214D01*
X6628071Y-14076214D02*
X6628071Y-13776214D01*
X6599500Y-13819071D01*
X6570928Y-13847643D01*
X6542357Y-13861929D01*
X6813785Y-13776214D02*
X6999500Y-13776214D01*
X6899500Y-13890500D01*
X6942357Y-13890500D01*
X6970928Y-13904786D01*
X6985214Y-13919071D01*
X6999500Y-13947643D01*
X6999500Y-14019071D01*
X6985214Y-14047643D01*
X6970928Y-14061929D01*
X6942357Y-14076214D01*
X6856643Y-14076214D01*
X6828071Y-14061929D01*
X6813785Y-14047643D01*
X7113786Y-13776214D02*
X7113786Y-13833357D01*
X7228071Y-13776214D02*
X7228071Y-13833357D01*
X7670928Y-14190500D02*
X7656643Y-14176214D01*
X7628071Y-14133357D01*
X7613785Y-14104786D01*
X7599500Y-14061929D01*
X7585214Y-13990500D01*
X7585214Y-13933357D01*
X7599500Y-13861929D01*
X7613785Y-13819071D01*
X7628071Y-13790500D01*
X7656643Y-13747643D01*
X7670928Y-13733357D01*
X7913785Y-13876214D02*
X7913785Y-14076214D01*
X7842357Y-13761929D02*
X7770928Y-13976214D01*
X7956643Y-13976214D01*
X8128071Y-13776214D02*
X8156643Y-13776214D01*
X8185214Y-13790500D01*
X8199500Y-13804786D01*
X8213785Y-13833357D01*
X8228071Y-13890500D01*
X8228071Y-13961929D01*
X8213785Y-14019071D01*
X8199500Y-14047643D01*
X8185214Y-14061929D01*
X8156643Y-14076214D01*
X8128071Y-14076214D01*
X8099500Y-14061929D01*
X8085214Y-14047643D01*
X8070928Y-14019071D01*
X8056643Y-13961929D01*
X8056643Y-13890500D01*
X8070928Y-13833357D01*
X8085214Y-13804786D01*
X8099500Y-13790500D01*
X8128071Y-13776214D01*
X8413786Y-13776214D02*
X8442357Y-13776214D01*
X8470928Y-13790500D01*
X8485214Y-13804786D01*
X8499500Y-13833357D01*
X8513786Y-13890500D01*
X8513786Y-13961929D01*
X8499500Y-14019071D01*
X8485214Y-14047643D01*
X8470928Y-14061929D01*
X8442357Y-14076214D01*
X8413786Y-14076214D01*
X8385214Y-14061929D01*
X8370928Y-14047643D01*
X8356643Y-14019071D01*
X8342357Y-13961929D01*
X8342357Y-13890500D01*
X8356643Y-13833357D01*
X8370928Y-13804786D01*
X8385214Y-13790500D01*
X8413786Y-13776214D01*
X8870928Y-14076214D02*
X8870928Y-13776214D01*
X8999500Y-14076214D02*
X8999500Y-13919071D01*
X8985214Y-13890500D01*
X8956643Y-13876214D01*
X8913786Y-13876214D01*
X8885214Y-13890500D01*
X8870928Y-13904786D01*
X9185214Y-14076214D02*
X9156643Y-14061929D01*
X9142357Y-14047643D01*
X9128071Y-14019071D01*
X9128071Y-13933357D01*
X9142357Y-13904786D01*
X9156643Y-13890500D01*
X9185214Y-13876214D01*
X9228071Y-13876214D01*
X9256643Y-13890500D01*
X9270928Y-13904786D01*
X9285214Y-13933357D01*
X9285214Y-14019071D01*
X9270928Y-14047643D01*
X9256643Y-14061929D01*
X9228071Y-14076214D01*
X9185214Y-14076214D01*
X9456643Y-14076214D02*
X9428071Y-14061929D01*
X9413786Y-14033357D01*
X9413786Y-13776214D01*
X9685214Y-14061929D02*
X9656643Y-14076214D01*
X9599500Y-14076214D01*
X9570929Y-14061929D01*
X9556643Y-14033357D01*
X9556643Y-13919071D01*
X9570929Y-13890500D01*
X9599500Y-13876214D01*
X9656643Y-13876214D01*
X9685214Y-13890500D01*
X9699500Y-13919071D01*
X9699500Y-13947643D01*
X9556643Y-13976214D01*
X9813786Y-14061929D02*
X9842357Y-14076214D01*
X9899500Y-14076214D01*
X9928071Y-14061929D01*
X9942357Y-14033357D01*
X9942357Y-14019071D01*
X9928071Y-13990500D01*
X9899500Y-13976214D01*
X9856643Y-13976214D01*
X9828071Y-13961929D01*
X9813786Y-13933357D01*
X9813786Y-13919071D01*
X9828071Y-13890500D01*
X9856643Y-13876214D01*
X9899500Y-13876214D01*
X9928071Y-13890500D01*
X10042357Y-14190500D02*
X10056643Y-14176214D01*
X10085214Y-14133357D01*
X10099500Y-14104786D01*
X10113786Y-14061929D01*
X10128071Y-13990500D01*
X10128071Y-13933357D01*
X10113786Y-13861929D01*
X10099500Y-13819071D01*
X10085214Y-13790500D01*
X10056643Y-13747643D01*
X10042357Y-13733357D01*
X2999500Y-14336500D02*
G75*
G03X2999500Y-14336500I-20000J0D01*
G01*
X3328071Y-14172214D02*
X3356643Y-14172214D01*
X3385214Y-14186500D01*
X3399500Y-14200786D01*
X3413786Y-14229357D01*
X3428071Y-14286500D01*
X3428071Y-14357929D01*
X3413786Y-14415071D01*
X3399500Y-14443643D01*
X3385214Y-14457929D01*
X3356643Y-14472214D01*
X3328071Y-14472214D01*
X3299500Y-14457929D01*
X3285214Y-14443643D01*
X3270928Y-14415071D01*
X3256643Y-14357929D01*
X3256643Y-14286500D01*
X3270928Y-14229357D01*
X3285214Y-14200786D01*
X3299500Y-14186500D01*
X3328071Y-14172214D01*
X3556643Y-14443643D02*
X3570928Y-14457929D01*
X3556643Y-14472214D01*
X3542357Y-14457929D01*
X3556643Y-14443643D01*
X3556643Y-14472214D01*
X3828071Y-14272214D02*
X3828071Y-14472214D01*
X3756643Y-14157929D02*
X3685214Y-14372214D01*
X3870928Y-14372214D01*
X4042357Y-14172214D02*
X4070928Y-14172214D01*
X4099500Y-14186500D01*
X4113786Y-14200786D01*
X4128071Y-14229357D01*
X4142357Y-14286500D01*
X4142357Y-14357929D01*
X4128071Y-14415071D01*
X4113786Y-14443643D01*
X4099500Y-14457929D01*
X4070928Y-14472214D01*
X4042357Y-14472214D01*
X4013786Y-14457929D01*
X3999500Y-14443643D01*
X3985214Y-14415071D01*
X3970928Y-14357929D01*
X3970928Y-14286500D01*
X3985214Y-14229357D01*
X3999500Y-14200786D01*
X4013786Y-14186500D01*
X4042357Y-14172214D01*
X4270929Y-14472214D02*
X4270929Y-14272214D01*
X4270929Y-14300786D02*
X4285214Y-14286500D01*
X4313786Y-14272214D01*
X4356643Y-14272214D01*
X4385214Y-14286500D01*
X4399500Y-14315071D01*
X4399500Y-14472214D01*
X4399500Y-14315071D02*
X4413786Y-14286500D01*
X4442357Y-14272214D01*
X4485214Y-14272214D01*
X4513786Y-14286500D01*
X4528071Y-14315071D01*
X4528071Y-14472214D01*
X4670929Y-14472214D02*
X4670929Y-14272214D01*
X4670929Y-14300786D02*
X4685214Y-14286500D01*
X4713786Y-14272214D01*
X4756643Y-14272214D01*
X4785214Y-14286500D01*
X4799500Y-14315071D01*
X4799500Y-14472214D01*
X4799500Y-14315071D02*
X4813786Y-14286500D01*
X4842357Y-14272214D01*
X4885214Y-14272214D01*
X4913786Y-14286500D01*
X4928071Y-14315071D01*
X4928071Y-14472214D01*
X5513786Y-14157929D02*
X5256643Y-14543643D01*
X5899500Y-14172214D02*
X5928071Y-14172214D01*
X5956643Y-14186500D01*
X5970928Y-14200786D01*
X5985214Y-14229357D01*
X5999500Y-14286500D01*
X5999500Y-14357929D01*
X5985214Y-14415071D01*
X5970928Y-14443643D01*
X5956643Y-14457929D01*
X5928071Y-14472214D01*
X5899500Y-14472214D01*
X5870928Y-14457929D01*
X5856643Y-14443643D01*
X5842357Y-14415071D01*
X5828071Y-14357929D01*
X5828071Y-14286500D01*
X5842357Y-14229357D01*
X5856643Y-14200786D01*
X5870928Y-14186500D01*
X5899500Y-14172214D01*
X6128071Y-14443643D02*
X6142357Y-14457929D01*
X6128071Y-14472214D01*
X6113786Y-14457929D01*
X6128071Y-14443643D01*
X6128071Y-14472214D01*
X6328071Y-14172214D02*
X6356643Y-14172214D01*
X6385214Y-14186500D01*
X6399500Y-14200786D01*
X6413785Y-14229357D01*
X6428071Y-14286500D01*
X6428071Y-14357929D01*
X6413785Y-14415071D01*
X6399500Y-14443643D01*
X6385214Y-14457929D01*
X6356643Y-14472214D01*
X6328071Y-14472214D01*
X6299500Y-14457929D01*
X6285214Y-14443643D01*
X6270928Y-14415071D01*
X6256643Y-14357929D01*
X6256643Y-14286500D01*
X6270928Y-14229357D01*
X6285214Y-14200786D01*
X6299500Y-14186500D01*
X6328071Y-14172214D01*
X6713785Y-14472214D02*
X6542357Y-14472214D01*
X6628071Y-14472214D02*
X6628071Y-14172214D01*
X6599500Y-14215071D01*
X6570928Y-14243643D01*
X6542357Y-14257929D01*
X6970928Y-14172214D02*
X6913785Y-14172214D01*
X6885214Y-14186500D01*
X6870928Y-14200786D01*
X6842357Y-14243643D01*
X6828071Y-14300786D01*
X6828071Y-14415071D01*
X6842357Y-14443643D01*
X6856643Y-14457929D01*
X6885214Y-14472214D01*
X6942357Y-14472214D01*
X6970928Y-14457929D01*
X6985214Y-14443643D01*
X6999500Y-14415071D01*
X6999500Y-14343643D01*
X6985214Y-14315071D01*
X6970928Y-14300786D01*
X6942357Y-14286500D01*
X6885214Y-14286500D01*
X6856643Y-14300786D01*
X6842357Y-14315071D01*
X6828071Y-14343643D01*
X7113786Y-14172214D02*
X7113786Y-14229357D01*
X7228071Y-14172214D02*
X7228071Y-14229357D01*
X7670928Y-14586500D02*
X7656643Y-14572214D01*
X7628071Y-14529357D01*
X7613785Y-14500786D01*
X7599500Y-14457929D01*
X7585214Y-14386500D01*
X7585214Y-14329357D01*
X7599500Y-14257929D01*
X7613785Y-14215071D01*
X7628071Y-14186500D01*
X7656643Y-14143643D01*
X7670928Y-14129357D01*
X7770928Y-14200786D02*
X7785214Y-14186500D01*
X7813785Y-14172214D01*
X7885214Y-14172214D01*
X7913785Y-14186500D01*
X7928071Y-14200786D01*
X7942357Y-14229357D01*
X7942357Y-14257929D01*
X7928071Y-14300786D01*
X7756643Y-14472214D01*
X7942357Y-14472214D01*
X8085214Y-14472214D02*
X8142357Y-14472214D01*
X8170928Y-14457929D01*
X8185214Y-14443643D01*
X8213785Y-14400786D01*
X8228071Y-14343643D01*
X8228071Y-14229357D01*
X8213785Y-14200786D01*
X8199500Y-14186500D01*
X8170928Y-14172214D01*
X8113785Y-14172214D01*
X8085214Y-14186500D01*
X8070928Y-14200786D01*
X8056643Y-14229357D01*
X8056643Y-14300786D01*
X8070928Y-14329357D01*
X8085214Y-14343643D01*
X8113785Y-14357929D01*
X8170928Y-14357929D01*
X8199500Y-14343643D01*
X8213785Y-14329357D01*
X8228071Y-14300786D01*
X8485214Y-14272214D02*
X8485214Y-14472214D01*
X8413786Y-14157929D02*
X8342357Y-14372214D01*
X8528071Y-14372214D01*
X8870928Y-14472214D02*
X8870928Y-14172214D01*
X8999500Y-14472214D02*
X8999500Y-14315071D01*
X8985214Y-14286500D01*
X8956643Y-14272214D01*
X8913786Y-14272214D01*
X8885214Y-14286500D01*
X8870928Y-14300786D01*
X9185214Y-14472214D02*
X9156643Y-14457929D01*
X9142357Y-14443643D01*
X9128071Y-14415071D01*
X9128071Y-14329357D01*
X9142357Y-14300786D01*
X9156643Y-14286500D01*
X9185214Y-14272214D01*
X9228071Y-14272214D01*
X9256643Y-14286500D01*
X9270928Y-14300786D01*
X9285214Y-14329357D01*
X9285214Y-14415071D01*
X9270928Y-14443643D01*
X9256643Y-14457929D01*
X9228071Y-14472214D01*
X9185214Y-14472214D01*
X9456643Y-14472214D02*
X9428071Y-14457929D01*
X9413786Y-14429357D01*
X9413786Y-14172214D01*
X9685214Y-14457929D02*
X9656643Y-14472214D01*
X9599500Y-14472214D01*
X9570929Y-14457929D01*
X9556643Y-14429357D01*
X9556643Y-14315071D01*
X9570929Y-14286500D01*
X9599500Y-14272214D01*
X9656643Y-14272214D01*
X9685214Y-14286500D01*
X9699500Y-14315071D01*
X9699500Y-14343643D01*
X9556643Y-14372214D01*
X9813786Y-14457929D02*
X9842357Y-14472214D01*
X9899500Y-14472214D01*
X9928071Y-14457929D01*
X9942357Y-14429357D01*
X9942357Y-14415071D01*
X9928071Y-14386500D01*
X9899500Y-14372214D01*
X9856643Y-14372214D01*
X9828071Y-14357929D01*
X9813786Y-14329357D01*
X9813786Y-14315071D01*
X9828071Y-14286500D01*
X9856643Y-14272214D01*
X9899500Y-14272214D01*
X9928071Y-14286500D01*
X10042357Y-14586500D02*
X10056643Y-14572214D01*
X10085214Y-14529357D01*
X10099500Y-14500786D01*
X10113786Y-14457929D01*
X10128071Y-14386500D01*
X10128071Y-14329357D01*
X10113786Y-14257929D01*
X10099500Y-14215071D01*
X10085214Y-14186500D01*
X10056643Y-14143643D01*
X10042357Y-14129357D01*
X2961400Y-14694400D02*
X2961400Y-14770600D01*
X2923300Y-14732500D02*
X2999500Y-14732500D01*
X3328071Y-14568214D02*
X3356643Y-14568214D01*
X3385214Y-14582500D01*
X3399500Y-14596786D01*
X3413786Y-14625357D01*
X3428071Y-14682500D01*
X3428071Y-14753929D01*
X3413786Y-14811071D01*
X3399500Y-14839643D01*
X3385214Y-14853929D01*
X3356643Y-14868214D01*
X3328071Y-14868214D01*
X3299500Y-14853929D01*
X3285214Y-14839643D01*
X3270928Y-14811071D01*
X3256643Y-14753929D01*
X3256643Y-14682500D01*
X3270928Y-14625357D01*
X3285214Y-14596786D01*
X3299500Y-14582500D01*
X3328071Y-14568214D01*
X3556643Y-14839643D02*
X3570928Y-14853929D01*
X3556643Y-14868214D01*
X3542357Y-14853929D01*
X3556643Y-14839643D01*
X3556643Y-14868214D01*
X3670928Y-14568214D02*
X3870928Y-14568214D01*
X3742357Y-14868214D01*
X4113786Y-14568214D02*
X4056643Y-14568214D01*
X4028071Y-14582500D01*
X4013786Y-14596786D01*
X3985214Y-14639643D01*
X3970928Y-14696786D01*
X3970928Y-14811071D01*
X3985214Y-14839643D01*
X3999500Y-14853929D01*
X4028071Y-14868214D01*
X4085214Y-14868214D01*
X4113786Y-14853929D01*
X4128071Y-14839643D01*
X4142357Y-14811071D01*
X4142357Y-14739643D01*
X4128071Y-14711071D01*
X4113786Y-14696786D01*
X4085214Y-14682500D01*
X4028071Y-14682500D01*
X3999500Y-14696786D01*
X3985214Y-14711071D01*
X3970928Y-14739643D01*
X4270929Y-14868214D02*
X4270929Y-14668214D01*
X4270929Y-14696786D02*
X4285214Y-14682500D01*
X4313786Y-14668214D01*
X4356643Y-14668214D01*
X4385214Y-14682500D01*
X4399500Y-14711071D01*
X4399500Y-14868214D01*
X4399500Y-14711071D02*
X4413786Y-14682500D01*
X4442357Y-14668214D01*
X4485214Y-14668214D01*
X4513786Y-14682500D01*
X4528071Y-14711071D01*
X4528071Y-14868214D01*
X4670929Y-14868214D02*
X4670929Y-14668214D01*
X4670929Y-14696786D02*
X4685214Y-14682500D01*
X4713786Y-14668214D01*
X4756643Y-14668214D01*
X4785214Y-14682500D01*
X4799500Y-14711071D01*
X4799500Y-14868214D01*
X4799500Y-14711071D02*
X4813786Y-14682500D01*
X4842357Y-14668214D01*
X4885214Y-14668214D01*
X4913786Y-14682500D01*
X4928071Y-14711071D01*
X4928071Y-14868214D01*
X5513786Y-14553929D02*
X5256643Y-14939643D01*
X5899500Y-14568214D02*
X5928071Y-14568214D01*
X5956643Y-14582500D01*
X5970928Y-14596786D01*
X5985214Y-14625357D01*
X5999500Y-14682500D01*
X5999500Y-14753929D01*
X5985214Y-14811071D01*
X5970928Y-14839643D01*
X5956643Y-14853929D01*
X5928071Y-14868214D01*
X5899500Y-14868214D01*
X5870928Y-14853929D01*
X5856643Y-14839643D01*
X5842357Y-14811071D01*
X5828071Y-14753929D01*
X5828071Y-14682500D01*
X5842357Y-14625357D01*
X5856643Y-14596786D01*
X5870928Y-14582500D01*
X5899500Y-14568214D01*
X6128071Y-14839643D02*
X6142357Y-14853929D01*
X6128071Y-14868214D01*
X6113786Y-14853929D01*
X6128071Y-14839643D01*
X6128071Y-14868214D01*
X6328071Y-14568214D02*
X6356643Y-14568214D01*
X6385214Y-14582500D01*
X6399500Y-14596786D01*
X6413785Y-14625357D01*
X6428071Y-14682500D01*
X6428071Y-14753929D01*
X6413785Y-14811071D01*
X6399500Y-14839643D01*
X6385214Y-14853929D01*
X6356643Y-14868214D01*
X6328071Y-14868214D01*
X6299500Y-14853929D01*
X6285214Y-14839643D01*
X6270928Y-14811071D01*
X6256643Y-14753929D01*
X6256643Y-14682500D01*
X6270928Y-14625357D01*
X6285214Y-14596786D01*
X6299500Y-14582500D01*
X6328071Y-14568214D01*
X6528071Y-14568214D02*
X6713785Y-14568214D01*
X6613785Y-14682500D01*
X6656643Y-14682500D01*
X6685214Y-14696786D01*
X6699500Y-14711071D01*
X6713785Y-14739643D01*
X6713785Y-14811071D01*
X6699500Y-14839643D01*
X6685214Y-14853929D01*
X6656643Y-14868214D01*
X6570928Y-14868214D01*
X6542357Y-14853929D01*
X6528071Y-14839643D01*
X6899500Y-14568214D02*
X6928071Y-14568214D01*
X6956643Y-14582500D01*
X6970928Y-14596786D01*
X6985214Y-14625357D01*
X6999500Y-14682500D01*
X6999500Y-14753929D01*
X6985214Y-14811071D01*
X6970928Y-14839643D01*
X6956643Y-14853929D01*
X6928071Y-14868214D01*
X6899500Y-14868214D01*
X6870928Y-14853929D01*
X6856643Y-14839643D01*
X6842357Y-14811071D01*
X6828071Y-14753929D01*
X6828071Y-14682500D01*
X6842357Y-14625357D01*
X6856643Y-14596786D01*
X6870928Y-14582500D01*
X6899500Y-14568214D01*
X7113786Y-14568214D02*
X7113786Y-14625357D01*
X7228071Y-14568214D02*
X7228071Y-14625357D01*
X7670928Y-14982500D02*
X7656643Y-14968214D01*
X7628071Y-14925357D01*
X7613785Y-14896786D01*
X7599500Y-14853929D01*
X7585214Y-14782500D01*
X7585214Y-14725357D01*
X7599500Y-14653929D01*
X7613785Y-14611071D01*
X7628071Y-14582500D01*
X7656643Y-14539643D01*
X7670928Y-14525357D01*
X7942357Y-14868214D02*
X7770928Y-14868214D01*
X7856643Y-14868214D02*
X7856643Y-14568214D01*
X7828071Y-14611071D01*
X7799500Y-14639643D01*
X7770928Y-14653929D01*
X8056643Y-14596786D02*
X8070928Y-14582500D01*
X8099500Y-14568214D01*
X8170928Y-14568214D01*
X8199500Y-14582500D01*
X8213785Y-14596786D01*
X8228071Y-14625357D01*
X8228071Y-14653929D01*
X8213785Y-14696786D01*
X8042357Y-14868214D01*
X8228071Y-14868214D01*
X8585214Y-14868214D02*
X8585214Y-14568214D01*
X8713786Y-14868214D02*
X8713786Y-14711071D01*
X8699500Y-14682500D01*
X8670928Y-14668214D01*
X8628071Y-14668214D01*
X8599500Y-14682500D01*
X8585214Y-14696786D01*
X8899500Y-14868214D02*
X8870928Y-14853929D01*
X8856643Y-14839643D01*
X8842357Y-14811071D01*
X8842357Y-14725357D01*
X8856643Y-14696786D01*
X8870928Y-14682500D01*
X8899500Y-14668214D01*
X8942357Y-14668214D01*
X8970928Y-14682500D01*
X8985214Y-14696786D01*
X8999500Y-14725357D01*
X8999500Y-14811071D01*
X8985214Y-14839643D01*
X8970928Y-14853929D01*
X8942357Y-14868214D01*
X8899500Y-14868214D01*
X9170928Y-14868214D02*
X9142357Y-14853929D01*
X9128071Y-14825357D01*
X9128071Y-14568214D01*
X9399500Y-14853929D02*
X9370929Y-14868214D01*
X9313786Y-14868214D01*
X9285214Y-14853929D01*
X9270929Y-14825357D01*
X9270929Y-14711071D01*
X9285214Y-14682500D01*
X9313786Y-14668214D01*
X9370929Y-14668214D01*
X9399500Y-14682500D01*
X9413786Y-14711071D01*
X9413786Y-14739643D01*
X9270929Y-14768214D01*
X9528071Y-14853929D02*
X9556643Y-14868214D01*
X9613786Y-14868214D01*
X9642357Y-14853929D01*
X9656643Y-14825357D01*
X9656643Y-14811071D01*
X9642357Y-14782500D01*
X9613786Y-14768214D01*
X9570929Y-14768214D01*
X9542357Y-14753929D01*
X9528071Y-14725357D01*
X9528071Y-14711071D01*
X9542357Y-14682500D01*
X9570929Y-14668214D01*
X9613786Y-14668214D01*
X9642357Y-14682500D01*
X9756643Y-14982500D02*
X9770929Y-14968214D01*
X9799500Y-14925357D01*
X9813786Y-14896786D01*
X9828071Y-14853929D01*
X9842357Y-14782500D01*
X9842357Y-14725357D01*
X9828071Y-14653929D01*
X9813786Y-14611071D01*
X9799500Y-14582500D01*
X9770929Y-14539643D01*
X9756643Y-14525357D01*
X2986320Y-15160320D02*
X2986320Y-15096680D01*
X2922680Y-15096680D01*
X2922680Y-15160320D01*
X2986320Y-15160320D01*
X3328071Y-14964214D02*
X3356643Y-14964214D01*
X3385214Y-14978500D01*
X3399500Y-14992786D01*
X3413786Y-15021357D01*
X3428071Y-15078500D01*
X3428071Y-15149929D01*
X3413786Y-15207071D01*
X3399500Y-15235643D01*
X3385214Y-15249929D01*
X3356643Y-15264214D01*
X3328071Y-15264214D01*
X3299500Y-15249929D01*
X3285214Y-15235643D01*
X3270928Y-15207071D01*
X3256643Y-15149929D01*
X3256643Y-15078500D01*
X3270928Y-15021357D01*
X3285214Y-14992786D01*
X3299500Y-14978500D01*
X3328071Y-14964214D01*
X3556643Y-15235643D02*
X3570928Y-15249929D01*
X3556643Y-15264214D01*
X3542357Y-15249929D01*
X3556643Y-15235643D01*
X3556643Y-15264214D01*
X3713786Y-15264214D02*
X3770928Y-15264214D01*
X3799500Y-15249929D01*
X3813786Y-15235643D01*
X3842357Y-15192786D01*
X3856643Y-15135643D01*
X3856643Y-15021357D01*
X3842357Y-14992786D01*
X3828071Y-14978500D01*
X3799500Y-14964214D01*
X3742357Y-14964214D01*
X3713786Y-14978500D01*
X3699500Y-14992786D01*
X3685214Y-15021357D01*
X3685214Y-15092786D01*
X3699500Y-15121357D01*
X3713786Y-15135643D01*
X3742357Y-15149929D01*
X3799500Y-15149929D01*
X3828071Y-15135643D01*
X3842357Y-15121357D01*
X3856643Y-15092786D01*
X4042357Y-14964214D02*
X4070928Y-14964214D01*
X4099500Y-14978500D01*
X4113786Y-14992786D01*
X4128071Y-15021357D01*
X4142357Y-15078500D01*
X4142357Y-15149929D01*
X4128071Y-15207071D01*
X4113786Y-15235643D01*
X4099500Y-15249929D01*
X4070928Y-15264214D01*
X4042357Y-15264214D01*
X4013786Y-15249929D01*
X3999500Y-15235643D01*
X3985214Y-15207071D01*
X3970928Y-15149929D01*
X3970928Y-15078500D01*
X3985214Y-15021357D01*
X3999500Y-14992786D01*
X4013786Y-14978500D01*
X4042357Y-14964214D01*
X4270929Y-15264214D02*
X4270929Y-15064214D01*
X4270929Y-15092786D02*
X4285214Y-15078500D01*
X4313786Y-15064214D01*
X4356643Y-15064214D01*
X4385214Y-15078500D01*
X4399500Y-15107071D01*
X4399500Y-15264214D01*
X4399500Y-15107071D02*
X4413786Y-15078500D01*
X4442357Y-15064214D01*
X4485214Y-15064214D01*
X4513786Y-15078500D01*
X4528071Y-15107071D01*
X4528071Y-15264214D01*
X4670929Y-15264214D02*
X4670929Y-15064214D01*
X4670929Y-15092786D02*
X4685214Y-15078500D01*
X4713786Y-15064214D01*
X4756643Y-15064214D01*
X4785214Y-15078500D01*
X4799500Y-15107071D01*
X4799500Y-15264214D01*
X4799500Y-15107071D02*
X4813786Y-15078500D01*
X4842357Y-15064214D01*
X4885214Y-15064214D01*
X4913786Y-15078500D01*
X4928071Y-15107071D01*
X4928071Y-15264214D01*
X5513786Y-14949929D02*
X5256643Y-15335643D01*
X5899500Y-14964214D02*
X5928071Y-14964214D01*
X5956643Y-14978500D01*
X5970928Y-14992786D01*
X5985214Y-15021357D01*
X5999500Y-15078500D01*
X5999500Y-15149929D01*
X5985214Y-15207071D01*
X5970928Y-15235643D01*
X5956643Y-15249929D01*
X5928071Y-15264214D01*
X5899500Y-15264214D01*
X5870928Y-15249929D01*
X5856643Y-15235643D01*
X5842357Y-15207071D01*
X5828071Y-15149929D01*
X5828071Y-15078500D01*
X5842357Y-15021357D01*
X5856643Y-14992786D01*
X5870928Y-14978500D01*
X5899500Y-14964214D01*
X6128071Y-15235643D02*
X6142357Y-15249929D01*
X6128071Y-15264214D01*
X6113786Y-15249929D01*
X6128071Y-15235643D01*
X6128071Y-15264214D01*
X6328071Y-14964214D02*
X6356643Y-14964214D01*
X6385214Y-14978500D01*
X6399500Y-14992786D01*
X6413785Y-15021357D01*
X6428071Y-15078500D01*
X6428071Y-15149929D01*
X6413785Y-15207071D01*
X6399500Y-15235643D01*
X6385214Y-15249929D01*
X6356643Y-15264214D01*
X6328071Y-15264214D01*
X6299500Y-15249929D01*
X6285214Y-15235643D01*
X6270928Y-15207071D01*
X6256643Y-15149929D01*
X6256643Y-15078500D01*
X6270928Y-15021357D01*
X6285214Y-14992786D01*
X6299500Y-14978500D01*
X6328071Y-14964214D01*
X6528071Y-14964214D02*
X6713785Y-14964214D01*
X6613785Y-15078500D01*
X6656643Y-15078500D01*
X6685214Y-15092786D01*
X6699500Y-15107071D01*
X6713785Y-15135643D01*
X6713785Y-15207071D01*
X6699500Y-15235643D01*
X6685214Y-15249929D01*
X6656643Y-15264214D01*
X6570928Y-15264214D01*
X6542357Y-15249929D01*
X6528071Y-15235643D01*
X6985214Y-14964214D02*
X6842357Y-14964214D01*
X6828071Y-15107071D01*
X6842357Y-15092786D01*
X6870928Y-15078500D01*
X6942357Y-15078500D01*
X6970928Y-15092786D01*
X6985214Y-15107071D01*
X6999500Y-15135643D01*
X6999500Y-15207071D01*
X6985214Y-15235643D01*
X6970928Y-15249929D01*
X6942357Y-15264214D01*
X6870928Y-15264214D01*
X6842357Y-15249929D01*
X6828071Y-15235643D01*
X7113786Y-14964214D02*
X7113786Y-15021357D01*
X7228071Y-14964214D02*
X7228071Y-15021357D01*
X7670928Y-15378500D02*
X7656643Y-15364214D01*
X7628071Y-15321357D01*
X7613785Y-15292786D01*
X7599500Y-15249929D01*
X7585214Y-15178500D01*
X7585214Y-15121357D01*
X7599500Y-15049929D01*
X7613785Y-15007071D01*
X7628071Y-14978500D01*
X7656643Y-14935643D01*
X7670928Y-14921357D01*
X7913785Y-15064214D02*
X7913785Y-15264214D01*
X7842357Y-14949929D02*
X7770928Y-15164214D01*
X7956643Y-15164214D01*
X8299500Y-15264214D02*
X8299500Y-14964214D01*
X8428071Y-15264214D02*
X8428071Y-15107071D01*
X8413786Y-15078500D01*
X8385214Y-15064214D01*
X8342357Y-15064214D01*
X8313785Y-15078500D01*
X8299500Y-15092786D01*
X8613786Y-15264214D02*
X8585214Y-15249929D01*
X8570928Y-15235643D01*
X8556643Y-15207071D01*
X8556643Y-15121357D01*
X8570928Y-15092786D01*
X8585214Y-15078500D01*
X8613786Y-15064214D01*
X8656643Y-15064214D01*
X8685214Y-15078500D01*
X8699500Y-15092786D01*
X8713786Y-15121357D01*
X8713786Y-15207071D01*
X8699500Y-15235643D01*
X8685214Y-15249929D01*
X8656643Y-15264214D01*
X8613786Y-15264214D01*
X8885214Y-15264214D02*
X8856643Y-15249929D01*
X8842357Y-15221357D01*
X8842357Y-14964214D01*
X9113786Y-15249929D02*
X9085214Y-15264214D01*
X9028071Y-15264214D01*
X8999500Y-15249929D01*
X8985214Y-15221357D01*
X8985214Y-15107071D01*
X8999500Y-15078500D01*
X9028071Y-15064214D01*
X9085214Y-15064214D01*
X9113786Y-15078500D01*
X9128071Y-15107071D01*
X9128071Y-15135643D01*
X8985214Y-15164214D01*
X9242357Y-15249929D02*
X9270929Y-15264214D01*
X9328071Y-15264214D01*
X9356643Y-15249929D01*
X9370929Y-15221357D01*
X9370929Y-15207071D01*
X9356643Y-15178500D01*
X9328071Y-15164214D01*
X9285214Y-15164214D01*
X9256643Y-15149929D01*
X9242357Y-15121357D01*
X9242357Y-15107071D01*
X9256643Y-15078500D01*
X9285214Y-15064214D01*
X9328071Y-15064214D01*
X9356643Y-15078500D01*
X9470928Y-15378500D02*
X9485214Y-15364214D01*
X9513786Y-15321357D01*
X9528071Y-15292786D01*
X9542357Y-15249929D01*
X9556643Y-15178500D01*
X9556643Y-15121357D01*
X9542357Y-15049929D01*
X9528071Y-15007071D01*
X9513786Y-14978500D01*
X9485214Y-14935643D01*
X9470928Y-14921357D01*
X2949500Y-15574500D02*
X2999500Y-15524500D01*
X2949500Y-15474500D01*
X2899500Y-15524500D01*
X2949500Y-15574500D01*
X3428071Y-15660214D02*
X3256643Y-15660214D01*
X3342357Y-15660214D02*
X3342357Y-15360214D01*
X3313786Y-15403071D01*
X3285214Y-15431643D01*
X3256643Y-15445929D01*
X3556643Y-15631643D02*
X3570928Y-15645929D01*
X3556643Y-15660214D01*
X3542357Y-15645929D01*
X3556643Y-15631643D01*
X3556643Y-15660214D01*
X3756643Y-15360214D02*
X3785214Y-15360214D01*
X3813786Y-15374500D01*
X3828071Y-15388786D01*
X3842357Y-15417357D01*
X3856643Y-15474500D01*
X3856643Y-15545929D01*
X3842357Y-15603071D01*
X3828071Y-15631643D01*
X3813786Y-15645929D01*
X3785214Y-15660214D01*
X3756643Y-15660214D01*
X3728071Y-15645929D01*
X3713786Y-15631643D01*
X3699500Y-15603071D01*
X3685214Y-15545929D01*
X3685214Y-15474500D01*
X3699500Y-15417357D01*
X3713786Y-15388786D01*
X3728071Y-15374500D01*
X3756643Y-15360214D01*
X4042357Y-15360214D02*
X4070928Y-15360214D01*
X4099500Y-15374500D01*
X4113786Y-15388786D01*
X4128071Y-15417357D01*
X4142357Y-15474500D01*
X4142357Y-15545929D01*
X4128071Y-15603071D01*
X4113786Y-15631643D01*
X4099500Y-15645929D01*
X4070928Y-15660214D01*
X4042357Y-15660214D01*
X4013786Y-15645929D01*
X3999500Y-15631643D01*
X3985214Y-15603071D01*
X3970928Y-15545929D01*
X3970928Y-15474500D01*
X3985214Y-15417357D01*
X3999500Y-15388786D01*
X4013786Y-15374500D01*
X4042357Y-15360214D01*
X4270929Y-15660214D02*
X4270929Y-15460214D01*
X4270929Y-15488786D02*
X4285214Y-15474500D01*
X4313786Y-15460214D01*
X4356643Y-15460214D01*
X4385214Y-15474500D01*
X4399500Y-15503071D01*
X4399500Y-15660214D01*
X4399500Y-15503071D02*
X4413786Y-15474500D01*
X4442357Y-15460214D01*
X4485214Y-15460214D01*
X4513786Y-15474500D01*
X4528071Y-15503071D01*
X4528071Y-15660214D01*
X4670929Y-15660214D02*
X4670929Y-15460214D01*
X4670929Y-15488786D02*
X4685214Y-15474500D01*
X4713786Y-15460214D01*
X4756643Y-15460214D01*
X4785214Y-15474500D01*
X4799500Y-15503071D01*
X4799500Y-15660214D01*
X4799500Y-15503071D02*
X4813786Y-15474500D01*
X4842357Y-15460214D01*
X4885214Y-15460214D01*
X4913786Y-15474500D01*
X4928071Y-15503071D01*
X4928071Y-15660214D01*
X5513786Y-15345929D02*
X5256643Y-15731643D01*
X5899500Y-15360214D02*
X5928071Y-15360214D01*
X5956643Y-15374500D01*
X5970928Y-15388786D01*
X5985214Y-15417357D01*
X5999500Y-15474500D01*
X5999500Y-15545929D01*
X5985214Y-15603071D01*
X5970928Y-15631643D01*
X5956643Y-15645929D01*
X5928071Y-15660214D01*
X5899500Y-15660214D01*
X5870928Y-15645929D01*
X5856643Y-15631643D01*
X5842357Y-15603071D01*
X5828071Y-15545929D01*
X5828071Y-15474500D01*
X5842357Y-15417357D01*
X5856643Y-15388786D01*
X5870928Y-15374500D01*
X5899500Y-15360214D01*
X6128071Y-15631643D02*
X6142357Y-15645929D01*
X6128071Y-15660214D01*
X6113786Y-15645929D01*
X6128071Y-15631643D01*
X6128071Y-15660214D01*
X6328071Y-15360214D02*
X6356643Y-15360214D01*
X6385214Y-15374500D01*
X6399500Y-15388786D01*
X6413785Y-15417357D01*
X6428071Y-15474500D01*
X6428071Y-15545929D01*
X6413785Y-15603071D01*
X6399500Y-15631643D01*
X6385214Y-15645929D01*
X6356643Y-15660214D01*
X6328071Y-15660214D01*
X6299500Y-15645929D01*
X6285214Y-15631643D01*
X6270928Y-15603071D01*
X6256643Y-15545929D01*
X6256643Y-15474500D01*
X6270928Y-15417357D01*
X6285214Y-15388786D01*
X6299500Y-15374500D01*
X6328071Y-15360214D01*
X6528071Y-15360214D02*
X6713785Y-15360214D01*
X6613785Y-15474500D01*
X6656643Y-15474500D01*
X6685214Y-15488786D01*
X6699500Y-15503071D01*
X6713785Y-15531643D01*
X6713785Y-15603071D01*
X6699500Y-15631643D01*
X6685214Y-15645929D01*
X6656643Y-15660214D01*
X6570928Y-15660214D01*
X6542357Y-15645929D01*
X6528071Y-15631643D01*
X6856643Y-15660214D02*
X6913785Y-15660214D01*
X6942357Y-15645929D01*
X6956643Y-15631643D01*
X6985214Y-15588786D01*
X6999500Y-15531643D01*
X6999500Y-15417357D01*
X6985214Y-15388786D01*
X6970928Y-15374500D01*
X6942357Y-15360214D01*
X6885214Y-15360214D01*
X6856643Y-15374500D01*
X6842357Y-15388786D01*
X6828071Y-15417357D01*
X6828071Y-15488786D01*
X6842357Y-15517357D01*
X6856643Y-15531643D01*
X6885214Y-15545929D01*
X6942357Y-15545929D01*
X6970928Y-15531643D01*
X6985214Y-15517357D01*
X6999500Y-15488786D01*
X7113786Y-15360214D02*
X7113786Y-15417357D01*
X7228071Y-15360214D02*
X7228071Y-15417357D01*
X7670928Y-15774500D02*
X7656643Y-15760214D01*
X7628071Y-15717357D01*
X7613785Y-15688786D01*
X7599500Y-15645929D01*
X7585214Y-15574500D01*
X7585214Y-15517357D01*
X7599500Y-15445929D01*
X7613785Y-15403071D01*
X7628071Y-15374500D01*
X7656643Y-15331643D01*
X7670928Y-15317357D01*
X7770928Y-15388786D02*
X7785214Y-15374500D01*
X7813785Y-15360214D01*
X7885214Y-15360214D01*
X7913785Y-15374500D01*
X7928071Y-15388786D01*
X7942357Y-15417357D01*
X7942357Y-15445929D01*
X7928071Y-15488786D01*
X7756643Y-15660214D01*
X7942357Y-15660214D01*
X8199500Y-15460214D02*
X8199500Y-15660214D01*
X8128071Y-15345929D02*
X8056643Y-15560214D01*
X8242357Y-15560214D01*
X8585214Y-15660214D02*
X8585214Y-15360214D01*
X8713786Y-15660214D02*
X8713786Y-15503071D01*
X8699500Y-15474500D01*
X8670928Y-15460214D01*
X8628071Y-15460214D01*
X8599500Y-15474500D01*
X8585214Y-15488786D01*
X8899500Y-15660214D02*
X8870928Y-15645929D01*
X8856643Y-15631643D01*
X8842357Y-15603071D01*
X8842357Y-15517357D01*
X8856643Y-15488786D01*
X8870928Y-15474500D01*
X8899500Y-15460214D01*
X8942357Y-15460214D01*
X8970928Y-15474500D01*
X8985214Y-15488786D01*
X8999500Y-15517357D01*
X8999500Y-15603071D01*
X8985214Y-15631643D01*
X8970928Y-15645929D01*
X8942357Y-15660214D01*
X8899500Y-15660214D01*
X9170928Y-15660214D02*
X9142357Y-15645929D01*
X9128071Y-15617357D01*
X9128071Y-15360214D01*
X9399500Y-15645929D02*
X9370929Y-15660214D01*
X9313786Y-15660214D01*
X9285214Y-15645929D01*
X9270929Y-15617357D01*
X9270929Y-15503071D01*
X9285214Y-15474500D01*
X9313786Y-15460214D01*
X9370929Y-15460214D01*
X9399500Y-15474500D01*
X9413786Y-15503071D01*
X9413786Y-15531643D01*
X9270929Y-15560214D01*
X9528071Y-15645929D02*
X9556643Y-15660214D01*
X9613786Y-15660214D01*
X9642357Y-15645929D01*
X9656643Y-15617357D01*
X9656643Y-15603071D01*
X9642357Y-15574500D01*
X9613786Y-15560214D01*
X9570929Y-15560214D01*
X9542357Y-15545929D01*
X9528071Y-15517357D01*
X9528071Y-15503071D01*
X9542357Y-15474500D01*
X9570929Y-15460214D01*
X9613786Y-15460214D01*
X9642357Y-15474500D01*
X9756643Y-15774500D02*
X9770929Y-15760214D01*
X9799500Y-15717357D01*
X9813786Y-15688786D01*
X9828071Y-15645929D01*
X9842357Y-15574500D01*
X9842357Y-15517357D01*
X9828071Y-15445929D01*
X9813786Y-15403071D01*
X9799500Y-15374500D01*
X9770929Y-15331643D01*
X9756643Y-15317357D01*
X2899424Y-15870462D02*
X2999500Y-15970538D01*
X2999500Y-15870462D02*
X2899424Y-15970538D01*
X2999500Y-15920500D02*
G75*
G03X2999500Y-15920500I-50038J0D01*
G01*
X3428071Y-16056214D02*
X3256643Y-16056214D01*
X3342357Y-16056214D02*
X3342357Y-15756214D01*
X3313786Y-15799071D01*
X3285214Y-15827643D01*
X3256643Y-15841929D01*
X3556643Y-16027643D02*
X3570928Y-16041929D01*
X3556643Y-16056214D01*
X3542357Y-16041929D01*
X3556643Y-16027643D01*
X3556643Y-16056214D01*
X3756643Y-15756214D02*
X3785214Y-15756214D01*
X3813786Y-15770500D01*
X3828071Y-15784786D01*
X3842357Y-15813357D01*
X3856643Y-15870500D01*
X3856643Y-15941929D01*
X3842357Y-15999071D01*
X3828071Y-16027643D01*
X3813786Y-16041929D01*
X3785214Y-16056214D01*
X3756643Y-16056214D01*
X3728071Y-16041929D01*
X3713786Y-16027643D01*
X3699500Y-15999071D01*
X3685214Y-15941929D01*
X3685214Y-15870500D01*
X3699500Y-15813357D01*
X3713786Y-15784786D01*
X3728071Y-15770500D01*
X3756643Y-15756214D01*
X4042357Y-15756214D02*
X4070928Y-15756214D01*
X4099500Y-15770500D01*
X4113786Y-15784786D01*
X4128071Y-15813357D01*
X4142357Y-15870500D01*
X4142357Y-15941929D01*
X4128071Y-15999071D01*
X4113786Y-16027643D01*
X4099500Y-16041929D01*
X4070928Y-16056214D01*
X4042357Y-16056214D01*
X4013786Y-16041929D01*
X3999500Y-16027643D01*
X3985214Y-15999071D01*
X3970928Y-15941929D01*
X3970928Y-15870500D01*
X3985214Y-15813357D01*
X3999500Y-15784786D01*
X4013786Y-15770500D01*
X4042357Y-15756214D01*
X4270929Y-16056214D02*
X4270929Y-15856214D01*
X4270929Y-15884786D02*
X4285214Y-15870500D01*
X4313786Y-15856214D01*
X4356643Y-15856214D01*
X4385214Y-15870500D01*
X4399500Y-15899071D01*
X4399500Y-16056214D01*
X4399500Y-15899071D02*
X4413786Y-15870500D01*
X4442357Y-15856214D01*
X4485214Y-15856214D01*
X4513786Y-15870500D01*
X4528071Y-15899071D01*
X4528071Y-16056214D01*
X4670929Y-16056214D02*
X4670929Y-15856214D01*
X4670929Y-15884786D02*
X4685214Y-15870500D01*
X4713786Y-15856214D01*
X4756643Y-15856214D01*
X4785214Y-15870500D01*
X4799500Y-15899071D01*
X4799500Y-16056214D01*
X4799500Y-15899071D02*
X4813786Y-15870500D01*
X4842357Y-15856214D01*
X4885214Y-15856214D01*
X4913786Y-15870500D01*
X4928071Y-15899071D01*
X4928071Y-16056214D01*
X5513786Y-15741929D02*
X5256643Y-16127643D01*
X5899500Y-15756214D02*
X5928071Y-15756214D01*
X5956643Y-15770500D01*
X5970928Y-15784786D01*
X5985214Y-15813357D01*
X5999500Y-15870500D01*
X5999500Y-15941929D01*
X5985214Y-15999071D01*
X5970928Y-16027643D01*
X5956643Y-16041929D01*
X5928071Y-16056214D01*
X5899500Y-16056214D01*
X5870928Y-16041929D01*
X5856643Y-16027643D01*
X5842357Y-15999071D01*
X5828071Y-15941929D01*
X5828071Y-15870500D01*
X5842357Y-15813357D01*
X5856643Y-15784786D01*
X5870928Y-15770500D01*
X5899500Y-15756214D01*
X6128071Y-16027643D02*
X6142357Y-16041929D01*
X6128071Y-16056214D01*
X6113786Y-16041929D01*
X6128071Y-16027643D01*
X6128071Y-16056214D01*
X6328071Y-15756214D02*
X6356643Y-15756214D01*
X6385214Y-15770500D01*
X6399500Y-15784786D01*
X6413785Y-15813357D01*
X6428071Y-15870500D01*
X6428071Y-15941929D01*
X6413785Y-15999071D01*
X6399500Y-16027643D01*
X6385214Y-16041929D01*
X6356643Y-16056214D01*
X6328071Y-16056214D01*
X6299500Y-16041929D01*
X6285214Y-16027643D01*
X6270928Y-15999071D01*
X6256643Y-15941929D01*
X6256643Y-15870500D01*
X6270928Y-15813357D01*
X6285214Y-15784786D01*
X6299500Y-15770500D01*
X6328071Y-15756214D01*
X6528071Y-15756214D02*
X6713785Y-15756214D01*
X6613785Y-15870500D01*
X6656643Y-15870500D01*
X6685214Y-15884786D01*
X6699500Y-15899071D01*
X6713785Y-15927643D01*
X6713785Y-15999071D01*
X6699500Y-16027643D01*
X6685214Y-16041929D01*
X6656643Y-16056214D01*
X6570928Y-16056214D01*
X6542357Y-16041929D01*
X6528071Y-16027643D01*
X6856643Y-16056214D02*
X6913785Y-16056214D01*
X6942357Y-16041929D01*
X6956643Y-16027643D01*
X6985214Y-15984786D01*
X6999500Y-15927643D01*
X6999500Y-15813357D01*
X6985214Y-15784786D01*
X6970928Y-15770500D01*
X6942357Y-15756214D01*
X6885214Y-15756214D01*
X6856643Y-15770500D01*
X6842357Y-15784786D01*
X6828071Y-15813357D01*
X6828071Y-15884786D01*
X6842357Y-15913357D01*
X6856643Y-15927643D01*
X6885214Y-15941929D01*
X6942357Y-15941929D01*
X6970928Y-15927643D01*
X6985214Y-15913357D01*
X6999500Y-15884786D01*
X7113786Y-15756214D02*
X7113786Y-15813357D01*
X7228071Y-15756214D02*
X7228071Y-15813357D01*
X7670928Y-16170500D02*
X7656643Y-16156214D01*
X7628071Y-16113357D01*
X7613785Y-16084786D01*
X7599500Y-16041929D01*
X7585214Y-15970500D01*
X7585214Y-15913357D01*
X7599500Y-15841929D01*
X7613785Y-15799071D01*
X7628071Y-15770500D01*
X7656643Y-15727643D01*
X7670928Y-15713357D01*
X7942357Y-16056214D02*
X7770928Y-16056214D01*
X7856643Y-16056214D02*
X7856643Y-15756214D01*
X7828071Y-15799071D01*
X7799500Y-15827643D01*
X7770928Y-15841929D01*
X8299500Y-16056214D02*
X8299500Y-15756214D01*
X8428071Y-16056214D02*
X8428071Y-15899071D01*
X8413786Y-15870500D01*
X8385214Y-15856214D01*
X8342357Y-15856214D01*
X8313785Y-15870500D01*
X8299500Y-15884786D01*
X8613786Y-16056214D02*
X8585214Y-16041929D01*
X8570928Y-16027643D01*
X8556643Y-15999071D01*
X8556643Y-15913357D01*
X8570928Y-15884786D01*
X8585214Y-15870500D01*
X8613786Y-15856214D01*
X8656643Y-15856214D01*
X8685214Y-15870500D01*
X8699500Y-15884786D01*
X8713786Y-15913357D01*
X8713786Y-15999071D01*
X8699500Y-16027643D01*
X8685214Y-16041929D01*
X8656643Y-16056214D01*
X8613786Y-16056214D01*
X8885214Y-16056214D02*
X8856643Y-16041929D01*
X8842357Y-16013357D01*
X8842357Y-15756214D01*
X9113786Y-16041929D02*
X9085214Y-16056214D01*
X9028071Y-16056214D01*
X8999500Y-16041929D01*
X8985214Y-16013357D01*
X8985214Y-15899071D01*
X8999500Y-15870500D01*
X9028071Y-15856214D01*
X9085214Y-15856214D01*
X9113786Y-15870500D01*
X9128071Y-15899071D01*
X9128071Y-15927643D01*
X8985214Y-15956214D01*
X9228071Y-16170500D02*
X9242357Y-16156214D01*
X9270929Y-16113357D01*
X9285214Y-16084786D01*
X9299500Y-16041929D01*
X9313786Y-15970500D01*
X9313786Y-15913357D01*
X9299500Y-15841929D01*
X9285214Y-15799071D01*
X9270929Y-15770500D01*
X9242357Y-15727643D01*
X9228071Y-15713357D01*
X2897900Y-16265700D02*
X2999500Y-16367300D01*
X2999500Y-16265700D02*
X2897900Y-16367300D01*
X2948700Y-16265700D02*
X2948700Y-16367300D01*
X2897900Y-16316500D02*
X2999500Y-16316500D01*
X3428071Y-16452214D02*
X3256643Y-16452214D01*
X3342357Y-16452214D02*
X3342357Y-16152214D01*
X3313786Y-16195071D01*
X3285214Y-16223643D01*
X3256643Y-16237929D01*
X3556643Y-16423643D02*
X3570928Y-16437929D01*
X3556643Y-16452214D01*
X3542357Y-16437929D01*
X3556643Y-16423643D01*
X3556643Y-16452214D01*
X3756643Y-16152214D02*
X3785214Y-16152214D01*
X3813786Y-16166500D01*
X3828071Y-16180786D01*
X3842357Y-16209357D01*
X3856643Y-16266500D01*
X3856643Y-16337929D01*
X3842357Y-16395071D01*
X3828071Y-16423643D01*
X3813786Y-16437929D01*
X3785214Y-16452214D01*
X3756643Y-16452214D01*
X3728071Y-16437929D01*
X3713786Y-16423643D01*
X3699500Y-16395071D01*
X3685214Y-16337929D01*
X3685214Y-16266500D01*
X3699500Y-16209357D01*
X3713786Y-16180786D01*
X3728071Y-16166500D01*
X3756643Y-16152214D01*
X3970928Y-16180786D02*
X3985214Y-16166500D01*
X4013786Y-16152214D01*
X4085214Y-16152214D01*
X4113786Y-16166500D01*
X4128071Y-16180786D01*
X4142357Y-16209357D01*
X4142357Y-16237929D01*
X4128071Y-16280786D01*
X3956643Y-16452214D01*
X4142357Y-16452214D01*
X4270929Y-16452214D02*
X4270929Y-16252214D01*
X4270929Y-16280786D02*
X4285214Y-16266500D01*
X4313786Y-16252214D01*
X4356643Y-16252214D01*
X4385214Y-16266500D01*
X4399500Y-16295071D01*
X4399500Y-16452214D01*
X4399500Y-16295071D02*
X4413786Y-16266500D01*
X4442357Y-16252214D01*
X4485214Y-16252214D01*
X4513786Y-16266500D01*
X4528071Y-16295071D01*
X4528071Y-16452214D01*
X4670929Y-16452214D02*
X4670929Y-16252214D01*
X4670929Y-16280786D02*
X4685214Y-16266500D01*
X4713786Y-16252214D01*
X4756643Y-16252214D01*
X4785214Y-16266500D01*
X4799500Y-16295071D01*
X4799500Y-16452214D01*
X4799500Y-16295071D02*
X4813786Y-16266500D01*
X4842357Y-16252214D01*
X4885214Y-16252214D01*
X4913786Y-16266500D01*
X4928071Y-16295071D01*
X4928071Y-16452214D01*
X5513786Y-16137929D02*
X5256643Y-16523643D01*
X5899500Y-16152214D02*
X5928071Y-16152214D01*
X5956643Y-16166500D01*
X5970928Y-16180786D01*
X5985214Y-16209357D01*
X5999500Y-16266500D01*
X5999500Y-16337929D01*
X5985214Y-16395071D01*
X5970928Y-16423643D01*
X5956643Y-16437929D01*
X5928071Y-16452214D01*
X5899500Y-16452214D01*
X5870928Y-16437929D01*
X5856643Y-16423643D01*
X5842357Y-16395071D01*
X5828071Y-16337929D01*
X5828071Y-16266500D01*
X5842357Y-16209357D01*
X5856643Y-16180786D01*
X5870928Y-16166500D01*
X5899500Y-16152214D01*
X6128071Y-16423643D02*
X6142357Y-16437929D01*
X6128071Y-16452214D01*
X6113786Y-16437929D01*
X6128071Y-16423643D01*
X6128071Y-16452214D01*
X6328071Y-16152214D02*
X6356643Y-16152214D01*
X6385214Y-16166500D01*
X6399500Y-16180786D01*
X6413785Y-16209357D01*
X6428071Y-16266500D01*
X6428071Y-16337929D01*
X6413785Y-16395071D01*
X6399500Y-16423643D01*
X6385214Y-16437929D01*
X6356643Y-16452214D01*
X6328071Y-16452214D01*
X6299500Y-16437929D01*
X6285214Y-16423643D01*
X6270928Y-16395071D01*
X6256643Y-16337929D01*
X6256643Y-16266500D01*
X6270928Y-16209357D01*
X6285214Y-16180786D01*
X6299500Y-16166500D01*
X6328071Y-16152214D01*
X6685214Y-16252214D02*
X6685214Y-16452214D01*
X6613785Y-16137929D02*
X6542357Y-16352214D01*
X6728071Y-16352214D01*
X6899500Y-16152214D02*
X6928071Y-16152214D01*
X6956643Y-16166500D01*
X6970928Y-16180786D01*
X6985214Y-16209357D01*
X6999500Y-16266500D01*
X6999500Y-16337929D01*
X6985214Y-16395071D01*
X6970928Y-16423643D01*
X6956643Y-16437929D01*
X6928071Y-16452214D01*
X6899500Y-16452214D01*
X6870928Y-16437929D01*
X6856643Y-16423643D01*
X6842357Y-16395071D01*
X6828071Y-16337929D01*
X6828071Y-16266500D01*
X6842357Y-16209357D01*
X6856643Y-16180786D01*
X6870928Y-16166500D01*
X6899500Y-16152214D01*
X7113786Y-16152214D02*
X7113786Y-16209357D01*
X7228071Y-16152214D02*
X7228071Y-16209357D01*
X7670928Y-16566500D02*
X7656643Y-16552214D01*
X7628071Y-16509357D01*
X7613785Y-16480786D01*
X7599500Y-16437929D01*
X7585214Y-16366500D01*
X7585214Y-16309357D01*
X7599500Y-16237929D01*
X7613785Y-16195071D01*
X7628071Y-16166500D01*
X7656643Y-16123643D01*
X7670928Y-16109357D01*
X7756643Y-16152214D02*
X7942357Y-16152214D01*
X7842357Y-16266500D01*
X7885214Y-16266500D01*
X7913785Y-16280786D01*
X7928071Y-16295071D01*
X7942357Y-16323643D01*
X7942357Y-16395071D01*
X7928071Y-16423643D01*
X7913785Y-16437929D01*
X7885214Y-16452214D01*
X7799500Y-16452214D01*
X7770928Y-16437929D01*
X7756643Y-16423643D01*
X8113785Y-16280786D02*
X8085214Y-16266500D01*
X8070928Y-16252214D01*
X8056643Y-16223643D01*
X8056643Y-16209357D01*
X8070928Y-16180786D01*
X8085214Y-16166500D01*
X8113785Y-16152214D01*
X8170928Y-16152214D01*
X8199500Y-16166500D01*
X8213785Y-16180786D01*
X8228071Y-16209357D01*
X8228071Y-16223643D01*
X8213785Y-16252214D01*
X8199500Y-16266500D01*
X8170928Y-16280786D01*
X8113785Y-16280786D01*
X8085214Y-16295071D01*
X8070928Y-16309357D01*
X8056643Y-16337929D01*
X8056643Y-16395071D01*
X8070928Y-16423643D01*
X8085214Y-16437929D01*
X8113785Y-16452214D01*
X8170928Y-16452214D01*
X8199500Y-16437929D01*
X8213785Y-16423643D01*
X8228071Y-16395071D01*
X8228071Y-16337929D01*
X8213785Y-16309357D01*
X8199500Y-16295071D01*
X8170928Y-16280786D01*
X8585214Y-16452214D02*
X8585214Y-16152214D01*
X8713786Y-16452214D02*
X8713786Y-16295071D01*
X8699500Y-16266500D01*
X8670928Y-16252214D01*
X8628071Y-16252214D01*
X8599500Y-16266500D01*
X8585214Y-16280786D01*
X8899500Y-16452214D02*
X8870928Y-16437929D01*
X8856643Y-16423643D01*
X8842357Y-16395071D01*
X8842357Y-16309357D01*
X8856643Y-16280786D01*
X8870928Y-16266500D01*
X8899500Y-16252214D01*
X8942357Y-16252214D01*
X8970928Y-16266500D01*
X8985214Y-16280786D01*
X8999500Y-16309357D01*
X8999500Y-16395071D01*
X8985214Y-16423643D01*
X8970928Y-16437929D01*
X8942357Y-16452214D01*
X8899500Y-16452214D01*
X9170928Y-16452214D02*
X9142357Y-16437929D01*
X9128071Y-16409357D01*
X9128071Y-16152214D01*
X9399500Y-16437929D02*
X9370929Y-16452214D01*
X9313786Y-16452214D01*
X9285214Y-16437929D01*
X9270929Y-16409357D01*
X9270929Y-16295071D01*
X9285214Y-16266500D01*
X9313786Y-16252214D01*
X9370929Y-16252214D01*
X9399500Y-16266500D01*
X9413786Y-16295071D01*
X9413786Y-16323643D01*
X9270929Y-16352214D01*
X9528071Y-16437929D02*
X9556643Y-16452214D01*
X9613786Y-16452214D01*
X9642357Y-16437929D01*
X9656643Y-16409357D01*
X9656643Y-16395071D01*
X9642357Y-16366500D01*
X9613786Y-16352214D01*
X9570929Y-16352214D01*
X9542357Y-16337929D01*
X9528071Y-16309357D01*
X9528071Y-16295071D01*
X9542357Y-16266500D01*
X9570929Y-16252214D01*
X9613786Y-16252214D01*
X9642357Y-16266500D01*
X9756643Y-16566500D02*
X9770929Y-16552214D01*
X9799500Y-16509357D01*
X9813786Y-16480786D01*
X9828071Y-16437929D01*
X9842357Y-16366500D01*
X9842357Y-16309357D01*
X9828071Y-16237929D01*
X9813786Y-16195071D01*
X9799500Y-16166500D01*
X9770929Y-16123643D01*
X9756643Y-16109357D01*
X2872500Y-16649000D02*
X2999500Y-16776000D01*
X2999500Y-16649000D02*
X2872500Y-16776000D01*
X2980902Y-16757402D02*
X2980902Y-16667598D01*
X2891098Y-16667598D01*
X2891098Y-16757402D01*
X2980902Y-16757402D01*
X3428071Y-16848214D02*
X3256643Y-16848214D01*
X3342357Y-16848214D02*
X3342357Y-16548214D01*
X3313786Y-16591071D01*
X3285214Y-16619643D01*
X3256643Y-16633929D01*
X3556643Y-16819643D02*
X3570928Y-16833929D01*
X3556643Y-16848214D01*
X3542357Y-16833929D01*
X3556643Y-16819643D01*
X3556643Y-16848214D01*
X3685214Y-16576786D02*
X3699500Y-16562500D01*
X3728071Y-16548214D01*
X3799500Y-16548214D01*
X3828071Y-16562500D01*
X3842357Y-16576786D01*
X3856643Y-16605357D01*
X3856643Y-16633929D01*
X3842357Y-16676786D01*
X3670928Y-16848214D01*
X3856643Y-16848214D01*
X3956643Y-16548214D02*
X4156643Y-16548214D01*
X4028071Y-16848214D01*
X4270929Y-16848214D02*
X4270929Y-16648214D01*
X4270929Y-16676786D02*
X4285214Y-16662500D01*
X4313786Y-16648214D01*
X4356643Y-16648214D01*
X4385214Y-16662500D01*
X4399500Y-16691071D01*
X4399500Y-16848214D01*
X4399500Y-16691071D02*
X4413786Y-16662500D01*
X4442357Y-16648214D01*
X4485214Y-16648214D01*
X4513786Y-16662500D01*
X4528071Y-16691071D01*
X4528071Y-16848214D01*
X4670929Y-16848214D02*
X4670929Y-16648214D01*
X4670929Y-16676786D02*
X4685214Y-16662500D01*
X4713786Y-16648214D01*
X4756643Y-16648214D01*
X4785214Y-16662500D01*
X4799500Y-16691071D01*
X4799500Y-16848214D01*
X4799500Y-16691071D02*
X4813786Y-16662500D01*
X4842357Y-16648214D01*
X4885214Y-16648214D01*
X4913786Y-16662500D01*
X4928071Y-16691071D01*
X4928071Y-16848214D01*
X5513786Y-16533929D02*
X5256643Y-16919643D01*
X5899500Y-16548214D02*
X5928071Y-16548214D01*
X5956643Y-16562500D01*
X5970928Y-16576786D01*
X5985214Y-16605357D01*
X5999500Y-16662500D01*
X5999500Y-16733929D01*
X5985214Y-16791072D01*
X5970928Y-16819643D01*
X5956643Y-16833929D01*
X5928071Y-16848214D01*
X5899500Y-16848214D01*
X5870928Y-16833929D01*
X5856643Y-16819643D01*
X5842357Y-16791072D01*
X5828071Y-16733929D01*
X5828071Y-16662500D01*
X5842357Y-16605357D01*
X5856643Y-16576786D01*
X5870928Y-16562500D01*
X5899500Y-16548214D01*
X6128071Y-16819643D02*
X6142357Y-16833929D01*
X6128071Y-16848214D01*
X6113786Y-16833929D01*
X6128071Y-16819643D01*
X6128071Y-16848214D01*
X6328071Y-16548214D02*
X6356643Y-16548214D01*
X6385214Y-16562500D01*
X6399500Y-16576786D01*
X6413785Y-16605357D01*
X6428071Y-16662500D01*
X6428071Y-16733929D01*
X6413785Y-16791072D01*
X6399500Y-16819643D01*
X6385214Y-16833929D01*
X6356643Y-16848214D01*
X6328071Y-16848214D01*
X6299500Y-16833929D01*
X6285214Y-16819643D01*
X6270928Y-16791072D01*
X6256643Y-16733929D01*
X6256643Y-16662500D01*
X6270928Y-16605357D01*
X6285214Y-16576786D01*
X6299500Y-16562500D01*
X6328071Y-16548214D01*
X6699500Y-16548214D02*
X6556643Y-16548214D01*
X6542357Y-16691071D01*
X6556643Y-16676786D01*
X6585214Y-16662500D01*
X6656643Y-16662500D01*
X6685214Y-16676786D01*
X6699500Y-16691071D01*
X6713785Y-16719643D01*
X6713785Y-16791072D01*
X6699500Y-16819643D01*
X6685214Y-16833929D01*
X6656643Y-16848214D01*
X6585214Y-16848214D01*
X6556643Y-16833929D01*
X6542357Y-16819643D01*
X6899500Y-16548214D02*
X6928071Y-16548214D01*
X6956643Y-16562500D01*
X6970928Y-16576786D01*
X6985214Y-16605357D01*
X6999500Y-16662500D01*
X6999500Y-16733929D01*
X6985214Y-16791072D01*
X6970928Y-16819643D01*
X6956643Y-16833929D01*
X6928071Y-16848214D01*
X6899500Y-16848214D01*
X6870928Y-16833929D01*
X6856643Y-16819643D01*
X6842357Y-16791072D01*
X6828071Y-16733929D01*
X6828071Y-16662500D01*
X6842357Y-16605357D01*
X6856643Y-16576786D01*
X6870928Y-16562500D01*
X6899500Y-16548214D01*
X7113786Y-16548214D02*
X7113786Y-16605357D01*
X7228071Y-16548214D02*
X7228071Y-16605357D01*
X7670928Y-16962500D02*
X7656643Y-16948214D01*
X7628071Y-16905357D01*
X7613785Y-16876786D01*
X7599500Y-16833929D01*
X7585214Y-16762500D01*
X7585214Y-16705357D01*
X7599500Y-16633929D01*
X7613785Y-16591071D01*
X7628071Y-16562500D01*
X7656643Y-16519643D01*
X7670928Y-16505357D01*
X7942357Y-16848214D02*
X7770928Y-16848214D01*
X7856643Y-16848214D02*
X7856643Y-16548214D01*
X7828071Y-16591071D01*
X7799500Y-16619643D01*
X7770928Y-16633929D01*
X8299500Y-16848214D02*
X8299500Y-16548214D01*
X8428071Y-16848214D02*
X8428071Y-16691071D01*
X8413786Y-16662500D01*
X8385214Y-16648214D01*
X8342357Y-16648214D01*
X8313785Y-16662500D01*
X8299500Y-16676786D01*
X8613786Y-16848214D02*
X8585214Y-16833929D01*
X8570928Y-16819643D01*
X8556643Y-16791072D01*
X8556643Y-16705357D01*
X8570928Y-16676786D01*
X8585214Y-16662500D01*
X8613786Y-16648214D01*
X8656643Y-16648214D01*
X8685214Y-16662500D01*
X8699500Y-16676786D01*
X8713786Y-16705357D01*
X8713786Y-16791072D01*
X8699500Y-16819643D01*
X8685214Y-16833929D01*
X8656643Y-16848214D01*
X8613786Y-16848214D01*
X8885214Y-16848214D02*
X8856643Y-16833929D01*
X8842357Y-16805357D01*
X8842357Y-16548214D01*
X9113786Y-16833929D02*
X9085214Y-16848214D01*
X9028071Y-16848214D01*
X8999500Y-16833929D01*
X8985214Y-16805357D01*
X8985214Y-16691071D01*
X8999500Y-16662500D01*
X9028071Y-16648214D01*
X9085214Y-16648214D01*
X9113786Y-16662500D01*
X9128071Y-16691071D01*
X9128071Y-16719643D01*
X8985214Y-16748214D01*
X9228071Y-16962500D02*
X9242357Y-16948214D01*
X9270929Y-16905357D01*
X9285214Y-16876786D01*
X9299500Y-16833929D01*
X9313786Y-16762500D01*
X9313786Y-16705357D01*
X9299500Y-16633929D01*
X9285214Y-16591071D01*
X9270929Y-16562500D01*
X9242357Y-16519643D01*
X9228071Y-16505357D01*
X2739500Y-16978500D02*
X2999500Y-17238500D01*
X2999500Y-16978500D02*
X2739500Y-17238500D01*
X2869500Y-17238500D02*
X2999500Y-17108500D01*
X2869500Y-16978500D01*
X2739500Y-17108500D01*
X2869500Y-17238500D01*
X3256643Y-16972786D02*
X3270928Y-16958500D01*
X3299500Y-16944214D01*
X3370928Y-16944214D01*
X3399500Y-16958500D01*
X3413786Y-16972786D01*
X3428071Y-17001357D01*
X3428071Y-17029929D01*
X3413786Y-17072786D01*
X3242357Y-17244214D01*
X3428071Y-17244214D01*
X3556643Y-17215643D02*
X3570928Y-17229929D01*
X3556643Y-17244214D01*
X3542357Y-17229929D01*
X3556643Y-17215643D01*
X3556643Y-17244214D01*
X3828071Y-16944214D02*
X3770928Y-16944214D01*
X3742357Y-16958500D01*
X3728071Y-16972786D01*
X3699500Y-17015643D01*
X3685214Y-17072786D01*
X3685214Y-17187072D01*
X3699500Y-17215643D01*
X3713786Y-17229929D01*
X3742357Y-17244214D01*
X3799500Y-17244214D01*
X3828071Y-17229929D01*
X3842357Y-17215643D01*
X3856643Y-17187072D01*
X3856643Y-17115643D01*
X3842357Y-17087072D01*
X3828071Y-17072786D01*
X3799500Y-17058500D01*
X3742357Y-17058500D01*
X3713786Y-17072786D01*
X3699500Y-17087072D01*
X3685214Y-17115643D01*
X4042357Y-16944214D02*
X4070928Y-16944214D01*
X4099500Y-16958500D01*
X4113786Y-16972786D01*
X4128071Y-17001357D01*
X4142357Y-17058500D01*
X4142357Y-17129929D01*
X4128071Y-17187072D01*
X4113786Y-17215643D01*
X4099500Y-17229929D01*
X4070928Y-17244214D01*
X4042357Y-17244214D01*
X4013786Y-17229929D01*
X3999500Y-17215643D01*
X3985214Y-17187072D01*
X3970928Y-17129929D01*
X3970928Y-17058500D01*
X3985214Y-17001357D01*
X3999500Y-16972786D01*
X4013786Y-16958500D01*
X4042357Y-16944214D01*
X4270929Y-17244214D02*
X4270929Y-17044214D01*
X4270929Y-17072786D02*
X4285214Y-17058500D01*
X4313786Y-17044214D01*
X4356643Y-17044214D01*
X4385214Y-17058500D01*
X4399500Y-17087072D01*
X4399500Y-17244214D01*
X4399500Y-17087072D02*
X4413786Y-17058500D01*
X4442357Y-17044214D01*
X4485214Y-17044214D01*
X4513786Y-17058500D01*
X4528071Y-17087072D01*
X4528071Y-17244214D01*
X4670929Y-17244214D02*
X4670929Y-17044214D01*
X4670929Y-17072786D02*
X4685214Y-17058500D01*
X4713786Y-17044214D01*
X4756643Y-17044214D01*
X4785214Y-17058500D01*
X4799500Y-17087072D01*
X4799500Y-17244214D01*
X4799500Y-17087072D02*
X4813786Y-17058500D01*
X4842357Y-17044214D01*
X4885214Y-17044214D01*
X4913786Y-17058500D01*
X4928071Y-17087072D01*
X4928071Y-17244214D01*
X5513786Y-16929929D02*
X5256643Y-17315643D01*
X5899500Y-16944214D02*
X5928071Y-16944214D01*
X5956643Y-16958500D01*
X5970928Y-16972786D01*
X5985214Y-17001357D01*
X5999500Y-17058500D01*
X5999500Y-17129929D01*
X5985214Y-17187072D01*
X5970928Y-17215643D01*
X5956643Y-17229929D01*
X5928071Y-17244214D01*
X5899500Y-17244214D01*
X5870928Y-17229929D01*
X5856643Y-17215643D01*
X5842357Y-17187072D01*
X5828071Y-17129929D01*
X5828071Y-17058500D01*
X5842357Y-17001357D01*
X5856643Y-16972786D01*
X5870928Y-16958500D01*
X5899500Y-16944214D01*
X6128071Y-17215643D02*
X6142357Y-17229929D01*
X6128071Y-17244214D01*
X6113786Y-17229929D01*
X6128071Y-17215643D01*
X6128071Y-17244214D01*
X6428071Y-17244214D02*
X6256643Y-17244214D01*
X6342357Y-17244214D02*
X6342357Y-16944214D01*
X6313785Y-16987072D01*
X6285214Y-17015643D01*
X6256643Y-17029929D01*
X6613785Y-16944214D02*
X6642357Y-16944214D01*
X6670928Y-16958500D01*
X6685214Y-16972786D01*
X6699500Y-17001357D01*
X6713785Y-17058500D01*
X6713785Y-17129929D01*
X6699500Y-17187072D01*
X6685214Y-17215643D01*
X6670928Y-17229929D01*
X6642357Y-17244214D01*
X6613785Y-17244214D01*
X6585214Y-17229929D01*
X6570928Y-17215643D01*
X6556643Y-17187072D01*
X6542357Y-17129929D01*
X6542357Y-17058500D01*
X6556643Y-17001357D01*
X6570928Y-16972786D01*
X6585214Y-16958500D01*
X6613785Y-16944214D01*
X6828071Y-16972786D02*
X6842357Y-16958500D01*
X6870928Y-16944214D01*
X6942357Y-16944214D01*
X6970928Y-16958500D01*
X6985214Y-16972786D01*
X6999500Y-17001357D01*
X6999500Y-17029929D01*
X6985214Y-17072786D01*
X6813785Y-17244214D01*
X6999500Y-17244214D01*
X7113786Y-16944214D02*
X7113786Y-17001357D01*
X7228071Y-16944214D02*
X7228071Y-17001357D01*
X7670928Y-17358500D02*
X7656643Y-17344214D01*
X7628071Y-17301357D01*
X7613785Y-17272786D01*
X7599500Y-17229929D01*
X7585214Y-17158500D01*
X7585214Y-17101357D01*
X7599500Y-17029929D01*
X7613785Y-16987072D01*
X7628071Y-16958500D01*
X7656643Y-16915643D01*
X7670928Y-16901357D01*
X7756643Y-16944214D02*
X7942357Y-16944214D01*
X7842357Y-17058500D01*
X7885214Y-17058500D01*
X7913785Y-17072786D01*
X7928071Y-17087072D01*
X7942357Y-17115643D01*
X7942357Y-17187072D01*
X7928071Y-17215643D01*
X7913785Y-17229929D01*
X7885214Y-17244214D01*
X7799500Y-17244214D01*
X7770928Y-17229929D01*
X7756643Y-17215643D01*
X8299500Y-17244214D02*
X8299500Y-16944214D01*
X8428071Y-17244214D02*
X8428071Y-17087072D01*
X8413786Y-17058500D01*
X8385214Y-17044214D01*
X8342357Y-17044214D01*
X8313785Y-17058500D01*
X8299500Y-17072786D01*
X8613786Y-17244214D02*
X8585214Y-17229929D01*
X8570928Y-17215643D01*
X8556643Y-17187072D01*
X8556643Y-17101357D01*
X8570928Y-17072786D01*
X8585214Y-17058500D01*
X8613786Y-17044214D01*
X8656643Y-17044214D01*
X8685214Y-17058500D01*
X8699500Y-17072786D01*
X8713786Y-17101357D01*
X8713786Y-17187072D01*
X8699500Y-17215643D01*
X8685214Y-17229929D01*
X8656643Y-17244214D01*
X8613786Y-17244214D01*
X8885214Y-17244214D02*
X8856643Y-17229929D01*
X8842357Y-17201357D01*
X8842357Y-16944214D01*
X9113786Y-17229929D02*
X9085214Y-17244214D01*
X9028071Y-17244214D01*
X8999500Y-17229929D01*
X8985214Y-17201357D01*
X8985214Y-17087072D01*
X8999500Y-17058500D01*
X9028071Y-17044214D01*
X9085214Y-17044214D01*
X9113786Y-17058500D01*
X9128071Y-17087072D01*
X9128071Y-17115643D01*
X8985214Y-17144214D01*
X9242357Y-17229929D02*
X9270929Y-17244214D01*
X9328071Y-17244214D01*
X9356643Y-17229929D01*
X9370929Y-17201357D01*
X9370929Y-17187072D01*
X9356643Y-17158500D01*
X9328071Y-17144214D01*
X9285214Y-17144214D01*
X9256643Y-17129929D01*
X9242357Y-17101357D01*
X9242357Y-17087072D01*
X9256643Y-17058500D01*
X9285214Y-17044214D01*
X9328071Y-17044214D01*
X9356643Y-17058500D01*
X9470928Y-17358500D02*
X9485214Y-17344214D01*
X9513786Y-17301357D01*
X9528071Y-17272786D01*
X9542357Y-17229929D01*
X9556643Y-17158500D01*
X9556643Y-17101357D01*
X9542357Y-17029929D01*
X9528071Y-16987072D01*
X9513786Y-16958500D01*
X9485214Y-16915643D01*
X9470928Y-16901357D01*
X2847100Y-17352100D02*
X2847100Y-17656900D01*
X2694700Y-17504500D02*
X2999500Y-17504500D01*
X2999500Y-17504500D02*
G75*
G03X2999500Y-17504500I-152400J0D01*
G01*
X3242357Y-17340214D02*
X3428071Y-17340214D01*
X3328071Y-17454500D01*
X3370928Y-17454500D01*
X3399500Y-17468786D01*
X3413786Y-17483072D01*
X3428071Y-17511643D01*
X3428071Y-17583072D01*
X3413786Y-17611643D01*
X3399500Y-17625929D01*
X3370928Y-17640214D01*
X3285214Y-17640214D01*
X3256643Y-17625929D01*
X3242357Y-17611643D01*
X3556643Y-17611643D02*
X3570928Y-17625929D01*
X3556643Y-17640214D01*
X3542357Y-17625929D01*
X3556643Y-17611643D01*
X3556643Y-17640214D01*
X3756643Y-17340214D02*
X3785214Y-17340214D01*
X3813786Y-17354500D01*
X3828071Y-17368786D01*
X3842357Y-17397357D01*
X3856643Y-17454500D01*
X3856643Y-17525929D01*
X3842357Y-17583072D01*
X3828071Y-17611643D01*
X3813786Y-17625929D01*
X3785214Y-17640214D01*
X3756643Y-17640214D01*
X3728071Y-17625929D01*
X3713786Y-17611643D01*
X3699500Y-17583072D01*
X3685214Y-17525929D01*
X3685214Y-17454500D01*
X3699500Y-17397357D01*
X3713786Y-17368786D01*
X3728071Y-17354500D01*
X3756643Y-17340214D01*
X4128071Y-17340214D02*
X3985214Y-17340214D01*
X3970928Y-17483072D01*
X3985214Y-17468786D01*
X4013786Y-17454500D01*
X4085214Y-17454500D01*
X4113786Y-17468786D01*
X4128071Y-17483072D01*
X4142357Y-17511643D01*
X4142357Y-17583072D01*
X4128071Y-17611643D01*
X4113786Y-17625929D01*
X4085214Y-17640214D01*
X4013786Y-17640214D01*
X3985214Y-17625929D01*
X3970928Y-17611643D01*
X4270929Y-17640214D02*
X4270929Y-17440214D01*
X4270929Y-17468786D02*
X4285214Y-17454500D01*
X4313786Y-17440214D01*
X4356643Y-17440214D01*
X4385214Y-17454500D01*
X4399500Y-17483072D01*
X4399500Y-17640214D01*
X4399500Y-17483072D02*
X4413786Y-17454500D01*
X4442357Y-17440214D01*
X4485214Y-17440214D01*
X4513786Y-17454500D01*
X4528071Y-17483072D01*
X4528071Y-17640214D01*
X4670929Y-17640214D02*
X4670929Y-17440214D01*
X4670929Y-17468786D02*
X4685214Y-17454500D01*
X4713786Y-17440214D01*
X4756643Y-17440214D01*
X4785214Y-17454500D01*
X4799500Y-17483072D01*
X4799500Y-17640214D01*
X4799500Y-17483072D02*
X4813786Y-17454500D01*
X4842357Y-17440214D01*
X4885214Y-17440214D01*
X4913786Y-17454500D01*
X4928071Y-17483072D01*
X4928071Y-17640214D01*
X5513786Y-17325929D02*
X5256643Y-17711643D01*
X5899500Y-17340214D02*
X5928071Y-17340214D01*
X5956643Y-17354500D01*
X5970928Y-17368786D01*
X5985214Y-17397357D01*
X5999500Y-17454500D01*
X5999500Y-17525929D01*
X5985214Y-17583072D01*
X5970928Y-17611643D01*
X5956643Y-17625929D01*
X5928071Y-17640214D01*
X5899500Y-17640214D01*
X5870928Y-17625929D01*
X5856643Y-17611643D01*
X5842357Y-17583072D01*
X5828071Y-17525929D01*
X5828071Y-17454500D01*
X5842357Y-17397357D01*
X5856643Y-17368786D01*
X5870928Y-17354500D01*
X5899500Y-17340214D01*
X6128071Y-17611643D02*
X6142357Y-17625929D01*
X6128071Y-17640214D01*
X6113786Y-17625929D01*
X6128071Y-17611643D01*
X6128071Y-17640214D01*
X6428071Y-17640214D02*
X6256643Y-17640214D01*
X6342357Y-17640214D02*
X6342357Y-17340214D01*
X6313785Y-17383072D01*
X6285214Y-17411643D01*
X6256643Y-17425929D01*
X6542357Y-17368786D02*
X6556643Y-17354500D01*
X6585214Y-17340214D01*
X6656643Y-17340214D01*
X6685214Y-17354500D01*
X6699500Y-17368786D01*
X6713785Y-17397357D01*
X6713785Y-17425929D01*
X6699500Y-17468786D01*
X6528071Y-17640214D01*
X6713785Y-17640214D01*
X6899500Y-17340214D02*
X6928071Y-17340214D01*
X6956643Y-17354500D01*
X6970928Y-17368786D01*
X6985214Y-17397357D01*
X6999500Y-17454500D01*
X6999500Y-17525929D01*
X6985214Y-17583072D01*
X6970928Y-17611643D01*
X6956643Y-17625929D01*
X6928071Y-17640214D01*
X6899500Y-17640214D01*
X6870928Y-17625929D01*
X6856643Y-17611643D01*
X6842357Y-17583072D01*
X6828071Y-17525929D01*
X6828071Y-17454500D01*
X6842357Y-17397357D01*
X6856643Y-17368786D01*
X6870928Y-17354500D01*
X6899500Y-17340214D01*
X7113786Y-17340214D02*
X7113786Y-17397357D01*
X7228071Y-17340214D02*
X7228071Y-17397357D01*
X7670928Y-17754500D02*
X7656643Y-17740214D01*
X7628071Y-17697357D01*
X7613785Y-17668786D01*
X7599500Y-17625929D01*
X7585214Y-17554500D01*
X7585214Y-17497357D01*
X7599500Y-17425929D01*
X7613785Y-17383072D01*
X7628071Y-17354500D01*
X7656643Y-17311643D01*
X7670928Y-17297357D01*
X7828071Y-17468786D02*
X7799500Y-17454500D01*
X7785214Y-17440214D01*
X7770928Y-17411643D01*
X7770928Y-17397357D01*
X7785214Y-17368786D01*
X7799500Y-17354500D01*
X7828071Y-17340214D01*
X7885214Y-17340214D01*
X7913785Y-17354500D01*
X7928071Y-17368786D01*
X7942357Y-17397357D01*
X7942357Y-17411643D01*
X7928071Y-17440214D01*
X7913785Y-17454500D01*
X7885214Y-17468786D01*
X7828071Y-17468786D01*
X7799500Y-17483072D01*
X7785214Y-17497357D01*
X7770928Y-17525929D01*
X7770928Y-17583072D01*
X7785214Y-17611643D01*
X7799500Y-17625929D01*
X7828071Y-17640214D01*
X7885214Y-17640214D01*
X7913785Y-17625929D01*
X7928071Y-17611643D01*
X7942357Y-17583072D01*
X7942357Y-17525929D01*
X7928071Y-17497357D01*
X7913785Y-17483072D01*
X7885214Y-17468786D01*
X8299500Y-17640214D02*
X8299500Y-17340214D01*
X8428071Y-17640214D02*
X8428071Y-17483072D01*
X8413786Y-17454500D01*
X8385214Y-17440214D01*
X8342357Y-17440214D01*
X8313785Y-17454500D01*
X8299500Y-17468786D01*
X8613786Y-17640214D02*
X8585214Y-17625929D01*
X8570928Y-17611643D01*
X8556643Y-17583072D01*
X8556643Y-17497357D01*
X8570928Y-17468786D01*
X8585214Y-17454500D01*
X8613786Y-17440214D01*
X8656643Y-17440214D01*
X8685214Y-17454500D01*
X8699500Y-17468786D01*
X8713786Y-17497357D01*
X8713786Y-17583072D01*
X8699500Y-17611643D01*
X8685214Y-17625929D01*
X8656643Y-17640214D01*
X8613786Y-17640214D01*
X8885214Y-17640214D02*
X8856643Y-17625929D01*
X8842357Y-17597357D01*
X8842357Y-17340214D01*
X9113786Y-17625929D02*
X9085214Y-17640214D01*
X9028071Y-17640214D01*
X8999500Y-17625929D01*
X8985214Y-17597357D01*
X8985214Y-17483072D01*
X8999500Y-17454500D01*
X9028071Y-17440214D01*
X9085214Y-17440214D01*
X9113786Y-17454500D01*
X9128071Y-17483072D01*
X9128071Y-17511643D01*
X8985214Y-17540214D01*
X9242357Y-17625929D02*
X9270929Y-17640214D01*
X9328071Y-17640214D01*
X9356643Y-17625929D01*
X9370929Y-17597357D01*
X9370929Y-17583072D01*
X9356643Y-17554500D01*
X9328071Y-17540214D01*
X9285214Y-17540214D01*
X9256643Y-17525929D01*
X9242357Y-17497357D01*
X9242357Y-17483072D01*
X9256643Y-17454500D01*
X9285214Y-17440214D01*
X9328071Y-17440214D01*
X9356643Y-17454500D01*
X9470928Y-17754500D02*
X9485214Y-17740214D01*
X9513786Y-17697357D01*
X9528071Y-17668786D01*
X9542357Y-17625929D01*
X9556643Y-17554500D01*
X9556643Y-17497357D01*
X9542357Y-17425929D01*
X9528071Y-17383072D01*
X9513786Y-17354500D01*
X9485214Y-17311643D01*
X9470928Y-17297357D01*
X2992178Y-17956978D02*
X2992178Y-17921622D01*
X2956822Y-17921622D01*
X2956822Y-17956978D01*
X2992178Y-17956978D01*
X2999500Y-17939300D02*
G75*
G03X2999500Y-17939300I-25000J0D01*
G01*
X3328071Y-17775014D02*
X3356643Y-17775014D01*
X3385214Y-17789300D01*
X3399500Y-17803586D01*
X3413786Y-17832157D01*
X3428071Y-17889300D01*
X3428071Y-17960729D01*
X3413786Y-18017872D01*
X3399500Y-18046443D01*
X3385214Y-18060729D01*
X3356643Y-18075014D01*
X3328071Y-18075014D01*
X3299500Y-18060729D01*
X3285214Y-18046443D01*
X3270928Y-18017872D01*
X3256643Y-17960729D01*
X3256643Y-17889300D01*
X3270928Y-17832157D01*
X3285214Y-17803586D01*
X3299500Y-17789300D01*
X3328071Y-17775014D01*
X3556643Y-18046443D02*
X3570928Y-18060729D01*
X3556643Y-18075014D01*
X3542357Y-18060729D01*
X3556643Y-18046443D01*
X3556643Y-18075014D01*
X3842357Y-17775014D02*
X3699500Y-17775014D01*
X3685214Y-17917872D01*
X3699500Y-17903586D01*
X3728071Y-17889300D01*
X3799500Y-17889300D01*
X3828071Y-17903586D01*
X3842357Y-17917872D01*
X3856643Y-17946443D01*
X3856643Y-18017872D01*
X3842357Y-18046443D01*
X3828071Y-18060729D01*
X3799500Y-18075014D01*
X3728071Y-18075014D01*
X3699500Y-18060729D01*
X3685214Y-18046443D01*
X4042357Y-17775014D02*
X4070928Y-17775014D01*
X4099500Y-17789300D01*
X4113786Y-17803586D01*
X4128071Y-17832157D01*
X4142357Y-17889300D01*
X4142357Y-17960729D01*
X4128071Y-18017872D01*
X4113786Y-18046443D01*
X4099500Y-18060729D01*
X4070928Y-18075014D01*
X4042357Y-18075014D01*
X4013786Y-18060729D01*
X3999500Y-18046443D01*
X3985214Y-18017872D01*
X3970928Y-17960729D01*
X3970928Y-17889300D01*
X3985214Y-17832157D01*
X3999500Y-17803586D01*
X4013786Y-17789300D01*
X4042357Y-17775014D01*
X4270929Y-18075014D02*
X4270929Y-17875014D01*
X4270929Y-17903586D02*
X4285214Y-17889300D01*
X4313786Y-17875014D01*
X4356643Y-17875014D01*
X4385214Y-17889300D01*
X4399500Y-17917872D01*
X4399500Y-18075014D01*
X4399500Y-17917872D02*
X4413786Y-17889300D01*
X4442357Y-17875014D01*
X4485214Y-17875014D01*
X4513786Y-17889300D01*
X4528071Y-17917872D01*
X4528071Y-18075014D01*
X4670929Y-18075014D02*
X4670929Y-17875014D01*
X4670929Y-17903586D02*
X4685214Y-17889300D01*
X4713786Y-17875014D01*
X4756643Y-17875014D01*
X4785214Y-17889300D01*
X4799500Y-17917872D01*
X4799500Y-18075014D01*
X4799500Y-17917872D02*
X4813786Y-17889300D01*
X4842357Y-17875014D01*
X4885214Y-17875014D01*
X4913786Y-17889300D01*
X4928071Y-17917872D01*
X4928071Y-18075014D01*
X5513786Y-17760729D02*
X5256643Y-18146443D01*
X5899500Y-17775014D02*
X5928071Y-17775014D01*
X5956643Y-17789300D01*
X5970928Y-17803586D01*
X5985214Y-17832157D01*
X5999500Y-17889300D01*
X5999500Y-17960729D01*
X5985214Y-18017872D01*
X5970928Y-18046443D01*
X5956643Y-18060729D01*
X5928071Y-18075014D01*
X5899500Y-18075014D01*
X5870928Y-18060729D01*
X5856643Y-18046443D01*
X5842357Y-18017872D01*
X5828071Y-17960729D01*
X5828071Y-17889300D01*
X5842357Y-17832157D01*
X5856643Y-17803586D01*
X5870928Y-17789300D01*
X5899500Y-17775014D01*
X6128071Y-18046443D02*
X6142357Y-18060729D01*
X6128071Y-18075014D01*
X6113786Y-18060729D01*
X6128071Y-18046443D01*
X6128071Y-18075014D01*
X6328071Y-17775014D02*
X6356643Y-17775014D01*
X6385214Y-17789300D01*
X6399500Y-17803586D01*
X6413785Y-17832157D01*
X6428071Y-17889300D01*
X6428071Y-17960729D01*
X6413785Y-18017872D01*
X6399500Y-18046443D01*
X6385214Y-18060729D01*
X6356643Y-18075014D01*
X6328071Y-18075014D01*
X6299500Y-18060729D01*
X6285214Y-18046443D01*
X6270928Y-18017872D01*
X6256643Y-17960729D01*
X6256643Y-17889300D01*
X6270928Y-17832157D01*
X6285214Y-17803586D01*
X6299500Y-17789300D01*
X6328071Y-17775014D01*
X6542357Y-17803586D02*
X6556643Y-17789300D01*
X6585214Y-17775014D01*
X6656643Y-17775014D01*
X6685214Y-17789300D01*
X6699500Y-17803586D01*
X6713785Y-17832157D01*
X6713785Y-17860729D01*
X6699500Y-17903586D01*
X6528071Y-18075014D01*
X6713785Y-18075014D01*
X6899500Y-17775014D02*
X6928071Y-17775014D01*
X6956643Y-17789300D01*
X6970928Y-17803586D01*
X6985214Y-17832157D01*
X6999500Y-17889300D01*
X6999500Y-17960729D01*
X6985214Y-18017872D01*
X6970928Y-18046443D01*
X6956643Y-18060729D01*
X6928071Y-18075014D01*
X6899500Y-18075014D01*
X6870928Y-18060729D01*
X6856643Y-18046443D01*
X6842357Y-18017872D01*
X6828071Y-17960729D01*
X6828071Y-17889300D01*
X6842357Y-17832157D01*
X6856643Y-17803586D01*
X6870928Y-17789300D01*
X6899500Y-17775014D01*
X7113786Y-17775014D02*
X7113786Y-17832157D01*
X7228071Y-17775014D02*
X7228071Y-17832157D01*
X7670928Y-18189300D02*
X7656643Y-18175014D01*
X7628071Y-18132157D01*
X7613785Y-18103586D01*
X7599500Y-18060729D01*
X7585214Y-17989300D01*
X7585214Y-17932157D01*
X7599500Y-17860729D01*
X7613785Y-17817872D01*
X7628071Y-17789300D01*
X7656643Y-17746443D01*
X7670928Y-17732157D01*
X7913785Y-17775014D02*
X7856643Y-17775014D01*
X7828071Y-17789300D01*
X7813785Y-17803586D01*
X7785214Y-17846443D01*
X7770928Y-17903586D01*
X7770928Y-18017872D01*
X7785214Y-18046443D01*
X7799500Y-18060729D01*
X7828071Y-18075014D01*
X7885214Y-18075014D01*
X7913785Y-18060729D01*
X7928071Y-18046443D01*
X7942357Y-18017872D01*
X7942357Y-17946443D01*
X7928071Y-17917872D01*
X7913785Y-17903586D01*
X7885214Y-17889300D01*
X7828071Y-17889300D01*
X7799500Y-17903586D01*
X7785214Y-17917872D01*
X7770928Y-17946443D01*
X8128071Y-17775014D02*
X8156643Y-17775014D01*
X8185214Y-17789300D01*
X8199500Y-17803586D01*
X8213785Y-17832157D01*
X8228071Y-17889300D01*
X8228071Y-17960729D01*
X8213785Y-18017872D01*
X8199500Y-18046443D01*
X8185214Y-18060729D01*
X8156643Y-18075014D01*
X8128071Y-18075014D01*
X8099500Y-18060729D01*
X8085214Y-18046443D01*
X8070928Y-18017872D01*
X8056643Y-17960729D01*
X8056643Y-17889300D01*
X8070928Y-17832157D01*
X8085214Y-17803586D01*
X8099500Y-17789300D01*
X8128071Y-17775014D01*
X8585214Y-18075014D02*
X8585214Y-17775014D01*
X8713786Y-18075014D02*
X8713786Y-17917872D01*
X8699500Y-17889300D01*
X8670928Y-17875014D01*
X8628071Y-17875014D01*
X8599500Y-17889300D01*
X8585214Y-17903586D01*
X8899500Y-18075014D02*
X8870928Y-18060729D01*
X8856643Y-18046443D01*
X8842357Y-18017872D01*
X8842357Y-17932157D01*
X8856643Y-17903586D01*
X8870928Y-17889300D01*
X8899500Y-17875014D01*
X8942357Y-17875014D01*
X8970928Y-17889300D01*
X8985214Y-17903586D01*
X8999500Y-17932157D01*
X8999500Y-18017872D01*
X8985214Y-18046443D01*
X8970928Y-18060729D01*
X8942357Y-18075014D01*
X8899500Y-18075014D01*
X9170928Y-18075014D02*
X9142357Y-18060729D01*
X9128071Y-18032157D01*
X9128071Y-17775014D01*
X9399500Y-18060729D02*
X9370929Y-18075014D01*
X9313786Y-18075014D01*
X9285214Y-18060729D01*
X9270929Y-18032157D01*
X9270929Y-17917872D01*
X9285214Y-17889300D01*
X9313786Y-17875014D01*
X9370929Y-17875014D01*
X9399500Y-17889300D01*
X9413786Y-17917872D01*
X9413786Y-17946443D01*
X9270929Y-17975014D01*
X9528071Y-18060729D02*
X9556643Y-18075014D01*
X9613786Y-18075014D01*
X9642357Y-18060729D01*
X9656643Y-18032157D01*
X9656643Y-18017872D01*
X9642357Y-17989300D01*
X9613786Y-17975014D01*
X9570929Y-17975014D01*
X9542357Y-17960729D01*
X9528071Y-17932157D01*
X9528071Y-17917872D01*
X9542357Y-17889300D01*
X9570929Y-17875014D01*
X9613786Y-17875014D01*
X9642357Y-17889300D01*
X9756643Y-18189300D02*
X9770929Y-18175014D01*
X9799500Y-18132157D01*
X9813786Y-18103586D01*
X9828071Y-18060729D01*
X9842357Y-17989300D01*
X9842357Y-17932157D01*
X9828071Y-17860729D01*
X9813786Y-17817872D01*
X9799500Y-17789300D01*
X9770929Y-17746443D01*
X9756643Y-17732157D01*
X10299500Y-18189300D02*
X10285214Y-18175014D01*
X10256643Y-18132157D01*
X10242357Y-18103586D01*
X10228071Y-18060729D01*
X10213786Y-17989300D01*
X10213786Y-17932157D01*
X10228071Y-17860729D01*
X10242357Y-17817872D01*
X10256643Y-17789300D01*
X10285214Y-17746443D01*
X10299500Y-17732157D01*
X10413786Y-17875014D02*
X10413786Y-18075014D01*
X10413786Y-17903586D02*
X10428071Y-17889300D01*
X10456643Y-17875014D01*
X10499500Y-17875014D01*
X10528071Y-17889300D01*
X10542357Y-17917872D01*
X10542357Y-18075014D01*
X10728071Y-18075014D02*
X10699500Y-18060729D01*
X10685214Y-18046443D01*
X10670929Y-18017872D01*
X10670929Y-17932157D01*
X10685214Y-17903586D01*
X10699500Y-17889300D01*
X10728071Y-17875014D01*
X10770929Y-17875014D01*
X10799500Y-17889300D01*
X10813786Y-17903586D01*
X10828071Y-17932157D01*
X10828071Y-18017872D01*
X10813786Y-18046443D01*
X10799500Y-18060729D01*
X10770929Y-18075014D01*
X10728071Y-18075014D01*
X10913786Y-17875014D02*
X11028071Y-17875014D01*
X10956643Y-17775014D02*
X10956643Y-18032157D01*
X10970929Y-18060729D01*
X10999500Y-18075014D01*
X11028071Y-18075014D01*
X11356643Y-17875014D02*
X11356643Y-18175014D01*
X11356643Y-17889300D02*
X11385214Y-17875014D01*
X11442357Y-17875014D01*
X11470928Y-17889300D01*
X11485214Y-17903586D01*
X11499500Y-17932157D01*
X11499500Y-18017872D01*
X11485214Y-18046443D01*
X11470928Y-18060729D01*
X11442357Y-18075014D01*
X11385214Y-18075014D01*
X11356643Y-18060729D01*
X11670928Y-18075014D02*
X11642357Y-18060729D01*
X11628071Y-18032157D01*
X11628071Y-17775014D01*
X11913786Y-18075014D02*
X11913786Y-17917872D01*
X11899500Y-17889300D01*
X11870929Y-17875014D01*
X11813786Y-17875014D01*
X11785214Y-17889300D01*
X11913786Y-18060729D02*
X11885214Y-18075014D01*
X11813786Y-18075014D01*
X11785214Y-18060729D01*
X11770929Y-18032157D01*
X11770929Y-18003586D01*
X11785214Y-17975014D01*
X11813786Y-17960729D01*
X11885214Y-17960729D01*
X11913786Y-17946443D01*
X12013786Y-17875014D02*
X12128071Y-17875014D01*
X12056643Y-17775014D02*
X12056643Y-18032157D01*
X12070929Y-18060729D01*
X12099500Y-18075014D01*
X12128071Y-18075014D01*
X12342357Y-18060729D02*
X12313786Y-18075014D01*
X12256643Y-18075014D01*
X12228071Y-18060729D01*
X12213786Y-18032157D01*
X12213786Y-17917872D01*
X12228071Y-17889300D01*
X12256643Y-17875014D01*
X12313786Y-17875014D01*
X12342357Y-17889300D01*
X12356643Y-17917872D01*
X12356643Y-17946443D01*
X12213786Y-17975014D01*
X12613786Y-18075014D02*
X12613786Y-17775014D01*
X12613786Y-18060729D02*
X12585214Y-18075014D01*
X12528071Y-18075014D01*
X12499500Y-18060729D01*
X12485214Y-18046443D01*
X12470929Y-18017872D01*
X12470929Y-17932157D01*
X12485214Y-17903586D01*
X12499500Y-17889300D01*
X12528071Y-17875014D01*
X12585214Y-17875014D01*
X12613786Y-17889300D01*
X12728071Y-18189300D02*
X12742357Y-18175014D01*
X12770929Y-18132157D01*
X12785214Y-18103586D01*
X12799500Y-18060729D01*
X12813786Y-17989300D01*
X12813786Y-17932157D01*
X12799500Y-17860729D01*
X12785214Y-17817872D01*
X12770929Y-17789300D01*
X12742357Y-17746443D01*
X12728071Y-17732157D01*
M02*
